<svg width="508" height="288" viewBox="0 0 508 288" fill="none" xmlns="http://www.w3.org/2000/svg">
<path d="M1.93275e-05 256C1.63597e-05 188.105 26.7606 122.99 74.3949 74.9807C122.029 26.9714 186.635 -1.21148e-06 254 -4.1561e-06C321.365 -7.10071e-06 385.971 26.9713 433.605 74.9806C481.239 122.99 508 188.105 508 256L254 256L1.93275e-05 256Z" fill="url(#paint0_radial_0_1)"/>
<g clip-path="url(#clip0_0_1)">
<path d="M352.496 223.819C350.501 211.452 338.847 203.033 326.464 205.026C322.436 205.673 249.821 218.16 244.504 219.246C239.195 218.16 166.572 205.673 162.544 205.026C150.161 203.033 138.5 211.452 136.512 223.819C134.606 235.644 142.29 246.837 153.794 249.529C157.763 250.451 195.441 257.635 195.441 257.635C199.67 258.475 208.092 260.156 215.613 261.651C225.129 263.547 234.809 264.499 244.504 264.499C254.206 264.499 263.886 263.547 273.395 261.651C280.916 260.156 289.337 258.475 293.567 257.635C293.567 257.635 331.245 250.458 335.213 249.529C346.718 246.844 354.395 235.644 352.496 223.819Z" fill="#282828"/>
<path d="M301.066 191.253C298.586 187.289 296.338 183.221 294.178 179.109C292.026 174.996 289.964 170.846 287.983 166.659C286.002 162.472 284.066 158.263 282.242 154.009C280.41 149.755 278.631 145.479 277.059 141.113C273.872 132.271 278.467 122.528 287.32 119.345C295.407 116.438 304.253 120.022 308.147 127.407C310.314 131.512 312.287 135.699 314.194 139.916C316.107 144.133 317.917 148.394 319.681 152.678C321.446 156.961 323.122 161.275 324.715 165.64C326.301 169.998 327.798 174.401 329.056 178.9C331.357 187.111 326.554 195.633 318.334 197.931C311.587 199.828 304.61 196.905 301.066 191.253Z" fill="#FFF2EC"/>
<path d="M286.724 167.217C284.736 163.03 277.379 146.044 275.831 141.664C272.443 132.092 277.469 121.599 287.045 118.215C295.734 115.151 305.183 118.988 309.398 126.872C311.595 130.962 319.569 147.702 321.327 151.986L286.724 167.217Z" fill="#499F33"/>
<path d="M187.928 191.253C190.408 187.289 192.657 183.221 194.816 179.109C196.968 174.996 199.03 170.846 201.011 166.659C202.992 162.472 204.928 158.263 206.752 154.009C208.584 149.755 210.364 145.479 211.935 141.113C215.122 132.271 210.527 122.528 201.674 119.345C193.587 116.438 184.741 120.022 180.847 127.407C178.68 131.512 176.707 135.699 174.801 139.916C172.887 144.133 171.077 148.394 169.313 152.678C167.548 156.961 165.873 161.275 164.279 165.64C162.693 169.998 161.196 174.401 159.938 178.9C157.637 187.111 162.44 195.633 170.66 197.931C177.414 199.828 184.391 196.905 187.928 191.253Z" fill="#FFF2EC"/>
<path d="M202.277 167.217C204.265 163.03 211.622 146.044 213.171 141.664C216.559 132.092 211.533 121.599 201.957 118.215C193.267 115.151 183.818 118.988 179.604 126.872C177.407 130.962 169.432 147.702 167.675 151.986L202.277 167.217Z" fill="#499F33"/>
<path d="M190.259 221.73C191.979 201.709 199.432 190.309 197.437 174.222C196.849 169.455 196.164 160.955 196.089 159.772L192.545 117.263C198.033 115.5 223.997 105.892 244.489 105.892C264.981 105.892 290.946 115.5 296.434 117.263L292.89 159.772C292.823 160.962 292.138 169.455 291.542 174.222C289.554 190.309 297 201.709 298.72 221.73" fill="#38EF08"/>
<path d="M256.344 96.7297H244.504H232.665L231.868 113.031C234.884 116.43 240.066 119.42 244.504 119.42C248.942 119.42 254.132 116.43 257.141 113.031L256.344 96.7297Z" fill="#FFF2EC"/>
<path d="M256.552 100.976C251.615 108.621 241.101 110.986 232.099 108.22L232.657 96.7297H256.343L256.552 100.976Z" fill="#2D2D2D"/>
<path d="M277.931 72.8274C274.632 77.0962 269.174 77.9737 265.734 74.7907C262.301 71.6077 262.189 65.5689 265.488 61.3076C268.787 57.0388 274.245 56.1612 277.685 59.3442C281.118 62.5272 281.229 68.566 277.931 72.8274Z" fill="#FFF2EC"/>
<path d="M276.501 62.6165C276.501 62.6165 268.564 62.267 267.916 70.6037L276.501 62.6165Z" fill="#2D2D2D"/>
<path d="M205.315 80.4354C209.425 83.9233 214.95 83.6556 217.653 79.8256C220.356 76.003 219.21 70.0757 215.092 66.5804C210.982 63.0925 205.457 63.3602 202.754 67.1902C200.058 71.0128 201.205 76.9475 205.315 80.4354Z" fill="#FFF2EC"/>
<path d="M204.593 70.1501C204.593 70.1501 212.285 68.1644 214.653 76.1889L204.593 70.1501Z" fill="#2D2D2D"/>
<path d="M236.425 27.1647C221.056 28.9941 210.013 43.7639 211.719 59.9689L213.558 77.4606C215.27 93.7549 229.016 105.669 244.504 104.048C259.992 102.426 270.961 87.9244 269.255 71.63L267.416 54.1384C265.711 37.9333 251.846 25.7665 236.425 27.1647Z" fill="#FFF2EC"/>
<path d="M266.806 40.6552L266.843 40.6255C269.017 37.5764 265.823 33.0621 262.226 34.0141C263.544 30.3625 259.032 26.7556 255.808 29.0165C255.77 25.3426 250.67 23.0669 248.272 26.1309C247.2 22.6579 241.891 21.6985 240.245 25.1864C239.352 23.5949 237.631 22.9331 235.993 23.1041C234.355 23.2751 232.806 24.2866 232.27 26.0194C229.94 22.9479 224.943 24.9931 224.615 28.6074C221.63 26.1161 217.11 29.3957 217.839 32.9952C214.221 31.4483 210.55 35.9105 212.597 39.2125C208.889 39.0266 206.692 44.106 209.455 46.6345L209.5 46.6568C205.784 48.0327 205.769 53.9525 209.902 55.2688L213.364 75.6609C216.469 71.7639 217.259 65.6805 216.849 61.7984C216.283 56.4215 219.418 51.2157 224.243 49.1408C227.251 47.8393 230.617 48.3897 233.38 49.349C235.144 49.9663 236.999 50.1745 238.823 49.9812C240.647 49.7878 242.419 49.2077 244.013 48.2335C246.515 46.7163 249.694 45.4818 252.904 46.1363C258.049 47.17 262.196 51.6024 262.762 56.9867C263.172 60.8688 265.197 66.6547 269.047 69.8229L268.198 49.1557C271.973 47.0213 270.73 41.2279 266.806 40.6552Z" fill="#2D2D2D"/>
<path d="M239.604 71.1541C239.604 71.1541 240.505 76.1591 237.966 80.7849C237.4 81.8186 237.884 83.1127 238.927 83.6556L241.428 84.9496" stroke="#2D2D2D" stroke-width="0.75" stroke-miterlimit="10" stroke-linecap="round" stroke-linejoin="round"/>
<path d="M248.576 87.1004C248.123 89.3517 247.457 91.217 246.632 92.5712C245.724 94.0608 244.67 94.8633 243.554 94.9911C242.437 95.1188 241.231 94.575 240.011 93.329C238.902 92.1962 237.832 90.53 236.881 88.4393L248.576 87.1004Z" fill="white" stroke="black"/>
<path d="M257.177 64.7286C256.999 64.7286 256.82 64.6617 256.671 64.5352C255.532 63.5089 254.057 62.9437 252.516 62.9363C252.509 62.9363 252.494 62.9363 252.486 62.9363C250.952 62.9363 249.485 63.4866 248.346 64.498C248.033 64.7732 247.557 64.7435 247.281 64.4311C247.006 64.1188 247.036 63.6428 247.348 63.3676C248.763 62.1182 250.587 61.4266 252.486 61.4266C252.501 61.4266 252.509 61.4266 252.523 61.4266C254.437 61.434 256.269 62.1405 257.684 63.4123C257.996 63.6874 258.019 64.1708 257.736 64.4757C257.587 64.6468 257.386 64.7286 257.177 64.7286Z" fill="#2D2D2D"/>
<path d="M223.647 68.2463C223.491 68.2463 223.342 68.2016 223.208 68.105C222.873 67.8595 222.798 67.391 223.037 67.0563C224.154 65.5169 225.799 64.446 227.668 64.0444C229.537 63.6354 231.481 63.9328 233.134 64.8699C233.499 65.0781 233.625 65.5318 233.417 65.8962C233.208 66.2606 232.754 66.387 232.389 66.1788C231.056 65.4277 229.492 65.1897 227.988 65.5169C226.477 65.8441 225.151 66.7068 224.258 67.9413C224.109 68.1347 223.878 68.2463 223.647 68.2463Z" fill="#2D2D2D"/>
<path d="M266.507 76.7913C266.857 80.1379 264.43 83.1276 261.079 83.4845C257.728 83.8341 254.735 81.4096 254.377 78.063C254.027 74.7164 256.455 71.7267 259.806 71.3698C263.156 71.0202 266.157 73.4447 266.507 76.7913Z" fill="#FFFDFD"/>
<path d="M225.385 87.0547C228.564 85.9429 230.239 82.468 229.126 79.2931C228.012 76.1183 224.533 74.4458 221.354 75.5576C218.176 76.6694 216.501 80.1443 217.614 83.3192C218.727 86.494 222.207 88.1664 225.385 87.0547Z" fill="#FFFDFD"/>
<path d="M249.114 71.7714C249.352 74.0471 251.392 75.6981 253.678 75.4601C255.957 75.2221 257.61 73.1844 257.371 70.9012C257.133 68.6255 255.093 66.9745 252.807 67.2125C250.528 67.4579 248.875 69.4957 249.114 71.7714Z" fill="#2D2D2D"/>
<path d="M233.283 73.4298C233.521 75.7055 231.868 77.7432 229.589 77.9886C227.311 78.2266 225.271 76.5756 225.025 74.2999C224.787 72.0242 226.44 69.9865 228.718 69.7411C230.997 69.5031 233.044 71.1541 233.283 73.4298Z" fill="#2D2D2D"/>
<path d="M272.248 201.218C274.653 197.991 277.304 195.172 280.044 192.48C282.777 189.788 285.637 187.289 288.555 184.902C291.482 182.515 294.468 180.231 297.543 178.09C300.626 175.963 303.768 173.932 307.119 172.229C314.587 168.444 323.716 171.419 327.514 178.878C330.917 185.571 328.862 193.596 323.016 197.917C320.001 200.148 316.776 202.051 313.485 203.851C310.194 205.643 306.813 207.287 303.366 208.834C299.918 210.373 296.411 211.816 292.777 213.051C289.144 214.293 285.428 215.401 281.467 216.107C276.344 217.022 271.444 213.608 270.528 208.492C270.052 205.844 270.759 203.226 272.248 201.218Z" fill="#FFF2EC"/>
<path d="M294.714 180.12C295.645 179.436 296.59 178.759 297.536 178.097C300.619 175.97 303.761 173.94 307.112 172.237C312.778 169.366 319.398 170.378 323.918 174.289" stroke="#2D2D2D" stroke-width="0.75" stroke-miterlimit="10" stroke-linecap="round" stroke-linejoin="round"/>
<path d="M216.752 201.218C214.347 197.991 211.689 195.172 208.956 192.48C206.223 189.788 203.364 187.289 200.445 184.902C197.519 182.515 194.533 180.231 191.457 178.09C188.375 175.963 185.232 173.932 181.882 172.229C174.413 168.444 165.284 171.419 161.487 178.878C158.084 185.571 160.139 193.596 165.984 197.917C169 200.148 172.224 202.051 175.515 203.851C178.806 205.643 182.187 207.287 185.635 208.834C189.082 210.373 192.589 211.816 196.223 213.051C199.857 214.293 203.572 215.401 207.534 216.107C212.657 217.022 217.556 213.608 218.472 208.492C218.949 205.844 218.241 203.226 216.752 201.218Z" fill="#FFF2EC"/>
<path d="M194.279 180.12C193.348 179.436 192.403 178.759 191.457 178.097C188.374 175.97 185.232 173.94 181.881 172.237C176.215 169.366 169.595 170.378 165.075 174.289" stroke="#2D2D2D" stroke-width="0.75" stroke-miterlimit="10" stroke-linecap="round" stroke-linejoin="round"/>
<path d="M298.459 228.594H190.534C188.784 228.594 187.369 227.181 187.369 225.433V153.384C187.369 151.637 188.784 150.223 190.534 150.223H298.459C300.209 150.223 301.624 151.637 301.624 153.384V225.433C301.624 227.181 300.209 228.594 298.459 228.594Z" fill="black"/>
<path d="M301.624 228.594H187.377V232.587H301.624V228.594Z" fill="#2D2D2D"/>
<path d="M244.496 197.597C249.02 197.597 252.687 193.934 252.687 189.416C252.687 184.898 249.02 181.235 244.496 181.235C239.973 181.235 236.306 184.898 236.306 189.416C236.306 193.934 239.973 197.597 244.496 197.597Z" fill="#2D2D2D"/>
<path d="M218.219 253.798C214.399 251.388 208.755 250.89 203.856 252.37C202.009 252.92 199.738 253.664 197.4 254.697C191.852 257.152 185.955 257.583 179.924 256.981C174.883 256.475 171.1 256.713 167.95 257.003C158.59 257.866 149.156 266.693 153.475 280.645C155.53 287.293 162.187 289.138 172.276 287.375C177.34 286.49 182.157 285.62 185.419 285.635C191.614 285.672 200.609 285.278 210.513 283.441L218.219 253.798Z" fill="#2D2D2D"/>
<path d="M178.271 282.72C176.38 278.139 175.918 273.096 176.938 268.255" stroke="white" stroke-width="0.75" stroke-miterlimit="10" stroke-linecap="round" stroke-linejoin="round"/>
<path d="M184.846 282.117C182.955 277.536 182.493 272.494 183.513 267.653" stroke="white" stroke-width="0.75" stroke-miterlimit="10" stroke-linecap="round" stroke-linejoin="round"/>
<path d="M191.421 281.508C189.53 276.926 189.068 271.884 190.088 267.043" stroke="white" stroke-width="0.75" stroke-miterlimit="10" stroke-linecap="round" stroke-linejoin="round"/>
<path d="M237.259 244.144C228.681 248.413 206.223 258.795 203.662 259.888C198.204 262.216 195.061 268.21 196.506 274.16C198.114 280.794 204.808 284.862 211.443 283.248L249.448 273.803L237.259 244.144Z" fill="#FFF2EC"/>
<path d="M353.16 222.049C350.383 211.771 340.576 204.863 330.077 204.736C322.772 204.647 315.251 207.183 308.684 209.585C297.835 213.549 230.625 245.847 219.821 250.704L219.478 256.691C218.957 265.838 222.814 274.695 229.866 280.556C254.371 274.405 327.113 254.259 337.128 251.157C349.482 247.313 356.533 234.521 353.16 222.049Z" fill="#282828"/>
<path d="M219.471 256.691C218.949 265.838 222.807 274.695 229.858 280.556C235.42 279.157 243.462 277.045 252.696 274.569L219.471 256.691Z" fill="#2D2D2D"/>
<path d="M308.676 209.585C297.827 213.549 230.617 245.847 219.813 250.704L219.471 256.691C219.299 259.74 219.612 262.752 220.364 265.63" stroke="#2D2D2D" stroke-width="0.75" stroke-miterlimit="10" stroke-linecap="round" stroke-linejoin="round"/>
<path d="M270.774 253.798C274.594 251.388 280.239 250.89 285.138 252.37C286.985 252.92 289.256 253.664 291.594 254.697C297.141 257.152 303.039 257.583 309.07 256.981C314.111 256.475 317.894 256.713 321.044 257.003C330.404 257.866 339.838 266.693 335.519 280.645C333.464 287.293 326.807 289.138 316.717 287.375C311.654 286.49 306.836 285.62 303.575 285.635C297.38 285.672 288.385 285.278 278.481 283.441L270.774 253.798Z" fill="#2D2D2D"/>
<path d="M310.731 282.72C312.623 278.139 313.084 273.096 312.064 268.255" stroke="white" stroke-width="0.75" stroke-miterlimit="10" stroke-linecap="round" stroke-linejoin="round"/>
<path d="M304.156 282.117C306.048 277.536 306.509 272.494 305.489 267.653" stroke="white" stroke-width="0.75" stroke-miterlimit="10" stroke-linecap="round" stroke-linejoin="round"/>
<path d="M297.581 281.508C299.472 276.926 299.934 271.884 298.914 267.043" stroke="white" stroke-width="0.75" stroke-miterlimit="10" stroke-linecap="round" stroke-linejoin="round"/>
<path d="M251.741 244.144C260.319 248.413 282.777 258.795 285.338 259.888C290.796 262.216 293.939 268.21 292.494 274.16C290.886 280.794 284.192 284.862 277.557 283.248L239.552 273.803L251.741 244.144Z" fill="#FFF2EC"/>
<path d="M135.842 222.049C138.619 211.771 148.426 204.863 158.925 204.736C166.23 204.647 173.75 207.183 180.318 209.585C191.167 213.549 258.376 245.847 269.188 250.704L269.531 256.691C270.052 265.838 266.195 274.695 259.143 280.556C234.638 274.405 161.896 254.259 151.881 251.157C139.52 247.313 132.469 234.521 135.842 222.049Z" fill="#282828"/>
<path d="M180.325 209.585C191.174 213.549 258.384 245.847 269.196 250.704L269.538 256.691C269.709 259.74 269.397 262.752 268.644 265.63" stroke="#2D2D2D" stroke-width="0.75" stroke-miterlimit="10" stroke-linecap="round" stroke-linejoin="round"/>
</g>
<defs>
<radialGradient id="paint0_radial_0_1" cx="0" cy="0" r="1" gradientTransform="matrix(-223.52 -5.17171 -24.8355 225.28 254 256)" gradientUnits="userSpaceOnUse">
<stop stop-color="#5DD62C" stop-opacity="0.43"/>
<stop offset="1" stop-color="#5DD62C" stop-opacity="0"/>
</radialGradient>
<clipPath id="clip0_0_1">
<rect width="219" height="265" fill="white" transform="translate(135 23)"/>
</clipPath>
</defs>
</svg>
