<svg width="1097" height="471" viewBox="0 0 1097 471" fill="none" xmlns="http://www.w3.org/2000/svg">
<path d="M91.0411 200.473C101.645 182.249 97.5762 143.886 97.5762 143.886L99.9657 146.07C89.3363 118.255 98.2349 107.023 98.2349 107.023C124.466 67.949 163.729 93.7869 163.729 93.7869C163.729 93.7869 192.53 98.3884 181.875 132.848C181.229 134.941 180.958 137.488 180.881 140.15C180.971 140.461 185.414 156.798 187.003 159.862C188.152 162.085 182.379 165.148 179.034 166.699C171.569 199.31 169.89 198.16 169.89 198.16C156.703 198.793 146.203 196.635 137.705 192.809C136.529 198.948 135.328 205.54 135.328 205.54C132.5 227.992 164.168 242.442 164.168 242.442L104.047 265.165L44.3131 227.022C44.326 227.022 78.1127 222.679 91.0411 200.473Z" fill="white" stroke="#7E4F4F" stroke-miterlimit="10"/>
<path d="M391.699 400.792L190.735 382.515L73.9798 415.152L73.4374 423.463L274.401 441.739L391.157 409.103L391.699 400.792Z" fill="white" stroke="#7E4F4F" stroke-miterlimit="10" stroke-linejoin="round"/>
<path d="M386.249 401.554L189.353 389.999L219.459 266.406L411.912 275.389L386.249 401.554Z" fill="white" stroke="#7E4F4F" stroke-miterlimit="10" stroke-linejoin="round"/>
<path d="M307.103 275.105C306.793 276.462 307.478 277.768 308.627 278.026C309.777 278.285 310.965 277.406 311.275 276.048C311.585 274.691 310.9 273.386 309.751 273.127C308.601 272.869 307.413 273.748 307.103 275.105Z" fill="#7E4F4F"/>
<path d="M411.912 275.389L219.459 266.406L411.912 275.389L386.249 401.554L391.686 401.011L415.554 279.215L411.912 275.389Z" fill="white"/>
<path d="M411.912 275.389L219.459 266.406L411.912 275.389ZM411.912 275.389L386.249 401.554L391.686 401.011L415.554 279.215L411.912 275.389Z" stroke="#7E4F4F" stroke-miterlimit="10" stroke-linejoin="round"/>
<path d="M397.02 285.445L228.706 277.496L206.298 375.174L375.271 390.348L397.02 285.445Z" fill="#38EF08" stroke="#7E4F4F" stroke-miterlimit="10"/>
<path d="M391.699 400.792L274.944 433.428L73.9798 415.152L190.735 382.515L391.699 400.792Z" fill="white" stroke="#7E4F4F" stroke-miterlimit="10" stroke-linejoin="round"/>
<path d="M304.998 419.663L363.195 403.39L191.213 387.75L134.682 403.558L304.998 419.663Z" fill="white" stroke="#7E4F4F" stroke-miterlimit="10" stroke-linejoin="round"/>
<path d="M350.796 406.867L178.194 391.395" stroke="#7E4F4F" stroke-miterlimit="10" stroke-linejoin="round"/>
<path d="M336.292 410.951L163.703 395.479" stroke="#7E4F4F" stroke-miterlimit="10" stroke-linejoin="round"/>
<path d="M321.801 415.036L149.212 399.564" stroke="#7E4F4F" stroke-miterlimit="10" stroke-linejoin="round"/>
<path d="M342.388 401.722L285.366 417.595" stroke="#7E4F4F" stroke-miterlimit="10" stroke-linejoin="round"/>
<path d="M323.105 400.042L266.084 415.914" stroke="#7E4F4F" stroke-miterlimit="10" stroke-linecap="round" stroke-linejoin="round"/>
<path d="M306.535 398.426L249.513 414.299" stroke="#7E4F4F" stroke-miterlimit="10" stroke-linecap="round" stroke-linejoin="round"/>
<path d="M289.977 396.811L232.956 412.683" stroke="#7E4F4F" stroke-miterlimit="10" stroke-linecap="round" stroke-linejoin="round"/>
<path d="M273.407 395.195L216.398 411.067" stroke="#7E4F4F" stroke-miterlimit="10" stroke-linecap="round" stroke-linejoin="round"/>
<path d="M256.1 393.786L199.828 409.452" stroke="#7E4F4F" stroke-miterlimit="10" stroke-linecap="round" stroke-linejoin="round"/>
<path d="M239.607 392.158L182.766 407.978" stroke="#7E4F4F" stroke-miterlimit="10" stroke-linecap="round" stroke-linejoin="round"/>
<path d="M222.74 390.619L166.183 406.363" stroke="#7E4F4F" stroke-miterlimit="10" stroke-linecap="round" stroke-linejoin="round"/>
<path d="M205.614 389.159L149.638 404.747" stroke="#7E4F4F" stroke-miterlimit="10" stroke-linecap="round" stroke-linejoin="round"/>
<path d="M304.688 298.616L241.506 294.816C241.002 294.79 240.563 295.126 240.434 295.618L234.144 320.887C233.989 321.52 234.428 322.141 235.074 322.192L287.097 326.018C287.33 326.044 287.549 326.134 287.717 326.29L295.686 335.505C296.306 336.061 297.287 335.725 297.429 334.898L305.669 299.87C305.799 299.237 305.321 298.642 304.688 298.616Z" fill="white" stroke="#7E4F4F" stroke-miterlimit="10" stroke-linejoin="round"/>
<path d="M295.13 346.233L230.114 341.218L225.775 356.199L228.797 356.522L231.754 356.845L291.256 362.183L295.13 346.233Z" fill="white" stroke="#7E4F4F" stroke-miterlimit="10" stroke-linejoin="round"/>
<path d="M306.767 362.08L321.233 299.069L366.527 300.956L372.998 305.182L359.307 371.244L313.238 366.32L306.767 362.08Z" fill="white" stroke="#7E4F4F" stroke-miterlimit="10" stroke-linejoin="round"/>
<path d="M366.527 300.956L321.233 299.069L306.767 362.08L352.837 367.005L366.527 300.956Z" fill="white" stroke="#7E4F4F" stroke-miterlimit="10" stroke-linejoin="round"/>
<path d="M359.307 371.244L352.837 367.005" stroke="#7E4F4F" stroke-miterlimit="10"/>
<path d="M336.654 299.715L334.251 312.627C334.187 312.963 333.748 313.054 333.554 312.77L331.5 309.732C331.345 309.499 331.022 309.461 330.803 309.642L327.987 312.02C327.703 312.253 327.29 312.007 327.367 311.645L330.067 299.443L336.654 299.715Z" fill="#7E4F4F"/>
<path d="M351.222 328.047L322.808 325.824" stroke="#7E4F4F" stroke-miterlimit="10" stroke-linecap="round" stroke-linejoin="round"/>
<path d="M350.292 334.148L321.865 331.938" stroke="#7E4F4F" stroke-miterlimit="10" stroke-linecap="round" stroke-linejoin="round"/>
<path d="M281.259 306.488L271.702 305.79" stroke="#7E4F4F" stroke-miterlimit="10" stroke-linecap="round" stroke-linejoin="round"/>
<path d="M280.962 310.702L245.432 308.84" stroke="#7E4F4F" stroke-miterlimit="10" stroke-linecap="round" stroke-linejoin="round"/>
<path d="M280.394 315.135L244.864 313.287" stroke="#7E4F4F" stroke-miterlimit="10" stroke-linecap="round" stroke-linejoin="round"/>
<path d="M286.697 310.74C286.025 313.7 287.523 316.57 290.042 317.138C292.56 317.72 295.156 315.781 295.828 312.821C296.499 309.861 295.001 306.992 292.483 306.423C289.964 305.854 287.368 307.78 286.697 310.74Z" fill="white" stroke="#7E4F4F" stroke-miterlimit="10" stroke-linejoin="round"/>
<path d="M286.929 351.585C286.761 352.334 287.136 353.058 287.782 353.213C288.427 353.368 289.073 352.864 289.254 352.115C289.422 351.365 289.047 350.641 288.402 350.486C287.756 350.344 287.097 350.835 286.929 351.585Z" fill="#7E4F4F"/>
<path d="M282.254 351.055C282.086 351.804 282.46 352.528 283.106 352.683C283.752 352.826 284.398 352.334 284.579 351.585C284.747 350.835 284.372 350.111 283.726 349.956C283.08 349.814 282.422 350.305 282.254 351.055Z" fill="#7E4F4F"/>
<path d="M277.565 350.525C277.398 351.274 277.772 351.998 278.418 352.153C279.064 352.296 279.709 351.804 279.89 351.055C280.058 350.305 279.684 349.581 279.038 349.426C278.392 349.284 277.733 349.775 277.565 350.525Z" fill="#7E4F4F"/>
<path d="M46.3021 237.944C46.3021 237.944 48.924 223.726 50.3447 273.425C51.662 319.943 52.1786 368.763 52.1786 368.763C52.1786 368.763 77.3637 369.499 104.318 381.274L121.767 388.525C121.767 388.525 76.4725 413.627 44.2356 423.657C14.556 432.886 11.7663 410.201 15.3051 355.087C15.2922 355.087 32.1856 241.874 46.3021 237.944Z" fill="white" stroke="#7E4F4F" stroke-miterlimit="10" stroke-linejoin="round"/>
<path d="M165.421 81.7016C165.421 81.7016 203.263 101.904 181.604 122.184L155.889 96.4625L165.421 81.7016Z" fill="#7E4F4F"/>
<path d="M108.839 178.487C108.839 178.487 100.327 178.268 95.2385 189.797C95.2385 189.797 100.818 176.704 91.0798 165.872L108.839 178.487Z" fill="#525252"/>
<path d="M165.421 81.7016C165.421 81.7016 211.71 127.057 183.968 114.351C126.003 87.7895 128.974 154.717 128.974 154.717C128.974 154.717 120.992 147.44 123.937 155.053L108.839 178.474C108.839 178.474 76.5629 166.26 74.8451 125.583C74.2639 111.844 87.7735 48.8452 165.421 81.7016Z" fill="#525252"/>
<path d="M145.557 108.612C144.692 115.553 145.557 143.278 133.313 145.308C121.069 147.337 135.418 110.5 135.418 110.5L145.557 108.612Z" fill="#525252"/>
<path d="M184.432 257.591C199.091 323.524 205.872 391.641 205.872 391.641C205.872 391.641 234.828 383.42 262.3 378.974L292.315 370.908C293.284 370.469 303.693 365.66 307.064 362.326C310.603 358.81 312.553 368.478 306.987 372.886C305.308 374.217 304.003 375.393 302.944 376.414L310.177 377.539C311.417 377.733 312.579 378.276 313.509 379.129C318.546 383.704 334.975 398.879 331.862 399.822C331.087 400.055 330.222 400.068 329.279 399.926C334.897 404.566 335.336 409.413 333.773 409.568C331.423 409.814 328.452 408.12 325.495 405.729C328.091 408.741 331.32 415.385 327.716 415.217C322.886 414.997 318.83 411.235 314.969 404.876C314.969 404.876 315.924 406.531 315.498 406.143L318.365 410.783C318.365 410.783 312.528 415.915 308.278 418.306C304.223 420.581 301.859 412.205 307.594 408.754C307.594 408.754 305.527 406.686 303.861 402.278C303.861 402.278 287.756 410.072 279.529 403.894L274.143 404.411C260.078 413.226 188.643 445.359 178.853 444.622C156.626 442.967 152.402 399.228 141.657 303.631C141.657 303.657 177.871 228.03 184.432 257.591Z" fill="white" stroke="#7E4F4F" stroke-miterlimit="10" stroke-linejoin="round"/>
<path d="M205.872 391.641C205.872 391.641 212.795 395.324 214.19 405.561" stroke="#7E4F4F" stroke-miterlimit="10"/>
<path d="M30.4677 354.738C19.0117 352.838 0.516846 346.505 0.503937 346.44C0.503937 346.44 7.59451 257.009 30.1448 230.525C31.2943 228.056 35.0785 222.951 47.1803 221.167C50.7708 220.637 54.2967 219.978 57.6805 219.254C69.511 216.708 79.146 213.166 81.8969 211.421C81.8969 211.421 81.884 211.525 81.8582 211.693C81.9227 211.654 82.0003 211.615 82.0648 211.576C82.0648 211.576 81.5224 213.968 82.3748 216.759C82.4523 217.005 82.5298 217.251 82.6331 217.509C82.6719 217.613 82.7235 217.729 82.7752 217.832C82.956 218.233 83.1497 218.647 83.3951 219.047C87.0889 225.148 111.589 227.604 136.077 214.653C136.077 214.653 178.143 238.526 189.353 246.811C206.557 283.493 213.944 366.333 213.944 362.481C213.944 361.434 178.892 379.814 156.109 380.809C155.98 387.311 161.688 469.426 161.688 469.426C161.688 469.426 62.6271 474.48 18.7405 451.123C18.7405 451.123 36.0343 393.463 34.0065 377.371C33.7224 375.471 30.9585 359.43 30.4677 354.738Z" fill="#38EF08" stroke="#7E4F4F" stroke-miterlimit="10"/>
<path d="M161.366 81.1717C161.366 81.1717 209.876 69.849 206.828 82.3479C203.767 94.8468 191.226 105.756 191.226 105.756C191.226 105.756 205.523 105.394 198.019 112.658C190.516 119.922 184.239 119.379 184.239 119.379L161.366 81.1717Z" fill="#525252"/>
<path d="M137.704 192.809C137.704 192.809 132.719 191.555 123.562 183.593" stroke="#7E4F4F" stroke-miterlimit="10"/>
<path d="M128.767 133.998C128.767 133.998 132.138 71.4389 164.995 79.1166" stroke="white" stroke-width="2" stroke-miterlimit="10"/>
<path d="M109.196 152.011C108.449 140.4 117.017 130.395 128.335 129.666C139.653 128.936 149.433 137.757 150.181 149.368C150.929 160.98 142.36 170.984 131.042 171.714C119.725 172.444 109.944 163.623 109.196 152.011Z" fill="#38EF08" stroke="#7E4F4F" stroke-miterlimit="10"/>
<path d="M115.813 151.266C116.355 159.603 123.02 165.963 130.717 165.471C138.415 164.98 144.214 157.807 143.684 149.47C143.142 141.133 136.478 134.773 128.767 135.265C121.082 135.769 115.283 142.929 115.813 151.266Z" fill="white" stroke="#7E4F4F" stroke-miterlimit="10"/>
<path d="M174.759 144.636C174.746 146.316 173.687 147.673 172.395 147.66C171.104 147.647 170.07 146.277 170.083 144.597C170.096 142.916 171.155 141.559 172.447 141.572C173.738 141.585 174.772 142.955 174.759 144.636Z" fill="#7E4F4F"/>
<path d="M163.342 135.795C165.227 133.209 167.901 132.292 170.032 131.607C172.395 130.844 174.72 130.082 175.715 131.18C176.309 131.839 176.347 133.08 175.831 133.856C175.12 134.954 173.519 134.903 172.021 135.058C166.222 135.665 162.902 139.142 162.244 138.289C161.869 137.798 162.825 136.493 163.342 135.795Z" fill="#7E4F4F"/>
<path d="M174.333 174.855C174.333 174.855 167.965 174.597 163.819 170.344" stroke="#7E4F4F" stroke-miterlimit="10"/>
<path d="M198.471 72.111C198.045 72.0593 178.93 66.8503 164.452 83.2139" stroke="#525252" stroke-miterlimit="10"/>
<path d="M83.8343 83.886L85.3066 98.802C85.3066 98.802 81.4707 91.4086 73.8636 96.3979" stroke="#525252" stroke-miterlimit="10"/>
<path d="M179.408 100.069C179.408 100.069 195.617 122.985 187.351 122.947C174.862 122.882 162.515 106.635 164.775 105.795C167.035 104.942 179.408 100.069 179.408 100.069Z" fill="#525252"/>
<path d="M325.495 405.729L319.14 392.261L312.269 386.806" fill="white"/>
<path d="M325.495 405.729L319.14 392.261L312.269 386.806" stroke="#7E4F4F" stroke-miterlimit="10"/>
<path d="M329.292 399.926L321.93 391.589" stroke="#7E4F4F" stroke-miterlimit="10"/>
<path d="M302.97 388.474L311.184 394.303L315.498 406.156" fill="white"/>
<path d="M302.97 388.474L311.184 394.303L315.498 406.156" stroke="#7E4F4F" stroke-miterlimit="10" stroke-linejoin="round"/>
<path d="M189.314 246.811C189.314 246.811 137.007 233.86 138.169 300.167L140.572 379.659C140.572 379.659 150.336 381.675 160.487 380.486" stroke="#7E4F4F" stroke-miterlimit="10"/>
<path d="M32.4309 263.446C32.4309 263.446 21.4657 289.995 21.2719 313.325C21.1686 325.876 30.4936 354.881 30.4936 354.881" stroke="#7E4F4F" stroke-miterlimit="10"/>
<path d="M302.957 376.401L293.981 375.122" stroke="#7E4F4F" stroke-miterlimit="10" stroke-linejoin="round"/>
<path d="M205.872 198.095C205.872 199.853 207.293 201.275 209.049 201.275C210.806 201.275 212.226 199.853 212.226 198.095C212.226 196.337 210.806 194.916 209.049 194.916C207.293 194.916 205.872 196.35 205.872 198.095Z" fill="white" stroke="#38EF08" stroke-miterlimit="10" stroke-linejoin="round"/>
<path d="M55.8471 174.946C55.8471 176.704 57.2678 178.125 59.0243 178.125C60.7808 178.125 62.2015 176.704 62.2015 174.946C62.2015 173.188 60.7808 171.766 59.0243 171.766C57.2678 171.766 55.8471 173.188 55.8471 174.946Z" fill="white" stroke="#38EF08" stroke-miterlimit="10" stroke-linejoin="round"/>
<path d="M242.371 99.668C242.371 101.426 243.792 102.848 245.548 102.848C247.305 102.848 248.725 101.426 248.725 99.668C248.725 97.9101 247.305 96.4883 245.548 96.4883C243.792 96.5013 242.371 97.9231 242.371 99.668Z" fill="white" stroke="#38EF08" stroke-miterlimit="10" stroke-linejoin="round"/>
<path d="M357.344 191.749C357.344 193.507 358.765 194.928 360.521 194.928C362.278 194.928 363.698 193.507 363.698 191.749C363.698 189.991 362.278 188.569 360.521 188.569C358.765 188.582 357.344 189.991 357.344 191.749Z" fill="white" stroke="#38EF08" stroke-miterlimit="10" stroke-linejoin="round"/>
<path d="M604.506 161.18C604.506 162.938 605.927 164.359 607.684 164.359C609.44 164.359 610.861 162.938 610.861 161.18C610.861 159.422 609.44 158 607.684 158C605.927 158.013 604.506 159.422 604.506 161.18Z" fill="white" stroke="#38EF08" stroke-miterlimit="10" stroke-linejoin="round"/>
<path d="M721.506 75.1797C721.506 76.9375 722.927 78.3593 724.684 78.3593C726.44 78.3593 727.861 76.9375 727.861 75.1797C727.861 73.4218 726.44 72 724.684 72C722.927 72.0129 721.506 73.4218 721.506 75.1797Z" fill="white" stroke="#38EF08" stroke-miterlimit="10" stroke-linejoin="round"/>
<path d="M938.506 130.18C938.506 131.938 939.927 133.359 941.684 133.359C943.44 133.359 944.861 131.938 944.861 130.18C944.861 128.422 943.44 127 941.684 127C939.927 127.013 938.506 128.422 938.506 130.18Z" fill="white" stroke="#38EF08" stroke-miterlimit="10" stroke-linejoin="round"/>
<path d="M273.42 160.314C269.351 160.094 266.123 156.747 266.123 152.623C266.123 148.371 269.571 144.92 273.82 144.92C274.595 144.92 275.344 145.036 276.054 145.256C277.359 139.879 282.189 135.872 287.975 135.872C293.71 135.872 298.501 139.801 299.858 145.114C300.4 144.985 300.968 144.92 301.549 144.92C305.799 144.92 309.247 148.371 309.247 152.623C309.247 156.669 306.122 159.991 302.157 160.301L273.42 160.314Z" fill="white" stroke="#38EF08" stroke-miterlimit="10" stroke-linejoin="round"/>
<path d="M444.801 75.442C440.733 75.2222 437.504 71.8746 437.504 67.7513C437.504 63.4989 440.952 60.0478 445.202 60.0478C445.976 60.0478 446.726 60.1641 447.436 60.3839C448.74 55.0069 453.571 51 459.357 51C465.091 51 469.883 54.9293 471.239 60.2417C471.781 60.1124 472.35 60.0478 472.931 60.0478C477.18 60.0478 480.629 63.4989 480.629 67.7513C480.629 71.797 477.503 75.1188 473.538 75.4291L444.801 75.442Z" fill="white" stroke="#38EF08" stroke-miterlimit="10" stroke-linejoin="round"/>
<path d="M731.801 212.442C727.733 212.222 724.504 208.875 724.504 204.751C724.504 200.499 727.952 197.048 732.202 197.048C732.976 197.048 733.726 197.164 734.436 197.384C735.74 192.007 740.571 188 746.357 188C752.091 188 756.883 191.929 758.239 197.242C758.781 197.112 759.35 197.048 759.931 197.048C764.18 197.048 767.629 200.499 767.629 204.751C767.629 208.797 764.503 212.119 760.538 212.429L731.801 212.442Z" fill="white" stroke="#38EF08" stroke-miterlimit="10" stroke-linejoin="round"/>
<path d="M817.801 77.442C813.733 77.2222 810.504 73.8746 810.504 69.7513C810.504 65.4989 813.952 62.0478 818.202 62.0478C818.976 62.0478 819.726 62.1641 820.436 62.3839C821.74 57.0069 826.571 53 832.357 53C838.091 53 842.883 56.9293 844.239 62.2417C844.781 62.1124 845.35 62.0478 845.931 62.0478C850.18 62.0478 853.629 65.4989 853.629 69.7513C853.629 73.797 850.503 77.1188 846.538 77.4291L817.801 77.442Z" fill="white" stroke="#38EF08" stroke-miterlimit="10" stroke-linejoin="round"/>
<path d="M1059.8 112.442C1055.74 112.222 1052.51 108.875 1052.51 104.751C1052.51 100.499 1055.95 97.0478 1060.2 97.0478C1060.98 97.0478 1061.73 97.1641 1062.44 97.3839C1063.74 92.0069 1068.57 88 1074.36 88C1080.09 88 1084.89 91.9293 1086.24 97.2417C1086.78 97.1124 1087.35 97.0478 1087.93 97.0478C1092.18 97.0478 1095.63 100.499 1095.63 104.751C1095.63 108.797 1092.51 112.119 1088.54 112.429L1059.8 112.442Z" fill="white" stroke="#38EF08" stroke-miterlimit="10" stroke-linejoin="round"/>
<path d="M233.808 27.1305C229.572 26.9108 226.201 23.408 226.201 19.1038C226.201 14.6575 229.804 11.0642 234.247 11.0642C235.061 11.0642 235.836 11.1805 236.572 11.4132C237.941 5.7906 242.978 1.61569 249.01 1.61569C254.989 1.61569 260.001 5.72598 261.421 11.271C261.99 11.1417 262.584 11.0642 263.191 11.0642C267.634 11.0642 271.237 14.6704 271.237 19.1038C271.237 23.3304 267.969 26.7944 263.837 27.1176L233.808 27.1305Z" fill="white" stroke="#38EF08" stroke-miterlimit="10" stroke-linejoin="round"/>
<path d="M105.028 0V3.64498" stroke="#38EF08" stroke-miterlimit="10" stroke-linejoin="round"/>
<path d="M116.652 6.42393L113.488 8.24642" stroke="#38EF08" stroke-miterlimit="10" stroke-linejoin="round"/>
<path d="M116.911 19.6984L113.759 17.8759" stroke="#38EF08" stroke-miterlimit="10" stroke-linejoin="round"/>
<path d="M105.545 26.5747V22.9168" stroke="#38EF08" stroke-miterlimit="10" stroke-linejoin="round"/>
<path d="M93.9212 20.1507L97.0726 18.3283" stroke="#38EF08" stroke-miterlimit="10" stroke-linejoin="round"/>
<path d="M93.6629 6.87634L96.8143 8.69882" stroke="#38EF08" stroke-miterlimit="10" stroke-linejoin="round"/>
<path d="M104.872 0V3.64498" stroke="#38EF08" stroke-miterlimit="10" stroke-linejoin="round"/>
<path d="M116.496 6.42393L113.332 8.24642" stroke="#38EF08" stroke-miterlimit="10" stroke-linejoin="round"/>
<path d="M116.754 19.6984L113.603 17.8759" stroke="#38EF08" stroke-miterlimit="10" stroke-linejoin="round"/>
<path d="M105.389 26.5747V22.9168" stroke="#38EF08" stroke-miterlimit="10" stroke-linejoin="round"/>
<path d="M93.7647 20.1507L96.9161 18.3283" stroke="#38EF08" stroke-miterlimit="10" stroke-linejoin="round"/>
<path d="M93.5064 6.87634L96.6578 8.69882" stroke="#38EF08" stroke-miterlimit="10" stroke-linejoin="round"/>
<path d="M321.865 56.2515V59.8964" stroke="#38EF08" stroke-miterlimit="10" stroke-linejoin="round"/>
<path d="M333.489 62.6625L330.325 64.485" stroke="#38EF08" stroke-miterlimit="10" stroke-linejoin="round"/>
<path d="M333.748 75.9498L330.583 74.1273" stroke="#38EF08" stroke-miterlimit="10" stroke-linejoin="round"/>
<path d="M322.382 82.8132V79.1683" stroke="#38EF08" stroke-miterlimit="10" stroke-linejoin="round"/>
<path d="M310.758 76.4022L313.91 74.5797" stroke="#38EF08" stroke-miterlimit="10" stroke-linejoin="round"/>
<path d="M310.5 63.1149L313.651 64.9374" stroke="#38EF08" stroke-miterlimit="10" stroke-linejoin="round"/>
<path d="M492.872 138V141.645" stroke="#38EF08" stroke-miterlimit="10" stroke-linejoin="round"/>
<path d="M504.496 144.411L501.332 146.234" stroke="#38EF08" stroke-miterlimit="10" stroke-linejoin="round"/>
<path d="M504.754 157.698L501.59 155.876" stroke="#38EF08" stroke-miterlimit="10" stroke-linejoin="round"/>
<path d="M493.389 164.562V160.917" stroke="#38EF08" stroke-miterlimit="10" stroke-linejoin="round"/>
<path d="M481.765 158.151L484.916 156.328" stroke="#38EF08" stroke-miterlimit="10" stroke-linejoin="round"/>
<path d="M481.506 144.863L484.658 146.686" stroke="#38EF08" stroke-miterlimit="10" stroke-linejoin="round"/>
<path d="M583.872 251V254.645" stroke="#38EF08" stroke-miterlimit="10" stroke-linejoin="round"/>
<path d="M595.496 257.411L592.332 259.234" stroke="#38EF08" stroke-miterlimit="10" stroke-linejoin="round"/>
<path d="M595.754 270.698L592.59 268.876" stroke="#38EF08" stroke-miterlimit="10" stroke-linejoin="round"/>
<path d="M584.389 277.562V273.917" stroke="#38EF08" stroke-miterlimit="10" stroke-linejoin="round"/>
<path d="M572.765 271.151L575.916 269.328" stroke="#38EF08" stroke-miterlimit="10" stroke-linejoin="round"/>
<path d="M572.506 257.863L575.658 259.686" stroke="#38EF08" stroke-miterlimit="10" stroke-linejoin="round"/>
<path d="M649.872 44V47.645" stroke="#38EF08" stroke-miterlimit="10" stroke-linejoin="round"/>
<path d="M661.496 50.411L658.332 52.2335" stroke="#38EF08" stroke-miterlimit="10" stroke-linejoin="round"/>
<path d="M661.754 63.6983L658.59 61.8759" stroke="#38EF08" stroke-miterlimit="10" stroke-linejoin="round"/>
<path d="M650.389 70.5618V66.9168" stroke="#38EF08" stroke-miterlimit="10" stroke-linejoin="round"/>
<path d="M638.765 64.1507L641.916 62.3282" stroke="#38EF08" stroke-miterlimit="10" stroke-linejoin="round"/>
<path d="M638.506 50.8634L641.658 52.6859" stroke="#38EF08" stroke-miterlimit="10" stroke-linejoin="round"/>
<path d="M962.872 14V17.645" stroke="#38EF08" stroke-miterlimit="10" stroke-linejoin="round"/>
<path d="M974.496 20.411L971.332 22.2335" stroke="#38EF08" stroke-miterlimit="10" stroke-linejoin="round"/>
<path d="M974.754 33.6983L971.59 31.8759" stroke="#38EF08" stroke-miterlimit="10" stroke-linejoin="round"/>
<path d="M963.389 40.5618V36.9168" stroke="#38EF08" stroke-miterlimit="10" stroke-linejoin="round"/>
<path d="M951.765 34.1507L954.916 32.3282" stroke="#38EF08" stroke-miterlimit="10" stroke-linejoin="round"/>
<path d="M951.506 20.8634L954.658 22.6859" stroke="#38EF08" stroke-miterlimit="10" stroke-linejoin="round"/>
<path d="M295.647 209.767V213.412" stroke="#38EF08" stroke-miterlimit="10" stroke-linejoin="round"/>
<path d="M307.271 216.178L304.12 218" stroke="#38EF08" stroke-miterlimit="10" stroke-linejoin="round"/>
<path d="M307.529 229.465L304.378 227.643" stroke="#38EF08" stroke-miterlimit="10" stroke-linejoin="round"/>
<path d="M296.164 236.329V232.684" stroke="#38EF08" stroke-miterlimit="10" stroke-linejoin="round"/>
<path d="M284.54 229.918L287.704 228.082" stroke="#38EF08" stroke-miterlimit="10" stroke-linejoin="round"/>
<path d="M284.282 216.63L287.446 218.453" stroke="#38EF08" stroke-miterlimit="10" stroke-linejoin="round"/>
<path d="M490.761 359.543C483.684 359.543 477.289 359.989 472.673 360.707C470.361 361.066 468.517 361.49 467.263 361.951C466.633 362.182 466.181 362.413 465.896 362.63C465.6 362.854 465.571 362.995 465.571 363.037C465.571 363.079 465.601 363.219 465.896 363.443C466.181 363.66 466.633 363.89 467.263 364.122C468.517 364.583 470.361 365.007 472.673 365.367C477.289 366.085 483.685 366.531 490.761 366.531C497.837 366.531 504.232 366.085 508.849 365.367C511.16 365.007 513.004 364.583 514.258 364.122C514.888 363.89 515.34 363.66 515.625 363.443C515.92 363.219 515.949 363.079 515.949 363.037C515.949 362.995 515.921 362.854 515.625 362.63C515.34 362.413 514.888 362.182 514.258 361.951C513.004 361.49 511.16 361.066 508.849 360.707C504.232 359.989 497.837 359.543 490.761 359.543Z" fill="#7E4F4F" stroke="#317017"/>
<path d="M497.153 410.951H484.341C479.576 410.68 475.585 410.124 473.092 409.4L465.976 363.205H466.053C466.053 365.324 477.109 367.043 490.747 367.043C504.386 367.043 515.442 365.324 515.442 363.205H515.519L508.403 409.4C505.91 410.124 501.932 410.68 497.153 410.951Z" fill="white" stroke="#317017" stroke-miterlimit="10" stroke-linejoin="round"/>
<path d="M526.704 307.987C536.881 307.987 545.134 316.247 545.134 326.432C545.134 328.099 544.889 329.715 544.476 331.253C543.907 330.969 543.274 330.801 542.59 330.801C540.201 330.801 538.263 332.739 538.263 335.118C538.263 336.682 539.103 338.039 540.33 338.788C536.959 342.511 532.103 344.851 526.691 344.851C516.514 344.851 508.261 336.591 508.261 326.406C508.287 316.247 516.527 307.987 526.704 307.987Z" fill="#38EF08" stroke="#317017" stroke-miterlimit="10"/>
<path d="M512.988 321.339C512.988 322.748 514.124 323.885 515.532 323.885C516.94 323.885 518.076 322.748 518.076 321.339C518.076 319.93 516.94 318.793 515.532 318.793C514.124 318.793 512.988 319.93 512.988 321.339Z" fill="white" stroke="#317017" stroke-miterlimit="10" stroke-linejoin="round"/>
<path d="M447.842 324.825C442.075 316.431 444.199 304.948 452.586 299.176C460.973 293.404 472.448 295.53 478.215 303.924C483.982 312.317 481.858 323.801 473.471 329.573C465.084 335.344 453.609 333.219 447.842 324.825Z" fill="#38EF08" stroke="#317017" stroke-miterlimit="10"/>
<path d="M464.155 314.566C464.155 314.566 490.657 329.986 488.449 360.749" stroke="#317017" stroke-miterlimit="10" stroke-linejoin="round"/>
<path d="M499.285 308.569C492.039 315.717 480.376 315.639 473.234 308.388C466.092 301.137 466.169 289.465 473.415 282.317C480.661 275.17 492.323 275.247 499.465 282.498C506.608 289.749 506.53 301.421 499.285 308.569Z" fill="#38EF08" stroke="#317017" stroke-miterlimit="10"/>
<path d="M487.144 296.264C487.144 296.264 505.574 341.865 488.578 364.743" stroke="#317017" stroke-miterlimit="10" stroke-linejoin="round"/>
<path d="M526.071 326.432C526.071 326.432 497.089 336.41 493.279 367.031" stroke="#317017" stroke-miterlimit="10" stroke-linejoin="round"/>
<path d="M469.721 322.192C459.544 322.192 451.291 330.452 451.291 340.637C451.291 342.304 451.536 343.92 451.95 345.458C452.518 345.174 453.151 345.006 453.835 345.006C456.225 345.006 458.162 346.944 458.162 349.336C458.162 350.9 457.322 352.257 456.095 353.006C459.466 356.729 464.322 359.069 469.734 359.069C479.911 359.069 488.164 350.809 488.164 340.624C488.164 330.439 479.898 322.192 469.721 322.192Z" fill="#38EF08" stroke="#317017" stroke-miterlimit="10"/>
<path d="M483.437 335.544C483.437 336.953 482.301 338.09 480.893 338.09C479.485 338.09 478.349 336.953 478.349 335.544C478.349 334.135 479.485 332.998 480.893 332.998C482.301 332.998 483.437 334.135 483.437 335.544Z" fill="white" stroke="#317017" stroke-miterlimit="10" stroke-linejoin="round"/>
<path d="M465.976 336.604C465.976 336.604 486.434 344.747 491.458 366.1" stroke="#317017" stroke-miterlimit="10" stroke-linejoin="round"/>
</svg>
