<svg width="546" height="400" viewBox="0 0 546 400" fill="none" xmlns="http://www.w3.org/2000/svg">
<path d="M91.0411 129.691C101.645 111.466 97.5762 73.1031 97.5762 73.1031L99.9657 75.2875C89.3363 47.472 98.2349 36.2398 98.2349 36.2398C124.466 -2.83382 163.729 23.0041 163.729 23.0041C163.729 23.0041 192.53 27.6056 181.875 62.0648C181.229 64.1587 180.958 66.705 180.881 69.3676C180.971 69.6779 185.414 86.0156 187.003 89.0789C188.152 91.3021 182.379 94.3654 179.034 95.9165C171.569 128.527 169.89 127.377 169.89 127.377C156.703 128.01 146.203 125.852 137.705 122.026C136.529 128.165 135.328 134.757 135.328 134.757C132.5 157.209 164.168 171.659 164.168 171.659L104.047 194.382L44.3131 156.239C44.326 156.239 78.1127 151.897 91.0411 129.691Z" fill="white" stroke="#7E4F4F" stroke-miterlimit="10"/>
<path d="M391.699 330.009L190.735 311.732L73.9798 344.369L73.4374 352.68L274.401 370.957L391.157 338.32L391.699 330.009Z" fill="white" stroke="#7E4F4F" stroke-miterlimit="10" stroke-linejoin="round"/>
<path d="M386.249 330.772L189.353 319.216L219.459 195.623L411.912 204.606L386.249 330.772Z" fill="white" stroke="#7E4F4F" stroke-miterlimit="10" stroke-linejoin="round"/>
<path d="M307.103 204.322C306.793 205.679 307.478 206.985 308.627 207.243C309.777 207.502 310.965 206.623 311.275 205.266C311.585 203.908 310.9 202.603 309.751 202.344C308.601 202.086 307.413 202.965 307.103 204.322Z" fill="#7E4F4F"/>
<path d="M411.912 204.606L219.459 195.623L411.912 204.606L386.249 330.772L391.686 330.229L415.554 208.432L411.912 204.606Z" fill="white"/>
<path d="M411.912 204.606L219.459 195.623L411.912 204.606ZM411.912 204.606L386.249 330.772L391.686 330.229L415.554 208.432L411.912 204.606Z" stroke="#7E4F4F" stroke-miterlimit="10" stroke-linejoin="round"/>
<path d="M397.02 214.662L228.706 206.713L206.298 304.391L375.271 319.565L397.02 214.662Z" fill="#38EF08" stroke="#7E4F4F" stroke-miterlimit="10"/>
<path d="M391.699 330.009L274.944 362.646L73.9798 344.369L190.735 311.732L391.699 330.009Z" fill="white" stroke="#7E4F4F" stroke-miterlimit="10" stroke-linejoin="round"/>
<path d="M304.998 348.88L363.195 332.607L191.213 316.967L134.682 332.775L304.998 348.88Z" fill="white" stroke="#7E4F4F" stroke-miterlimit="10" stroke-linejoin="round"/>
<path d="M350.796 336.084L178.194 320.612" stroke="#7E4F4F" stroke-miterlimit="10" stroke-linejoin="round"/>
<path d="M336.292 340.168L163.703 324.697" stroke="#7E4F4F" stroke-miterlimit="10" stroke-linejoin="round"/>
<path d="M321.801 344.253L149.212 328.781" stroke="#7E4F4F" stroke-miterlimit="10" stroke-linejoin="round"/>
<path d="M342.388 330.94L285.366 346.812" stroke="#7E4F4F" stroke-miterlimit="10" stroke-linejoin="round"/>
<path d="M323.105 329.259L266.084 345.132" stroke="#7E4F4F" stroke-miterlimit="10" stroke-linecap="round" stroke-linejoin="round"/>
<path d="M306.535 327.644L249.513 343.516" stroke="#7E4F4F" stroke-miterlimit="10" stroke-linecap="round" stroke-linejoin="round"/>
<path d="M289.977 326.028L232.956 341.9" stroke="#7E4F4F" stroke-miterlimit="10" stroke-linecap="round" stroke-linejoin="round"/>
<path d="M273.407 324.412L216.398 340.285" stroke="#7E4F4F" stroke-miterlimit="10" stroke-linecap="round" stroke-linejoin="round"/>
<path d="M256.1 323.003L199.828 338.669" stroke="#7E4F4F" stroke-miterlimit="10" stroke-linecap="round" stroke-linejoin="round"/>
<path d="M239.607 321.375L182.766 337.195" stroke="#7E4F4F" stroke-miterlimit="10" stroke-linecap="round" stroke-linejoin="round"/>
<path d="M222.74 319.837L166.183 335.58" stroke="#7E4F4F" stroke-miterlimit="10" stroke-linecap="round" stroke-linejoin="round"/>
<path d="M205.614 318.376L149.638 333.964" stroke="#7E4F4F" stroke-miterlimit="10" stroke-linecap="round" stroke-linejoin="round"/>
<path d="M304.688 227.833L241.506 224.033C241.002 224.007 240.563 224.344 240.434 224.835L234.144 250.104C233.989 250.737 234.428 251.358 235.074 251.409L287.097 255.235C287.33 255.261 287.549 255.352 287.717 255.507L295.686 264.723C296.306 265.278 297.287 264.942 297.429 264.115L305.669 229.087C305.799 228.454 305.321 227.859 304.688 227.833Z" fill="white" stroke="#7E4F4F" stroke-miterlimit="10" stroke-linejoin="round"/>
<path d="M295.13 275.451L230.114 270.436L225.775 285.416L228.797 285.739L231.754 286.062L291.256 291.401L295.13 275.451Z" fill="white" stroke="#7E4F4F" stroke-miterlimit="10" stroke-linejoin="round"/>
<path d="M306.767 291.297L321.233 228.286L366.527 230.173L372.998 234.4L359.307 300.461L313.238 295.537L306.767 291.297Z" fill="white" stroke="#7E4F4F" stroke-miterlimit="10" stroke-linejoin="round"/>
<path d="M366.527 230.173L321.233 228.286L306.767 291.297L352.837 296.222L366.527 230.173Z" fill="white" stroke="#7E4F4F" stroke-miterlimit="10" stroke-linejoin="round"/>
<path d="M359.307 300.461L352.837 296.222" stroke="#7E4F4F" stroke-miterlimit="10"/>
<path d="M336.654 228.932L334.251 241.845C334.187 242.181 333.748 242.271 333.554 241.987L331.5 238.949C331.345 238.717 331.022 238.678 330.803 238.859L327.987 241.237C327.703 241.47 327.29 241.224 327.367 240.862L330.067 228.661L336.654 228.932Z" fill="#7E4F4F"/>
<path d="M351.222 257.265L322.808 255.041" stroke="#7E4F4F" stroke-miterlimit="10" stroke-linecap="round" stroke-linejoin="round"/>
<path d="M350.292 263.365L321.865 261.155" stroke="#7E4F4F" stroke-miterlimit="10" stroke-linecap="round" stroke-linejoin="round"/>
<path d="M281.259 235.705L271.702 235.007" stroke="#7E4F4F" stroke-miterlimit="10" stroke-linecap="round" stroke-linejoin="round"/>
<path d="M280.962 239.919L245.432 238.057" stroke="#7E4F4F" stroke-miterlimit="10" stroke-linecap="round" stroke-linejoin="round"/>
<path d="M280.394 244.352L244.864 242.504" stroke="#7E4F4F" stroke-miterlimit="10" stroke-linecap="round" stroke-linejoin="round"/>
<path d="M286.697 239.957C286.025 242.917 287.523 245.787 290.042 246.356C292.56 246.937 295.156 244.998 295.828 242.038C296.499 239.079 295.001 236.209 292.483 235.64C289.964 235.072 287.368 236.998 286.697 239.957Z" fill="white" stroke="#7E4F4F" stroke-miterlimit="10" stroke-linejoin="round"/>
<path d="M286.929 280.802C286.761 281.551 287.136 282.275 287.782 282.43C288.427 282.586 289.073 282.081 289.254 281.332C289.422 280.582 289.047 279.858 288.402 279.703C287.756 279.561 287.097 280.052 286.929 280.802Z" fill="#7E4F4F"/>
<path d="M282.254 280.272C282.086 281.022 282.46 281.745 283.106 281.901C283.752 282.043 284.398 281.552 284.579 280.802C284.747 280.052 284.372 279.328 283.726 279.173C283.08 279.031 282.422 279.522 282.254 280.272Z" fill="#7E4F4F"/>
<path d="M277.565 279.742C277.398 280.492 277.772 281.215 278.418 281.371C279.064 281.513 279.709 281.022 279.89 280.272C280.058 279.522 279.684 278.798 279.038 278.643C278.392 278.501 277.733 278.992 277.565 279.742Z" fill="#7E4F4F"/>
<path d="M46.3021 167.161C46.3021 167.161 48.924 152.943 50.3447 202.642C51.662 249.16 52.1786 297.98 52.1786 297.98C52.1786 297.98 77.3637 298.716 104.318 310.492L121.767 317.743C121.767 317.743 76.4725 342.844 44.2356 352.874C14.556 362.103 11.7663 339.419 15.3051 284.305C15.2922 284.305 32.1856 171.091 46.3021 167.161Z" fill="white" stroke="#7E4F4F" stroke-miterlimit="10" stroke-linejoin="round"/>
<path d="M165.421 10.9188C165.421 10.9188 203.263 31.1213 181.604 51.4013L155.889 25.6797L165.421 10.9188Z" fill="#7E4F4F"/>
<path d="M108.839 107.704C108.839 107.704 100.327 107.485 95.2385 119.014C95.2385 119.014 100.818 105.921 91.0798 95.0893L108.839 107.704Z" fill="#525252"/>
<path d="M165.421 10.9188C165.421 10.9188 211.71 56.2742 183.968 43.5685C126.003 17.0067 128.974 83.9346 128.974 83.9346C128.974 83.9346 120.992 76.6576 123.937 84.2707L108.839 107.692C108.839 107.692 76.5629 95.477 74.8451 54.8007C74.2639 41.0609 87.7735 -21.9376 165.421 10.9188Z" fill="#525252"/>
<path d="M145.557 37.8296C144.692 44.7705 145.557 72.4956 133.313 74.5249C121.069 76.5542 135.418 39.7167 135.418 39.7167L145.557 37.8296Z" fill="#525252"/>
<path d="M184.432 186.808C199.091 252.741 205.872 320.858 205.872 320.858C205.872 320.858 234.828 312.637 262.3 308.191L292.315 300.125C293.284 299.686 303.693 294.878 307.064 291.543C310.603 288.027 312.553 297.695 306.987 302.103C305.308 303.434 304.003 304.61 302.944 305.632L310.177 306.756C311.417 306.95 312.579 307.493 313.509 308.346C318.546 312.922 334.975 328.096 331.862 329.04C331.087 329.272 330.222 329.285 329.279 329.143C334.897 333.783 335.336 338.63 333.773 338.785C331.423 339.031 328.452 337.338 325.495 334.946C328.091 337.958 331.32 344.602 327.716 344.434C322.886 344.214 318.83 340.453 314.969 334.093C314.969 334.093 315.924 335.748 315.498 335.36L318.365 340C318.365 340 312.528 345.132 308.278 347.523C304.223 349.798 301.859 341.422 307.594 337.971C307.594 337.971 305.527 335.903 303.861 331.495C303.861 331.495 287.756 339.289 279.529 333.111L274.143 333.628C260.078 342.443 188.643 374.576 178.853 373.839C156.626 372.185 152.402 328.445 141.657 232.848C141.657 232.874 177.871 157.248 184.432 186.808Z" fill="white" stroke="#7E4F4F" stroke-miterlimit="10" stroke-linejoin="round"/>
<path d="M205.872 320.858C205.872 320.858 212.795 324.542 214.19 334.778" stroke="#7E4F4F" stroke-miterlimit="10"/>
<path d="M30.4677 283.956C19.0117 282.056 0.516846 275.722 0.503937 275.658C0.503937 275.658 7.59451 186.226 30.1448 159.742C31.2943 157.274 35.0785 152.168 47.1803 150.384C50.7708 149.854 54.2967 149.195 57.6805 148.471C69.511 145.925 79.146 142.383 81.8969 140.638C81.8969 140.638 81.884 140.742 81.8582 140.91C81.9227 140.871 82.0003 140.832 82.0648 140.794C82.0648 140.794 81.5224 143.185 82.3748 145.977C82.4523 146.222 82.5298 146.468 82.6331 146.726C82.6719 146.83 82.7235 146.946 82.7752 147.049C82.956 147.45 83.1497 147.864 83.3951 148.264C87.0889 154.365 111.589 156.821 136.077 143.87C136.077 143.87 178.143 167.743 189.353 176.028C206.557 212.711 213.944 295.55 213.944 291.698C213.944 290.651 178.892 309.031 156.109 310.026C155.98 316.528 161.688 398.643 161.688 398.643C161.688 398.643 62.6271 403.697 18.7405 380.341C18.7405 380.341 36.0343 322.68 34.0065 306.588C33.7224 304.688 30.9585 288.648 30.4677 283.956Z" fill="#38EF08" stroke="#7E4F4F" stroke-miterlimit="10"/>
<path d="M161.366 10.3889C161.366 10.3889 209.876 -0.933785 206.828 11.5651C203.767 24.064 191.226 34.9731 191.226 34.9731C191.226 34.9731 205.523 34.6111 198.019 41.8752C190.516 49.1393 184.239 48.5965 184.239 48.5965L161.366 10.3889Z" fill="#525252"/>
<path d="M137.704 122.026C137.704 122.026 132.719 120.772 123.562 112.81" stroke="#7E4F4F" stroke-miterlimit="10"/>
<path d="M128.767 63.2151C128.767 63.2151 132.138 0.656057 164.995 8.33376" stroke="white" stroke-width="2" stroke-miterlimit="10"/>
<path d="M109.196 81.2284C108.449 69.6171 117.017 59.6126 128.335 58.8828C139.653 58.153 149.433 66.9742 150.181 78.5855C150.929 90.1969 142.36 100.201 131.042 100.931C119.725 101.661 109.944 92.8398 109.196 81.2284Z" fill="#38EF08" stroke="#7E4F4F" stroke-miterlimit="10"/>
<path d="M115.813 80.4835C116.355 88.8204 123.02 95.1797 130.717 94.6886C138.415 94.1974 144.214 87.0238 143.684 78.6869C143.142 70.35 136.478 63.9907 128.767 64.4818C121.082 64.9859 115.283 72.1466 115.813 80.4835Z" fill="white" stroke="#7E4F4F" stroke-miterlimit="10"/>
<path d="M174.759 73.8528C174.746 75.5331 173.687 76.8902 172.395 76.8773C171.104 76.8644 170.07 75.4943 170.083 73.814C170.096 72.1337 171.155 70.7765 172.447 70.7894C173.738 70.8024 174.772 72.1725 174.759 73.8528Z" fill="#7E4F4F"/>
<path d="M163.342 65.0118C165.227 62.4267 167.901 61.509 170.032 60.8239C172.395 60.0613 174.72 59.2987 175.715 60.3974C176.309 61.0566 176.347 62.2974 175.831 63.073C175.12 64.1716 173.519 64.1199 172.021 64.275C166.222 64.8825 162.902 68.3595 162.244 67.5064C161.869 67.0152 162.825 65.7097 163.342 65.0118Z" fill="#7E4F4F"/>
<path d="M174.333 104.072C174.333 104.072 167.965 103.814 163.819 99.5614" stroke="#7E4F4F" stroke-miterlimit="10"/>
<path d="M198.471 1.32817C198.045 1.27647 178.93 -3.93248 164.452 12.4311" stroke="#525252" stroke-miterlimit="10"/>
<path d="M83.8343 13.1032L85.3066 28.0192C85.3066 28.0192 81.4707 20.6258 73.8636 25.615" stroke="#525252" stroke-miterlimit="10"/>
<path d="M179.408 29.2859C179.408 29.2859 195.617 52.2027 187.351 52.1639C174.862 52.0993 162.515 35.852 164.775 35.0118C167.035 34.1588 179.408 29.2859 179.408 29.2859Z" fill="#525252"/>
<path d="M325.495 334.946L319.14 321.478L312.269 316.024" fill="white"/>
<path d="M325.495 334.946L319.14 321.478L312.269 316.024" stroke="#7E4F4F" stroke-miterlimit="10"/>
<path d="M329.292 329.143L321.93 320.806" stroke="#7E4F4F" stroke-miterlimit="10"/>
<path d="M302.97 317.691L311.184 323.52L315.498 335.373" fill="white"/>
<path d="M302.97 317.691L311.184 323.52L315.498 335.373" stroke="#7E4F4F" stroke-miterlimit="10" stroke-linejoin="round"/>
<path d="M189.314 176.028C189.314 176.028 137.007 163.077 138.169 229.384L140.572 308.876C140.572 308.876 150.336 310.892 160.487 309.703" stroke="#7E4F4F" stroke-miterlimit="10"/>
<path d="M32.4309 192.663C32.4309 192.663 21.4657 219.212 21.2719 242.543C21.1686 255.093 30.4936 284.098 30.4936 284.098" stroke="#7E4F4F" stroke-miterlimit="10"/>
<path d="M302.957 305.619L293.981 304.339" stroke="#7E4F4F" stroke-miterlimit="10" stroke-linejoin="round"/>
<path d="M490.761 288.76C483.684 288.76 477.289 289.206 472.673 289.924C470.361 290.283 468.517 290.707 467.263 291.168C466.633 291.399 466.181 291.63 465.896 291.847C465.6 292.072 465.571 292.212 465.571 292.254C465.571 292.296 465.601 292.436 465.896 292.66C466.181 292.877 466.633 293.107 467.263 293.339C468.517 293.8 470.361 294.225 472.673 294.584C477.289 295.302 483.685 295.748 490.761 295.748C497.837 295.748 504.232 295.302 508.849 294.584C511.16 294.225 513.004 293.8 514.258 293.339C514.888 293.107 515.34 292.877 515.625 292.66C515.92 292.436 515.949 292.296 515.949 292.254C515.949 292.212 515.921 292.072 515.625 291.847C515.34 291.63 514.888 291.4 514.258 291.168C513.004 290.707 511.16 290.283 508.849 289.924C504.232 289.206 497.837 288.76 490.761 288.76Z" fill="#7E4F4F" stroke="#317017"/>
<path d="M497.153 340.168H484.341C479.576 339.897 475.585 339.341 473.092 338.617L465.976 292.422H466.053C466.053 294.542 477.109 296.261 490.747 296.261C504.386 296.261 515.442 294.542 515.442 292.422H515.519L508.403 338.617C505.91 339.341 501.932 339.897 497.153 340.168Z" fill="white" stroke="#317017" stroke-miterlimit="10" stroke-linejoin="round"/>
<path d="M526.704 237.204C536.881 237.204 545.134 245.464 545.134 255.649C545.134 257.316 544.889 258.932 544.476 260.47C543.907 260.186 543.274 260.018 542.59 260.018C540.201 260.018 538.263 261.957 538.263 264.335C538.263 265.899 539.103 267.256 540.33 268.006C536.959 271.728 532.103 274.068 526.691 274.068C516.514 274.068 508.261 265.808 508.261 255.623C508.287 245.464 516.527 237.204 526.704 237.204Z" fill="#38EF08" stroke="#317017" stroke-miterlimit="10"/>
<path d="M512.988 250.556C512.988 251.965 514.124 253.103 515.532 253.103C516.94 253.103 518.076 251.965 518.076 250.556C518.076 249.147 516.94 248.01 515.532 248.01C514.124 248.01 512.988 249.147 512.988 250.556Z" fill="white" stroke="#317017" stroke-miterlimit="10" stroke-linejoin="round"/>
<path d="M447.842 254.042C442.075 245.648 444.199 234.165 452.586 228.393C460.973 222.621 472.448 224.747 478.215 233.141C483.982 241.535 481.858 253.018 473.471 258.79C465.084 264.562 453.609 262.436 447.842 254.042Z" fill="#38EF08" stroke="#317017" stroke-miterlimit="10"/>
<path d="M464.155 243.783C464.155 243.783 490.657 259.203 488.449 289.966" stroke="#317017" stroke-miterlimit="10" stroke-linejoin="round"/>
<path d="M499.285 237.786C492.039 244.934 480.376 244.856 473.234 237.605C466.092 230.354 466.169 218.682 473.415 211.534C480.661 204.387 492.323 204.464 499.465 211.715C506.608 218.967 506.53 230.638 499.285 237.786Z" fill="#38EF08" stroke="#317017" stroke-miterlimit="10"/>
<path d="M487.144 225.481C487.144 225.481 505.574 271.082 488.578 293.96" stroke="#317017" stroke-miterlimit="10" stroke-linejoin="round"/>
<path d="M526.071 255.649C526.071 255.649 497.089 265.627 493.279 296.248" stroke="#317017" stroke-miterlimit="10" stroke-linejoin="round"/>
<path d="M469.721 251.409C459.544 251.409 451.291 259.669 451.291 269.854C451.291 271.521 451.536 273.137 451.95 274.675C452.518 274.391 453.151 274.223 453.835 274.223C456.225 274.223 458.162 276.162 458.162 278.553C458.162 280.117 457.322 281.474 456.095 282.224C459.466 285.946 464.322 288.286 469.734 288.286C479.911 288.286 488.164 280.026 488.164 269.841C488.164 259.656 479.898 251.409 469.721 251.409Z" fill="#38EF08" stroke="#317017" stroke-miterlimit="10"/>
<path d="M483.437 264.761C483.437 266.17 482.301 267.308 480.893 267.308C479.485 267.308 478.349 266.17 478.349 264.761C478.349 263.352 479.485 262.215 480.893 262.215C482.301 262.215 483.437 263.352 483.437 264.761Z" fill="white" stroke="#317017" stroke-miterlimit="10" stroke-linejoin="round"/>
<path d="M465.976 265.821C465.976 265.821 486.434 273.964 491.458 295.317" stroke="#317017" stroke-miterlimit="10" stroke-linejoin="round"/>
</svg>
