<svg width="489" height="424" viewBox="0 0 489 424" fill="none" xmlns="http://www.w3.org/2000/svg">
<g clip-path="url(#clip0_545_3479)">
<path d="M49.6787 394.676H49.2119V395.143H49.6787V394.676Z" fill="#0023AC"/>
<path d="M214.339 384.002H26.8999V394.676H214.339V384.002Z" fill="#38EF08"/>
<path d="M69.6992 389.498C106.833 389.498 143.955 389.498 181.089 389.498" stroke="#272728" stroke-width="0.75" stroke-miterlimit="10" stroke-linecap="round" stroke-linejoin="round"/>
<path d="M192.96 384.373C192.96 387.684 192.96 390.994 192.96 394.315C192.96 394.252 192.96 394.178 192.96 394.114" stroke="#272728" stroke-width="0.75" stroke-miterlimit="10" stroke-linecap="round" stroke-linejoin="round"/>
<path d="M197.311 384.373C197.311 387.684 197.311 390.994 197.311 394.315C197.311 394.252 197.311 394.178 197.311 394.114" stroke="#272728" stroke-width="0.75" stroke-miterlimit="10" stroke-linecap="round" stroke-linejoin="round"/>
<path d="M44.8833 384.373C44.8833 387.684 44.8833 390.994 44.8833 394.315C44.8833 394.252 44.8833 394.178 44.8833 394.114" stroke="#272728" stroke-width="0.75" stroke-miterlimit="10" stroke-linecap="round" stroke-linejoin="round"/>
<path d="M49.2329 384.373C49.2329 387.684 49.2329 390.994 49.2329 394.315C49.2329 394.252 49.2329 394.178 49.2329 394.114" stroke="#272728" stroke-width="0.75" stroke-miterlimit="10" stroke-linecap="round" stroke-linejoin="round"/>
<path d="M208.238 389.382C208.238 390.718 207.145 391.811 205.808 391.811C204.472 391.811 203.379 390.718 203.379 389.382C203.379 388.045 204.472 386.952 205.808 386.952C207.156 386.952 208.238 388.034 208.238 389.382Z" fill="white"/>
<path d="M196.026 356.319H4.50293V384.002H196.026V356.319Z" fill="#FFA81F"/>
<path d="M34.2522 356.319H19.5474V384.002H34.2522V356.319Z" fill="#0023AC"/>
<path d="M40.9679 356.605H36.6816V384.002H40.9679V356.605Z" fill="#0023AC"/>
<path d="M170.091 384.005H184.796V356.322H170.091V384.005Z" fill="#0023AC"/>
<path d="M163.375 383.717H167.661V356.32H163.375V383.717Z" fill="#0023AC"/>
<path d="M155.275 365.529H53.9648V375.407H155.275V365.529Z" fill="white"/>
<path d="M183.03 309.462H36.8301V355.534H183.03V309.462Z" fill="white"/>
<path d="M183.029 309.335H32.7983V315.213H183.029V309.335Z" fill="#FF7439"/>
<path d="M183.029 348.913H32.7983V356.192H183.029V348.913Z" fill="#FF7439"/>
<path d="M36.6816 341.475C85.4643 341.475 134.247 341.475 183.03 341.475" stroke="#272728" stroke-width="0.75" stroke-miterlimit="10" stroke-linecap="round" stroke-linejoin="round"/>
<path d="M36.6816 332.498C85.4643 332.498 134.247 332.498 183.03 332.498" stroke="#272728" stroke-width="0.75" stroke-miterlimit="10" stroke-linecap="round" stroke-linejoin="round"/>
<path d="M36.6816 323.521C85.4643 323.521 134.247 323.521 183.03 323.521" stroke="#272728" stroke-width="0.75" stroke-miterlimit="10" stroke-linecap="round" stroke-linejoin="round"/>
<path d="M183.464 309.335H172.6V356.33H183.464V309.335Z" fill="#FF7439"/>
<path d="M69.6982 323.521V365.529L80.6791 354.547L92.286 366.155V323.521H69.6982Z" fill="#D73F28"/>
<path d="M58.4736 370.909C88.8912 370.909 119.298 370.909 149.716 370.909" stroke="#272728" stroke-width="0.75" stroke-miterlimit="10" stroke-linecap="round" stroke-linejoin="round"/>
<path d="M4.50293 402.395C163.791 402.304 323.079 402.213 482.367 402.122" stroke="white" stroke-miterlimit="10" stroke-linecap="round" stroke-linejoin="round"/>
<path d="M489 357.652H352.996V391.33H489V357.652Z" fill="#FF7439"/>
<path d="M489 386.725H447.081C441.405 386.725 436.801 382.12 436.801 376.443V372.539C436.801 366.862 441.405 362.257 447.081 362.257H489V386.725Z" fill="white"/>
<path d="M431.294 357.652C431.294 368.878 431.294 380.104 431.294 391.33" stroke="#272728" stroke-width="0.75" stroke-miterlimit="10" stroke-linecap="round" stroke-linejoin="round"/>
<path d="M426.722 357.652C426.722 368.878 426.722 380.104 426.722 391.33" stroke="#272728" stroke-width="0.75" stroke-miterlimit="10" stroke-linecap="round" stroke-linejoin="round"/>
<path d="M361.123 357.875C361.123 369.026 361.123 380.178 361.123 391.33" stroke="#272728" stroke-width="0.75" stroke-miterlimit="10" stroke-linecap="round" stroke-linejoin="round"/>
<path d="M413.683 372.167H372.327V378.141H413.683V372.167Z" fill="white"/>
<path d="M462.381 346.479H324.669V357.662H462.381V346.479Z" fill="white"/>
<path d="M463.113 391.266H342.663V402.45H463.113V391.266Z" fill="#FFA81F"/>
<path d="M461.936 49.056H198.883V70.5319H461.936V49.056Z" fill="white"/>
<path d="M198.315 240.834L461.931 240.834V49.0583L198.315 49.0583V240.834Z" stroke="#D7D7D7" stroke-width="0.75" stroke-miterlimit="10" stroke-linecap="round" stroke-linejoin="round"/>
<path d="M221.895 57.4822C223.389 57.4822 224.642 58.7607 224.642 60.3885C224.641 62.0162 223.389 63.2947 221.895 63.2947C220.4 63.2945 219.149 62.016 219.148 60.3885C219.148 58.7608 220.4 57.4825 221.895 57.4822Z" fill="#FFA81F" stroke="#D7D7D7"/>
<path d="M231.613 57.4822C233.108 57.4822 234.36 58.7606 234.36 60.3884C234.36 62.0161 233.108 63.2947 231.613 63.2947C230.119 63.2944 228.867 62.016 228.867 60.3884C228.867 58.7608 230.119 57.4824 231.613 57.4822Z" fill="#00B15F" stroke="#D7D7D7"/>
<path d="M211.678 57.4822C213.172 57.4822 214.425 58.7634 214.425 60.3885C214.425 62.0135 213.172 63.2947 211.678 63.2947C210.184 63.2945 208.932 62.0133 208.932 60.3885C208.932 58.7635 210.184 57.4825 211.678 57.4822Z" fill="#D73F28" stroke="#D7D7D7"/>
<path d="M327.195 82.4158L326.876 109.473L357.994 109.834L359.596 64.5051L327.195 82.4158Z" fill="#FFBAA2"/>
<path d="M311.026 31.2514C310.867 31.8456 308.915 58.1812 309.594 64.4839C310.273 70.7866 315.588 81.429 327.8 82.4264C342.526 83.6254 360.488 65.6722 360.488 65.6722L360.965 24.4925C360.965 24.4925 353.252 9.57396 335.629 9.5209C318.018 9.46785 311.026 31.2514 311.026 31.2514Z" fill="#FFBAA2"/>
<path d="M335.459 37.1828C335.12 36.5143 335.576 35.4745 336.828 34.6044C338.069 33.7237 340.032 33.0977 342.228 33.1189C344.424 33.1401 346.408 33.8298 347.639 34.7848C348.88 35.7291 349.273 36.822 348.87 37.448C348.467 38.1059 347.533 38.3393 346.398 38.4879C345.252 38.6152 343.798 38.6683 342.164 38.6364C340.531 38.6258 339.045 38.5409 337.878 38.3605C336.732 38.1696 335.82 37.8725 335.459 37.1828Z" fill="#272728"/>
<path d="M325.678 49.4911C324.617 51.1357 323.619 52.8228 322.665 54.5311C322.41 54.998 322.145 55.5391 322.336 56.0378C322.495 56.4516 322.909 56.6957 323.301 56.8867C324.277 57.3641 325.306 57.7355 326.367 57.9796" stroke="#272728" stroke-width="0.75" stroke-miterlimit="10" stroke-linecap="round" stroke-linejoin="round"/>
<path d="M356.986 51.0296C357.177 47.7615 362.259 45.7455 365.527 45.5545C368.795 45.3742 371.967 47.5387 373.293 50.5203C374.619 53.5125 374.195 57.1201 372.508 59.9213C370.821 62.7225 367.967 64.7173 364.859 65.7253C361.75 66.7333 358.387 66.797 355.151 66.2877L356.986 51.0296Z" fill="#FFBAA2"/>
<path d="M349.347 74.2456C349.347 74.2456 346.822 88.1455 327.12 88.9413L327.194 82.3627C331.088 82.5007 340.18 81.1744 349.347 74.2456Z" fill="#272728"/>
<path d="M311.726 36.1429C311.609 35.4002 312.097 34.6044 313.095 34.042C314.092 33.4797 315.609 33.1826 317.232 33.4266C318.856 33.6813 320.224 34.4134 320.999 35.2516C321.794 36.0899 322.017 36.9918 321.678 37.6709C321.338 38.3605 320.542 38.7319 319.609 38.9017C318.665 39.0715 317.561 39.0715 316.394 38.8805C315.227 38.7001 314.177 38.3818 313.317 37.9361C312.49 37.4905 311.843 36.9069 311.726 36.1429Z" fill="#272728"/>
<path d="M365.686 21.3517C366.853 17.7441 366.026 13.5635 363.564 10.6775C361.103 7.80198 357.092 6.32711 353.358 6.9213C351.703 7.18657 350.026 7.8232 348.392 7.42C346.387 6.9213 345.104 5.022 343.512 3.70629C340.902 1.54172 337.125 0.905084 333.953 2.09347C331.481 3.0166 329.115 4.99017 326.537 4.42781C323.768 3.823 322.431 0.63982 320.033 -0.888108C316.808 -2.94657 312.14 -1.31253 310.103 1.9237C308.055 5.15994 308.246 9.40419 309.625 12.98C307.143 11.0913 303.143 12.789 302.039 15.7069C300.936 18.6248 301.764 22.7099 303.896 24.9806C305.986 27.1982 308.596 29.0656 311.344 30.4026C311.376 30.3283 311.408 30.2328 311.439 30.1479C323.534 34.9333 338.377 31.8881 347.533 22.625C349.867 26.4024 353.4 29.384 357.453 31.1878C355.893 37.6921 356.625 45.268 359.925 50.9766C362.238 49.82 363.861 47.9419 364.975 45.788C366.291 45.4697 367.872 45.6076 369.781 46.6474C369.781 46.6474 371.447 39.8036 371.797 34.6893C372.137 29.5537 369.994 24.1105 365.686 21.3517Z" fill="#272728"/>
<path d="M360.657 52.5575C361.538 51.592 362.609 50.775 363.851 50.3399C365.081 49.9049 366.482 49.8731 367.681 50.4036C369.612 51.263 370.704 53.5443 370.397 55.6346C370.089 57.7249 368.54 59.5181 366.609 60.3669C364.678 61.2158 362.429 61.184 360.424 60.5367" stroke="#272728" stroke-width="0.75" stroke-miterlimit="10" stroke-linecap="round" stroke-linejoin="round"/>
<path d="M325.9 64.5687C327.587 62.9878 329.614 61.7569 331.799 61.0142C332.892 60.6428 334.165 60.3988 335.141 61.0248C335.788 61.4386 336.192 62.1814 336.298 62.9453C336.584 64.8765 335.131 66.7758 333.285 67.4124C331.449 68.049 329.285 67.7625 327.577 66.8288C326.919 66.4574 325.922 65.3433 325.9 64.5687Z" fill="white"/>
<path d="M310.304 40.5039C310.315 40.3766 311.917 40.2386 313.127 40.4827C321.604 42.1804 322.909 48.2709 322.909 48.2709C322.909 48.2709 319.747 51.592 312.808 50.5415C311.493 50.3399 311.026 50.1277 309.891 49.5972L310.304 40.5039Z" fill="white"/>
<path d="M352.297 46.3185C352.297 46.3185 349.231 40.8434 340.711 42.2865C332.192 43.7295 331.354 49.6078 331.354 49.6078C331.354 49.6078 337.263 53.6186 343.427 52.2604C350.302 50.7431 352.297 46.3185 352.297 46.3185Z" fill="white"/>
<mask id="mask0_545_3479" style="mask-type:luminance" maskUnits="userSpaceOnUse" x="331" y="42" width="22" height="11">
<path d="M352.138 46.3079C352.138 46.3079 349.071 40.8328 340.552 42.2759C332.032 43.7295 331.194 49.5972 331.194 49.5972C331.194 49.5972 337.093 53.7035 343.268 52.3347C350.143 50.8174 352.138 46.3079 352.138 46.3079Z" fill="white"/>
</mask>
<g mask="url(#mask0_545_3479)">
<path d="M343.544 50.4991C343.544 54.2234 340.531 57.2474 336.817 57.2474C333.094 57.2474 330.07 54.234 330.07 50.5203C330.07 46.796 332.807 41.9575 336.531 41.9469C340.255 41.9469 343.544 46.7854 343.544 50.4991Z" fill="#272728"/>
</g>
<mask id="mask1_545_3479" style="mask-type:luminance" maskUnits="userSpaceOnUse" x="309" y="40" width="14" height="11">
<path d="M310.304 40.5039C310.315 40.3766 311.917 40.2386 313.126 40.4827C321.603 42.1804 322.908 48.2709 322.908 48.2709C322.908 48.2709 319.747 51.592 312.808 50.5415C311.492 50.3399 310.92 50.0959 309.795 49.5654L310.304 40.5039Z" fill="white"/>
</mask>
<g mask="url(#mask1_545_3479)">
<path d="M318.219 50.1595C318.219 53.8839 315.206 56.8973 311.492 56.9079C307.768 56.9079 304.745 53.8945 304.745 50.1808C304.745 46.4564 307.036 40.5675 310.76 40.5675C314.474 40.5569 318.219 46.4352 318.219 50.1595Z" fill="#272728"/>
</g>
<path d="M220.802 151.289L251.092 185.243L269.203 138.748L296.14 152.711L273.436 206.157C271.197 210.878 267.792 215.006 263.399 217.828C258.657 220.884 252.302 222.922 245.872 218.889C233.003 210.815 203.752 163.354 203.752 163.354L220.802 151.289Z" fill="#FFBAA2"/>
<path d="M254.328 199.079C255.336 193.912 254.02 188.331 250.806 184.161" stroke="#FF7439" stroke-width="0.75" stroke-miterlimit="10" stroke-linecap="round" stroke-linejoin="round"/>
<path d="M379.51 162.409L410.989 161.062C409.875 157.666 400.305 123.84 398.416 120.794C390.799 108.497 372.837 104.475 358.45 102.947L326.876 100.475L303.907 102.205C292.756 103.043 282.847 109.621 277.722 119.553C276.693 121.537 275.802 123.352 275.123 124.742C268.768 137.846 262.147 153.91 262.147 153.91L290.082 157.645L281.595 240.418L380.741 240.471L380.476 228.853L379.51 162.409Z" fill="#38EF08"/>
<path d="M379.818 183.259L379.733 131.203" stroke="#272728" stroke-width="0.75" stroke-miterlimit="10" stroke-linecap="round" stroke-linejoin="round"/>
<path d="M288.088 171.906C288.088 171.906 292.894 137.602 294.825 123.999" stroke="#272728" stroke-width="0.75" stroke-miterlimit="10" stroke-linecap="round" stroke-linejoin="round"/>
<path d="M322.325 101.918L327.12 94.9681L342.822 101.197L358.97 94.5968L362.301 103.414L341.645 109.961L322.325 101.918Z" fill="#38EF08"/>
<path d="M323.121 100.762L336.573 110.873L342.769 101.557" stroke="#272728" stroke-width="0.75" stroke-miterlimit="10" stroke-linecap="round" stroke-linejoin="round"/>
<path d="M361.899 103.191L348.902 110.873L342.695 101.557" stroke="#272728" stroke-width="0.75" stroke-miterlimit="10" stroke-linecap="round" stroke-linejoin="round"/>
<path d="M342.843 102.024C341.294 112.815 339.13 137.071 339.066 137.538" stroke="#272728" stroke-width="0.75" stroke-miterlimit="10" stroke-linecap="round" stroke-linejoin="round"/>
<path d="M347.533 122.248C347.374 123.362 346.345 124.137 345.231 123.978C344.117 123.818 343.342 122.789 343.501 121.675C343.66 120.561 344.689 119.786 345.803 119.946C346.917 120.105 347.692 121.134 347.533 122.248Z" fill="white"/>
<path d="M346.186 131.638C346.027 132.753 344.997 133.527 343.883 133.368C342.769 133.209 341.995 132.18 342.154 131.065C342.313 129.951 343.342 129.177 344.456 129.336C345.57 129.495 346.345 130.524 346.186 131.638Z" fill="white"/>
<path d="M434.913 32.4717C430.129 26.8268 418.851 26.9011 418.331 26.986C418.331 26.986 411.88 27.0602 402.098 28.0046C390.396 29.1293 387.627 34.859 387.627 34.859C385.367 38.3712 385.42 42.8276 385.611 46.9976C385.876 52.9395 386.428 59.3271 390.258 63.8791C391.998 65.9375 394.29 67.4442 396.73 68.6114C394.99 72.601 391.531 75.8584 387.362 77.1529C391.001 79.4342 395.913 78.6702 399.541 76.3784C401.6 75.0839 403.318 73.3649 404.878 71.4869C409.005 72.5373 414.607 71.9962 418.84 71.5611C425.322 70.8927 429.025 69.9271 432.59 65.9693C438.149 59.8046 438.181 54.5099 438.139 46.9551C438.118 42.2122 439.083 37.395 434.913 32.4717Z" fill="white" stroke="#272728" stroke-width="0.75" stroke-miterlimit="10" stroke-linecap="round" stroke-linejoin="round"/>
<path d="M406.31 49.056C406.31 51.019 404.719 52.6106 402.756 52.6106C400.793 52.6106 399.202 51.019 399.202 49.056C399.202 47.0931 400.793 45.5015 402.756 45.5015C404.719 45.5015 406.31 47.0931 406.31 49.056Z" fill="#272728"/>
<path d="M413.015 52.6106C414.978 52.6106 416.569 51.0192 416.569 49.056C416.569 47.0929 414.978 45.5015 413.015 45.5015C411.052 45.5015 409.461 47.0929 409.461 49.056C409.461 51.0192 411.052 52.6106 413.015 52.6106Z" fill="#272728"/>
<path d="M422.85 52.6106C424.813 52.6106 426.404 51.0192 426.404 49.056C426.404 47.0929 424.813 45.5015 422.85 45.5015C420.887 45.5015 419.296 47.0929 419.296 49.056C419.296 51.0192 420.887 52.6106 422.85 52.6106Z" fill="#272728"/>
<path d="M318.07 171.821C317.402 169.104 319.46 166.77 319.46 166.77C319.46 166.77 318.187 165.741 318.537 164.224C318.887 162.706 321.062 160.213 321.062 160.213C321.062 160.213 318.898 158.186 320.171 156.022C321.444 153.857 325.412 152.531 325.412 152.531C325.412 152.531 310.644 145.846 308.002 144.106C305.36 142.366 306.039 139.321 309.275 138.323C312.171 137.432 332.796 145.782 337.04 147.523C337.528 147.724 337.804 147.841 337.804 147.841L350.27 161.369C350.27 161.369 345.528 180.299 343.979 181.476C342.43 182.654 320.744 175.651 320.744 175.651C320.744 175.651 318.739 174.527 318.07 171.821Z" fill="#FFBAA2"/>
<path d="M355.108 163.003L350.695 153.942C349.559 151.608 347.841 149.602 345.719 148.117C342.218 145.676 337.857 144.806 333.688 145.729L325.762 147.491C325.762 147.491 323.959 151.311 330.399 151.99C336.839 152.669 337.9 153.486 337.9 153.486C337.9 153.486 339.311 163.523 345.761 167.513L355.108 163.003Z" fill="#FFBAA2"/>
<path d="M413.493 204.427L408.74 161.168L380.518 162.282L383.181 186.654L352.636 160.945L338.515 178.739C338.515 178.739 366.758 210.465 384.964 222.837C389.632 226.009 395.446 227.261 400.91 225.839C407.169 224.205 413.769 219.038 413.493 204.427Z" fill="#FFBAA2"/>
<path d="M382.905 186.315C388.221 190.453 393.324 194.878 398.162 199.557" stroke="#FF7439" stroke-width="0.75" stroke-miterlimit="10" stroke-linecap="round" stroke-linejoin="round"/>
<path d="M332.139 145.623C333.348 146.048 335.247 147.045 336.573 147.65C339.608 149.029 342.08 150.398 344.52 152.647" stroke="#FF7439" stroke-width="0.75" stroke-miterlimit="10" stroke-linecap="round" stroke-linejoin="round"/>
<path d="M197.238 118.831C197.238 118.831 200.527 118.014 202.628 121.378C204.729 124.742 213.566 137.877 213.566 137.877L215.402 162.483L205.694 165.773L194.48 152.616C194.48 152.616 180.942 148.34 183.552 141.124C183.552 141.124 180.114 135.543 184.783 134.058C184.783 134.058 185.822 127.957 189.122 127.659C192.421 127.373 205.609 135.172 205.609 135.172C205.609 135.172 190.957 124.306 197.238 118.831Z" fill="#FFBAA2"/>
<path d="M253.596 127.458L251.506 135.373C251.506 135.373 228.017 133.909 210.797 144.424C210.797 144.424 180.921 149.072 171.744 160.807L165.643 156.542L180.475 135.67L215.741 122.397L245.809 119.712L253.596 127.458Z" fill="#CCBFD5"/>
<path d="M235.252 72.5267L253.427 127.522C253.427 127.522 227.9 121.166 209.302 138.673L190.342 84.2514C190.342 84.2408 215.031 62.1177 235.252 72.5267Z" fill="white" stroke="#272728" stroke-width="0.75" stroke-miterlimit="10"/>
<path d="M146.79 100.082L165.473 156.595C165.473 156.595 183.923 135.702 209.301 138.663L190.342 84.2408C190.342 84.2408 162.651 80.5271 146.79 100.082Z" fill="white" stroke="#272728" stroke-width="0.75" stroke-miterlimit="10" stroke-linecap="round" stroke-linejoin="round"/>
<path d="M185.218 147.268L189.706 163.98L182.406 160.648L178.831 167.566L174.248 153.687C174.258 153.698 175.818 150.812 185.218 147.268Z" fill="#D73F28"/>
<path d="M189.79 145.708C186.65 146.801 183.499 147.894 180.549 149.411C177.6 150.929 174.82 152.902 172.751 155.502" stroke="#272728" stroke-width="0.75" stroke-miterlimit="10" stroke-linecap="round" stroke-linejoin="round"/>
<path d="M186.724 89.4825L193.026 108.56C193.026 108.56 173.25 111.064 158.651 121.187L151.691 101.218C151.691 101.218 168.539 86.0234 186.724 89.4825Z" fill="#CCBFD5"/>
<path d="M189.928 107.096C189.928 107.096 182.077 98.9896 178.756 99.9233C175.775 100.762 172.974 106.746 172.974 106.746C172.974 106.746 165.473 101.154 161.972 102.534C157.75 104.199 159.447 117.325 159.447 117.325C159.447 117.325 173.048 108.104 189.928 107.096Z" fill="white"/>
<path d="M167.871 98.5545C168.338 99.9551 169.834 100.708 171.235 100.252C172.635 99.7854 173.388 98.2893 172.932 96.8887C172.465 95.4881 170.969 94.7347 169.569 95.191C168.168 95.6472 167.415 97.1539 167.871 98.5545Z" fill="white"/>
<path d="M194.268 113.123C182.173 115.012 170.163 118.651 159.957 125.421" stroke="#272728" stroke-width="0.75" stroke-miterlimit="10" stroke-linecap="round" stroke-linejoin="round"/>
<path d="M195.626 117.208C183.531 119.097 171.521 122.736 161.314 129.506" stroke="#272728" stroke-width="0.75" stroke-miterlimit="10" stroke-linecap="round" stroke-linejoin="round"/>
<path d="M196.973 121.282C184.879 123.171 172.868 126.811 162.662 133.58" stroke="#272728" stroke-width="0.75" stroke-miterlimit="10" stroke-linecap="round" stroke-linejoin="round"/>
<path d="M198.321 125.368C186.226 127.256 174.216 130.896 164.009 137.665" stroke="#272728" stroke-width="0.75" stroke-miterlimit="10" stroke-linecap="round" stroke-linejoin="round"/>
<path d="M199.806 129.866C187.711 131.755 175.701 135.395 165.495 142.164" stroke="#272728" stroke-width="0.75" stroke-miterlimit="10" stroke-linecap="round" stroke-linejoin="round"/>
<path d="M232.812 79.1053C224.25 77.0999 208.336 79.4767 197.366 88.7928" stroke="#272728" stroke-width="0.75" stroke-miterlimit="10" stroke-linecap="round" stroke-linejoin="round"/>
<path d="M234.181 83.2434C225.619 81.238 209.705 83.6148 198.734 92.9309" stroke="#272728" stroke-width="0.75" stroke-miterlimit="10" stroke-linecap="round" stroke-linejoin="round"/>
<path d="M235.55 87.3922C226.988 85.3868 211.073 87.7635 200.103 97.0797" stroke="#272728" stroke-width="0.75" stroke-miterlimit="10" stroke-linecap="round" stroke-linejoin="round"/>
<path d="M236.918 91.5303C228.356 89.5249 212.442 91.9017 201.472 101.218" stroke="#272728" stroke-width="0.75" stroke-miterlimit="10" stroke-linecap="round" stroke-linejoin="round"/>
<path d="M238.287 95.6684C229.725 93.663 213.811 96.0398 202.84 105.356" stroke="#272728" stroke-width="0.75" stroke-miterlimit="10" stroke-linecap="round" stroke-linejoin="round"/>
<path d="M240.568 102.576C232.006 100.571 216.091 102.947 205.121 112.263" stroke="#272728" stroke-width="0.75" stroke-miterlimit="10" stroke-linecap="round" stroke-linejoin="round"/>
<path d="M241.904 106.597C233.343 104.592 217.428 106.969 206.458 116.285" stroke="#272728" stroke-width="0.75" stroke-miterlimit="10" stroke-linecap="round" stroke-linejoin="round"/>
<path d="M243.231 110.629C234.669 108.624 218.754 111.001 207.784 120.317" stroke="#272728" stroke-width="0.75" stroke-miterlimit="10" stroke-linecap="round" stroke-linejoin="round"/>
<path d="M244.568 114.651C236.006 112.645 220.091 115.022 209.121 124.338" stroke="#272728" stroke-width="0.75" stroke-miterlimit="10" stroke-linecap="round" stroke-linejoin="round"/>
<path d="M223.582 155.937C223.582 155.937 223.667 142.642 219.518 134.376L209.683 121.389C209.683 121.389 207.275 121.41 206.416 125.686C205.471 130.386 209.641 137.177 209.641 137.177C208.803 139.936 206.256 145.613 207.646 150.207C209.025 154.801 214.606 158.918 214.606 158.918L223.582 155.937Z" fill="#FFBAA2"/>
<path d="M208.347 153.337C206.649 148.382 207.222 142.695 209.864 138.175C210.023 137.909 210.182 137.623 210.15 137.315C210.119 137.018 209.896 136.774 209.684 136.551C206.861 133.485 205.631 129.028 206.479 124.954C206.798 123.436 207.519 121.824 208.962 121.24" stroke="#FF7439" stroke-width="0.75" stroke-miterlimit="10" stroke-linecap="round" stroke-linejoin="round"/>
<path d="M376.274 296.917L370.544 305.098C380.305 312.811 392.634 317.416 406.033 317.416C437.66 317.416 463.304 291.771 463.304 260.14C463.304 235.227 447.389 214.016 425.184 206.143L418.988 218.154" stroke="black" stroke-width="2" stroke-miterlimit="10" stroke-linecap="round" stroke-linejoin="round"/>
<path d="M436.483 340.176C436.483 340.176 395.987 339.349 390.204 340.176C384.422 341.004 383.584 346.054 383.584 346.468L440.748 346.235C440.759 341.28 436.483 340.176 436.483 340.176Z" fill="black"/>
<path d="M417.513 316.875H407.922V339.815H417.513V316.875Z" fill="black"/>
<path d="M454.132 273.413C460.429 247.28 444.351 220.989 418.221 214.691C392.091 208.393 365.803 224.473 359.505 250.605C353.208 276.738 369.286 303.029 395.416 309.327C421.546 315.625 447.834 299.545 454.132 273.413Z" fill="#60B3FF"/>
<mask id="mask2_545_3479" style="mask-type:luminance" maskUnits="userSpaceOnUse" x="358" y="213" width="98" height="98">
<path d="M454.132 273.413C460.429 247.28 444.351 220.989 418.221 214.691C392.091 208.393 365.803 224.472 359.505 250.605C353.208 276.738 369.286 303.029 395.416 309.327C421.546 315.625 447.834 299.545 454.132 273.413Z" fill="white"/>
</mask>
<g mask="url(#mask2_545_3479)">
<path d="M393.037 215.353L395.276 218.218C395.276 218.218 394.692 220.626 394.151 220.478C393.61 220.329 391.053 220.181 391.658 221.38C392.263 222.589 393.461 223.035 396.485 222.282C399.498 221.528 403.265 220.626 404.177 220.775C405.079 220.924 404.93 223.788 408.697 226.048C412.463 228.308 421.057 230.876 421.959 233.136C422.86 235.396 423.465 246.4 424.675 249.572C425.884 252.734 425.725 253.859 426.181 254.273C426.637 254.686 437.035 254.273 437.035 254.273C437.035 254.273 437.788 249.264 440.95 250.018C444.111 250.771 444.716 258.761 444.716 258.761C444.716 258.761 445.013 262.835 446.827 265.541C448.631 268.257 455.029 268.799 455.029 268.799L461.288 265.69V235.089L437.926 211.873C437.926 211.873 416.07 205.846 413.354 202.525C410.638 199.204 393.154 212.318 393.154 212.318L393.037 215.353Z" fill="#00B15F"/>
</g>
<path d="M407.795 232.287C407.795 232.287 404.93 226.95 401.312 225.295C397.695 223.64 393.175 222.727 389.557 225.295C385.939 227.863 377.802 228.117 375.839 232.287C373.876 236.447 370.863 243.238 377.197 244.893C383.531 246.548 388.199 244.893 389.557 247.758C390.915 250.623 394.83 258.156 393.026 261.329C391.223 264.491 389.706 265.552 389.706 269.775C389.706 273.998 388.051 284.693 394.225 284.852C400.4 285.001 401.461 282.444 403.116 281.234C404.771 280.025 412.155 278.826 414.118 277.16C416.081 275.504 418.033 272.64 418.489 270.072C418.946 267.504 419.847 265.7 421.354 265.7C422.86 265.7 427.688 262.231 429.046 259.971C430.404 257.71 422.563 260.119 421.513 250.771C420.463 241.423 420.463 235.545 418.797 235.089C417.131 234.643 408.898 234.07 407.795 232.287Z" fill="#00B15F"/>
<path d="M424.208 274.656C422.043 275.345 418.298 276.491 418.298 276.491L416.06 278.645C416.06 278.645 415.221 282.667 415.221 283.038C415.221 283.409 415.221 283.781 415.221 283.781C415.221 283.781 412.516 287.611 415.221 288.078C417.927 288.545 421.577 286.582 423.168 284.439C424.759 282.285 427.094 276.311 427.189 275.94C427.21 275.855 427.157 275.727 427.051 275.579C426.415 274.666 425.247 274.316 424.208 274.656Z" fill="#00B15F"/>
<path d="M121.685 149.062C126.882 149.062 131.096 144.848 131.096 139.65C131.096 134.452 126.882 130.239 121.685 130.239C116.488 130.239 112.274 134.452 112.274 139.65C112.274 144.848 116.488 149.062 121.685 149.062Z" fill="#38EF08"/>
<path d="M131.828 153.518C132.762 151.725 131.881 149.497 130.629 147.916C129.367 146.335 127.711 145.04 126.767 143.258C125.918 141.666 125.706 139.809 125.632 138.006C125.452 133.984 125.844 129.91 125.123 125.941C124.401 121.973 122.301 117.962 118.619 116.318L112.837 161.2C121.027 161.391 129.207 161.593 137.398 161.784C137.812 158.198 135.319 154.473 131.828 153.518Z" fill="#272728"/>
<path d="M113.665 160.405L114.089 178.687L93.0715 179.164L91.6392 148.563L113.665 160.405Z" fill="#FFBAA2"/>
<path d="M124.189 125.719C124.295 126.122 125.823 143.894 125.409 148.16C125.006 152.415 121.495 159.651 113.251 160.415C103.31 161.338 91.0345 149.348 91.0345 149.348L90.3979 121.538C90.3979 121.538 95.4905 111.405 107.394 111.224C119.298 111.055 124.189 125.719 124.189 125.719Z" fill="#FFBAA2"/>
<path d="M124.762 131.735C124.751 131.65 123.669 131.576 122.852 131.756C117.155 133.029 116.349 137.157 116.349 137.157C116.349 137.157 118.534 139.353 123.202 138.547C124.094 138.398 124.401 138.239 125.155 137.868L124.762 131.735Z" fill="white"/>
<path d="M107.882 128.679C107.511 129.337 105.654 129.135 103.352 129.231C102.344 129.262 101.41 129.294 100.392 129.326C99.6173 129.326 99.0338 129.294 98.8216 128.965C98.62 128.658 98.9171 128.032 99.7446 127.48C100.562 126.918 101.845 126.504 103.278 126.472C104.71 126.44 106.004 126.79 106.842 127.278C107.691 127.766 108.052 128.35 107.882 128.679Z" fill="#272728"/>
<path d="M114.429 138.154C115.161 139.258 115.85 140.382 116.497 141.539C116.678 141.847 116.858 142.218 116.731 142.558C116.625 142.833 116.349 143.003 116.084 143.141C115.426 143.47 114.736 143.725 114.025 143.905" stroke="#272728" stroke-width="0.75" stroke-miterlimit="10" stroke-linecap="round" stroke-linejoin="round"/>
<path d="M93.2942 139.438C93.135 137.231 89.6869 135.905 87.4802 135.809C85.2734 135.714 83.1409 137.199 82.2709 139.226C81.4009 141.252 81.7086 143.693 82.8756 145.571C84.0427 147.449 85.9736 148.775 88.0849 149.433C90.1962 150.091 92.4666 150.102 94.6416 149.73L93.2942 139.438Z" fill="#D73F28"/>
<path d="M98.6416 155.057C98.6416 155.057 100.456 164.426 113.771 164.819L113.665 160.373C111.034 160.5 104.88 159.672 98.6416 155.057Z" fill="#272728"/>
<path d="M123.903 127.788C123.765 128.552 122.311 128.912 120.688 129.199C119.054 129.453 117.569 129.57 117.187 128.891C117.017 128.552 117.208 128.053 117.749 127.575C118.29 127.087 119.182 126.642 120.232 126.472C121.293 126.302 122.28 126.429 122.937 126.716C123.616 127.002 123.967 127.416 123.903 127.788Z" fill="#272728"/>
<path d="M123.213 138.557C124.104 138.409 124.444 138.239 125.197 137.857L125.112 135.512C125.102 135.088 125.07 134.663 125.027 134.239L124.773 131.703C124.762 131.618 123.638 131.576 122.831 131.756C122.205 131.894 121.876 132 121.367 132.191C121.356 132.276 120.561 137.273 121.834 138.706C122.205 138.674 122.789 138.632 123.213 138.557Z" fill="#272728"/>
<path d="M96.4238 135.151C96.4238 135.151 98.4184 131.406 104.19 132.265C109.962 133.125 110.619 137.082 110.619 137.082C110.619 137.082 106.683 139.884 102.503 139.045C97.8349 138.112 96.4238 135.151 96.4238 135.151Z" fill="white"/>
<path d="M104.625 132.202C104.53 132.191 104.434 132.18 104.339 132.17C104.307 132.233 102.503 135.99 104.466 139.194C108.052 139.247 111.054 137.008 111.054 137.008C111.054 137.008 110.397 133.05 104.625 132.202Z" fill="#272728"/>
<path d="M116.932 146.887C115.415 146.293 113.834 145.857 112.232 145.582C111.978 145.539 111.702 145.507 111.468 145.624C111.118 145.804 111.033 146.261 111.012 146.653C110.917 147.895 110.779 148.998 111.712 150.25C112.657 151.534 115.405 152.012 116.084 150.356" fill="#8A1A02"/>
<path d="M116.932 146.887C115.415 146.293 113.834 145.857 112.232 145.582C111.978 145.539 111.702 145.507 111.468 145.624C111.118 145.804 111.033 146.261 111.012 146.653C110.917 147.895 110.779 148.998 111.712 150.25C112.657 151.534 115.405 152.012 116.084 150.356" stroke="#272728" stroke-width="0.75" stroke-miterlimit="10" stroke-linecap="round" stroke-linejoin="round"/>
<path d="M112.423 110.683C106.376 105.845 95.4479 105.898 89.7188 111.108C87.6605 112.975 85.2522 114.641 84.0533 117.983C84.0533 117.983 82.8756 117.4 78.2605 122.068C74.5683 125.814 75.4914 131.438 75.4914 131.438C75.4914 131.438 71.0884 132.35 68.3087 136.382C66.3672 139.205 66.1338 145.221 67.0356 148.521C62.5265 150.08 59.8635 155.619 61.4443 160.107L93.8034 161.848C92.5091 150.844 93.8565 141.634 92.159 131.13C98.8748 124.997 108.317 122.355 112.423 110.683Z" fill="#272728"/>
<path d="M95.0193 145.749C97.2905 141.074 95.3419 135.442 90.6669 133.17C85.9918 130.899 80.3608 132.848 78.0895 137.523C75.8183 142.199 77.7669 147.83 82.442 150.102C87.117 152.373 92.7481 150.425 95.0193 145.749Z" fill="#38EF08"/>
<path d="M83.2256 137.74C83.2256 137.74 72.4993 116.912 89.7186 111.118C89.7186 111.118 84.1592 114.344 84.764 121.729C85.3687 129.114 88.3712 137.411 88.3712 137.411L83.2256 137.74Z" fill="#38EF08"/>
<path d="M108.042 109.474C108.02 109.739 120.444 121.962 125.293 127.087C125.293 127.087 125.982 117.973 121.579 113.293C114.641 105.93 108.042 109.474 108.042 109.474Z" fill="#272728"/>
<path d="M91.7347 142.239C91.5225 145.338 88.8383 147.682 85.7297 147.47C82.6317 147.258 80.287 144.574 80.4992 141.465C80.7114 138.366 83.3956 136.021 86.5042 136.234C89.6022 136.446 91.9469 139.13 91.7347 142.239Z" stroke="#0023AC" stroke-width="0.75" stroke-miterlimit="10" stroke-linecap="round" stroke-linejoin="round"/>
<path d="M80.6899 134.122C82.9179 132.424 85.8886 131.745 88.6365 132.318" stroke="#0023AC" stroke-width="0.75" stroke-miterlimit="10" stroke-linecap="round" stroke-linejoin="round"/>
<path d="M145.334 195.802L170.171 222.434L152.463 232.207L132.242 209.564L145.334 195.802Z" fill="#FFBAA2"/>
<path d="M133.812 179.281C130.194 175.344 119.998 173.53 114.662 173.35L92.9545 172.257C92.9545 172.257 74.409 172.501 68.2236 177.753C64.5103 180.904 57.2746 194.687 52.2881 207.654L76.5097 212.237C76.3824 226.074 76.5097 238.212 76.5097 238.212L76.7643 243.496L121.186 244.727L127.329 205.065L133.218 212.503L148.177 193.934L133.812 179.281Z" fill="white"/>
<path d="M76.499 222.944C76.5415 213.107 76.9552 190.093 76.9552 190.093" stroke="#272728" stroke-width="0.75" stroke-miterlimit="10" stroke-linecap="round" stroke-linejoin="round"/>
<path d="M124.433 223.824C128.507 204.683 127.584 193.998 123.542 188.926" stroke="#272728" stroke-width="0.75" stroke-miterlimit="10" stroke-linecap="round" stroke-linejoin="round"/>
<path d="M128.114 242.87L135.711 204.693C136.146 202.741 137.812 201.309 139.817 201.16L187.952 197.733C189.225 197.637 190.201 198.836 189.851 200.067L179.242 237.926C178.786 239.539 177.481 240.769 175.847 241.13L106.789 256.261C105.898 256.452 104.986 256.017 104.583 255.2C104.105 254.224 104.498 253.056 105.463 252.558L128.114 242.87Z" fill="#545454"/>
<path d="M162.924 223.188C162.033 224.652 160.272 225.204 158.988 224.418C157.704 223.633 157.397 221.819 158.288 220.355C159.179 218.89 160.94 218.339 162.224 219.124C163.508 219.909 163.815 221.723 162.924 223.188Z" fill="white"/>
<path d="M196.737 346.875L222.603 344.838L234.083 393.955L208.429 393.361L196.737 346.875Z" fill="#FFBAA2"/>
<path d="M215.654 388.48C213.798 386.495 210.371 383.694 205.437 385.095L203.623 407.483L269.36 406.963C269.36 406.963 269.774 401.074 260.373 397.287C250.942 393.488 234.539 383.387 232.555 383.535C230.571 383.684 229.351 385.381 227.516 386.962C226.89 387.504 225.426 388.862 224.354 389.583C221.596 391.451 217.935 390.92 215.654 388.48Z" fill="#272728"/>
<path d="M243.77 389C241.096 389.912 238.932 392.172 238.125 394.878" stroke="white" stroke-width="0.5" stroke-miterlimit="10" stroke-linecap="round" stroke-linejoin="round"/>
<path d="M248.141 391.143C245.244 392.077 242.963 394.708 242.443 397.7" stroke="white" stroke-width="0.5" stroke-miterlimit="10" stroke-linecap="round" stroke-linejoin="round"/>
<path d="M252.565 393.509C249.669 394.443 247.388 397.064 246.868 400.066" stroke="white" stroke-width="0.5" stroke-miterlimit="10" stroke-linecap="round" stroke-linejoin="round"/>
<path d="M269.402 413.712C265.816 415.569 263.62 413.85 261.328 413.68C258.941 413.51 256.161 415.484 253.859 415.505C249.838 415.547 247.504 413.85 244.48 413.818C240.035 413.765 238.168 415.982 233.552 415.675C230.115 415.441 229.033 413.892 225.585 413.892C223.113 413.892 220.343 415.887 217.458 415.887C213.002 415.887 213.575 414.391 211.134 414.253C208.27 414.083 207.761 416.534 203.761 416.099L203.687 407.451L269.423 406.359L269.402 413.712Z" fill="white"/>
<path d="M243.78 388.809C245.276 388.204 246.305 387.917 247.684 387.09C249.435 386.029 251.153 384.702 251.917 382.792C252.161 382.188 252.289 381.477 251.97 380.904C251.578 380.182 250.612 379.938 249.806 380.129C248.978 380.32 248.268 380.872 247.727 381.53C247.185 382.188 246.793 382.952 246.4 383.705C245.52 385.403 244.65 387.111 243.78 388.809Z" stroke="#272728" stroke-width="0.75" stroke-miterlimit="10" stroke-linecap="round" stroke-linejoin="round"/>
<path d="M244.045 388.83C242.847 387.758 241.966 387.132 240.958 385.891C239.664 384.299 238.497 382.463 238.433 380.416C238.412 379.768 238.528 379.057 239.017 378.622C239.632 378.071 240.629 378.177 241.319 378.622C242.03 379.089 242.518 379.843 242.804 380.638C243.091 381.434 243.207 382.294 243.313 383.132C243.557 385.031 243.801 386.931 244.045 388.83Z" stroke="#272728" stroke-width="0.75" stroke-miterlimit="10" stroke-linecap="round" stroke-linejoin="round"/>
<path d="M72.4253 273.482L81.4858 244.26L121.197 244.717L124.55 262.256L72.4253 273.482Z" fill="#FFBAA2"/>
<path d="M221.946 300.73L244.194 287.382L276.352 326.227L253.138 337.135L221.946 300.73Z" fill="#FFBAA2"/>
<path d="M257.424 329.538C254.878 328.583 250.56 327.607 246.772 331.066L255.122 351.915L313.739 322.142C313.739 322.142 311.48 316.688 301.39 317.484C291.258 318.28 272.076 316.561 270.357 317.58C268.649 318.598 268.309 320.657 267.365 322.895C267.047 323.659 266.336 325.527 265.71 326.652C264.066 329.559 260.554 330.716 257.424 329.538Z" fill="#272728"/>
<path d="M282.378 317.813C280.394 319.818 279.46 322.811 279.937 325.591" stroke="white" stroke-width="0.5" stroke-miterlimit="10" stroke-linecap="round" stroke-linejoin="round"/>
<path d="M287.247 317.781C285.062 319.903 284.192 323.277 285.072 326.195" stroke="white" stroke-width="0.5" stroke-miterlimit="10" stroke-linecap="round" stroke-linejoin="round"/>
<path d="M292.266 317.93C290.08 320.052 289.21 323.426 290.091 326.344" stroke="white" stroke-width="0.5" stroke-miterlimit="10" stroke-linecap="round" stroke-linejoin="round"/>
<path d="M316.774 328.169C314.387 331.437 311.66 330.875 309.527 331.745C307.31 332.657 305.697 335.66 303.66 336.711C300.085 338.546 297.231 338.069 294.515 339.374C290.504 341.305 289.836 344.127 285.56 345.91C282.378 347.236 280.722 346.334 277.635 347.873C275.418 348.976 273.837 351.99 271.248 353.274C267.259 355.258 267.11 353.666 264.861 354.621C262.219 355.746 262.856 358.165 259.079 359.566L255.164 351.862L313.527 321.58L316.774 328.169Z" fill="white"/>
<path d="M282.335 317.389C283.831 316.784 284.861 316.497 286.24 315.67C287.99 314.609 289.709 313.282 290.473 311.372C290.717 310.768 290.844 310.057 290.526 309.484C290.133 308.762 289.168 308.518 288.362 308.709C287.534 308.9 286.823 309.452 286.282 310.11C285.741 310.768 285.349 311.532 284.956 312.285C284.086 313.983 283.205 315.68 282.335 317.389Z" stroke="#272728" stroke-width="0.75" stroke-miterlimit="10" stroke-linecap="round" stroke-linejoin="round"/>
<path d="M282.601 317.399C281.402 316.328 280.521 315.702 279.513 314.46C278.219 312.869 277.052 311.033 276.988 308.985C276.967 308.338 277.084 307.627 277.572 307.192C278.187 306.64 279.184 306.746 279.874 307.192C280.585 307.659 281.073 308.412 281.359 309.208C281.646 310.004 281.762 310.863 281.869 311.701C282.113 313.611 282.357 315.5 282.601 317.399Z" stroke="#272728" stroke-width="0.75" stroke-miterlimit="10" stroke-linecap="round" stroke-linejoin="round"/>
<path d="M261.084 304.051L209.14 236.801C209.14 236.801 197.395 221.405 178.775 228.313C160.156 235.22 74.4624 266.914 74.4624 266.914C74.4624 266.914 72.3723 270.203 70.5369 275.137C63.3542 294.523 79.4277 315.097 99.8404 311.829C100.297 311.754 100.742 311.669 101.198 311.574L190.011 266.797L232.82 326.047L261.084 304.051Z" fill="black"/>
<path d="M233.075 368.977L221.712 284.273C221.712 284.273 218.933 257.396 194.7 263.211C170.468 269.015 100.668 311.542 100.668 311.542L182.478 308.168L201.342 376.055L233.075 368.977Z" fill="black"/>
<path d="M100.668 311.542C100.668 311.542 170.468 269.015 194.7 263.211C218.933 257.407 221.712 284.273 221.712 284.273L233.075 368.977L201.84 376.256" stroke="#F7F7F7" stroke-width="0.75" stroke-miterlimit="10" stroke-linecap="round" stroke-linejoin="round"/>
<path d="M182.468 308.168C184.059 300.486 187.741 294.194 191.995 288.453" stroke="white" stroke-width="0.75" stroke-miterlimit="10" stroke-linecap="round" stroke-linejoin="round"/>
<path d="M77.4331 267.826C95.0025 260.579 109.283 254.319 126.725 247.369" stroke="#E0E0E0" stroke-width="0.75" stroke-miterlimit="10" stroke-linecap="round" stroke-linejoin="round"/>
<path d="M99.7236 237.374L109.124 227.145C109.124 227.145 113.017 222.02 115.054 221.84C118.28 221.564 123.33 223.495 123.383 223.941C123.595 225.469 121.855 226.678 119.022 226.487L116.094 226.445L114.174 228.832C114.174 228.832 117.335 229.098 119.277 230.084C121.537 231.23 125.399 233.459 125.282 235.114C125.165 236.769 124.147 237.045 124.147 237.045C124.147 237.045 126.343 241.544 122.195 241.088C122.195 241.088 122.534 245.958 119.67 243.762C116.816 241.555 112.094 242.074 112.094 242.074C112.094 242.074 110.089 244.621 106.641 246.828C103.437 248.886 101.57 246.754 101.57 246.754L99.7236 237.374Z" fill="#FFBAA2"/>
<path d="M101.474 235.846L66.8764 242.032L75.9051 212.184L57.2747 208.662L47.8216 243.698C47.1002 246.881 47.1851 250.223 48.2566 253.311C49.4131 256.643 51.7472 260.091 56.4684 260.59C65.9109 261.587 104.721 247.178 104.721 247.178L101.474 235.846Z" fill="#FFBAA2"/>
<path d="M109.633 231.326C109.856 230.435 110.45 229.639 111.235 229.161C112.02 228.684 113.007 228.535 113.898 228.758" fill="#FFBAA2"/>
<path d="M109.633 231.326C109.856 230.435 110.45 229.639 111.235 229.161C112.02 228.684 113.007 228.535 113.898 228.758" stroke="#272728" stroke-width="0.75" stroke-miterlimit="10" stroke-linecap="round" stroke-linejoin="round"/>
<path d="M110.577 234.361C111.511 232.249 112.795 232.069 113.548 231.899C114.641 231.665 116.338 232.398 117.325 232.918C119.86 234.244 121.919 235.613 124.147 237.194" fill="#FFBAA2"/>
<path d="M110.577 234.361C111.511 232.249 112.795 232.069 113.548 231.899C114.641 231.665 116.338 232.398 117.325 232.918C119.86 234.244 121.919 235.613 124.147 237.194" stroke="#272728" stroke-width="0.75" stroke-miterlimit="10" stroke-linecap="round" stroke-linejoin="round"/>
<path d="M110.386 238.403C110.248 237.289 111.267 236.292 112.37 236.079C113.473 235.867 114.598 236.249 115.627 236.695C118.142 237.788 120.433 239.305 122.672 240.886" fill="#FFBAA2"/>
<path d="M110.386 238.403C110.248 237.289 111.267 236.292 112.37 236.079C113.473 235.867 114.598 236.249 115.627 236.695C118.142 237.788 120.433 239.305 122.672 240.886" stroke="#272728" stroke-width="0.75" stroke-miterlimit="10" stroke-linecap="round" stroke-linejoin="round"/>
<path d="M59.959 247.592C61.4549 244.663 64.2559 242.425 67.4493 241.618L59.959 247.592Z" fill="#FFBAA2"/>
<path d="M59.959 247.592C61.4549 244.663 64.2559 242.425 67.4493 241.618" stroke="#272728" stroke-width="0.75" stroke-miterlimit="10" stroke-linecap="round" stroke-linejoin="round"/>
</g>
<defs>
<clipPath id="clip0_545_3479">
<rect width="489" height="424" fill="white"/>
</clipPath>
</defs>
</svg>
