<svg width="125" height="125" viewBox="0 0 125 125" fill="none" xmlns="http://www.w3.org/2000/svg">
<rect width="125" height="125" rx="18" fill="#5DD62C"/>
<path d="M37.0911 19.69H87.9089C88.8184 19.6876 89.7195 19.865 90.5602 20.212C91.4009 20.559 92.1648 21.0689 92.8078 21.7121C93.4508 22.3554 93.9604 23.1194 94.3071 23.9603C94.6538 24.8012 94.8309 25.7023 94.8281 26.6118V98.3905C94.8305 99.2998 94.6532 100.201 94.3063 101.041C93.9595 101.882 93.4499 102.646 92.8069 103.289C92.1639 103.932 91.4002 104.441 90.5596 104.788C89.719 105.135 88.8182 105.312 87.9089 105.31H37.0911C36.1818 105.312 35.281 105.135 34.4404 104.788C33.5998 104.441 32.8361 103.932 32.1931 103.289C31.5501 102.646 31.0405 101.882 30.6937 101.041C30.3468 100.201 30.1695 99.2998 30.1719 98.3905V26.6118C30.1691 25.7025 30.3461 24.8016 30.6927 23.9609C31.0392 23.1202 31.5485 22.3563 32.1913 21.7131C32.834 21.0698 33.5976 20.56 34.438 20.2128C35.2784 19.8656 36.1792 19.6879 37.0885 19.69M39.974 43.9738H86.0755M39.974 52.8957H86.0755M39.974 61.8228H86.0755M39.974 70.7447H86.0755M39.974 35.0493H58.4557M39.974 79.6691H58.4557M39.974 88.5936H86.0755M30.1693 98.2707H94.8307M51.7161 98.2707V105.307M73.2865 98.2707V105.307M30.1276 95.9322L14.5625 37.8228C14.3245 36.945 14.2622 36.0289 14.3795 35.1271C14.4967 34.2252 14.791 33.3554 15.2455 32.5677C15.6999 31.78 16.3056 31.0898 17.0277 30.537C17.7498 29.9841 18.5741 29.5794 19.4531 29.3462L30.1302 26.4842M94.8724 95.9322L110.438 37.8228C110.676 36.945 110.738 36.0289 110.621 35.1271C110.503 34.2252 110.209 33.3554 109.755 32.5677C109.3 31.78 108.694 31.0898 107.972 30.537C107.25 29.9841 106.426 29.5794 105.547 29.3462L94.8698 26.4842" stroke="white" stroke-width="4" stroke-linecap="round" stroke-linejoin="round"/>
</svg>
