<svg width="43" height="51" viewBox="0 0 43 51" fill="none" xmlns="http://www.w3.org/2000/svg">
<path d="M12.1748 11.3H1.6748C1.19156 11.3 0.799805 11.6917 0.799805 12.175V48.925C0.799805 49.4082 1.19156 49.8 1.6748 49.8H12.1748C12.6581 49.8 13.0498 49.4082 13.0498 48.925V12.175C13.0498 11.6917 12.6581 11.3 12.1748 11.3Z" fill="#219653" stroke="#219653" stroke-width="1.6" stroke-linejoin="round"/>
<path d="M0.799805 16.7985H13.0498M0.799805 44.2988H13.0498" stroke="#F2C94C" stroke-width="1.6" stroke-linejoin="round"/>
<path d="M24.4248 0.799988H13.9248C13.4416 0.799988 13.0498 1.19174 13.0498 1.67499V48.925C13.0498 49.4082 13.4416 49.8 13.9248 49.8H24.4248C24.9081 49.8 25.2998 49.4082 25.2998 48.925V1.67499C25.2998 1.19174 24.9081 0.799988 24.4248 0.799988Z" fill="#F2994A" stroke="#F2994A" stroke-width="1.6" stroke-linejoin="round"/>
<path d="M13.0498 7.79822H25.2998M13.0498 42.7982H25.2998" stroke="#EB5757" stroke-width="1.6" stroke-linejoin="round"/>
<path fill-rule="evenodd" clip-rule="evenodd" d="M28.0908 20.2101C29.3182 20.5875 30.6159 20.6785 31.8839 20.4761L33.5368 20.2119C34.805 20.0081 36.0095 19.5163 37.0578 18.7742L41.6787 47.6457C40.4513 47.2683 39.1537 47.1773 37.8856 47.3797L36.2318 47.644C34.964 47.8478 33.7598 48.3396 32.7117 49.0816L28.0908 20.2101Z" fill="#F2F2F2"/>
<path d="M27.9248 19.175L32.8773 50.1176M36.8918 17.74L41.8443 48.6817" stroke="#F2994A" stroke-width="1.6" stroke-linecap="round" stroke-linejoin="round"/>
</svg>
