<svg width="43" height="43" viewBox="0 0 43 43" fill="none" xmlns="http://www.w3.org/2000/svg">
<path d="M15.5286 7.83374C18.4444 7.83389 20.8333 10.2226 20.8333 13.1384L22.1663 13.1404C22.1705 11.7342 22.7315 10.3867 23.7258 9.39233C24.6579 8.46034 25.9001 7.90935 27.2102 7.84058L27.4739 7.83374H38.7502V27.9998H27.4719C25.8624 27.9998 24.6107 28.4048 23.6497 29.0457C22.6927 29.6838 22.0624 30.5295 21.6497 31.3552C21.5977 31.4591 21.5486 31.5626 21.5032 31.6658C21.4587 31.5637 21.4113 31.4609 21.3606 31.3582C20.9533 30.5332 20.3313 29.6866 19.385 29.0476C18.4339 28.4055 17.1947 27.9998 15.6018 27.9998H4.25024V7.83374H15.5286Z" fill="black" fill-opacity="0.16" stroke="white" stroke-width="1.33333"/>
<path d="M21.4999 13.1384C21.4999 9.85425 18.8124 7.16675 15.5283 7.16675H3.58325V28.6667H15.6018C21.4999 28.6667 21.4999 34.6402 21.4999 34.6402M21.4999 13.1384C21.4999 9.85246 24.1874 7.16675 27.4715 7.16675H39.4166V28.6667H27.4715C21.4999 28.6667 21.4999 34.6402 21.4999 34.6402M21.4999 13.1384V34.6402M24.8593 36.654C25.2331 35.8798 25.8155 35.2251 26.5409 34.7637C27.2663 34.3022 28.1061 34.0522 28.9658 34.0417H37.6249M18.1405 36.654C17.7735 35.8745 17.1928 35.2152 16.4658 34.7528C15.7389 34.2904 14.8956 34.0438 14.034 34.0417H5.37492" stroke="white" stroke-width="2" stroke-miterlimit="10" stroke-linecap="round" stroke-linejoin="round"/>
</svg>
