<svg width="18" height="15" viewBox="0 0 18 15" fill="none" xmlns="http://www.w3.org/2000/svg">
<path d="M9.5625 2.05029C10.2983 1.2616 11.5673 1.03609 13.0635 1.18948C14.4518 1.33142 15.8794 1.78815 16.875 2.21169V13.5704C15.8422 13.1698 14.5046 12.7783 13.1771 12.6432C11.9464 12.5162 10.6144 12.5986 9.5625 13.2064V2.05029ZM9 1.01549C7.89187 0.045935 6.28538 -0.0982958 4.82288 0.0505138C3.11963 0.225651 1.40062 0.819745 0.329625 1.3154C0.231355 1.36087 0.148022 1.43416 0.0895736 1.52651C0.031125 1.61887 2.98928e-05 1.72638 0 1.83623L0 14.4278C2.60572e-05 14.5236 0.0236668 14.6178 0.0687567 14.7019C0.113847 14.7859 0.178944 14.8571 0.258087 14.9089C0.33723 14.9608 0.427888 14.9916 0.521756 14.9985C0.615625 15.0054 0.709704 14.9883 0.795375 14.9486C1.78763 14.4908 3.38625 13.9402 4.93538 13.7811C6.5205 13.6185 7.84912 13.8807 8.56125 14.785C8.61396 14.8518 8.68074 14.9058 8.75668 14.9428C8.83262 14.9799 8.91577 14.9991 9 14.9991C9.08423 14.9991 9.16738 14.9799 9.24332 14.9428C9.31925 14.9058 9.38604 14.8518 9.43875 14.785C10.1509 13.8807 11.4795 13.6185 13.0635 13.7811C14.6138 13.9402 16.2135 14.4908 17.2046 14.9486C17.2903 14.9883 17.3844 15.0054 17.4782 14.9985C17.5721 14.9916 17.6628 14.9608 17.7419 14.9089C17.8211 14.8571 17.8862 14.7859 17.9312 14.7019C17.9763 14.6178 18 14.5236 18 14.4278V1.83623C18 1.72638 17.9689 1.61887 17.9104 1.52651C17.852 1.43416 17.7686 1.36087 17.6704 1.3154C16.5994 0.819745 14.8804 0.225651 13.1771 0.0505138C11.7146 -0.0994405 10.1081 0.045935 9 1.01549Z" fill="white"/>
</svg>
