<svg width="63" height="61" viewBox="0 0 63 61" fill="none" xmlns="http://www.w3.org/2000/svg">
<path fill-rule="evenodd" clip-rule="evenodd" d="M10.1249 30.8722H24.2999C25.374 30.8722 26.4042 31.2989 27.1637 32.0584C27.9232 32.8179 28.3499 33.848 28.3499 34.9222V54.8168C28.3499 55.8909 27.9232 56.921 27.1637 57.6806C26.4042 58.4401 25.374 58.8668 24.2999 58.8668C23.2258 58.8668 22.1956 58.4401 21.4361 57.6806C20.6766 56.921 20.2499 55.8909 20.2499 54.8168V47.9247H19.1311C19.3314 48.7791 19.2487 49.6755 18.8956 50.4789C18.5424 51.2822 17.9379 51.9492 17.1729 52.3793C16.4079 52.8094 15.524 52.9794 14.654 52.8637C13.7841 52.748 12.9753 52.3528 12.3494 51.7378L12.1752 51.5666C11.2048 50.613 10.5402 49.3921 10.266 48.0595C9.99178 46.7268 10.1204 45.3427 10.6356 44.0834C11.1507 42.8241 12.029 41.7467 13.1586 40.9882C14.2882 40.2298 15.6179 39.8248 16.9785 39.8247H20.2499V38.9722H9.1124C7.23268 38.9722 5.42995 38.2254 4.10078 36.8963C2.77162 35.5671 2.0249 33.7644 2.0249 31.8847V29.0081C2.0249 27.1284 2.77162 25.3257 4.10078 23.9965C5.42995 22.6674 7.23268 21.9206 9.1124 21.9206H20.2499V21.0681H16.9785C15.6179 21.068 14.2882 20.663 13.1586 19.9046C12.029 19.1462 11.1507 18.0687 10.6356 16.8094C10.1204 15.5501 9.99178 14.166 10.266 12.8334C10.5402 11.5007 11.2048 10.2798 12.1752 9.32616L12.3494 9.15505C12.9753 8.53996 13.7841 8.14482 14.654 8.02913C15.524 7.91343 16.4079 8.08342 17.1729 8.51353C17.9379 8.94363 18.5424 9.61057 18.8956 10.414C19.2487 11.2173 19.3314 12.1137 19.1311 12.9681H20.2499V6.07502C20.2499 5.0009 20.6766 3.97076 21.4361 3.21124C22.1956 2.45172 23.2258 2.02502 24.2999 2.02502C25.374 2.02502 26.4042 2.45172 27.1637 3.21124C27.9232 3.97076 28.3499 5.0009 28.3499 6.07502V25.9696C28.3499 27.0438 27.9232 28.0739 27.1637 28.8334C26.4042 29.5929 25.374 30.0196 24.2999 30.0196H10.1249V30.8722Z" fill="#F2C94C"/>
<path d="M10.125 30.8721H8.1C8.1 31.4092 8.31335 31.9243 8.69311 32.304C9.07287 32.6838 9.58794 32.8971 10.125 32.8971V30.8721ZM20.25 47.9247H22.275C22.275 47.3876 22.0617 46.8725 21.6819 46.4928C21.3021 46.113 20.7871 45.8997 20.25 45.8997V47.9247ZM19.1312 47.9247V45.8997C18.8261 45.8996 18.5249 45.9685 18.2501 46.1012C17.9753 46.2339 17.7341 46.4269 17.5444 46.666C17.3548 46.905 17.2216 47.1838 17.1548 47.4815C17.088 47.7793 17.0894 48.0882 17.1588 48.3853L19.1312 47.9247ZM20.25 39.8247V41.8497C20.7871 41.8497 21.3021 41.6363 21.6819 41.2566C22.0617 40.8768 22.275 40.3617 22.275 39.8247H20.25ZM20.25 38.9721H22.275C22.275 38.4351 22.0617 37.92 21.6819 37.5402C21.3021 37.1605 20.7871 36.9471 20.25 36.9471V38.9721ZM20.25 21.9196V23.9446C20.7871 23.9446 21.3021 23.7313 21.6819 23.3515C22.0617 22.9717 22.275 22.4567 22.275 21.9196H20.25ZM20.25 21.0671H22.275C22.275 20.53 22.0617 20.015 21.6819 19.6352C21.3021 19.2554 20.7871 19.0421 20.25 19.0421V21.0671ZM19.1312 12.9671L17.1588 12.5074C17.0896 12.8045 17.0884 13.1133 17.1552 13.4109C17.2221 13.7085 17.3553 13.9872 17.5449 14.2261C17.7346 14.465 17.9757 14.658 18.2504 14.7906C18.5251 14.9232 18.8262 14.9921 19.1312 14.9921V12.9671ZM20.25 12.9671V14.9921C20.7871 14.9921 21.3021 14.7787 21.6819 14.399C22.0617 14.0192 22.275 13.5042 22.275 12.9671H20.25ZM10.125 30.0196V27.9946C9.58794 27.9946 9.07287 28.208 8.69311 28.5877C8.31335 28.9675 8.1 29.4825 8.1 30.0196H10.125ZM24.3 28.8471H10.125V32.8971H24.3V28.8471ZM30.375 34.9221C30.375 33.311 29.735 31.7657 28.5957 30.6265C27.4564 29.4872 25.9112 28.8471 24.3 28.8471V32.8971C24.8371 32.8971 25.3521 33.1105 25.7319 33.4902C26.1117 33.87 26.325 34.3851 26.325 34.9221H30.375ZM30.375 43.8747V34.9221H26.325V43.8747H30.375ZM30.375 54.8168V43.8747H26.325V54.8168H30.375ZM24.3 60.8918C25.9112 60.8918 27.4564 60.2517 28.5957 59.1124C29.735 57.9731 30.375 56.4279 30.375 54.8168H26.325C26.325 55.3538 26.1117 55.8689 25.7319 56.2486C25.3521 56.6284 24.8371 56.8418 24.3 56.8418V60.8918ZM18.225 54.8178C18.225 56.429 18.865 57.9731 20.0043 59.1124C21.1436 60.2517 22.6888 60.8918 24.3 60.8918V56.8418C23.7629 56.8418 23.2479 56.6284 22.8681 56.2486C22.4883 55.8689 22.275 55.3538 22.275 54.8168L18.225 54.8178ZM18.225 47.9247V54.8178L22.275 54.8168V47.9247H18.225ZM19.1312 49.9497H20.25V45.8997H19.1312V49.9497ZM19.521 53.1056C20.2387 52.3752 20.7602 51.4751 21.0369 50.4891C21.3135 49.5032 21.3365 48.4632 21.1035 47.466L17.1588 48.3853C17.2372 48.7182 17.23 49.0644 17.138 49.3937C17.0459 49.723 16.872 50.0237 16.6323 50.2676L19.521 53.1056ZM10.9299 53.1826C11.4991 53.7416 12.1728 54.1831 12.9125 54.4818C13.6523 54.7805 14.4437 54.9305 15.2414 54.9234C16.0392 54.9162 16.8277 54.752 17.562 54.4401C18.2963 54.1283 18.962 53.6748 19.521 53.1056L16.6323 50.2676C16.446 50.4574 16.224 50.6086 15.9792 50.7126C15.7343 50.8166 15.4714 50.8713 15.2054 50.8737C14.9394 50.876 14.6755 50.8259 14.4289 50.7263C14.1823 50.6266 13.9577 50.4794 13.768 50.2929L10.9299 53.1826ZM10.7558 53.0115L10.9299 53.1826L13.768 50.2929L13.5948 50.1228L10.7558 53.0115ZM8.1 46.6793C8.10003 47.8584 8.33488 49.0257 8.79085 50.113C9.24683 51.2004 9.9148 52.185 10.7558 53.0115L13.5948 50.1238C13.1373 49.6742 12.7738 49.138 12.5257 48.5464C12.2777 47.9548 12.1499 47.3198 12.15 46.6783L8.1 46.6793ZM16.9786 37.8007C14.6241 37.8009 12.3661 38.7363 10.7011 40.4011C9.03616 42.0659 8.10054 44.3248 8.1 46.6793L12.15 46.6783C12.1503 45.3977 12.6591 44.1697 13.5646 43.2642C14.47 42.3587 15.6981 41.8499 16.9786 41.8497V37.8007ZM20.25 37.8007H16.9786V41.8497H20.25V37.8007ZM18.225 38.9732V39.8257L22.275 39.8247V38.9721L18.225 38.9732ZM9.1125 40.9982H20.25V36.9471L9.1125 36.9482V40.9982ZM0 31.8857C0 34.3024 0.960064 36.6202 2.66899 38.3292C4.37791 40.0381 6.69571 40.9982 9.1125 40.9982V36.9482C7.76984 36.9482 6.48218 36.4148 5.53277 35.4654C4.58337 34.516 4.05 33.2273 4.05 31.8846L0 31.8857ZM0 30.4469V31.8857L4.05 31.8846V30.4479L0 30.4469ZM0 29.0081V30.4469L4.05 30.4459V29.0081H0ZM9.1125 19.8956C6.69571 19.8956 4.37791 20.8557 2.66899 22.5646C0.960064 24.2735 0 26.5913 0 29.0081H4.05C4.05 27.6655 4.58337 26.3778 5.53277 25.4284C6.48218 24.479 7.76984 23.9456 9.1125 23.9456V19.8956ZM20.25 19.8956H9.1125V23.9456H20.25V19.8956ZM18.225 21.0681V21.9206L22.275 21.9196V21.0681H18.225ZM16.9786 23.0931H20.25V19.0431H16.9786V23.0931ZM8.1 14.2135C8.10027 16.5681 9.03578 18.8263 10.7008 20.4913C12.3658 22.1563 14.6239 23.0928 16.9786 23.0931V19.0421C15.6981 19.0418 14.47 18.533 13.5646 17.6275C12.6591 16.722 12.1503 15.494 12.15 14.2135H8.1ZM10.7558 7.88029C9.9148 8.70673 9.24683 9.69238 8.79085 10.7797C8.33488 11.8671 8.10003 13.0344 8.1 14.2135H12.15C12.15 12.9185 12.6704 11.6772 13.5948 10.77L10.7558 7.88029ZM10.9299 7.71019L10.7558 7.88029L13.5948 10.77L13.768 10.5989L10.9299 7.71019ZM19.521 7.78613C18.9619 7.21704 18.2962 6.76365 17.5618 6.45184C16.8275 6.14004 16.039 5.97592 15.2412 5.96887C14.4434 5.96182 13.6521 6.11197 12.9124 6.41075C12.1727 6.70952 11.499 7.15107 10.9299 7.71019L13.768 10.5989C13.9577 10.4124 14.1823 10.2651 14.4289 10.1655C14.6755 10.0658 14.9394 10.0157 15.2054 10.0181C15.4714 10.0204 15.7343 10.0752 15.9792 10.1792C16.224 10.2832 16.446 10.4344 16.6323 10.6242L19.521 7.78613ZM21.1035 13.4268C21.3367 12.4294 21.3138 11.3893 21.0371 10.4031C20.7604 9.4169 20.2389 8.51668 19.521 7.78613L16.6323 10.6242C17.1356 11.1365 17.3127 11.8483 17.1588 12.5074L21.1035 13.4268ZM20.25 10.9421H19.1312V14.9921H20.25V10.9421ZM18.225 6.075V12.9671H22.275V6.075H18.225ZM24.3 0C22.6888 0 21.1436 0.640042 20.0043 1.77933C18.865 2.91861 18.225 4.46381 18.225 6.075H22.275C22.275 5.53794 22.4883 5.02287 22.8681 4.64311C23.2479 4.26335 23.7629 4.05 24.3 4.05V0ZM30.375 6.075C30.375 4.46381 29.735 2.91861 28.5957 1.77933C27.4564 0.640042 25.9112 0 24.3 0V4.05C24.8371 4.05 25.3521 4.26335 25.7319 4.64311C26.1117 5.02287 26.325 5.53794 26.325 6.075H30.375ZM30.375 17.0171V6.075H26.325V17.0171H30.375ZM30.375 25.9696V17.0171H26.325V25.9696H30.375ZM24.3 32.0446C25.9112 32.0446 27.4564 31.4046 28.5957 30.2653C29.735 29.126 30.375 27.5808 30.375 25.9696H26.325C26.325 26.5067 26.1117 27.0217 25.7319 27.4015C25.3521 27.7813 24.8371 27.9946 24.3 27.9946V32.0446ZM10.125 32.0446H24.3V27.9946H10.125V32.0446ZM12.15 30.4459V30.0206H8.1V30.4459H12.15ZM12.15 30.8721V30.4459H8.1V30.8721H12.15Z" fill="#EB5757"/>
<path fill-rule="evenodd" clip-rule="evenodd" d="M52.6498 30.8722H38.4748C37.4007 30.8722 36.3705 31.2989 35.611 32.0584C34.8515 32.8179 34.4248 33.848 34.4248 34.9222V54.8168C34.4248 55.8909 34.8515 56.921 35.611 57.6806C36.3705 58.4401 37.4007 58.8668 38.4748 58.8668C39.5489 58.8668 40.5791 58.4401 41.3386 57.6806C42.0981 56.921 42.5248 55.8909 42.5248 54.8168V47.9247H43.6436C43.4433 48.7791 43.526 49.6755 43.8791 50.4789C44.2323 51.2822 44.8369 51.9492 45.6018 52.3793C46.3668 52.8094 47.2507 52.9794 48.1207 52.8637C48.9906 52.748 49.7994 52.3528 50.4253 51.7378L50.5995 51.5666C51.5699 50.613 52.2346 49.3921 52.5087 48.0595C52.7829 46.7268 52.6543 45.3427 52.1391 44.0834C51.624 42.8241 50.7457 41.7467 49.6161 40.9882C48.4865 40.2298 47.1568 39.8248 45.7962 39.8247H42.5248V38.9722H53.6623C55.542 38.9722 57.3448 38.2254 58.6739 36.8963C60.0031 35.5671 60.7498 33.7644 60.7498 31.8847V29.0081C60.7498 27.1284 60.0031 25.3257 58.6739 23.9965C57.3448 22.6674 55.542 21.9206 53.6623 21.9206H42.5248V21.0681H45.7962C47.1568 21.068 48.4865 20.663 49.6161 19.9046C50.7457 19.1462 51.624 18.0687 52.1391 16.8094C52.6543 15.5501 52.7829 14.166 52.5087 12.8334C52.2346 11.5007 51.5699 10.2798 50.5995 9.32616L50.4253 9.15505C49.7994 8.53996 48.9906 8.14482 48.1207 8.02913C47.2507 7.91343 46.3668 8.08342 45.6018 8.51353C44.8369 8.94363 44.2323 9.61057 43.8791 10.414C43.526 11.2173 43.4433 12.1137 43.6436 12.9681H42.5248V6.07502C42.5248 5.0009 42.0981 3.97076 41.3386 3.21124C40.5791 2.45172 39.5489 2.02502 38.4748 2.02502C37.4007 2.02502 36.3705 2.45172 35.611 3.21124C34.8515 3.97076 34.4248 5.0009 34.4248 6.07502V25.9696C34.4248 27.0438 34.8515 28.0739 35.611 28.8334C36.3705 29.5929 37.4007 30.0196 38.4748 30.0196H52.6498V30.8722Z" fill="#F2C94C"/>
<path d="M52.6499 30.8721H54.6749C54.6749 31.4092 54.4616 31.9243 54.0818 32.304C53.702 32.6838 53.187 32.8971 52.6499 32.8971V30.8721ZM42.5249 47.9247H40.4999C40.4999 47.3876 40.7132 46.8725 41.093 46.4928C41.4728 46.113 41.9878 45.8997 42.5249 45.8997V47.9247ZM43.6437 47.9247V45.8997C43.9488 45.8996 44.25 45.9685 44.5248 46.1012C44.7996 46.2339 45.0408 46.4269 45.2305 46.666C45.4201 46.905 45.5533 47.1838 45.6201 47.4815C45.6869 47.7793 45.6855 48.0882 45.6161 48.3853L43.6437 47.9247ZM42.5249 39.8247V41.8497C41.9878 41.8497 41.4728 41.6363 41.093 41.2566C40.7132 40.8768 40.4999 40.3617 40.4999 39.8247H42.5249ZM42.5249 38.9721H40.4999C40.4999 38.4351 40.7132 37.92 41.093 37.5402C41.4728 37.1605 41.9878 36.9471 42.5249 36.9471V38.9721ZM42.5249 21.9196V23.9446C41.9878 23.9446 41.4728 23.7313 41.093 23.3515C40.7132 22.9717 40.4999 22.4567 40.4999 21.9196H42.5249ZM42.5249 21.0671H40.4999C40.4999 20.53 40.7132 20.015 41.093 19.6352C41.4728 19.2554 41.9878 19.0421 42.5249 19.0421V21.0671ZM43.6437 12.9671L45.6161 12.5074C45.6853 12.8045 45.6865 13.1133 45.6197 13.4109C45.5528 13.7085 45.4196 13.9872 45.23 14.2261C45.0403 14.465 44.7992 14.658 44.5245 14.7906C44.2498 14.9232 43.9487 14.9921 43.6437 14.9921V12.9671ZM42.5249 12.9671V14.9921C41.9878 14.9921 41.4728 14.7787 41.093 14.399C40.7132 14.0192 40.4999 13.5042 40.4999 12.9671H42.5249ZM52.6499 30.0196V27.9946C53.187 27.9946 53.702 28.208 54.0818 28.5877C54.4616 28.9675 54.6749 29.4825 54.6749 30.0196H52.6499ZM38.4749 28.8471H52.6499V32.8971H38.4749V28.8471ZM32.3999 34.9221C32.3999 33.311 33.0399 31.7657 34.1792 30.6265C35.3185 29.4872 36.8637 28.8471 38.4749 28.8471V32.8971C37.9378 32.8971 37.4228 33.1105 37.043 33.4902C36.6632 33.87 36.4499 34.3851 36.4499 34.9221H32.3999ZM32.3999 43.8747V34.9221H36.4499V43.8747H32.3999ZM32.3999 54.8168V43.8747H36.4499V54.8168H32.3999ZM38.4749 60.8918C36.8637 60.8918 35.3185 60.2517 34.1792 59.1124C33.0399 57.9731 32.3999 56.4279 32.3999 54.8168H36.4499C36.4499 55.3538 36.6632 55.8689 37.043 56.2486C37.4228 56.6284 37.9378 56.8418 38.4749 56.8418V60.8918ZM44.5499 54.8178C44.5499 56.429 43.9099 57.9731 42.7706 59.1124C41.6313 60.2517 40.0861 60.8918 38.4749 60.8918V56.8418C39.012 56.8418 39.527 56.6284 39.9068 56.2486C40.2866 55.8689 40.4999 55.3538 40.4999 54.8168L44.5499 54.8178ZM44.5499 47.9247V54.8178L40.4999 54.8168V47.9247H44.5499ZM43.6437 49.9497H42.5249V45.8997H43.6437V49.9497ZM43.2539 53.1056C42.5362 52.3752 42.0147 51.4751 41.738 50.4891C41.4614 49.5032 41.4384 48.4632 41.6714 47.466L45.6161 48.3853C45.5377 48.7182 45.5449 49.0644 45.6369 49.3937C45.729 49.723 45.9029 50.0237 46.1426 50.2676L43.2539 53.1056ZM51.845 53.1826C51.2758 53.7416 50.6021 54.1831 49.8624 54.4818C49.1226 54.7805 48.3313 54.9305 47.5335 54.9234C46.7357 54.9162 45.9472 54.752 45.2129 54.4401C44.4786 54.1283 43.8129 53.6748 43.2539 53.1056L46.1426 50.2676C46.3289 50.4574 46.5509 50.6086 46.7957 50.7126C47.0406 50.8166 47.3035 50.8713 47.5695 50.8737C47.8355 50.876 48.0994 50.8259 48.346 50.7263C48.5926 50.6266 48.8172 50.4794 49.0069 50.2929L51.845 53.1826ZM52.0191 53.0115L51.845 53.1826L49.0069 50.2929L49.1801 50.1228L52.0191 53.0115ZM54.6749 46.6793C54.6749 47.8584 54.44 49.0257 53.984 50.113C53.5281 51.2004 52.8601 52.185 52.0191 53.0115L49.1801 50.1238C49.6377 49.6742 50.0011 49.138 50.2492 48.5464C50.4972 47.9548 50.625 47.3198 50.6249 46.6783L54.6749 46.6793ZM45.7963 37.8007C48.1508 37.8009 50.4088 38.7363 52.0738 40.4011C53.7387 42.0659 54.6744 44.3248 54.6749 46.6793L50.6249 46.6783C50.6246 45.3977 50.1158 44.1697 49.2103 43.2642C48.3049 42.3587 47.0768 41.8499 45.7963 41.8497V37.8007ZM42.5249 37.8007H45.7963V41.8497H42.5249V37.8007ZM44.5499 38.9732V39.8257L40.4999 39.8247V38.9721L44.5499 38.9732ZM53.6624 40.9982H42.5249V36.9471L53.6624 36.9482V40.9982ZM62.7749 31.8857C62.7749 34.3024 61.8148 36.6202 60.1059 38.3292C58.397 40.0381 56.0792 40.9982 53.6624 40.9982V36.9482C55.0051 36.9482 56.2927 36.4148 57.2421 35.4654C58.1915 34.516 58.7249 33.2273 58.7249 31.8846L62.7749 31.8857ZM62.7749 30.4469V31.8857L58.7249 31.8846V30.4479L62.7749 30.4469ZM62.7749 29.0081V30.4469L58.7249 30.4459V29.0081H62.7749ZM53.6624 19.8956C56.0792 19.8956 58.397 20.8557 60.1059 22.5646C61.8148 24.2735 62.7749 26.5913 62.7749 29.0081H58.7249C58.7249 27.6655 58.1915 26.3778 57.2421 25.4284C56.2927 24.479 55.0051 23.9456 53.6624 23.9456V19.8956ZM42.5249 19.8956H53.6624V23.9456H42.5249V19.8956ZM44.5499 21.0681V21.9206L40.4999 21.9196V21.0681H44.5499ZM45.7963 23.0931H42.5249V19.0431H45.7963V23.0931ZM54.6749 14.2135C54.6746 16.5681 53.7391 18.8263 52.0741 20.4913C50.4091 22.1563 48.151 23.0928 45.7963 23.0931V19.0421C47.0768 19.0418 48.3049 18.533 49.2103 17.6275C50.1158 16.722 50.6246 15.494 50.6249 14.2135H54.6749ZM52.0191 7.88029C52.8601 8.70673 53.5281 9.69238 53.984 10.7797C54.44 11.8671 54.6749 13.0344 54.6749 14.2135H50.6249C50.6253 13.5722 50.4977 12.9374 50.2496 12.3461C50.0015 11.7548 49.6379 11.219 49.1801 10.77L52.0191 7.88029ZM51.845 7.71019L52.0191 7.88029L49.1801 10.77L49.0069 10.5989L51.845 7.71019ZM43.2539 7.78613C43.813 7.21704 44.4787 6.76365 45.2131 6.45184C45.9474 6.14004 46.736 5.97592 47.5337 5.96887C48.3315 5.96182 49.1228 6.11197 49.8625 6.41075C50.6023 6.70952 51.2759 7.15107 51.845 7.71019L49.0069 10.5989C48.8172 10.4124 48.5926 10.2651 48.346 10.1655C48.0994 10.0658 47.8355 10.0157 47.5695 10.0181C47.3035 10.0204 47.0406 10.0752 46.7957 10.1792C46.5509 10.2832 46.3289 10.4344 46.1426 10.6242L43.2539 7.78613ZM41.6714 13.4268C41.4382 12.4294 41.4611 11.3893 41.7378 10.4031C42.0145 9.4169 42.536 8.51668 43.2539 7.78613L46.1426 10.6242C45.9029 10.8681 45.729 11.1687 45.6369 11.498C45.5449 11.8273 45.5377 12.1746 45.6161 12.5074L41.6714 13.4268ZM42.5249 10.9421H43.6437V14.9921H42.5249V10.9421ZM44.5499 6.075V12.9671H40.4999V6.075H44.5499ZM38.4749 0C40.0861 0 41.6313 0.640042 42.7706 1.77933C43.9099 2.91861 44.5499 4.46381 44.5499 6.075H40.4999C40.4999 5.53794 40.2866 5.02287 39.9068 4.64311C39.527 4.26335 39.012 4.05 38.4749 4.05V0ZM32.3999 6.075C32.3999 4.46381 33.0399 2.91861 34.1792 1.77933C35.3185 0.640042 36.8637 0 38.4749 0V4.05C37.9378 4.05 37.4228 4.26335 37.043 4.64311C36.6632 5.02287 36.4499 5.53794 36.4499 6.075H32.3999ZM32.3999 17.0171V6.075H36.4499V17.0171H32.3999ZM32.3999 25.9696V17.0171H36.4499V25.9696H32.3999ZM38.4749 32.0446C36.8637 32.0446 35.3185 31.4046 34.1792 30.2653C33.0399 29.126 32.3999 27.5808 32.3999 25.9696H36.4499C36.4499 26.5067 36.6632 27.0217 37.043 27.4015C37.4228 27.7813 37.9378 27.9946 38.4749 27.9946V32.0446ZM52.6499 32.0446H38.4749V27.9946H52.6499V32.0446ZM50.6249 30.4459V30.0206H54.6749V30.4459H50.6249ZM50.6249 30.8721V30.4459H54.6749V30.8721H50.6249Z" fill="#EB5757"/>
</svg>
