<svg width="17" height="17" viewBox="0 0 17 17" fill="none" xmlns="http://www.w3.org/2000/svg">
<g clip-path="url(#clip0_251_2039)">
<path d="M3.71875 0C3.85965 0 3.99477 0.0559708 4.0944 0.1556C4.19403 0.255228 4.25 0.390354 4.25 0.53125V1.0625H12.75V0.53125C12.75 0.390354 12.806 0.255228 12.9056 0.1556C13.0052 0.0559708 13.1404 0 13.2812 0C13.4221 0 13.5573 0.0559708 13.6569 0.1556C13.7565 0.255228 13.8125 0.390354 13.8125 0.53125V1.0625H14.875C15.4386 1.0625 15.9791 1.28638 16.3776 1.6849C16.7761 2.08341 17 2.62391 17 3.1875V14.875C17 15.4386 16.7761 15.9791 16.3776 16.3776C15.9791 16.7761 15.4386 17 14.875 17H2.125C1.56141 17 1.02091 16.7761 0.622398 16.3776C0.223883 15.9791 0 15.4386 0 14.875V3.1875C0 2.62391 0.223883 2.08341 0.622398 1.6849C1.02091 1.28638 1.56141 1.0625 2.125 1.0625H3.1875V0.53125C3.1875 0.390354 3.24347 0.255228 3.3431 0.1556C3.44273 0.0559708 3.57785 0 3.71875 0ZM2.125 2.125C1.84321 2.125 1.57296 2.23694 1.3737 2.4362C1.17444 2.63546 1.0625 2.90571 1.0625 3.1875V14.875C1.0625 15.1568 1.17444 15.427 1.3737 15.6263C1.57296 15.8256 1.84321 15.9375 2.125 15.9375H14.875C15.1568 15.9375 15.427 15.8256 15.6263 15.6263C15.8256 15.427 15.9375 15.1568 15.9375 14.875V3.1875C15.9375 2.90571 15.8256 2.63546 15.6263 2.4362C15.427 2.23694 15.1568 2.125 14.875 2.125H2.125Z" fill="white"/>
<path d="M2.65625 4.25C2.65625 4.1091 2.71222 3.97398 2.81185 3.87435C2.91148 3.77472 3.0466 3.71875 3.1875 3.71875H13.8125C13.9534 3.71875 14.0885 3.77472 14.1882 3.87435C14.2878 3.97398 14.3438 4.1091 14.3438 4.25V5.3125C14.3438 5.4534 14.2878 5.58852 14.1882 5.68815C14.0885 5.78778 13.9534 5.84375 13.8125 5.84375H3.1875C3.0466 5.84375 2.91148 5.78778 2.81185 5.68815C2.71222 5.58852 2.65625 5.4534 2.65625 5.3125V4.25ZM11.6875 7.96875C11.6875 7.82785 11.7435 7.69273 11.8431 7.5931C11.9427 7.49347 12.0779 7.4375 12.2188 7.4375H13.2812C13.4221 7.4375 13.5573 7.49347 13.6569 7.5931C13.7565 7.69273 13.8125 7.82785 13.8125 7.96875V9.03125C13.8125 9.17215 13.7565 9.30727 13.6569 9.4069C13.5573 9.50653 13.4221 9.5625 13.2812 9.5625H12.2188C12.0779 9.5625 11.9427 9.50653 11.8431 9.4069C11.7435 9.30727 11.6875 9.17215 11.6875 9.03125V7.96875ZM8.5 7.96875C8.5 7.82785 8.55597 7.69273 8.6556 7.5931C8.75523 7.49347 8.89035 7.4375 9.03125 7.4375H10.0938C10.2346 7.4375 10.3698 7.49347 10.4694 7.5931C10.569 7.69273 10.625 7.82785 10.625 7.96875V9.03125C10.625 9.17215 10.569 9.30727 10.4694 9.4069C10.3698 9.50653 10.2346 9.5625 10.0938 9.5625H9.03125C8.89035 9.5625 8.75523 9.50653 8.6556 9.4069C8.55597 9.30727 8.5 9.17215 8.5 9.03125V7.96875ZM3.1875 11.1562C3.1875 11.0154 3.24347 10.8802 3.3431 10.7806C3.44273 10.681 3.57785 10.625 3.71875 10.625H4.78125C4.92215 10.625 5.05727 10.681 5.1569 10.7806C5.25653 10.8802 5.3125 11.0154 5.3125 11.1562V12.2188C5.3125 12.3596 5.25653 12.4948 5.1569 12.5944C5.05727 12.694 4.92215 12.75 4.78125 12.75H3.71875C3.57785 12.75 3.44273 12.694 3.3431 12.5944C3.24347 12.4948 3.1875 12.3596 3.1875 12.2188V11.1562ZM6.375 11.1562C6.375 11.0154 6.43097 10.8802 6.5306 10.7806C6.63023 10.681 6.76535 10.625 6.90625 10.625H7.96875C8.10965 10.625 8.24477 10.681 8.3444 10.7806C8.44403 10.8802 8.5 11.0154 8.5 11.1562V12.2188C8.5 12.3596 8.44403 12.4948 8.3444 12.5944C8.24477 12.694 8.10965 12.75 7.96875 12.75H6.90625C6.76535 12.75 6.63023 12.694 6.5306 12.5944C6.43097 12.4948 6.375 12.3596 6.375 12.2188V11.1562Z" fill="white"/>
</g>
<defs>
<clipPath id="clip0_251_2039">
<rect width="17" height="17" fill="white"/>
</clipPath>
</defs>
</svg>
