<svg width="35" height="35" viewBox="0 0 35 35" fill="none" xmlns="http://www.w3.org/2000/svg">
<g clip-path="url(#clip0_215_1134)">
<path d="M18.2292 21.8742C24.0552 21.8618 27.9796 21.7043 30.2692 21.5723C31.7829 21.4848 33.005 20.4122 33.18 18.9065C33.3645 17.3249 33.5417 14.9478 33.5417 11.6666C33.5417 8.38534 33.3645 6.00825 33.18 4.42596C33.005 2.92096 31.7829 1.84836 30.2699 1.76086C27.8855 1.62304 23.7293 1.45825 17.5 1.45825C17.0003 1.45825 16.5142 1.45922 16.0417 1.46117M9.11458 24.7916V32.8124M4.375 6.927C4.375 8.18402 4.87435 9.38955 5.76319 10.2784C6.65204 11.1672 7.85757 11.6666 9.11458 11.6666C10.3716 11.6666 11.5771 11.1672 12.466 10.2784C13.3548 9.38955 13.8542 8.18402 13.8542 6.927C13.8542 5.66999 13.3548 4.46445 12.466 3.57561C11.5771 2.68677 10.3716 2.18742 9.11458 2.18742C7.85757 2.18742 6.65204 2.68677 5.76319 3.57561C4.87435 4.46445 4.375 5.66999 4.375 6.927Z" stroke="white" stroke-width="2.5" stroke-linecap="round" stroke-linejoin="round"/>
<path d="M20.8096 11.9131C21.2654 11.9394 21.6788 12.1895 21.7765 12.635C21.8815 13.1134 21.9413 13.8564 21.751 14.8976C21.6467 15.4671 21.1611 15.8762 20.5872 15.9549L14.5833 16.7709L13.2708 30.8584C13.1833 31.7946 12.5052 32.5668 11.5718 32.674C10.7723 32.766 9.96819 32.8122 9.16339 32.8125C8.24245 32.8125 7.4112 32.7513 6.74402 32.6776C5.76839 32.569 5.06693 31.7479 5.0137 30.7672L4.56308 22.5152C3.93568 22.4828 3.30897 22.4384 2.68329 22.3818C2.34384 22.351 2.02925 22.1908 1.80472 21.9344C1.58019 21.6779 1.46293 21.3449 1.47725 21.0044C1.56256 18.2554 1.90964 15.7427 2.19839 14.0664C2.41568 12.8064 3.48318 11.8956 4.76068 11.8337C9.83423 11.5872 15.5815 11.6135 20.8096 11.9139V11.9131Z" stroke="white" stroke-width="2.5" stroke-linecap="round" stroke-linejoin="round"/>
</g>
<defs>
<clipPath id="clip0_215_1134">
<rect width="35" height="35" fill="white"/>
</clipPath>
</defs>
</svg>
