<svg width="13" height="15" viewBox="0 0 13 15" fill="none" xmlns="http://www.w3.org/2000/svg">
<path fill-rule="evenodd" clip-rule="evenodd" d="M2.7755 0.75C2.5522 1.2232 2.43713 1.73386 2.4375 2.25C2.4375 2.64782 2.6087 3.02936 2.91345 3.31066C3.2182 3.59196 3.63152 3.75 4.0625 3.75H8.9375C9.36848 3.75 9.7818 3.59196 10.0865 3.31066C10.3913 3.02936 10.5625 2.64782 10.5625 2.25C10.5625 1.71675 10.4422 1.209 10.2245 0.75H11.375C11.806 0.75 12.2193 0.908035 12.524 1.18934C12.8288 1.47064 13 1.85218 13 2.25V13.5C13 13.8978 12.8288 14.2794 12.524 14.5607C12.2193 14.842 11.806 15 11.375 15H1.625C1.19402 15 0.780698 14.842 0.475951 14.5607C0.171205 14.2794 0 13.8978 0 13.5V2.25C0 1.85218 0.171205 1.47064 0.475951 1.18934C0.780698 0.908035 1.19402 0.75 1.625 0.75H2.7755ZM6.5 9H4.0625C3.84701 9 3.64035 9.07902 3.48798 9.21967C3.3356 9.36032 3.25 9.55109 3.25 9.75C3.25 9.94891 3.3356 10.1397 3.48798 10.2803C3.64035 10.421 3.84701 10.5 4.0625 10.5H6.5C6.71549 10.5 6.92215 10.421 7.07452 10.2803C7.2269 10.1397 7.3125 9.94891 7.3125 9.75C7.3125 9.55109 7.2269 9.36032 7.07452 9.21967C6.92215 9.07902 6.71549 9 6.5 9ZM8.9375 6H4.0625C3.85541 6.00021 3.65622 6.07341 3.50564 6.20464C3.35505 6.33586 3.26443 6.51521 3.2523 6.70605C3.24016 6.89688 3.30742 7.08478 3.44034 7.23137C3.57326 7.37796 3.7618 7.47217 3.96744 7.49475L4.0625 7.5H8.9375C9.15299 7.5 9.35965 7.42098 9.51202 7.28033C9.6644 7.13968 9.75 6.94891 9.75 6.75C9.75 6.55109 9.6644 6.36032 9.51202 6.21967C9.35965 6.07902 9.15299 6 8.9375 6ZM6.5 0C6.84294 7.17304e-06 7.18202 0.0668128 7.49507 0.196051C7.80813 0.325289 8.08812 0.514051 8.31675 0.75C8.6645 1.1085 8.88875 1.56975 8.93019 2.079L8.9375 2.25H4.0625C4.0625 1.70625 4.27131 1.2075 4.61906 0.819L4.68325 0.75C5.13013 0.2895 5.7785 0 6.5 0Z" fill="white"/>
</svg>
