<svg width="27" height="29" viewBox="0 0 27 29" fill="none" xmlns="http://www.w3.org/2000/svg">
<path d="M14.1257 27.374L14.111 27.3765L14.0164 27.4216L13.9897 27.4268L13.971 27.4216L13.8763 27.3765C13.8621 27.3722 13.8514 27.3744 13.8443 27.383L13.839 27.3958L13.8163 27.947L13.823 27.9727L13.8363 27.9895L13.975 28.0848L13.995 28.0899L14.011 28.0848L14.1497 27.9895L14.1657 27.9689L14.171 27.947L14.1484 27.3971C14.1448 27.3834 14.1373 27.3757 14.1257 27.374ZM14.4791 27.2284L14.4617 27.231L14.215 27.3508L14.2017 27.3637L14.1977 27.3778L14.2217 27.9315L14.2284 27.947L14.239 27.956L14.5071 28.0758C14.524 28.0801 14.5369 28.0766 14.5458 28.0655L14.5511 28.0474L14.5057 27.2568C14.5013 27.2413 14.4924 27.2319 14.4791 27.2284ZM13.5256 27.231C13.5197 27.2276 13.5127 27.2265 13.506 27.2279C13.4993 27.2293 13.4934 27.2332 13.4896 27.2387L13.4816 27.2568L13.4363 28.0474C13.4372 28.0629 13.4447 28.0732 13.4589 28.0783L13.479 28.0758L13.747 27.956L13.7603 27.9457L13.7657 27.9315L13.7883 27.3778L13.7843 27.3624L13.771 27.3495L13.5256 27.231Z" fill="#C1C1C1"/>
<path d="M13.335 0C20.6999 0 26.67 5.76506 26.67 12.8771C26.67 19.9891 20.6999 25.7541 13.335 25.7541C5.97008 25.7541 0 19.9891 0 12.8771C0 5.76506 5.97008 0 13.335 0ZM13.335 5.15082C12.9813 5.15082 12.6422 5.28649 12.3921 5.52798C12.142 5.76947 12.0015 6.09701 12.0015 6.43853V12.8771C12.0016 13.2185 12.1421 13.546 12.3922 13.7875L16.3927 17.6506C16.6442 17.8851 16.9811 18.0149 17.3307 18.012C17.6803 18.0091 18.0148 17.8736 18.262 17.6349C18.5093 17.3961 18.6495 17.0732 18.6526 16.7355C18.6556 16.3979 18.5212 16.0726 18.2783 15.8298L14.6685 12.3439V6.43853C14.6685 6.09701 14.528 5.76947 14.2779 5.52798C14.0278 5.28649 13.6887 5.15082 13.335 5.15082Z" fill="#C1C1C1"/>
</svg>
