<svg width="59" height="51" viewBox="0 0 59 51" fill="none" xmlns="http://www.w3.org/2000/svg">
<path fill-rule="evenodd" clip-rule="evenodd" d="M32.2912 10.5812C32.3291 10.8105 32.378 11.0357 32.4379 11.2569L30.4877 13.7083L33.1679 16.981L35.9405 15.5352C36.3538 15.7404 36.7866 15.9035 37.2323 16.0221L38.3713 18.9422L42.5358 18.2492L42.6739 15.116C43.0578 14.8591 43.4151 14.5643 43.7405 14.2359L46.8298 14.7062L48.314 10.7388L45.6786 9.0514C45.6488 8.5899 45.5731 8.13255 45.4525 7.68619L47.4027 5.23472L44.7233 1.96205L41.949 3.40868C41.5365 3.20396 41.1046 3.04116 40.6598 2.92271L39.5199 0L35.3554 0.693862L35.2174 3.82967C34.8341 4.0858 34.4774 4.37976 34.1525 4.70718L31.0624 4.23681L29.5781 8.20421L32.2126 9.89166C32.2276 10.1209 32.2543 10.3508 32.2912 10.5812ZM39.8608 6.71514C39.136 6.44186 38.3327 6.46881 37.6277 6.79006C36.9227 7.11131 36.3737 7.70054 36.1014 8.42813C35.8292 9.15573 35.856 9.96208 36.1761 10.6698C36.4961 11.3775 37.083 11.9287 37.8079 12.2019C38.1667 12.3372 38.5487 12.4003 38.9318 12.3874C39.315 12.3746 39.6919 12.2861 40.0409 12.127C40.39 11.9679 40.7045 11.7414 40.9664 11.4604C41.2282 11.1793 41.4324 10.8492 41.5672 10.4889C41.702 10.1287 41.7648 9.74527 41.752 9.36064C41.7392 8.97602 41.651 8.59769 41.4926 8.24726C41.3341 7.89683 41.1084 7.58116 40.8285 7.31828C40.5485 7.0554 40.2196 6.85045 39.8608 6.71514Z" fill="#219653"/>
<path fill-rule="evenodd" clip-rule="evenodd" d="M36.8767 38.483C36.8842 38.8791 36.9156 39.271 36.9708 39.6585L34.4338 41.6066L36.7318 46.1657L39.7952 45.2674C40.3581 45.8205 40.9857 46.303 41.6643 46.7045L41.5995 49.907L46.5829 50.9465L47.7936 47.9831C48.5755 47.8859 49.3428 47.6939 50.0787 47.4114L52.5328 49.4592L56.4488 46.1952L54.8955 43.3972C55.3069 42.7234 55.6355 42.002 55.8741 41.2489L58.9996 40.5992L58.8995 35.4901L55.7498 34.9643C55.4816 34.2222 55.1249 33.5154 54.6875 32.8593L56.1312 29.9981L52.0901 26.8917L49.7145 29.0383C48.9702 28.7863 48.1984 28.6254 47.4157 28.5593L46.0868 25.64L41.1482 26.8753L41.3381 30.0787C40.6778 30.5057 40.0714 31.0112 39.532 31.5842L36.4306 30.8072L34.313 35.4528L36.9251 37.2997C36.8848 37.6906 36.8687 38.0851 36.8767 38.483ZM47.4666 33.3721C46.8228 33.2353 46.1585 33.2274 45.5118 33.3489C44.865 33.4705 44.2485 33.719 43.6976 34.0803C43.1467 34.4415 42.6724 34.9085 42.3017 35.4542C41.931 36 41.6713 36.6138 41.5376 37.2606C41.4038 37.9073 41.3986 38.5742 41.5222 39.223C41.6458 39.8718 41.8958 40.4897 42.2578 41.0412C42.6199 41.5928 43.0868 42.0672 43.632 42.4371C44.1771 42.8071 44.7896 43.0653 45.4344 43.1971C46.73 43.4618 48.0773 43.2004 49.1813 42.4701C50.2854 41.7398 51.0562 40.6001 51.325 39.3006C51.5938 38.0011 51.3387 36.6476 50.6155 35.5364C49.8923 34.4253 48.7601 33.6471 47.4666 33.3721Z" fill="#2F80ED"/>
<path fill-rule="evenodd" clip-rule="evenodd" d="M29.4802 19.1752C28.8326 18.1989 28.0642 17.3091 27.1934 16.5271L28.1849 11.7506L20.1864 8.76813L17.8306 13.0335C16.4443 13.0575 15.0696 13.2923 13.7533 13.73L10.1264 10.479L3.55439 15.9398L6.06551 20.135C5.39805 21.3463 4.9163 22.6517 4.6365 24.0071L0 25.5404L1.42555 33.9854L6.3218 33.8988C7.02937 35.0777 7.90897 36.1434 8.93129 37.0606L7.93288 41.8752L15.9305 44.8585L18.3061 40.555C19.6759 40.5301 21.0343 40.2995 22.336 39.8707L25.9896 43.1468L32.5625 37.686L30.0462 33.483C30.7155 32.274 31.1996 30.9707 31.4821 29.6169L36.1161 28.0854L34.6905 19.6404L29.8271 19.7261C29.7157 19.5398 29.6001 19.3561 29.4802 19.1752ZM21.2858 24.3657C20.9909 23.9071 20.6082 23.5118 20.1599 23.2029C19.7116 22.894 19.2066 22.6775 18.6743 22.5662C18.1419 22.4548 17.5929 22.4507 17.0589 22.5541C16.525 22.6576 16.0169 22.8665 15.564 23.1687C15.1112 23.4709 14.7227 23.8605 14.4211 24.3147C14.1195 24.7689 13.9108 25.2787 13.8071 25.8146C13.7035 26.3504 13.7069 26.9016 13.8172 27.4361C13.9275 27.9707 14.1425 28.4778 14.4497 28.9283C15.0593 29.822 15.9949 30.4388 17.0541 30.6454C18.1133 30.8519 19.211 30.6314 20.1095 30.0317C21.008 29.432 21.6352 28.5013 21.8554 27.4409C22.0755 26.3806 21.8709 25.2758 21.2858 24.3657Z" fill="#F2C94C"/>
</svg>
