<svg width="30" height="30" viewBox="0 0 30 30" fill="none" xmlns="http://www.w3.org/2000/svg">
<path d="M1.21875 12.1875C0.895517 12.1875 0.585524 12.0591 0.356964 11.8305C0.128404 11.602 0 11.292 0 10.9688V1.21875C0 0.895517 0.128404 0.585524 0.356964 0.356964C0.585524 0.128404 0.895517 0 1.21875 0H10.9688C11.292 0 11.602 0.128404 11.8305 0.356964C12.0591 0.585524 12.1875 0.895517 12.1875 1.21875V10.9688C12.1875 11.292 12.0591 11.602 11.8305 11.8305C11.602 12.0591 11.292 12.1875 10.9688 12.1875H1.21875ZM18.2812 12.1875C17.958 12.1875 17.648 12.0591 17.4195 11.8305C17.1909 11.602 17.0625 11.292 17.0625 10.9688V1.21875C17.0625 0.895517 17.1909 0.585524 17.4195 0.356964C17.648 0.128404 17.958 0 18.2812 0H28.0312C28.3545 0 28.6645 0.128404 28.893 0.356964C29.1216 0.585524 29.25 0.895517 29.25 1.21875V10.9688C29.25 11.292 29.1216 11.602 28.893 11.8305C28.6645 12.0591 28.3545 12.1875 28.0312 12.1875H18.2812ZM1.21875 29.25C0.895517 29.25 0.585524 29.1216 0.356964 28.893C0.128404 28.6645 0 28.3545 0 28.0312V18.2812C0 17.958 0.128404 17.648 0.356964 17.4195C0.585524 17.1909 0.895517 17.0625 1.21875 17.0625H10.9688C11.292 17.0625 11.602 17.1909 11.8305 17.4195C12.0591 17.648 12.1875 17.958 12.1875 18.2812V28.0312C12.1875 28.3545 12.0591 28.6645 11.8305 28.893C11.602 29.1216 11.292 29.25 10.9688 29.25H1.21875ZM18.2812 29.25C17.958 29.25 17.648 29.1216 17.4195 28.893C17.1909 28.6645 17.0625 28.3545 17.0625 28.0312V18.2812C17.0625 17.958 17.1909 17.648 17.4195 17.4195C17.648 17.1909 17.958 17.0625 18.2812 17.0625H28.0312C28.3545 17.0625 28.6645 17.1909 28.893 17.4195C29.1216 17.648 29.25 17.958 29.25 18.2812V28.0312C29.25 28.3545 29.1216 28.6645 28.893 28.893C28.6645 29.1216 28.3545 29.25 28.0312 29.25H18.2812Z" fill="#262626"/>
</svg>
