<svg width="27" height="27" viewBox="0 0 27 27" fill="none" xmlns="http://www.w3.org/2000/svg">
<path fill-rule="evenodd" clip-rule="evenodd" d="M23.73 10.908C23.3168 6.66752 20.8104 0 13.0649 0C5.31929 0 2.81295 6.66752 2.3997 10.908C0.949899 11.4584 -0.00640431 12.8507 3.22925e-05 14.4018V16.2687C3.22925e-05 18.3308 1.6713 20.0025 3.73282 20.0025C5.79441 20.0025 7.46568 18.3308 7.46568 16.2687V14.4018C7.45893 12.8842 6.53781 11.5205 5.13263 10.948C5.39928 8.49437 6.70578 2.66702 13.0649 2.66702C19.424 2.66702 20.7171 8.49437 20.9838 10.948C19.5815 11.5217 18.665 12.8863 18.6641 14.4018V16.2687C18.667 16.9713 18.8672 17.6589 19.242 18.2531C19.6168 18.8473 20.1511 19.3241 20.7838 19.6291C20.2239 20.6826 18.7974 22.1094 15.2912 22.5361C14.5904 21.4716 13.2344 21.0519 12.0549 21.5345C10.8755 22.0171 10.2023 23.2671 10.4483 24.5177C10.6942 25.7684 11.7906 26.67 13.0649 26.67C13.5587 26.6672 14.042 26.5274 14.4609 26.266C14.8799 26.0047 15.2181 25.6321 15.4379 25.1898C21.1571 24.5364 22.9835 21.5894 23.5567 19.8558C25.1076 19.3533 26.1506 17.8992 26.1297 16.2687V14.4018C26.1361 12.8507 25.1798 11.4584 23.73 10.908ZM4.79936 16.2687C4.79936 16.8578 4.32187 17.3355 3.73282 17.3355C3.14378 17.3355 2.66635 16.8579 2.66635 16.2687V14.4018C2.66527 14.261 2.69206 14.1214 2.74517 13.991C2.79829 13.8607 2.87668 13.7421 2.97582 13.6422C3.07496 13.5422 3.19289 13.4629 3.32282 13.4088C3.45275 13.3547 3.59211 13.3268 3.73285 13.3268C3.8736 13.3268 4.01296 13.3547 4.14289 13.4088C4.27282 13.4629 4.39075 13.5422 4.48989 13.6422C4.58903 13.7421 4.66742 13.8607 4.72053 13.991C4.77365 14.1214 4.80044 14.261 4.79936 14.4018V16.2687ZM21.3304 14.4018C21.3304 13.8126 21.8079 13.335 22.3969 13.335C22.9859 13.335 23.4634 13.8126 23.4634 14.4018V16.2687C23.4634 16.8578 22.9859 17.3355 22.3969 17.3355C21.8079 17.3355 21.3304 16.8579 21.3304 16.2687V14.4018Z" fill="#C1C1C1"/>
</svg>
