<svg width="14" height="23" viewBox="0 0 14 23" fill="none" xmlns="http://www.w3.org/2000/svg">
<path d="M13.6939 11.0968V6.36881C13.6937 6.30098 13.679 6.2339 13.6509 6.17167C13.6228 6.10944 13.5818 6.05335 13.5304 6.00681L7.29497 0.385813C7.19902 0.298602 7.0719 0.25 6.93976 0.25C6.80763 0.25 6.68051 0.298602 6.58456 0.385813L0.41268 6.00581C0.361771 6.0524 0.321219 6.10841 0.29347 6.17045C0.26572 6.23249 0.251349 6.29929 0.251221 6.36681V11.0888C0.251066 11.1859 0.280618 11.281 0.336212 11.3621C0.391805 11.4433 0.470994 11.507 0.563953 11.5453C0.656911 11.5836 0.759549 11.5949 0.859132 11.5778C0.958715 11.5606 1.05086 11.5158 1.12414 11.4488L6.76372 6.31481C6.81188 6.27194 6.87513 6.24812 6.94081 6.24812C7.00648 6.24812 7.06973 6.27194 7.11789 6.31481L12.8262 11.4578C12.9 11.5225 12.9918 11.5653 13.0903 11.581C13.1889 11.5967 13.2901 11.5847 13.3818 11.5464C13.4734 11.5082 13.5515 11.4453 13.6067 11.3653C13.6619 11.2853 13.6919 11.1917 13.6929 11.0958" fill="#C9F7CA"/>
<path d="M13.6938 21.7518V17.0258C13.6936 16.9578 13.6791 16.8905 13.651 16.8281C13.6228 16.7657 13.5817 16.7095 13.5302 16.6628L7.29375 11.0428C7.19779 10.9556 7.07068 10.907 6.93854 10.907C6.80641 10.907 6.67929 10.9556 6.58333 11.0428L0.411459 16.6638C0.360676 16.7103 0.320197 16.7661 0.292452 16.828C0.264707 16.8899 0.250268 16.9565 0.25 17.0238V21.7438C0.250317 21.8407 0.28015 21.9355 0.335826 22.0163C0.391503 22.0972 0.470592 22.1606 0.56336 22.1989C0.656127 22.2372 0.758522 22.2485 0.857942 22.2316C0.957362 22.2147 1.04947 22.1703 1.12292 22.1038L6.76042 16.9718C6.80863 16.9286 6.8721 16.9046 6.93802 16.9046C7.00394 16.9046 7.06741 16.9286 7.11562 16.9718L12.824 22.1158C12.8978 22.1816 12.99 22.2252 13.0893 22.2414C13.1886 22.2576 13.2906 22.2457 13.3829 22.207C13.4752 22.1684 13.5538 22.1048 13.609 22.0239C13.6642 21.943 13.6937 21.8485 13.6938 21.7518Z" fill="#C9F7CA"/>
<path d="M7.11567 6.31481C7.07502 6.28235 7.02469 6.26309 6.97192 6.25981V0.257812C7.09134 0.263743 7.20499 0.30894 7.2938 0.385813L13.5303 6.00581C13.5818 6.05246 13.6229 6.10871 13.651 6.17113C13.6791 6.23354 13.6937 6.30081 13.6938 6.36881V11.0968C13.6933 11.1934 13.6635 11.2878 13.608 11.3684C13.5525 11.449 13.4737 11.5124 13.3813 11.5507C13.2889 11.589 13.1869 11.6006 13.0877 11.5841C12.9886 11.5676 12.8966 11.5237 12.823 11.4578L7.11567 6.31481ZM7.11567 16.9708C7.07502 16.9383 7.02469 16.9191 6.97192 16.9158V10.9128C7.0916 10.9193 7.20529 10.9652 7.2938 11.0428L13.5303 16.6628C13.5818 16.7095 13.6229 16.7657 13.651 16.8281C13.6791 16.8905 13.6937 16.9578 13.6938 17.0258V21.7518C13.6942 21.8488 13.6649 21.9438 13.6097 22.025C13.5544 22.1062 13.4756 22.17 13.3829 22.2086C13.2902 22.2473 13.1878 22.259 13.0883 22.2423C12.9888 22.2256 12.8965 22.1813 12.823 22.1148L7.11567 16.9708Z" fill="#78EB7B"/>
<path d="M13.6939 11.0968V6.36881C13.6937 6.30098 13.679 6.2339 13.6509 6.17167C13.6228 6.10944 13.5818 6.05335 13.5304 6.00681L7.29497 0.385813C7.19902 0.298602 7.0719 0.25 6.93976 0.25C6.80763 0.25 6.68051 0.298602 6.58456 0.385813L0.41268 6.00581C0.361771 6.0524 0.321219 6.10841 0.29347 6.17045C0.26572 6.23249 0.251349 6.29929 0.251221 6.36681V11.0888C0.251066 11.1859 0.280618 11.281 0.336212 11.3621C0.391805 11.4433 0.470994 11.507 0.563953 11.5453C0.656911 11.5836 0.759549 11.5949 0.859132 11.5778C0.958715 11.5606 1.05086 11.5158 1.12414 11.4488L6.76372 6.31481C6.81188 6.27194 6.87513 6.24812 6.94081 6.24812C7.00648 6.24812 7.06973 6.27194 7.11789 6.31481L12.8262 11.4578C12.9 11.5225 12.9918 11.5653 13.0903 11.581C13.1889 11.5967 13.2901 11.5847 13.3818 11.5464C13.4734 11.5082 13.5515 11.4453 13.6067 11.3653C13.6619 11.2853 13.6919 11.1917 13.6929 11.0958" stroke="#191919" stroke-width="0.5" stroke-linecap="round" stroke-linejoin="round"/>
<path d="M13.6938 21.7518V17.0258C13.6936 16.9578 13.6791 16.8905 13.651 16.8281C13.6228 16.7657 13.5817 16.7095 13.5302 16.6628L7.29375 11.0428C7.19779 10.9556 7.07068 10.907 6.93854 10.907C6.80641 10.907 6.67929 10.9556 6.58333 11.0428L0.411459 16.6638C0.360676 16.7103 0.320197 16.7661 0.292452 16.828C0.264707 16.8899 0.250268 16.9565 0.25 17.0238V21.7438C0.250317 21.8407 0.28015 21.9355 0.335826 22.0163C0.391503 22.0972 0.470592 22.1606 0.56336 22.1989C0.656127 22.2372 0.758522 22.2485 0.857942 22.2316C0.957362 22.2147 1.04947 22.1703 1.12292 22.1038L6.76042 16.9718C6.80863 16.9286 6.8721 16.9046 6.93802 16.9046C7.00394 16.9046 7.06741 16.9286 7.11563 16.9718L12.824 22.1158C12.8978 22.1816 12.99 22.2252 13.0893 22.2414C13.1886 22.2576 13.2906 22.2457 13.3829 22.207C13.4752 22.1684 13.5538 22.1048 13.609 22.0239C13.6642 21.943 13.6937 21.8485 13.6938 21.7518Z" stroke="#191919" stroke-width="0.5" stroke-linecap="round" stroke-linejoin="round"/>
</svg>
