<svg width="128" height="128" viewBox="0 0 128 128" fill="none" xmlns="http://www.w3.org/2000/svg">
<circle cx="64" cy="64" r="64" fill="#5DD62C"/>
<g clip-path="url(#clip0_0_1)">
<path d="M58.5312 64.5469C58.5312 66.6611 56.8173 68.375 54.7031 68.375C52.5889 68.375 50.875 66.6611 50.875 64.5469C50.875 58.5159 55.7816 53.6094 61.8125 53.6094C67.8434 53.6094 72.75 58.5159 72.75 64.5469C72.75 66.6611 71.0361 68.375 68.9219 68.375C66.8077 68.375 65.0938 66.6611 65.0938 64.5469C65.0938 62.7375 63.6217 61.2656 61.8125 61.2656C60.0033 61.2656 58.5312 62.7375 58.5312 64.5469ZM61.8125 40.4844C48.5444 40.4844 37.75 51.2787 37.75 64.5469C37.75 66.6611 39.4639 68.375 41.5781 68.375C43.6923 68.375 45.4062 66.6611 45.4062 64.5469C45.4062 55.5005 52.7661 48.1406 61.8125 48.1406C70.8589 48.1406 78.2188 55.5005 78.2188 64.5469C78.2188 74.8232 68.5105 74.1597 68.3754 84.1827L68.375 84.2344C68.375 88.1545 65.1858 91.3437 61.2656 91.3437C59.1514 91.3437 57.4375 93.0576 57.4375 95.1719C57.4375 97.2861 59.1514 99 61.2656 99C69.397 99 76.0143 92.3926 76.0312 84.2653C76.1126 79.5583 85.875 77.6699 85.875 64.5469C85.875 51.2787 75.0806 40.4844 61.8125 40.4844ZM50.875 72.75C48.4588 72.75 46.5 74.7088 46.5 77.125C46.5 79.5412 48.4588 81.5 50.875 81.5C53.2912 81.5 55.25 79.5412 55.25 77.125C55.25 74.7088 53.2912 72.75 50.875 72.75ZM33.375 90.25C30.9588 90.25 29 92.2088 29 94.625C29 97.0412 30.9588 99 33.375 99C35.7912 99 37.75 97.0412 37.75 94.625C37.75 92.2088 35.7912 90.25 33.375 90.25ZM99 64.5478C99 64.3403 98.9984 64.1342 98.9938 63.9283C98.737 48.2124 88.6308 34.2596 73.8429 29.2066C71.8423 28.5232 69.6663 29.5906 68.9826 31.5912C68.2988 33.5918 69.3668 35.7678 71.3672 36.4516C83.1122 40.4648 91.1381 51.5608 91.3387 64.0623L91.3391 64.088C91.3427 64.2409 91.3436 64.3937 91.3436 64.5478C91.3436 66.662 93.0575 68.3759 95.1717 68.3759C97.286 68.3759 99 66.662 99 64.5478ZM49.914 89.0235L38.9765 78.086L34.3361 82.7263L45.2736 93.6638L49.914 89.0235Z" fill="white"/>
</g>
<defs>
<clipPath id="clip0_0_1">
<rect width="70" height="70" fill="white" transform="translate(29 29)"/>
</clipPath>
</defs>
</svg>
