<svg width="128" height="128" viewBox="0 0 128 128" fill="none" xmlns="http://www.w3.org/2000/svg">
<g clip-path="url(#clip0_627_8)">
<path d="M64 0C99.343 0 127.991 28.5684 127.991 63.8132C127.991 97.9748 101.073 125.868 67.2315 127.547H60.7684C26.9297 125.868 0.0090332 97.9753 0.0090332 63.8132C0.0090332 28.5684 28.66 0 64 0Z" fill="#5DD62C"/>
<path d="M61.4324 26.3988C75.8018 25.439 88.5805 32.5224 95.692 43.5926C96.8168 45.5241 96.2709 47.9795 94.4017 49.2719C92.432 50.6346 89.8403 50.034 88.359 47.9546C83.2213 40.7432 74.2525 34.7781 64.028 34.7781C44.4103 34.7781 29.3564 54.4049 37.2628 74.9611C40.7458 84.0172 49.0011 90.5004 58.6113 92.0055C70.4161 93.8523 81.2131 89.6657 87.4317 80.5682L83.5457 81.1121H76.8402C74.7115 81.1121 72.7417 79.6802 72.3628 77.5918C71.8654 74.8505 73.9656 72.4619 76.6252 72.4619H100.169V97.0882C100.169 97.7241 100.029 98.3522 99.7574 98.9279C99.4862 99.5036 99.0909 100.013 98.5997 100.419C98.1085 100.825 97.5334 101.118 96.9155 101.277C96.2975 101.437 95.6519 101.459 95.0246 101.341C92.9299 100.964 91.4966 98.9972 91.4966 96.8765V92.7645L92.3115 88.2153C85.4259 96.1468 75.3174 101.05 64.028 101.05C42.5355 101.05 25.254 83.3125 26.5048 61.5878C27.5801 42.9183 42.7225 27.6509 61.4324 26.3988Z" fill="white"/>
</g>
<defs>
<clipPath id="clip0_627_8">
<rect width="128" height="128" fill="white"/>
</clipPath>
</defs>
</svg>
