<svg width="34" height="26" viewBox="0 0 34 26" fill="none" xmlns="http://www.w3.org/2000/svg">
<path d="M6.18112 25.871V24.1502C6.18112 23.4904 5.77286 23.0603 5.07307 23.0603C4.72324 23.0603 4.34419 23.175 4.08175 23.5479C3.87775 23.2323 3.58623 23.0603 3.14888 23.0603C2.85722 23.0603 2.56583 23.1462 2.33248 23.4618V23.1176H1.72021V25.871H2.33248V24.3508C2.33248 23.8634 2.59492 23.6338 3.00318 23.6338C3.41118 23.6338 3.61545 23.892 3.61545 24.3508V25.871H4.22772V24.3508C4.22772 23.8634 4.51911 23.6338 4.89815 23.6338C5.30642 23.6338 5.51042 23.892 5.51042 24.3508V25.871H6.18112ZM15.2484 23.1176H14.2572V22.2859H13.6449V23.1176H13.091V23.6624H13.6448V24.9245C13.6448 25.5556 13.9072 25.9284 14.607 25.9284C14.8694 25.9284 15.1608 25.8424 15.3651 25.7277L15.1901 25.2113C15.0151 25.326 14.8111 25.3548 14.6653 25.3548C14.3738 25.3548 14.2572 25.1827 14.2572 24.8958V23.6624H15.2484V23.1176ZM20.4381 23.0601C20.0883 23.0601 19.8551 23.2323 19.7093 23.4618V23.1176H19.097V25.871H19.7093V24.3222C19.7093 23.8634 19.9133 23.6052 20.2923 23.6052C20.4089 23.6052 20.5548 23.634 20.6714 23.6626L20.8463 23.089C20.7297 23.0603 20.5548 23.0603 20.4381 23.0603M12.5953 23.3472C12.3036 23.1464 11.8955 23.0604 11.4582 23.0604C10.7585 23.0604 10.2921 23.4045 10.2921 23.9495C10.2921 24.4085 10.6419 24.6665 11.2542 24.7526L11.5457 24.7814C11.8664 24.8386 12.0413 24.9247 12.0413 25.0681C12.0413 25.2688 11.8081 25.4123 11.3999 25.4123C10.9916 25.4123 10.671 25.2688 10.4668 25.1255L10.1753 25.5843C10.4961 25.8138 10.9334 25.9285 11.3706 25.9285C12.187 25.9285 12.6536 25.5557 12.6536 25.0394C12.6536 24.5518 12.2746 24.2936 11.6914 24.2077L11.3999 24.1789C11.1374 24.1502 10.9334 24.0929 10.9334 23.9209C10.9334 23.7201 11.1374 23.6053 11.4582 23.6053C11.8081 23.6053 12.1579 23.7487 12.3329 23.8348L12.5953 23.3472ZM28.8642 23.0604C28.5142 23.0604 28.281 23.2325 28.1352 23.4619V23.1177H27.5229V25.8711H28.1352V24.3224C28.1352 23.8635 28.3393 23.6053 28.7182 23.6053C28.8349 23.6053 28.9808 23.6341 29.0974 23.6627L29.2723 23.0891C29.1557 23.0604 28.9808 23.0604 28.8642 23.0604ZM21.0504 24.4944C21.0504 25.3262 21.6335 25.9285 22.5374 25.9285C22.9455 25.9285 23.237 25.8425 23.5286 25.6131L23.237 25.1255C23.0038 25.2976 22.7706 25.3835 22.5082 25.3835C22.0125 25.3835 21.6627 25.0394 21.6627 24.4944C21.6627 23.9782 22.0125 23.634 22.5082 23.6053C22.7706 23.6053 23.0038 23.6913 23.237 23.8635L23.5286 23.3759C23.237 23.1464 22.9455 23.0604 22.5374 23.0604C21.6335 23.0604 21.0504 23.6627 21.0504 24.4944ZM26.7066 24.4944V23.1177H26.0944V23.4619C25.8902 23.2038 25.5987 23.0604 25.2197 23.0604C24.4325 23.0604 23.8202 23.6627 23.8202 24.4944C23.8202 25.3262 24.4325 25.9285 25.2197 25.9285C25.6278 25.9285 25.9195 25.7852 26.0944 25.527V25.8711H26.7066V24.4944ZM24.4616 24.4944C24.4616 24.0068 24.7823 23.6053 25.3071 23.6053C25.8027 23.6053 26.1527 23.9782 26.1527 24.4944C26.1527 24.982 25.8027 25.3835 25.3071 25.3835C24.7823 25.3548 24.4616 24.982 24.4616 24.4944ZM17.1436 23.0604C16.3272 23.0604 15.744 23.634 15.744 24.4944C15.744 25.3549 16.3271 25.9285 17.1727 25.9285C17.5808 25.9285 17.9891 25.8138 18.3098 25.5557L18.0182 25.1255C17.785 25.2976 17.4934 25.4123 17.2019 25.4123C16.8229 25.4123 16.4438 25.2402 16.3563 24.7525H18.4264V24.5232C18.4557 23.634 17.9309 23.0604 17.1436 23.0604ZM17.1435 23.5766C17.5224 23.5766 17.785 23.8062 17.8431 24.2364H16.3854C16.4437 23.8635 16.7061 23.5766 17.1435 23.5766ZM32.3335 24.4944V22.0278H31.7212V23.4619C31.5171 23.2038 31.2256 23.0604 30.8465 23.0604C30.0593 23.0604 29.4471 23.6627 29.4471 24.4944C29.4471 25.3262 30.0593 25.9285 30.8465 25.9285C31.2548 25.9285 31.5463 25.7852 31.7212 25.527V25.8711H32.3335V24.4944ZM30.0886 24.4944C30.0886 24.0068 30.4092 23.6053 30.934 23.6053C31.4297 23.6053 31.7795 23.9782 31.7795 24.4944C31.7795 24.982 31.4297 25.3835 30.934 25.3835C30.4092 25.3548 30.0886 24.982 30.0886 24.4944ZM9.62123 24.4944V23.1177H9.00897V23.4619C8.80483 23.2038 8.51331 23.0604 8.13426 23.0604C7.34708 23.0604 6.73482 23.6627 6.73482 24.4944C6.73482 25.3262 7.34708 25.9285 8.13426 25.9285C8.54253 25.9285 8.83405 25.7852 9.00897 25.527V25.8711H9.62123V24.4944ZM7.34708 24.4944C7.34708 24.0068 7.66782 23.6053 8.19257 23.6053C8.68822 23.6053 9.03818 23.9782 9.03818 24.4944C9.03818 24.982 8.68822 25.3835 8.19257 25.3835C7.66782 25.3548 7.34708 24.982 7.34708 24.4944Z" fill="#1A1A1A"/>
<path d="M12.3911 2.2085H21.5751V18.4423H12.3911V2.2085Z" fill="#FF5F00"/>
<path d="M12.9743 10.3254C12.9743 7.02706 14.5487 4.10147 16.9685 2.20843C15.1902 0.831739 12.9452 0 10.4962 0C4.69399 0 0 4.61768 0 10.3254C0 16.0331 4.69399 20.6508 10.496 20.6508C12.9451 20.6508 15.19 19.8191 16.9685 18.4422C14.5487 16.5779 12.9743 13.6237 12.9743 10.3254Z" fill="#EB001B"/>
<path d="M33.9663 10.3254C33.9663 16.033 29.2723 20.6508 23.4702 20.6508C21.0212 20.6508 18.7762 19.8191 16.9977 18.4422C19.4468 16.5493 20.9921 13.6237 20.9921 10.3254C20.9921 7.02706 19.4176 4.10147 16.9977 2.20843C18.7761 0.831739 21.0212 0 23.4702 0C29.2723 0 33.9663 4.64642 33.9663 10.3254Z" fill="#F79E1B"/>
</svg>
