<svg width="147" height="147" viewBox="0 0 147 147" fill="none" xmlns="http://www.w3.org/2000/svg">
<rect x="70.0547" y="25.2656" width="51.6797" height="71.2031" rx="10" fill="white"/>
<path d="M90.2702 89.964C91.5443 88.6859 92.1813 87.1792 92.1813 85.4437C92.1813 83.7083 91.5443 82.2036 90.2702 80.9296C88.9962 79.6556 87.4895 79.0166 85.75 79.0125C84.0105 79.0084 82.5058 79.6475 81.2359 80.9296C79.966 82.2118 79.3269 83.7165 79.3187 85.4437C79.3106 87.171 79.9496 88.6777 81.2359 89.964C82.5221 91.2503 84.0268 91.8873 85.75 91.875C87.4732 91.8627 88.9799 91.2257 90.2702 89.964ZM85.75 72.275C86.8729 72.275 87.9203 71.8667 88.8921 71.05C89.864 70.2333 90.4499 69.1615 90.65 67.8344C90.8542 66.6094 91.287 65.4865 91.9485 64.4656C92.61 63.4448 93.8105 62.0667 95.55 60.3313C98.6125 57.2688 100.654 54.7922 101.675 52.9016C102.696 51.011 103.206 48.7918 103.206 46.2438C103.206 41.65 101.597 37.8974 98.3798 34.986C95.1621 32.0746 90.9522 30.6209 85.75 30.625C82.3812 30.625 79.3187 31.3906 76.5625 32.9219C73.8063 34.4531 71.6115 36.6479 69.9781 39.5062C69.3656 40.5271 69.3146 41.599 69.825 42.7219C70.3354 43.8448 71.2031 44.6615 72.4281 45.1719C73.551 45.6823 74.6495 45.7333 75.7234 45.325C76.7973 44.9167 77.6895 44.2021 78.4 43.1813C79.3187 41.8542 80.3906 40.8599 81.6156 40.1984C82.8406 39.5369 84.2188 39.2041 85.75 39.2C88.2 39.2 90.1906 39.8901 91.7219 41.2703C93.2531 42.6504 94.0188 44.5124 94.0188 46.8563C94.0188 48.2854 93.6104 49.639 92.7937 50.9171C91.9771 52.1952 90.5479 53.802 88.5062 55.7375C85.5458 58.2896 83.6573 60.2557 82.8406 61.6359C82.024 63.016 81.5135 65.0312 81.3094 67.6813C81.2073 68.9062 81.5911 69.9781 82.4609 70.8969C83.3306 71.8156 84.427 72.275 85.75 72.275ZM49 110.25C45.6312 110.25 42.7484 109.052 40.3515 106.655C37.9546 104.258 36.7541 101.373 36.75 98V24.5C36.75 21.1313 37.9505 18.2484 40.3515 15.8515C42.7525 13.4546 45.6353 12.2541 49 12.25H122.5C125.869 12.25 128.754 13.4505 131.155 15.8515C133.556 18.2525 134.754 21.1353 134.75 24.5V98C134.75 101.369 133.552 104.254 131.155 106.655C128.758 109.056 125.873 110.254 122.5 110.25H49ZM24.5 134.75C21.1313 134.75 18.2484 133.552 15.8515 131.155C13.4546 128.758 12.2541 125.873 12.25 122.5V42.875C12.25 41.1396 12.838 39.6859 14.014 38.514C15.19 37.3421 16.6437 36.7541 18.375 36.75C20.1063 36.7459 21.562 37.3339 22.7421 38.514C23.9222 39.6941 24.5082 41.1478 24.5 42.875V122.5H104.125C105.86 122.5 107.316 123.088 108.492 124.264C109.668 125.44 110.254 126.894 110.25 128.625C110.246 130.356 109.658 131.812 108.486 132.992C107.314 134.172 105.86 134.758 104.125 134.75H24.5Z" fill="#5DD62C"/>
</svg>
