<svg width="34" height="25" viewBox="0 0 34 25" fill="none" xmlns="http://www.w3.org/2000/svg">
<path d="M1.5459 0.666992H23.1816C23.4123 0.666992 23.6354 0.759552 23.8008 0.926758C23.9663 1.09419 24.0605 1.32267 24.0605 1.5625V9.41406L25.1123 8.66895L33.1689 2.96582C33.1847 2.95463 33.2028 2.94847 33.2207 2.94727C33.2386 2.94608 33.2567 2.95019 33.2734 2.95898C33.2901 2.96777 33.3055 2.98097 33.3164 2.99902C33.3273 3.01723 33.333 3.03915 33.333 3.06152V21.9385C33.333 21.9608 33.3273 21.9828 33.3164 22.001C33.3055 22.019 33.2901 22.0322 33.2734 22.041C33.2567 22.0498 33.2386 22.0539 33.2207 22.0527C33.2118 22.0521 33.203 22.05 33.1943 22.0469L33.1689 22.0342L25.1123 16.3311L24.0605 15.5859V23.4375C24.0605 23.6773 23.9663 23.9058 23.8008 24.0732C23.6354 24.2404 23.4123 24.333 23.1816 24.333H1.5459C1.3152 24.333 1.09214 24.2404 0.926758 24.0732C0.761188 23.9058 0.666992 23.6774 0.666992 23.4375V1.5625L0.670898 1.47363C0.691121 1.2667 0.781772 1.07338 0.926758 0.926758C1.09214 0.759552 1.3152 0.666992 1.5459 0.666992ZM9.88379 6.87891C9.5882 6.88052 9.30264 6.98416 9.0752 7.17188C8.84621 7.36092 8.69044 7.62319 8.63184 7.91309L8.625 7.94629L8.62207 7.97852L8.60938 8.10254L8.60645 8.13574V16.8281L8.61523 16.9834C8.63377 17.1374 8.68005 17.2873 8.75195 17.4258C8.84789 17.6106 8.98692 17.7702 9.1582 17.8896C9.32948 18.0091 9.52764 18.0849 9.73535 18.1104C9.94314 18.1358 10.1543 18.1101 10.3496 18.0352L10.3789 18.0234L10.4082 18.0088L10.5205 17.9531L10.5537 17.9365L10.584 17.917L17.3145 13.5869C17.4783 13.4813 17.6157 13.3399 17.7168 13.1738C17.8179 13.0078 17.8802 12.821 17.8994 12.6279C17.9138 12.4831 17.904 12.3372 17.8701 12.1963L17.8291 12.0576L17.7715 11.9238C17.7071 11.7939 17.621 11.6753 17.5166 11.5732L17.4932 11.5508L17.4678 11.5303L17.3711 11.4521L17.3438 11.4297L17.3145 11.4111L10.584 7.08008L10.5771 7.07617L10.4189 6.99121C10.2563 6.91817 10.0767 6.87793 9.89062 6.87891H9.88379Z" fill="white" stroke="white" stroke-width="1.33333"/>
</svg>
