<svg width="67" height="67" viewBox="0 0 67 67" fill="none" xmlns="http://www.w3.org/2000/svg">
<path d="M33.3989 41.3V65" stroke="#2F80ED" stroke-width="3.6" stroke-linecap="round" stroke-linejoin="round"/>
<path d="M33.399 41.3C37.7621 41.3 41.299 37.7631 41.299 33.4C41.299 29.037 37.7621 25.5 33.399 25.5C29.036 25.5 25.499 29.037 25.499 33.4C25.499 37.7631 29.036 41.3 33.399 41.3Z" fill="#56CCF2" stroke="#2F80ED" stroke-width="1.6" stroke-linecap="round" stroke-linejoin="round"/>
<path d="M11.0548 55.7441C6.63566 51.3248 3.62618 45.6943 2.40696 39.5646C1.18773 33.4349 1.81352 27.0813 4.20518 21.3073C6.59684 15.5333 10.647 10.5981 15.8434 7.12581C21.0399 3.65355 27.1492 1.80015 33.399 1.79999C39.6488 1.80015 45.7581 3.65355 50.9546 7.12581C56.151 10.5981 60.2012 15.5333 62.5928 21.3073C64.9845 27.0813 65.6103 33.4349 64.391 39.5646C63.1718 45.6943 60.1623 51.3248 55.7432 55.7441" stroke="#56CCF2" stroke-width="3.6" stroke-linecap="round" stroke-linejoin="round"/>
<path d="M19.4339 47.3652C16.6719 44.6031 14.7909 41.084 14.0289 37.2529C13.2669 33.4218 13.658 29.4508 15.1528 25.842C16.6476 22.2332 19.179 19.1487 22.4268 16.9785C25.6746 14.8084 29.493 13.65 33.3992 13.65C37.3053 13.65 41.1237 14.8084 44.3715 16.9785C47.6194 19.1487 50.1507 22.2332 51.6455 25.842C53.1403 29.4508 53.5314 33.4218 52.7694 37.2529C52.0074 41.084 50.1264 44.6031 47.3644 47.3652" stroke="#56CCF2" stroke-width="3.6" stroke-linecap="round" stroke-linejoin="round"/>
</svg>
