<svg width="38" height="45" viewBox="0 0 38 45" fill="none" xmlns="http://www.w3.org/2000/svg">
<path d="M33.2561 0.800049H5.86477C4.1839 0.800049 2.82129 2.16266 2.82129 3.84353V40.3653C2.82129 42.0461 4.1839 43.4087 5.86477 43.4087H33.2561C34.9369 43.4087 36.2995 42.0461 36.2995 40.3653V3.84353C36.2995 2.16266 34.9369 0.800049 33.2561 0.800049Z" fill="#F2F2F2" stroke="#F2F2F2" stroke-width="1.6"/>
<path d="M10.4297 9.93054H28.6906M10.4297 16.0175H22.6036M10.4297 22.1045H28.6906M10.4297 28.1914H22.6036M10.4297 34.2784H28.6906" stroke="#2F80ED" stroke-width="2.6" stroke-linecap="round" stroke-linejoin="round"/>
<path d="M4.34328 12.9739H1.2998M4.34328 6.88696H1.2998M4.34328 19.0609H1.2998M4.34328 31.2348H1.2998M4.34328 37.3217H1.2998M4.34328 25.1478H1.2998" stroke="#F2994A" stroke-width="2.6" stroke-linecap="round" stroke-linejoin="round"/>
</svg>
