<svg width="54" height="54" viewBox="0 0 54 54" fill="none" xmlns="http://www.w3.org/2000/svg">
<path d="M1.6875 1.6875H52.3125V52.3125H1.6875V1.6875Z" fill="white"/>
<path d="M52.3127 10.2726H2.35004M52.3127 18.4233H2.30785M52.3127 26.5739H2.26145M52.3127 34.7245H2.21926M52.3127 42.8794H2.17285" stroke="#B0BEC5" stroke-width="0.5" stroke-miterlimit="10"/>
<path d="M16.335 51.4308H9.23486V23.3634C9.23486 22.7897 9.69893 22.3256 10.2727 22.3256H15.2972C15.871 22.3256 16.335 22.7897 16.335 23.3634V51.4308Z" fill="#9CCC65"/>
<path d="M30.5521 51.4308H23.4478V31.5731C23.4478 30.9994 23.9118 30.5353 24.4856 30.5353H29.5101C30.0838 30.5353 30.5479 30.9994 30.5479 31.5731V51.4308H30.5521Z" fill="#F44336"/>
<path d="M43.723 51.4308H38.6985C38.1247 51.4308 37.6606 50.9667 37.6606 50.393V10.9097C37.6606 10.336 38.1247 9.87189 38.6985 9.87189H43.723C44.2967 9.87189 44.7608 10.336 44.7608 10.9097V50.393C44.7608 50.9667 44.2967 51.4308 43.723 51.4308Z" fill="#0091EA"/>
<path d="M52.3125 50.625H3.375V1.6875H1.6875V52.3125H52.3125V50.625Z" fill="#B0BEC5"/>
<path d="M51.4688 2.53125V51.4688H2.53125V2.53125H51.4688ZM52.3125 1.6875H1.6875V52.3125H52.3125V1.6875Z" fill="#B0BEC5"/>
</svg>
