<svg width="49" height="49" viewBox="0 0 49 49" fill="none" xmlns="http://www.w3.org/2000/svg">
<path d="M27.3809 20.0762C27.382 20.3524 27.4923 20.617 27.6876 20.8124C27.8829 21.0077 28.1475 21.1179 28.4238 21.1191H48.25C48.25 15.5843 46.0513 10.2761 42.1376 6.36241C38.2238 2.4487 32.9157 0.25 27.3809 0.25V20.0762Z" fill="#FF808C" stroke="#191919" stroke-width="0.5" stroke-linecap="round" stroke-linejoin="round"/>
<path d="M42.1474 40.0507C44.087 38.1144 45.6247 35.8138 46.672 33.2811C47.7193 30.7484 48.2555 28.0336 48.2499 25.2929H28.4237C27.8499 25.2929 27.7124 25.6245 28.1183 26.0304L42.1474 40.0507Z" fill="#C9F7CA"/>
<path d="M43.0311 25.2929C42.4804 29.2773 40.7823 33.0154 38.1438 36.0515L42.1431 40.0507C44.0835 38.1148 45.622 35.8143 46.67 33.2816C47.7181 30.7488 48.255 28.0339 48.25 25.2929H43.0311Z" fill="#78EB7B"/>
<path d="M42.1474 40.0507C44.087 38.1144 45.6247 35.8138 46.672 33.2811C47.7193 30.7484 48.2555 28.0336 48.2499 25.2929H28.4237C27.8499 25.2929 27.7124 25.6245 28.1183 26.0304L42.1474 40.0507Z" stroke="#191919" stroke-width="0.5" stroke-linecap="round" stroke-linejoin="round"/>
<path d="M21.119 6.51184C17.687 6.51186 14.308 7.35829 11.2812 8.97617C8.25451 10.594 5.6735 12.9334 3.76684 15.7871C1.86018 18.6407 0.68673 21.9205 0.350435 25.336C0.0141409 28.7515 0.525382 32.1972 1.83887 35.3679C3.15236 38.5386 5.22756 41.3364 7.88063 43.5136C10.5337 45.6907 13.6828 47.1799 17.0489 47.8492C20.415 48.5186 23.8942 48.3475 27.1783 47.351C30.4625 46.3546 33.4502 44.5635 35.8769 42.1366L21.8565 28.1162C21.415 27.6241 21.1549 26.996 21.119 26.3358V6.51184Z" fill="#FFF9BF"/>
<path d="M10.6827 37.2515C8.1139 35.768 5.89148 33.7532 4.16405 31.3417C2.43662 28.9302 1.244 26.1777 0.665941 23.2682C-0.211392 27.6581 0.346141 32.2137 2.25622 36.2624C4.16629 40.3111 7.32766 43.6383 11.2735 45.7527C15.2194 47.8671 19.7406 48.6567 24.1695 48.0047C28.5985 47.3528 32.7004 45.294 35.8696 42.1322L31.1787 37.4413C28.035 39.1766 24.4965 40.0709 20.9058 40.0376C17.3151 40.0044 13.7937 39.0447 10.6827 37.2515Z" fill="#FFEF5E"/>
<path d="M21.119 6.51184C17.687 6.51186 14.308 7.35829 11.2812 8.97617C8.25451 10.594 5.6735 12.9334 3.76684 15.7871C1.86018 18.6407 0.68673 21.9205 0.350435 25.336C0.0141409 28.7515 0.525382 32.1972 1.83887 35.3679C3.15236 38.5386 5.22756 41.3364 7.88063 43.5136C10.5337 45.6907 13.6828 47.1799 17.0489 47.8492C20.415 48.5186 23.8942 48.3475 27.1783 47.351C30.4625 46.3546 33.4502 44.5635 35.8769 42.1366L21.8565 28.1162C21.415 27.6241 21.1549 26.996 21.119 26.3358V6.51184Z" stroke="#191919" stroke-width="0.5" stroke-linecap="round" stroke-linejoin="round"/>
</svg>
