<svg width="47" height="47" viewBox="0 0 47 47" fill="none" xmlns="http://www.w3.org/2000/svg">
<path fill-rule="evenodd" clip-rule="evenodd" d="M21.5225 9.73751C21.1055 10.9049 20.6901 12.0707 20.6901 13.2843V13.5779H33.4226V26.3105H33.717C34.9298 26.3105 36.0964 25.8943 37.263 25.4781C38.0787 25.1868 38.8952 24.8956 39.7299 24.746C40.707 24.5711 41.7142 24.7015 42.6145 25.1194C43.5148 25.5373 44.2646 26.2225 44.7617 27.0816C45.2215 27.8781 45.4441 28.7895 45.4032 29.7083C45.3622 30.6272 45.0594 31.5151 44.5305 32.2676C44.0016 33.0201 43.2686 33.6056 42.4179 33.9553C41.5673 34.305 40.6343 34.4042 39.7292 34.2412C38.8952 34.0916 38.0787 33.8004 37.2622 33.5091C36.0948 33.0921 34.929 32.6767 33.7154 32.6767H33.4226V45.4092H20.6901V45.1156C20.6901 43.902 21.1055 42.7362 21.5225 41.5688C21.8137 40.7531 22.105 39.9366 22.2546 39.1019C22.305 38.8228 22.3304 38.5379 22.331 38.2472C22.3304 37.5779 22.1906 36.916 21.9204 36.3036C21.6501 35.6913 21.2554 35.1418 20.7614 34.6903C20.2673 34.2387 19.6847 33.8949 19.0505 33.6808C18.4164 33.4666 17.7446 33.3867 17.0779 33.4463C16.4113 33.5058 15.7643 33.7034 15.1781 34.0265C14.5919 34.3496 14.0794 34.7912 13.6732 35.3231C13.2669 35.8551 12.9758 36.4657 12.8183 37.1163C12.6609 37.7668 12.6405 38.443 12.7585 39.1019C12.9089 39.9358 13.2002 40.7523 13.4906 41.5688C13.9076 42.7354 14.3238 43.9012 14.3238 45.1148V45.4092H1.59131V13.5779H14.3238V13.2835C14.3238 12.0699 13.9076 10.9041 13.4914 9.73671C13.2002 8.92103 12.9089 8.10536 12.7593 7.27058C12.5843 6.2934 12.7146 5.28603 13.1325 4.38555C13.5505 3.48507 14.2357 2.73523 15.0949 2.23806C15.8915 1.7782 16.8029 1.55563 17.7217 1.59658C18.6405 1.63754 19.5285 1.94031 20.281 2.46922C21.0334 2.99812 21.619 3.73111 21.9687 4.58179C22.3183 5.43247 22.4175 6.36539 22.2546 7.27058C22.105 8.10456 21.8137 8.92183 21.5225 9.73751Z" fill="#9B51E0"/>
<path d="M20.6903 13.578H19.0988C19.0988 14.0001 19.2664 14.4049 19.5649 14.7034C19.8634 15.0018 20.2682 15.1695 20.6903 15.1695V13.578ZM33.4228 13.578H35.0144C35.0144 13.1558 34.8467 12.751 34.5482 12.4526C34.2498 12.1541 33.8449 11.9864 33.4228 11.9864V13.578ZM33.4228 26.3105H31.8313C31.8313 26.7326 31.999 27.1374 32.2974 27.4359C32.5959 27.7343 33.0007 27.902 33.4228 27.902V26.3105ZM37.2633 25.4781L36.7603 23.9677L36.7285 23.9788L37.2633 25.4781ZM37.2633 25.4781L37.767 26.9877L37.7988 26.9765L37.2633 25.4781ZM37.2625 33.5091L37.798 32.0099L37.7662 31.9995L37.2625 33.5091ZM37.2625 33.5091L36.7285 35.0084L36.7603 35.0187L37.2625 33.5091ZM33.4228 32.6767V31.0852C33.0007 31.0852 32.5959 31.2528 32.2974 31.5513C31.999 31.8498 31.8313 32.2546 31.8313 32.6767H33.4228ZM33.4228 45.4092V47.0008C33.8449 47.0008 34.2498 46.8331 34.5482 46.5346C34.8467 46.2362 35.0144 45.8313 35.0144 45.4092H33.4228ZM20.6903 45.4092H19.0988C19.0988 45.8313 19.2664 46.2362 19.5649 46.5346C19.8634 46.8331 20.2682 47.0008 20.6903 47.0008V45.4092ZM14.3241 45.4092V47.0008C14.7462 47.0008 15.151 46.8331 15.4495 46.5346C15.748 46.2362 15.9156 45.8313 15.9156 45.4092H14.3241ZM1.59156 45.4092H0C0 45.8313 0.167682 46.2362 0.466158 46.5346C0.764634 46.8331 1.16945 47.0008 1.59156 47.0008V45.4092ZM1.59156 13.578V11.9864C1.16945 11.9864 0.764634 12.1541 0.466158 12.4526C0.167682 12.751 0 13.1558 0 13.578H1.59156ZM14.3241 13.578V15.1695C14.7462 15.1695 15.151 15.0018 15.4495 14.7034C15.748 14.4049 15.9156 14.0001 15.9156 13.578H14.3241ZM22.2819 13.2843C22.2819 12.393 22.5867 11.4906 23.022 10.2723L20.0235 9.20195C19.6256 10.3192 19.0988 11.7477 19.0988 13.2843H22.2819ZM22.2819 13.578V13.2843H19.0988V13.578H22.2819ZM20.6903 15.1695H33.4228V11.9864H20.6903V15.1695ZM31.8313 13.578V26.3105H35.0144V13.578H31.8313ZM33.4228 27.902H33.7173V24.7189H33.4228V27.902ZM33.7173 27.902C35.2531 27.902 36.6824 27.3752 37.7988 26.9765L36.7285 23.9788C35.511 24.4133 34.6078 24.7189 33.7173 24.7189V27.902ZM37.7988 26.9765C38.6368 26.6773 39.3291 26.4354 40.0111 26.3121L39.4477 23.1791C38.4617 23.3565 37.5219 23.6963 36.7285 23.9788L37.7988 26.9765ZM40.0111 26.3121C40.1984 26.2786 40.3894 26.2617 40.5841 26.2611V23.078C40.1994 23.078 39.8207 23.1117 39.4477 23.1791L40.0111 26.3121ZM40.5841 26.2611C41.7388 26.2611 42.8059 26.8771 43.3836 27.8766L46.1402 26.2858C45.5772 25.3105 44.7672 24.4999 43.7919 23.9369C42.8166 23.374 41.7102 23.0777 40.5841 23.078V26.2611ZM43.3836 27.8766C43.6677 28.368 43.8172 28.9256 43.8172 29.4932C43.8172 30.0608 43.6677 30.6184 43.3836 31.1098L46.1402 32.7014C46.7035 31.7261 47 30.6198 47 29.4936C47 28.3674 46.7035 27.261 46.1402 26.2858L43.3836 27.8766ZM43.3836 31.1098C43.1 31.6014 42.692 32.0095 42.2005 32.2932C41.7091 32.577 41.1516 32.7262 40.5841 32.7261V35.9092C41.7103 35.9094 42.8167 35.613 43.792 35.0499C44.7674 34.4868 45.5773 33.6768 46.1402 32.7014L43.3836 31.1098ZM40.5841 32.7261C40.3894 32.7261 40.1984 32.7091 40.0111 32.6751L39.4477 35.8081C39.8201 35.8755 40.1989 35.9092 40.5841 35.9092V32.7261ZM40.0111 32.6751C39.3283 32.5526 38.6368 32.3091 37.798 32.0099L36.7285 35.0084C37.5211 35.2909 38.4617 35.6307 39.4477 35.8081L40.0111 32.6751ZM37.798 32.0099C36.6808 31.612 35.2523 31.0852 33.7157 31.0852V34.2683C34.607 34.2683 35.5102 34.5731 36.7285 35.0084L37.798 32.0099ZM33.7157 31.0852H33.4228V34.2683H33.7157V31.0852ZM31.8313 32.6767V45.4092H35.0144V32.6767H31.8313ZM33.4228 43.8177H20.6903V47.0008H33.4228V43.8177ZM22.2819 45.4092V45.1156H19.0988V45.4092H22.2819ZM22.2819 45.1156C22.2819 44.2243 22.5867 43.3219 23.022 42.1035L20.0235 41.034C19.6256 42.1513 19.0988 43.5797 19.0988 45.1156H22.2819ZM23.022 42.1035C23.3045 41.311 23.6443 40.3695 23.8217 39.3836L20.6887 38.8202C20.5662 39.5029 20.3227 40.1953 20.0235 41.034L23.022 42.1035ZM23.8217 39.3836C23.8891 39.0117 23.9228 38.6329 23.9228 38.2472H20.7397C20.7397 38.4419 20.7227 38.6329 20.6887 38.8202L23.8217 39.3836ZM23.9228 38.2472C23.923 37.121 23.6266 36.0146 23.0635 35.0392C22.5004 34.0639 21.6904 33.254 20.715 32.691L19.1234 35.4476C19.615 35.7312 20.0231 36.1393 20.3069 36.6307C20.5906 37.1222 20.7399 37.6797 20.7397 38.2472H23.9228ZM20.715 32.691C19.7398 32.1278 18.6334 31.8313 17.5072 31.8313C16.381 31.8313 15.2746 32.1278 14.2994 32.691L15.891 35.4476C16.3823 35.1638 16.9398 35.0143 17.5072 35.0143C18.0746 35.0143 18.6321 35.1638 19.1234 35.4476L20.715 32.691ZM14.2994 32.691C13.324 33.254 12.514 34.0639 11.9509 35.0392C11.3878 36.0146 11.0914 37.121 11.0916 38.2472H14.2747C14.2747 37.0933 14.8915 36.0254 15.891 35.4476L14.2994 32.691ZM11.0916 38.2472C11.0916 38.6329 11.1253 39.0117 11.1927 39.3836L14.3257 38.8202C14.2914 38.6311 14.2744 38.4393 14.2747 38.2472H11.0916ZM11.1927 39.3836C11.3701 40.3695 11.7099 41.3102 11.9924 42.1028L14.9901 41.0332C14.6909 40.1945 14.4482 39.5029 14.3257 38.8202L11.1927 39.3836ZM11.9924 42.1028C12.4269 43.3211 12.7325 44.2243 12.7325 45.1148H15.9156C15.9156 43.5789 15.3888 42.1497 14.9901 41.0332L11.9924 42.1028ZM12.7325 45.1148V45.4092H15.9156V45.1148H12.7325ZM14.3241 43.8177H1.59156V47.0008H14.3241V43.8177ZM3.18313 45.4092V29.4936H0V45.4092H3.18313ZM3.18313 29.4936V13.578H0V29.4936H3.18313ZM1.59156 15.1695H14.3241V11.9864H1.59156V15.1695ZM12.7325 13.2835V13.578H15.9156V13.2835H12.7325ZM11.9924 10.2715C12.4269 11.4898 12.7325 12.393 12.7325 13.2835H15.9156C15.9156 11.7477 15.3888 10.3192 14.9901 9.20195L11.9924 10.2715ZM11.1927 7.5523C11.3701 8.53827 11.7099 9.47889 11.9924 10.2715L14.9901 9.20195C14.6909 8.3632 14.4482 7.67166 14.3257 6.98888L11.1927 7.5523ZM11.0916 6.41592C11.0916 6.80108 11.1253 7.17987 11.1927 7.5523L14.3257 6.98888C14.2914 6.79982 14.2744 6.60806 14.2747 6.41592H11.0916ZM14.2994 0.859773C13.3241 1.42284 12.5135 2.23276 11.9506 3.20809C11.3876 4.18342 11.0914 5.28978 11.0916 6.41592H14.2747C14.2747 5.26124 14.8907 4.1941 15.8902 3.61636L14.2994 0.859773ZM20.715 0.859773C19.7398 0.296531 18.6334 0 17.5072 0C16.381 0 15.2746 0.296531 14.2994 0.859773L15.8902 3.61636C16.3815 3.3325 16.9398 3.18305 17.5072 3.18305C18.0746 3.18305 18.6321 3.3325 19.1234 3.61636L20.715 0.859773ZM23.9228 6.41592C23.923 5.2897 23.6266 4.18329 23.0635 3.20796C22.5004 2.23262 21.6904 1.42274 20.715 0.859773L19.1234 3.61636C19.615 3.89996 20.0231 4.30802 20.3069 4.79947C20.5906 5.29093 20.7399 5.84845 20.7397 6.41592H23.9228ZM23.8217 7.5523C23.8891 7.1804 23.9228 6.80161 23.9228 6.41592H20.7397C20.7397 6.61062 20.7227 6.80161 20.6887 6.98888L23.8217 7.5523ZM23.022 10.2723C23.3045 9.47968 23.6443 8.53827 23.8217 7.5523L20.6887 6.98888C20.5662 7.67166 20.3227 8.3632 20.0235 9.20195L23.022 10.2723Z" fill="white"/>
</svg>
