<svg width="43" height="43" viewBox="0 0 43 43" fill="none" xmlns="http://www.w3.org/2000/svg">
<path d="M12.9375 24.6875V26.375H11.25V24.6875H12.9375ZM34.2305 16.125L26.875 23.4805L22.207 18.8125L23.3945 17.625L26.875 21.1055L33.043 14.9375L34.2305 16.125ZM16.125 12.5938C16.3488 12.5938 16.5634 12.6826 16.7217 12.8408C16.8799 12.9991 16.9688 13.2137 16.9688 13.4375V18.8125C16.9688 19.0363 16.8799 19.2509 16.7217 19.4092C16.5634 19.5674 16.3488 19.6562 16.125 19.6562H12.9375V21H11.25V17.9688H15.2812V14.2812H9.90625V12.5938H16.125Z" fill="white" stroke="white"/>
<path d="M23.8328 40.3125L21.5 38.9688L26.875 29.5625H34.9375C36.425 29.5625 37.625 28.3625 37.625 26.875V10.75C37.625 9.26247 36.425 8.0625 34.9375 8.0625H8.0625C6.57497 8.0625 5.375 9.26247 5.375 10.75V26.875C5.375 28.3625 6.57497 29.5625 8.0625 29.5625H20.1562V32.25H8.0625C6.63696 32.25 5.26981 31.6837 4.2618 30.6757C3.25379 29.6677 2.6875 28.3005 2.6875 26.875V10.75C2.6875 7.78031 5.09281 5.375 8.0625 5.375H34.9375C37.9072 5.375 40.3125 7.78031 40.3125 10.75V26.875C40.3125 28.3005 39.7462 29.6677 38.7382 30.6757C37.7302 31.6837 36.363 32.25 34.9375 32.25H28.4405L23.8328 40.3125Z" fill="white"/>
</svg>
