<svg width="17" height="20" viewBox="0 0 17 20" fill="none" xmlns="http://www.w3.org/2000/svg">
<path d="M16.3312 8.10388C16.1167 7.59463 15.8545 7.10716 15.5481 6.64808L13.9024 7.76693C14.3769 8.47709 14.7096 9.27344 14.8821 10.1116C15.0569 10.9854 15.0569 11.8855 14.8821 12.7592C14.7959 13.1812 14.6682 13.5935 14.501 13.9901C14.3384 14.3797 14.1379 14.7521 13.9024 15.1019C13.4311 15.8001 12.833 16.4023 12.1396 16.8767C11.4353 17.3543 10.6454 17.6895 9.81408 17.8635C8.94734 18.0394 8.0545 18.0394 7.18776 17.8635C5.94017 17.6053 4.79535 16.9837 3.89544 16.0758C3.30089 15.4767 2.82641 14.7679 2.49791 13.9881C2.33202 13.5916 2.20503 13.1797 2.11875 12.7582C1.85692 11.457 1.98901 10.1065 2.49791 8.88177C2.82634 8.10276 3.30046 7.39465 3.89444 6.79606C4.48866 6.19772 5.1916 5.7201 5.96493 5.38926C6.35699 5.22228 6.7689 5.0933 7.18578 5.00731C7.29198 4.98531 7.40017 4.97531 7.50737 4.95832V7.9989L12.4702 3.99945L7.50737 0V2.93759C7.2661 2.96472 7.02603 3.00175 6.78776 3.04858C5.69997 3.27281 4.66682 3.71112 3.74754 4.3384C2.11427 5.44827 0.91431 7.09507 0.352728 8.99737C-0.208853 10.8997 -0.0971952 12.9394 0.668619 14.768C1.09418 15.7865 1.71285 16.7116 2.48997 17.4916C3.26513 18.2714 4.18207 18.8937 5.19073 19.3243C6.77618 20 8.52815 20.1741 10.2141 19.8233C11.5635 19.542 12.825 18.935 13.8903 18.0545C14.9556 17.174 15.7929 16.0462 16.3302 14.768C16.5486 14.248 16.7163 13.7071 16.8265 13.1602C17.0578 12.0221 17.0578 10.8487 16.8265 9.71066C16.7134 9.1602 16.5475 8.6221 16.3312 8.10388Z" fill="white"/>
</svg>
