<svg width="55" height="55" viewBox="0 0 55 55" fill="none" xmlns="http://www.w3.org/2000/svg">
<path d="M32.6528 51.8719C32.6528 52.2457 32.5043 52.6042 32.24 52.8685C31.9757 53.1328 31.6172 53.2813 31.2434 53.2813H23.7496C23.3938 53.2564 23.0606 53.0974 22.8173 52.8365C22.5739 52.5756 22.4387 52.2321 22.4387 51.8753C22.4387 51.5186 22.5739 51.1751 22.8173 50.9142C23.0606 50.6532 23.3938 50.4943 23.7496 50.4694H31.2468C31.6194 50.4703 31.9765 50.6187 32.24 50.8822C32.5035 51.1457 32.6519 51.4993 32.6528 51.8719ZM27.4965 25.1591C27.8117 25.1712 28.1261 25.1195 28.4209 25.0072C28.7156 24.8949 28.9847 24.7243 29.212 24.5056C29.4392 24.2869 29.62 24.0245 29.7435 23.7343C29.867 23.444 29.9307 23.1319 29.9307 22.8164C29.9307 22.501 29.867 22.1888 29.7435 21.8986C29.62 21.6083 29.4392 21.346 29.212 21.1273C28.9847 20.9085 28.7156 20.7379 28.4209 20.6256C28.1261 20.5133 27.8117 20.4617 27.4965 20.4738C26.8907 20.497 26.3175 20.754 25.8971 21.1907C25.4767 21.6275 25.2419 22.2102 25.2419 22.8164C25.2419 23.4227 25.4767 24.0053 25.8971 24.4421C26.3175 24.8789 26.8907 25.1359 27.4965 25.1591ZM49.4484 35.8016L46.5506 48.8297C46.4306 49.3708 46.1755 49.8728 45.8091 50.2887C45.4428 50.7046 44.9771 51.021 44.4554 51.2084C43.9338 51.3958 43.3732 51.448 42.8259 51.3603C42.2787 51.2725 41.7625 51.0477 41.3256 50.7066L34.8081 45.7841H20.1918L13.6675 50.7031C13.231 51.0476 12.7142 51.2754 12.1655 51.3652C11.6168 51.4551 11.0543 51.4039 10.5309 51.2166C10.0074 51.0293 9.54015 50.7119 9.17303 50.2944C8.8059 49.8769 8.55096 49.3728 8.43215 48.8297L5.54465 35.7981C5.43708 35.3085 5.44246 34.8009 5.5604 34.3136C5.67833 33.8264 5.90571 33.3725 6.22527 32.9863L13.0212 24.8394C13.2309 21.8831 13.9012 18.9819 15.0081 16.2353C17.9884 8.76221 23.3337 4.0769 25.4925 2.40627C26.0679 1.96029 26.7753 1.71826 27.5034 1.71826C28.2315 1.71826 28.9389 1.96029 29.5143 2.40627C31.6731 4.0769 37.0115 8.76565 39.9987 16.2353C41.1021 18.9819 41.7725 21.8831 41.9856 24.8394L48.7815 32.9863C49.0987 33.3737 49.3236 33.8282 49.4391 34.3153C49.5547 34.8025 49.5578 35.3096 49.4484 35.7981M20.5253 42.9688H34.4643C39.6034 33.9556 40.5865 25.3138 37.3793 17.2769C34.5778 10.2472 29.3287 5.82315 27.7887 4.62346C27.7058 4.55707 27.6027 4.5209 27.4965 4.5209C27.3903 4.5209 27.2873 4.55707 27.2043 4.62346C25.6609 5.81627 20.4084 10.2472 17.6137 17.2769C14.4031 25.3138 15.3862 33.9556 20.5253 42.9688ZM17.8853 44C15.0734 38.9641 13.4578 34.0175 13.0521 29.1913L8.38746 34.7841C8.34253 34.8398 8.31058 34.9047 8.29393 34.9743C8.27728 35.0439 8.27635 35.1163 8.29121 35.1863L11.189 48.2247C11.206 48.3025 11.2426 48.3746 11.2953 48.4342C11.3479 48.4939 11.415 48.5391 11.49 48.5656C11.5651 48.5922 11.6456 48.5991 11.7241 48.5857C11.8026 48.5724 11.8763 48.5392 11.9384 48.4894L11.9728 48.4653L17.8853 44ZM46.6125 34.7875L41.9512 29.1913C41.549 34.0175 39.9368 38.9641 37.1181 44L43.0306 48.4516L43.065 48.4791C43.1275 48.5274 43.201 48.5596 43.2789 48.5728C43.3569 48.586 43.4369 48.5798 43.5118 48.5547C43.5858 48.5269 43.6518 48.4813 43.7039 48.4219C43.7561 48.3626 43.7928 48.2913 43.8109 48.2144L46.7122 35.1863C46.7256 35.1155 46.723 35.0427 46.7046 34.9731C46.6861 34.9035 46.6523 34.8389 46.6056 34.7841L46.6125 34.7875Z" fill="#5DD62C"/>
</svg>
