<svg width="24" height="24" viewBox="0 0 24 24" fill="none" xmlns="http://www.w3.org/2000/svg">
<path d="M18.375 0H5.625C2.5184 0 0 2.5184 0 5.625V18.375C0 21.4816 2.5184 24 5.625 24H18.375C21.4816 24 24 21.4816 24 18.375V5.625C24 2.5184 21.4816 0 18.375 0Z" fill="white"/>
<path d="M18.375 0H5.625C2.5184 0 0 2.5184 0 5.625V18.375C0 21.4816 2.5184 24 5.625 24H18.375C21.4816 24 24 21.4816 24 18.375V5.625C24 2.5184 21.4816 0 18.375 0Z" fill="#1D9BF0"/>
<path d="M18.7474 8.81343C18.7577 8.96221 18.7577 9.11099 18.7577 9.26118C18.7577 13.8359 15.275 19.112 8.90688 19.112V19.1091C7.02562 19.1119 5.18332 18.5731 3.59998 17.5571C3.87366 17.5899 4.14835 17.6066 4.42404 17.6071C5.98329 17.6084 7.4977 17.0854 8.72388 16.1222C8.00144 16.1085 7.30133 15.8694 6.72142 15.4383C6.1415 15.0073 5.71076 14.4058 5.48941 13.718C6.00811 13.818 6.54285 13.7976 7.05241 13.6583C5.43729 13.332 4.27526 11.9129 4.27526 10.2648V10.2209C4.75674 10.4891 5.29561 10.6377 5.84651 10.6542C4.32532 9.63749 3.85638 7.61371 4.77494 6.0314C5.64407 7.10105 6.72853 7.97588 7.95784 8.59904C9.18715 9.2222 10.5338 9.57975 11.9104 9.64846C11.7731 9.05769 11.7934 8.44123 11.9691 7.86075C12.1449 7.28026 12.47 6.7561 12.9119 6.34068C14.3063 5.02987 16.4994 5.09709 17.8102 6.49077C18.5855 6.33771 19.3291 6.05347 20.0088 5.6503C19.7503 6.45193 19.2094 7.13238 18.4868 7.56505C19.1731 7.48412 19.8433 7.30041 20.475 7.02009C20.0104 7.71593 19.4253 8.32317 18.7474 8.81343Z" fill="white"/>
</svg>
