<svg width="53" height="53" viewBox="0 0 53 53" fill="none" xmlns="http://www.w3.org/2000/svg">
<path d="M26.1024 3.13445C15.2043 2.88601 3.18403 11.925 3.4159 26.5662C3.61879 39.4394 13.2913 49.1823 25.825 49.3852C38.3586 49.5881 49.4638 41.3027 49.53 26.5C49.6004 11.5813 38.0895 3.40773 26.1024 3.13445Z" fill="#FF2A23"/>
<path d="M26.1354 8.35993C17.4898 8.65392 8.76552 15.105 8.56263 26.4793C8.35974 37.8536 18.3014 44.1888 26.1354 44.1888C36.0812 44.1888 44.3915 36.3547 44.1844 25.9327C43.9815 15.5149 36.1475 8.0204 26.1354 8.35993Z" fill="#FFFDFE"/>
<path d="M26.3383 12.7904C18.5043 12.6123 12.7157 19.5355 12.6453 26.1398C12.579 32.8848 16.7983 39.7624 26.2017 40.1019C35.6051 40.4415 40.0273 32.9511 40.1639 26.6159C40.3047 20.2808 35.2614 12.9933 26.3383 12.7904Z" fill="#FF2A23"/>
<path d="M17.3821 26.3882C17.3159 32.3135 21.5352 35.7212 26.6447 35.7212C31.2863 35.7212 35.841 32.7938 35.841 26.5953C35.841 21.0095 31.6176 17.6722 26.918 17.4693C22.2184 17.2623 17.4484 20.67 17.3821 26.3882Z" fill="white"/>
<path d="M21.5727 26.3427C21.3201 29.8746 24.1937 31.564 26.7816 31.564C29.2328 31.564 31.6509 29.9533 31.7213 26.6822C31.7834 23.6099 29.3736 21.7342 26.7816 21.6431C24.1067 21.552 21.7756 23.4732 21.5727 26.3427Z" fill="#FB2B22"/>
<path d="M27.6347 26.6201L26.2476 27.3902L28.8934 31.1541C28.8934 31.1541 30.9389 31.3114 31.4109 30.7773C31.8829 30.2431 31.3488 28.6697 31.3488 28.6697L27.6347 26.6201Z" fill="#CC1935"/>
<path d="M36.1973 22.5291C35.8246 21.759 35.4437 21.142 34.4334 21.3325C33.4272 21.523 31.5681 22.5912 31.2203 23.0964C30.9014 23.5602 30.5909 24.1357 30.5909 24.1357C30.5909 24.1357 27.0299 26.0818 26.4668 26.4006C25.5849 26.9058 26.1935 27.9327 26.8146 27.8167C27.6635 27.6594 31.4563 26.1149 31.4563 26.1149C31.4563 26.1149 32.2596 26.3054 32.7316 26.3054C33.2036 26.3054 35.895 24.9762 36.2594 24.7319C36.8598 24.322 36.5741 23.3159 36.1973 22.5291Z" fill="#ACB1B5"/>
<path d="M31.336 28.6614C31.336 28.6614 31.1373 29.3653 30.4127 30.0941C29.6591 30.8477 28.8848 31.1458 28.8848 31.1458L31.2739 34.6488C31.2739 34.6488 33.0502 34.7771 34.3421 33.5184C35.634 32.2596 35.0709 30.6116 35.0709 30.6116L31.336 28.6614Z" fill="#C8C8C8"/>
<path d="M33.7047 38.3298L31.27 34.6446C31.27 34.6446 31.6758 34.4293 32.2099 34.0649C33.1913 33.3942 33.7378 32.86 34.4376 31.7669C34.8185 31.1789 35.0628 30.6075 35.0628 30.6075L38.8267 32.4667C38.8267 32.4667 38.7438 35.3734 37.5141 36.7895C36.2843 38.2056 33.7047 38.3298 33.7047 38.3298Z" fill="#CC1935"/>
<path d="M33.7046 38.3298L35.7956 41.4642C35.7956 41.4642 38.5243 41.7334 40.7602 39.0544C42.9962 36.3754 42.3999 34.1726 42.3999 34.1726L38.8265 32.4625C38.8265 32.4625 38.1309 34.1353 36.7479 35.7419C35.365 37.3484 33.7046 38.3298 33.7046 38.3298Z" fill="#C8C8C8"/>
<path d="M38.8929 46.0976L35.7998 41.4683C35.7998 41.4683 38.131 40.1061 39.7872 38.1476C41.5056 36.1145 42.4041 34.1808 42.4041 34.1808L47.4101 36.6694C47.4101 36.6694 46.2839 39.5802 43.7871 42.2095C41.3441 44.7726 38.8929 46.0976 38.8929 46.0976Z" fill="#CC1935"/>
<path d="M33.7914 23.7548C34.2593 24.6284 35.0336 24.6367 35.8534 24.2889C36.6733 23.9411 40.5448 21.2041 40.5448 21.2041C40.5448 21.2041 45.8034 23.85 49.2028 22.525C52.6023 21.2041 52.507 17.6142 52.507 17.6142L50.4947 16.3389C50.4947 16.3389 51.9605 15.577 52.4325 15.2955C52.6644 15.1547 53.0081 14.633 52.8176 14.1651C52.6685 13.8007 52.0971 13.6765 51.6251 13.8669C51.1531 14.0574 49.7908 14.4839 49.7908 14.4839C49.7908 14.4839 50.3332 12.2273 50.238 12.103C50.1427 11.9788 49.1656 11.4737 49.1656 11.4737C49.1656 11.4737 45.9856 11.4737 45.5756 11.631C45.1657 11.7884 42.0188 14.9062 42.0188 14.9062L40.5075 17.991L39.8616 19.3657C39.8616 19.3657 35.4518 21.3408 34.7893 21.6223C34.1309 21.908 33.2159 22.6906 33.7914 23.7548Z" fill="#006CA9"/>
<path d="M40.8019 18.9848C40.8019 18.9848 42.6569 17.6432 43.9777 16.9807C45.2986 16.3182 47.7499 15.5108 48.4745 15.4238C49.1991 15.3369 49.4972 15.5315 49.6256 15.871C49.7539 16.2105 49.3274 16.637 48.9631 16.8316C48.6028 17.0221 46.6816 17.8958 44.5533 19.0262C42.425 20.1566 41.4147 20.9847 40.5535 21.1793C40.1187 21.2787 39.5597 20.8894 39.5266 20.2394C39.5017 19.7342 39.6011 19.3119 39.9324 18.343C40.3381 17.1505 41.2284 15.3576 41.9778 14.1899C43.0875 12.4633 44.6858 11.2915 46.4538 10.9727C48.2219 10.6538 49.6711 11.101 50.0355 11.3991C50.3957 11.6973 50.375 12.0037 50.2467 12.1072C50.1183 12.2107 49.9278 12.2935 48.9672 11.954C48.3006 11.718 46.1764 11.718 44.6858 12.8277C43.1786 13.9456 42.8101 14.6371 42.1517 15.8544C41.4934 17.0718 40.8019 18.9848 40.8019 18.9848Z" fill="#1F87FD"/>
</svg>
