<svg width="24" height="33" viewBox="0 0 24 33" fill="none" xmlns="http://www.w3.org/2000/svg">
<path d="M0 0V2.6875H2.625V8.0625C2.62657 9.68723 3.03917 11.2838 3.8226 12.6968C4.60602 14.1097 5.73357 15.2908 7.09538 16.125C5.73357 16.9592 4.60602 18.1403 3.8226 19.5532C3.03917 20.9662 2.62657 22.5628 2.625 24.1875V29.5625H0V32.25H23.625V29.5625H21V24.1875C20.9984 22.5628 20.5858 20.9662 19.8024 19.5532C19.019 18.1403 17.8914 16.9592 16.5296 16.125C17.8914 15.2908 19.019 14.1097 19.8024 12.6968C20.5858 11.2838 20.9984 9.68723 21 8.0625V2.6875H23.625V0H0ZM5.25 2.6875H18.375V8.0625C18.375 11.7887 15.4521 14.7812 11.8125 14.7812C8.17294 14.7812 5.25 11.7887 5.25 8.0625V2.6875ZM6.5625 5.375V8.0625C6.5625 11.0322 8.91187 13.4375 11.8125 13.4375C14.7131 13.4375 17.0625 11.0322 17.0625 8.0625V5.375H6.5625ZM11.8125 17.4688C15.4521 17.4688 18.375 20.4613 18.375 24.1875V29.5625H5.25V24.1875C5.25 20.4613 8.17294 17.4688 11.8125 17.4688Z" fill="white"/>
</svg>
