<svg width="55" height="55" viewBox="0 0 55 55" fill="none" xmlns="http://www.w3.org/2000/svg">
<g clip-path="url(#clip0_143_1516)">
<path d="M38.4312 20.8312C40.3664 19.4305 41.9422 17.5912 43.0296 15.4642C44.1171 13.3371 44.6852 10.9827 44.6875 8.59375V6.875H48.125V0H6.875V6.875H10.3125V8.59375C10.3122 10.9744 10.8751 13.3213 11.9552 15.4428C13.0354 17.5643 14.6022 19.4001 16.5275 20.8003C17.6783 21.5201 18.6469 22.4963 19.3577 23.6525C20.0686 24.8088 20.5023 26.1139 20.625 27.4656C20.4788 28.8476 20.0308 30.1806 19.3127 31.3704C18.5945 32.5602 17.6238 33.5777 16.4691 34.3509C14.5872 35.7504 13.0532 37.5648 11.9861 39.6531C10.919 41.7414 10.3475 44.0475 10.3159 46.3925V48.1216H6.87844V54.9966H48.1284V48.1216H44.6909V46.4028C44.6646 44.0698 44.1026 41.7741 43.0482 39.6928C41.9939 37.6116 40.4754 35.8004 38.61 34.3991C37.4448 33.6359 36.4619 32.6255 35.7312 31.4397C35.0004 30.2539 34.5398 28.9217 34.3819 27.5378C34.4896 26.1882 34.9085 24.8819 35.6056 23.7213C36.3028 22.5607 37.2594 21.5774 38.4003 20.8484L38.4312 20.8312ZM30.9375 27.5C31.0545 29.37 31.5833 31.191 32.4859 32.8329C33.3886 34.4748 34.6429 35.897 36.1591 36.9978C37.6773 38.0617 38.9275 39.4638 39.811 41.0936C40.6945 42.7234 41.1871 44.5363 41.25 46.3891V48.125H37.8125C37.8125 48.125 32.2437 36.0938 27.5 36.0938C22.7562 36.0938 17.1875 48.125 17.1875 48.125H13.75V46.4062C13.8063 44.5647 14.2884 42.7612 15.1586 41.1372C16.0287 39.5132 17.2632 38.1128 18.7653 37.0459C20.2961 35.9514 21.565 34.5308 22.4805 32.8866C23.3959 31.2424 23.935 29.4156 24.0591 27.5378C23.964 25.7089 23.4503 23.9263 22.5575 22.3273C21.6647 20.7283 20.4167 19.3556 18.9097 18.315C17.3258 17.235 16.0283 15.7862 15.1288 14.0933C14.2294 12.4004 13.755 10.5142 13.7466 8.59719V6.87844H41.2466V8.59719C41.2421 10.4995 40.7773 12.3726 39.892 14.0564C39.0067 15.7402 37.7271 17.1848 36.1625 18.2669C34.6449 19.2991 33.3844 20.6658 32.4779 22.2618C31.5715 23.8577 31.0433 25.6404 30.9341 27.4725L30.9375 27.5Z" fill="#5DD62C"/>
<path fill-rule="evenodd" clip-rule="evenodd" d="M27.5 42.3959C24.6917 42.3964 21.9406 41.603 19.5638 40.1074C17.187 38.6117 15.2814 36.4747 14.0668 33.9427C12.8522 31.4107 12.3781 28.587 12.6991 25.7972C13.0202 23.0074 14.1233 20.3651 15.8812 18.1752L36.8248 39.1165C34.1831 41.244 30.8918 42.4015 27.5 42.3959ZM39.2402 36.6713C41.4794 33.8059 42.5931 30.2204 42.3713 26.5906C42.1495 22.9608 40.6075 19.5376 38.0361 16.9662C35.4647 14.3947 32.0414 12.8528 28.4117 12.631C24.7819 12.4092 21.1964 13.5229 18.331 15.7621L39.2402 36.6713ZM9.16663 27.5C9.16663 22.6377 11.0982 17.9746 14.5363 14.5364C17.9745 11.0982 22.6377 9.16669 27.5 9.16669C32.3623 9.16669 37.0254 11.0982 40.4636 14.5364C43.9018 17.9746 45.8333 22.6377 45.8333 27.5C45.8333 32.3623 43.9018 37.0255 40.4636 40.4636C37.0254 43.9018 32.3623 45.8334 27.5 45.8334C22.6377 45.8334 17.9745 43.9018 14.5363 40.4636C11.0982 37.0255 9.16663 32.3623 9.16663 27.5Z" fill="#D76060"/>
</g>
<defs>
<clipPath id="clip0_143_1516">
<rect width="55" height="55" fill="white"/>
</clipPath>
</defs>
</svg>
