<svg width="32" height="32" viewBox="0 0 32 32" fill="none" xmlns="http://www.w3.org/2000/svg">
<path fill-rule="evenodd" clip-rule="evenodd" d="M6.72 9.96802H9.868V15.738H17.214V18.886H9.868V26.23H17.214V29.376H8.294C7.87724 29.3755 7.47771 29.2097 7.18301 28.915C6.88832 28.6203 6.72253 28.2208 6.722 27.804L6.72 9.96802Z" fill="white"/>
<path fill-rule="evenodd" clip-rule="evenodd" d="M2 3.672C2 1.644 3.644 0 5.672 0H21.41C23.438 0 25.082 1.644 25.082 3.672V7.344C25.082 8.31787 24.6951 9.25186 24.0065 9.9405C23.3179 10.6291 22.3839 11.016 21.41 11.016H5.672C4.69812 11.016 3.76414 10.6291 3.0755 9.9405C2.38687 9.25186 2 8.31787 2 7.344V3.672ZM5.672 3.148C5.60304 3.14747 5.53466 3.16066 5.47085 3.1868C5.40703 3.21295 5.34905 3.25152 5.30029 3.30029C5.25152 3.34905 5.21295 3.40703 5.1868 3.47085C5.16066 3.53466 5.14747 3.60304 5.148 3.672V7.344C5.148 7.634 5.382 7.868 5.672 7.868H21.41C21.479 7.86853 21.5473 7.85534 21.6112 7.8292C21.675 7.80305 21.7329 7.76448 21.7817 7.71571C21.8305 7.66695 21.8691 7.60897 21.8952 7.54515C21.9213 7.48134 21.9345 7.41296 21.934 7.344V3.672C21.9345 3.60304 21.9213 3.53466 21.8952 3.47085C21.8691 3.40703 21.8305 3.34905 21.7817 3.30029C21.7329 3.25152 21.675 3.21295 21.6112 3.1868C21.5473 3.16066 21.479 3.14747 21.41 3.148H5.672ZM15.64 16.786C15.64 14.758 17.284 13.114 19.312 13.114H24.558C26.586 13.114 28.23 14.758 28.23 16.786V17.836C28.23 18.8099 27.8431 19.7439 27.1545 20.4325C26.4659 21.1211 25.5319 21.508 24.558 21.508H19.312C18.3381 21.508 17.4041 21.1211 16.7155 20.4325C16.0269 19.7439 15.64 18.8099 15.64 17.836V16.786ZM19.312 16.262C19.2429 16.2612 19.1743 16.2742 19.1102 16.3002C19.0462 16.3262 18.988 16.3648 18.939 16.4136C18.89 16.4624 18.8513 16.5204 18.825 16.5844C18.7987 16.6483 18.7855 16.7169 18.786 16.786V17.836C18.786 18.126 19.022 18.36 19.312 18.36H24.558C24.627 18.3605 24.6953 18.3473 24.7592 18.3212C24.823 18.2951 24.8809 18.2565 24.9297 18.2077C24.9785 18.1589 25.0171 18.101 25.0432 18.0372C25.0693 17.9733 25.0825 17.905 25.082 17.836V16.786C25.0825 16.717 25.0693 16.6487 25.0432 16.5848C25.0171 16.521 24.9785 16.4631 24.9297 16.4143C24.8809 16.3655 24.823 16.3269 24.7592 16.3008C24.6953 16.2747 24.627 16.2615 24.558 16.262H19.312ZM15.64 27.28C15.64 25.25 17.284 23.606 19.312 23.606H24.558C26.586 23.606 28.23 25.25 28.23 27.278V28.328C28.23 29.3019 27.8431 30.2359 27.1545 30.9245C26.4659 31.6131 25.5319 32 24.558 32H19.312C18.3381 32 17.4041 31.6131 16.7155 30.9245C16.0269 30.2359 15.64 29.3019 15.64 28.328V27.28ZM19.312 26.754C19.2429 26.7532 19.1743 26.7662 19.1102 26.7922C19.0462 26.8182 18.988 26.8568 18.939 26.9056C18.89 26.9544 18.8513 27.0124 18.825 27.0764C18.7987 27.1403 18.7855 27.2089 18.786 27.278V28.328C18.786 28.618 19.022 28.852 19.312 28.852H24.558C24.627 28.8525 24.6953 28.8393 24.7592 28.8132C24.823 28.7871 24.8809 28.7485 24.9297 28.6997C24.9785 28.6509 25.0171 28.593 25.0432 28.5292C25.0693 28.4653 25.0825 28.397 25.082 28.328V27.278C25.0825 27.209 25.0693 27.1407 25.0432 27.0768C25.0171 27.013 24.9785 26.9551 24.9297 26.9063C24.8809 26.8575 24.823 26.8189 24.7592 26.7928C24.6953 26.7667 24.627 26.7535 24.558 26.754H19.312Z" fill="white"/>
</svg>
