<svg width="23" height="23" viewBox="0 0 23 23" fill="none" xmlns="http://www.w3.org/2000/svg">
<path d="M0.958252 21.3996H22.0416" stroke="#191919" stroke-width="0.5" stroke-linecap="round" stroke-linejoin="round"/>
<path d="M4.62493 21.3996V19.2002C4.62241 19.0809 4.57266 18.9675 4.4866 18.8848C4.40053 18.8022 4.28519 18.7571 4.16589 18.7594H2.3326C2.21346 18.7573 2.09836 18.8026 2.0125 18.8852C1.92665 18.9678 1.87703 19.0811 1.87451 19.2002V21.3996H4.62493Z" fill="#FFEF5E"/>
<path d="M10.1247 21.3996V15.6793C10.1219 15.5603 10.0722 15.4473 9.98636 15.3649C9.90053 15.2825 9.78558 15.2374 9.6666 15.2394H7.83331C7.71401 15.2371 7.59866 15.2822 7.5126 15.3649C7.42654 15.4475 7.37678 15.561 7.37427 15.6803V21.3996H10.1247Z" fill="#5DD62C"/>
<path d="M15.6247 21.3996V12.1612C15.6222 12.0421 15.5726 11.9288 15.4867 11.8462C15.4009 11.7636 15.2858 11.7184 15.1666 11.7204H13.3333C13.2742 11.7189 13.2154 11.7291 13.1602 11.7505C13.1051 11.7719 13.0547 11.804 13.0121 11.8451C12.9695 11.8861 12.9355 11.9351 12.912 11.9894C12.8885 12.0437 12.876 12.1021 12.8752 12.1612V21.4005L15.6247 21.3996Z" fill="#FFEF5E"/>
<path d="M21.1245 21.3996V8.64033C21.1219 8.5212 21.0723 8.40793 20.9865 8.3253C20.9006 8.24268 20.7855 8.19744 20.6664 8.1995H18.8331C18.7139 8.19744 18.5988 8.24268 18.513 8.3253C18.4271 8.40793 18.3775 8.5212 18.375 8.64033V21.3996H21.1245Z" fill="#5DD62C"/>
<path d="M4.62493 21.3996V19.2002C4.62241 19.0809 4.57266 18.9675 4.4866 18.8848C4.40053 18.8022 4.28519 18.7571 4.16589 18.7594H2.3326C2.21346 18.7573 2.09836 18.8026 2.0125 18.8852C1.92665 18.9678 1.87703 19.0811 1.87451 19.2002V21.3996H4.62493Z" fill="#FFEF5E"/>
<path d="M9.6666 15.2394H7.83331C7.71401 15.2371 7.59866 15.2822 7.5126 15.3649C7.42654 15.4475 7.37678 15.561 7.37427 15.6803V17.6736C7.37678 17.5543 7.42654 17.4409 7.5126 17.3582C7.59866 17.2756 7.71401 17.2304 7.83331 17.2328H9.6666C9.78574 17.2307 9.90083 17.2759 9.98669 17.3586C10.0725 17.4412 10.1222 17.5545 10.1247 17.6736V15.6803C10.1222 15.5611 10.0725 15.4478 9.98669 15.3652C9.90083 15.2826 9.78574 15.2374 9.6666 15.2394Z" fill="#B1EB9A"/>
<path d="M15.1666 11.7204H13.3333C13.2744 11.7189 13.2157 11.7291 13.1607 11.7503C13.1056 11.7716 13.0554 11.8036 13.0128 11.8444C12.9702 11.8852 12.9361 11.934 12.9125 11.9881C12.8889 12.0422 12.8762 12.1004 12.8752 12.1593V14.1584C12.8778 14.0393 12.9274 13.926 13.0132 13.8434C13.0991 13.7608 13.2142 13.7155 13.3333 13.7176H15.1666C15.2858 13.7155 15.4009 13.7608 15.4867 13.8434C15.5726 13.926 15.6222 14.0393 15.6247 14.1584V12.1603C15.6222 12.0412 15.5726 11.9279 15.4867 11.8453C15.4009 11.7626 15.2858 11.7184 15.1666 11.7204Z" fill="#FFF9BF"/>
<path d="M20.6664 8.20046H18.8331C18.7141 8.19841 18.5992 8.24351 18.5133 8.32593C18.4275 8.40835 18.3778 8.52138 18.375 8.64034V10.6337C18.377 10.5449 18.4051 10.4587 18.4559 10.3859C18.5068 10.3131 18.578 10.2569 18.6606 10.2245C18.7157 10.2037 18.7742 10.1933 18.8331 10.1938H20.6664C20.7855 10.1917 20.9006 10.237 20.9865 10.3196C21.0723 10.4022 21.1219 10.5155 21.1245 10.6346V8.63938C21.1219 8.52025 21.0723 8.40697 20.9865 8.32435C20.9006 8.24173 20.7855 8.19841 20.6664 8.20046Z" fill="#B1EB9A"/>
<path d="M3.24972 12.6002L19.7493 2.03933M19.2913 5.56025L19.7503 2.04029L16.0837 1.59946M4.62493 21.3996V19.2002C4.62241 19.0809 4.57266 18.9675 4.4866 18.8848C4.40053 18.8022 4.28519 18.7571 4.16589 18.7594H2.3326C2.21346 18.7573 2.09836 18.8026 2.0125 18.8852C1.92665 18.9678 1.87703 19.0811 1.87451 19.2002V21.3996H4.62493ZM10.1248 21.3996V15.6793C10.122 15.5603 10.0723 15.4473 9.98648 15.3649C9.90065 15.2825 9.78569 15.2374 9.66672 15.2394H7.83343C7.71413 15.2371 7.59878 15.2822 7.51272 15.3649C7.42665 15.4475 7.3769 15.561 7.37439 15.6802V21.3996H10.1248ZM15.6247 21.3996V12.1612C15.6222 12.0421 15.5725 11.9288 15.4867 11.8462C15.4008 11.7636 15.2857 11.7184 15.1666 11.7204H13.3333C13.2742 11.7189 13.2153 11.7291 13.1602 11.7505C13.1051 11.7719 13.0547 11.8041 13.0121 11.8451C12.9695 11.8861 12.9354 11.9351 12.9119 11.9894C12.8884 12.0437 12.876 12.1021 12.8752 12.1612V21.4005L15.6247 21.3996ZM21.1246 21.3996V8.64033C21.122 8.5212 21.0724 8.40793 20.9866 8.3253C20.9007 8.24268 20.7856 8.19744 20.6665 8.1995H18.8332C18.714 8.19744 18.5989 8.24268 18.5131 8.3253C18.4272 8.40793 18.3776 8.5212 18.3751 8.64033V21.3996H21.1246Z" stroke="white" stroke-linecap="round" stroke-linejoin="round"/>
</svg>
