<svg width="31" height="31" viewBox="0 0 31 31" fill="none" xmlns="http://www.w3.org/2000/svg">
<path d="M28.3004 4.52103H2.69958C1.99946 4.50716 1.32236 4.77118 0.816426 5.25533C0.310496 5.73947 0.0169421 6.40431 0 7.10436L0 23.896C0.0169421 24.5961 0.310496 25.2609 0.816426 25.7451C1.32236 26.2292 1.99946 26.4932 2.69958 26.4794H28.3004C29.0005 26.4932 29.6776 26.2292 30.1836 25.7451C30.6895 25.2609 30.9831 24.5961 31 23.896V7.10436C30.9831 6.40431 30.6895 5.73947 30.1836 5.25533C29.6776 4.77118 29.0005 4.50716 28.3004 4.52103ZM11.005 13.1881L8.42167 18.4969C8.34409 18.6613 8.22178 18.8007 8.06874 18.8989C7.91569 18.9971 7.73809 19.0503 7.55625 19.0523H6.70375C6.46376 19.0536 6.23181 18.9659 6.05283 18.806C5.87385 18.6461 5.7606 18.4255 5.735 18.1869L5.33458 14.2085C5.32252 14.1309 5.2836 14.0599 5.22459 14.008C5.16559 13.956 5.09024 13.9265 5.01167 13.9244H4.52083C4.2639 13.9244 4.0175 13.8223 3.83582 13.6406C3.65415 13.4589 3.55208 13.2125 3.55208 12.9556C3.55208 12.6987 3.65415 12.4523 3.83582 12.2706C4.0175 12.0889 4.2639 11.9869 4.52083 11.9869H6.17417C6.41416 11.9855 6.64611 12.0733 6.82509 12.2331C7.00406 12.393 7.11732 12.6137 7.14292 12.8523L7.34958 14.9835C7.36101 15.0527 7.39301 15.1167 7.44139 15.1674C7.48977 15.2181 7.55231 15.2531 7.62083 15.2677C7.69076 15.2801 7.76282 15.2691 7.82587 15.2364C7.88892 15.2037 7.93943 15.1512 7.96958 15.0869L9.26125 12.4002C9.3078 12.274 9.38011 12.1589 9.47359 12.0622C9.56707 11.9655 9.67966 11.8893 9.8042 11.8385C9.92873 11.7877 10.0625 11.7634 10.1969 11.7671C10.3314 11.7708 10.4636 11.8025 10.5851 11.8601C10.7067 11.9177 10.8149 12 10.9029 12.1017C10.9908 12.2035 11.0567 12.3224 11.0962 12.451C11.1357 12.5795 11.148 12.7149 11.1323 12.8485C11.1166 12.9821 11.0732 13.1109 11.005 13.2269V13.1881ZM13.4075 18.3548C13.3604 18.5736 13.2399 18.7697 13.0661 18.9106C12.8922 19.0516 12.6755 19.1289 12.4517 19.1298C12.3085 19.1289 12.1674 19.0962 12.0384 19.0342C11.9094 18.9723 11.7957 18.8825 11.7056 18.7713C11.6154 18.6601 11.551 18.5304 11.517 18.3914C11.4829 18.2523 11.4801 18.1075 11.5087 17.9673L12.555 12.7231C12.5804 12.5984 12.6302 12.48 12.7014 12.3745C12.7726 12.2691 12.8639 12.1787 12.9701 12.1085C13.0762 12.0384 13.1951 11.9898 13.3201 11.9656C13.445 11.9414 13.5735 11.942 13.6981 11.9675C13.8228 11.9929 13.9412 12.0427 14.0467 12.1139C14.1521 12.1851 14.2425 12.2764 14.3127 12.3826C14.3829 12.4887 14.4314 12.6076 14.4556 12.7326C14.4798 12.8575 14.4792 12.9859 14.4537 13.1106L13.4075 18.3548ZM20.1242 13.0977C20.0603 13.3457 19.9007 13.5584 19.6804 13.6891C19.4602 13.8198 19.1971 13.8579 18.9487 13.7952C18.6129 13.7048 17.9412 13.5885 17.6571 13.8727C17.3729 14.1569 18.1221 14.5185 18.29 14.6089C19.9046 15.6035 20.0337 16.6498 19.8529 17.3473C19.762 17.6932 19.6003 18.0165 19.3779 18.2966C19.1556 18.5768 18.8775 18.8077 18.5612 18.9748C18.1373 19.1905 17.6677 19.3012 17.1921 19.2977C16.6582 19.2867 16.1299 19.1863 15.6292 19.0006C15.3859 18.9167 15.186 18.7396 15.0734 18.5082C14.9607 18.2769 14.9446 18.0103 15.0285 17.7671C15.1125 17.5238 15.2896 17.3239 15.5209 17.2113C15.7523 17.0986 16.0189 17.0825 16.2621 17.1664C16.6996 17.3691 17.197 17.4014 17.6571 17.2569C17.74 17.2237 17.8112 17.1668 17.8617 17.0932C17.9123 17.0197 17.94 16.9328 17.9412 16.8435C17.9412 16.5594 17.4892 16.3914 17.2696 16.2623C15.2804 14.9706 15.4612 13.7564 15.9779 12.9039C16.9338 11.3152 19.1812 11.8448 19.4396 11.9223C19.6786 11.9863 19.8836 12.1405 20.0112 12.3525C20.1389 12.5645 20.1794 12.8177 20.1242 13.0589V13.0977ZM25.9108 19.0523C25.6545 19.0702 25.4013 18.9869 25.2057 18.8203C25.0101 18.6537 24.8876 18.417 24.8646 18.161V17.8769C24.8612 17.7969 24.8271 17.7213 24.7693 17.666C24.7116 17.6106 24.6346 17.5797 24.5546 17.5798H23.5471C23.4852 17.5768 23.4237 17.5924 23.3708 17.6246C23.3178 17.6568 23.2758 17.7042 23.25 17.7606L22.8625 18.5873C22.8074 18.7026 22.7301 18.806 22.635 18.8914C22.5399 18.9769 22.4289 19.0428 22.3084 19.0854C22.1879 19.128 22.0601 19.1464 21.9325 19.1396C21.8048 19.1328 21.6797 19.1009 21.5644 19.0458C21.3314 18.9345 21.1522 18.7352 21.0663 18.4917C21.0237 18.3712 21.0053 18.2434 21.012 18.1158C21.0188 17.9881 21.0507 17.863 21.1058 17.7477L23.6117 12.5164C23.6947 12.3396 23.8261 12.19 23.9907 12.0848C24.1553 11.9796 24.3463 11.9233 24.5417 11.9223H25.4975C25.7362 11.9307 25.9636 12.0259 26.1372 12.1899C26.3108 12.354 26.4186 12.5757 26.4404 12.8135C26.5437 14.1052 26.5437 14.1052 26.8667 17.9802C26.8736 18.1112 26.8542 18.2424 26.8096 18.3658C26.765 18.4892 26.6961 18.6024 26.607 18.6988C26.5179 18.7951 26.4104 18.8726 26.2908 18.9267C26.1712 18.9807 26.042 19.0103 25.9108 19.0135V19.0523Z" fill="#006BB8"/>
</svg>
