<svg width="48" height="46" viewBox="0 0 48 46" fill="none" xmlns="http://www.w3.org/2000/svg">
<path d="M37.3319 13.3031C40.8736 10.5652 41.2061 5.34024 38.0414 2.17548C34.8766 -0.98929 29.6524 -0.656712 26.9144 2.88352L13.8595 19.7656C13.7408 19.9192 13.6822 20.1107 13.6945 20.3044C13.7068 20.4981 13.7892 20.6808 13.9263 20.8181L19.3952 26.2877C19.5327 26.4252 19.7156 26.5079 19.9096 26.5202C20.1036 26.5325 20.2955 26.4736 20.4492 26.3545L37.3319 13.3031Z" fill="#2F80ED"/>
<path d="M16.6636 17.5886L22.6289 23.5546" stroke="#F2F2F2" stroke-width="1.6" stroke-linecap="square"/>
<path fill-rule="evenodd" clip-rule="evenodd" d="M13.9776 20.87L19.3473 26.2398C19.5337 26.4261 19.6145 26.6933 19.5632 26.9514L18.9353 30.0901C18.6984 31.2737 18.1493 32.3725 17.345 33.2726C16.5407 34.1727 15.5104 34.8415 14.3608 35.2096L4.44461 38.3828C3.7232 38.6134 3.49258 37.7197 4.02766 37.184L10.0633 31.149C10.4535 30.7588 11.0533 30.6857 11.5961 30.5851C11.6406 30.5767 11.6852 30.5664 11.7297 30.5542C12.9848 30.2181 13.4052 28.6494 12.4862 27.7311C11.5673 26.8129 9.9993 27.2326 9.6632 28.4877C9.65168 28.5319 9.6416 28.5764 9.63297 28.6213C9.53172 29.1641 9.4593 29.7639 9.06906 30.1541L3.03344 36.1897C2.49836 36.7248 1.60398 36.4949 1.83461 35.7735L5.00781 25.8566C5.37592 24.707 6.04465 23.6767 6.94477 22.8724C7.84488 22.0681 8.94364 21.519 10.1273 21.2821L13.266 20.6542C13.5248 20.6029 13.792 20.6837 13.9783 20.87" fill="#9B51E0"/>
<path d="M1.2998 44.6259H10.4461C11.7513 44.626 13.0162 44.1732 14.025 43.3449L16.6835 41.1631C16.9431 40.95 17.2687 40.8335 17.6046 40.8335C17.9405 40.8335 18.266 40.95 18.5257 41.1631L21.1877 43.3477C22.1944 44.1745 23.4568 44.6263 24.7596 44.6259H25.2588C26.2724 44.6257 27.2612 44.3126 28.0902 43.7293C28.9192 43.146 29.5478 42.321 29.8903 41.367L34.1442 29.5088C34.1723 29.431 34.2237 29.3637 34.2914 29.3162C34.359 29.2687 34.4397 29.2432 34.5225 29.2432C34.6052 29.2432 34.6859 29.2687 34.7536 29.3162C34.8213 29.3637 34.8726 29.431 34.9007 29.5088L38.5429 39.6619C39.0643 41.115 40.0217 42.3717 41.2842 43.2602C42.5467 44.1487 44.0528 44.6257 45.5967 44.6259H46.2998" stroke="white" stroke-width="2.6" stroke-linecap="round" stroke-linejoin="round"/>
</svg>
