<svg width="76" height="76" viewBox="0 0 76 76" fill="none" xmlns="http://www.w3.org/2000/svg">
<path d="M55.207 10.2917C56.0582 10.2917 56.8746 10.6298 57.4765 11.2317C58.0784 11.8336 58.4165 12.65 58.4165 13.5012V71.2512C58.417 71.6725 58.3344 72.0898 58.1735 72.4791C58.0126 72.8685 57.7765 73.2224 57.4787 73.5204C57.181 73.8185 56.8274 74.055 56.4382 74.2163C56.049 74.3776 55.6318 74.4607 55.2105 74.4607H3.876C3.02479 74.4607 2.20844 74.1225 1.60654 73.5206C1.00465 72.9187 0.666504 72.1024 0.666504 71.2512V13.5012C0.666504 12.65 1.00465 11.8336 1.60654 11.2317C2.20844 10.6298 3.02479 10.2917 3.876 10.2917H55.207Z" fill="#FFDDA1"/>
<path d="M58.4198 44.6897L49.2288 48.9737L42.3758 58.4272L54.0273 59.2567L58.4198 57.2057V44.6897ZM47.1568 19.9167C47.1568 20.7679 46.8186 21.5842 46.2168 22.1861C45.6149 22.788 44.7985 23.1262 43.9473 23.1262H15.0723C14.2211 23.1262 13.4047 22.788 12.8028 22.1861C12.2009 21.5842 11.8628 20.7679 11.8628 19.9167V10.2917H47.1568V19.9167Z" fill="#FFBC44"/>
<path d="M58.4165 60.0232V71.2512C58.417 71.6725 58.3344 72.0898 58.1735 72.4791C58.0126 72.8685 57.7765 73.2224 57.4787 73.5204C57.181 73.8185 56.8274 74.055 56.4382 74.2163C56.049 74.3776 55.6318 74.4607 55.2105 74.4607H3.876C3.02479 74.4607 2.20844 74.1225 1.60654 73.5206C1.00465 72.9187 0.666504 72.1024 0.666504 71.2512V13.5012C0.666504 12.65 1.00465 11.8336 1.60654 11.2317C2.20844 10.6298 3.02479 10.2917 3.876 10.2917H13.501M45.582 10.2917H55.207C56.0582 10.2917 56.8746 10.6298 57.4765 11.2317C58.0784 11.8336 58.4165 12.65 58.4165 13.5012V24.7292" stroke="#191919" stroke-width="1.33333" stroke-linecap="round" stroke-linejoin="round"/>
<path d="M34.0845 7.08569H42.3795C43.2298 7.08569 44.0452 7.42347 44.6465 8.02471C45.2477 8.62595 45.5855 9.44141 45.5855 10.2917V13.5012C45.5859 13.9228 45.5032 14.3404 45.3421 14.73C45.181 15.1196 44.9446 15.4736 44.6465 15.7717C44.3483 16.0698 43.9943 16.3062 43.6047 16.4673C43.2151 16.6285 42.7976 16.7112 42.376 16.7107H16.7105C15.8593 16.7107 15.0429 16.3726 14.441 15.7707C13.8391 15.1688 13.501 14.3524 13.501 13.5012V10.2917C13.5019 9.44109 13.8405 8.62564 14.4423 8.0245C15.0441 7.42336 15.8599 7.08569 16.7105 7.08569H25.0195" fill="#E4F1F5"/>
<path d="M34.0845 7.08569H42.3795C43.2298 7.08569 44.0452 7.42347 44.6465 8.02471C45.2477 8.62595 45.5855 9.44141 45.5855 10.2917V13.5012C45.5859 13.9228 45.5032 14.3404 45.3421 14.73C45.181 15.1196 44.9446 15.4736 44.6465 15.7717C44.3483 16.0698 43.9943 16.3062 43.6047 16.4673C43.2151 16.6285 42.7976 16.7112 42.376 16.7107H16.7105C15.8593 16.7107 15.0429 16.3726 14.441 15.7707C13.8391 15.1688 13.501 14.3524 13.501 13.5012V10.2917C13.5019 9.44109 13.8405 8.62564 14.4423 8.0245C15.0441 7.42336 15.8599 7.08569 16.7105 7.08569H25.0195" stroke="#191919" stroke-width="1.33333" stroke-linecap="round" stroke-linejoin="round"/>
<path d="M29.5415 10.2917C30.8179 10.2917 32.0419 9.78466 32.9445 8.88214C33.847 7.97962 34.354 6.75554 34.354 5.47919C34.354 4.20283 33.847 2.97875 32.9445 2.07624C32.0419 1.17372 30.8179 0.666687 29.5415 0.666687C28.2651 0.666687 27.0411 1.17372 26.1386 2.07624C25.236 2.97875 24.729 4.20283 24.729 5.47919C24.729 6.75554 25.236 7.97962 26.1386 8.88214C27.0411 9.78466 28.2651 10.2917 29.5415 10.2917Z" fill="#98B7C0" stroke="#191919" stroke-width="1.33333" stroke-linecap="round" stroke-linejoin="round"/>
<path d="M10.2915 29.5417H48.7915M10.2915 42.3762H40.661M10.2915 55.2107H35.9045" stroke="#191919" stroke-width="1.33333" stroke-linecap="round" stroke-linejoin="round"/>
<path d="M53.6075 55.2107L42.376 58.4167L45.5855 47.1887L64.776 27.9947C65.8398 26.9309 67.2826 26.3333 68.787 26.3333C70.2914 26.3333 71.7342 26.9309 72.798 27.9947C73.8618 29.0584 74.4594 30.5012 74.4594 32.0057C74.4594 33.5101 73.8618 34.9529 72.798 36.0167L53.6075 55.2107Z" fill="#66E1FF" stroke="#191919" stroke-width="1.33333" stroke-linecap="round" stroke-linejoin="round"/>
</svg>
