<svg width="1436" height="384" viewBox="0 0 1436 384" fill="none" xmlns="http://www.w3.org/2000/svg">
<path d="M207.548 273.39C207.548 275.816 209.509 277.778 211.933 277.778C214.357 277.778 216.318 275.816 216.318 273.39C216.318 270.964 214.357 269.002 211.933 269.002C209.509 269.002 207.548 270.982 207.548 273.39Z" fill="white" stroke="#54FF0F" stroke-miterlimit="10" stroke-linejoin="round"/>
<path d="M0.500045 241.442C0.500045 243.868 2.46078 245.83 4.88491 245.83C7.30904 245.83 9.26978 243.868 9.26978 241.442C9.26978 239.016 7.30904 237.053 4.88491 237.053C2.46078 237.053 0.500045 239.016 0.500045 241.442Z" fill="white" stroke="#54FF0F" stroke-miterlimit="10" stroke-linejoin="round"/>
<path d="M257.921 137.551C257.921 139.977 259.881 141.939 262.306 141.939C264.73 141.939 266.69 139.977 266.69 137.551C266.69 135.125 264.73 133.163 262.306 133.163C259.881 133.181 257.921 135.143 257.921 137.551Z" fill="white" stroke="#54FF0F" stroke-miterlimit="10" stroke-linejoin="round"/>
<path d="M416.594 264.631C416.594 267.057 418.555 269.02 420.979 269.02C423.403 269.02 425.364 267.057 425.364 264.631C425.364 262.205 423.403 260.243 420.979 260.243C418.555 260.261 416.594 262.205 416.594 264.631Z" fill="white" stroke="#54FF0F" stroke-miterlimit="10" stroke-linejoin="round"/>
<path d="M757.702 222.443C757.702 224.869 759.662 226.831 762.087 226.831C764.511 226.831 766.471 224.869 766.471 222.443C766.471 220.017 764.511 218.055 762.087 218.055C759.662 218.073 757.702 220.017 757.702 222.443Z" fill="white" stroke="#54FF0F" stroke-miterlimit="10" stroke-linejoin="round"/>
<path d="M919.173 103.755C919.173 106.181 921.134 108.143 923.558 108.143C925.982 108.143 927.943 106.181 927.943 103.755C927.943 101.329 925.982 99.3667 923.558 99.3667C921.134 99.3845 919.173 101.329 919.173 103.755Z" fill="white" stroke="#54FF0F" stroke-miterlimit="10" stroke-linejoin="round"/>
<path d="M1218.65 179.66C1218.65 182.086 1220.61 184.048 1223.04 184.048C1225.46 184.048 1227.42 182.086 1227.42 179.66C1227.42 177.234 1225.46 175.272 1223.04 175.272C1220.61 175.29 1218.65 177.234 1218.65 179.66Z" fill="white" stroke="#54FF0F" stroke-miterlimit="10" stroke-linejoin="round"/>
<path d="M300.771 221.249C295.156 220.945 290.7 216.325 290.7 210.635C290.7 204.766 295.459 200.003 301.323 200.003C302.393 200.003 303.427 200.164 304.407 200.467C306.207 193.046 312.874 187.516 320.859 187.516C328.773 187.516 335.386 192.939 337.258 200.271C338.006 200.092 338.791 200.003 339.593 200.003C345.457 200.003 350.216 204.766 350.216 210.635C350.216 216.218 345.903 220.803 340.43 221.231L300.771 221.249Z" fill="white" stroke="#54FF0F" stroke-miterlimit="10" stroke-linejoin="round"/>
<path d="M533.571 71.7322C527.956 71.429 523.5 66.8089 523.5 61.1184C523.5 55.2496 528.259 50.4868 534.123 50.4868C535.193 50.4868 536.227 50.6474 537.207 50.9506C539.007 43.5299 545.674 38 553.659 38C561.573 38 568.186 43.4228 570.057 50.7544C570.806 50.576 571.59 50.4868 572.392 50.4868C578.257 50.4868 583.016 55.2496 583.016 61.1184C583.016 66.7018 578.702 71.2863 573.23 71.7144L533.571 71.7322Z" fill="white" stroke="#54FF0F" stroke-miterlimit="10" stroke-linejoin="round"/>
<path d="M933.38 293.19C927.766 292.887 923.309 288.267 923.309 282.576C923.309 276.707 928.069 271.945 933.933 271.945C935.002 271.945 936.036 272.105 937.017 272.408C938.817 264.988 945.483 259.458 953.469 259.458C961.383 259.458 967.995 264.881 969.867 272.212C970.616 272.034 971.4 271.945 972.202 271.945C978.066 271.945 982.825 276.707 982.825 282.576C982.825 288.16 978.512 292.744 973.04 293.172L933.38 293.19Z" fill="white" stroke="#54FF0F" stroke-miterlimit="10" stroke-linejoin="round"/>
<path d="M1198.57 65.7322C1192.96 65.429 1188.5 60.8089 1188.5 55.1184C1188.5 49.2496 1193.26 44.4868 1199.12 44.4868C1200.19 44.4868 1201.23 44.6474 1202.21 44.9506C1204.01 37.5299 1210.67 32 1218.66 32C1226.57 32 1233.19 37.4228 1235.06 44.7544C1235.81 44.576 1236.59 44.4868 1237.39 44.4868C1243.26 44.4868 1248.02 49.2496 1248.02 55.1184C1248.02 60.7018 1243.7 65.2863 1238.23 65.7144L1198.57 65.7322Z" fill="white" stroke="#54FF0F" stroke-miterlimit="10" stroke-linejoin="round"/>
<path d="M1386.05 155.18C1380.44 154.877 1375.98 150.257 1375.98 144.567C1375.98 138.698 1380.74 133.935 1386.61 133.935C1387.68 133.935 1388.71 134.096 1389.69 134.399C1391.49 126.978 1398.16 121.448 1406.14 121.448C1414.06 121.448 1420.67 126.871 1422.54 134.203C1423.29 134.024 1424.07 133.935 1424.88 133.935C1430.74 133.935 1435.5 138.698 1435.5 144.567C1435.5 150.15 1431.19 154.735 1425.71 155.163L1386.05 155.18Z" fill="white" stroke="#54FF0F" stroke-miterlimit="10" stroke-linejoin="round"/>
<path d="M100.998 155.213C95.152 154.91 90.4998 150.075 90.4998 144.135C90.4998 137.999 95.4729 133.04 101.604 133.04C102.727 133.04 103.797 133.2 104.813 133.521C106.702 125.762 113.654 120 121.978 120C130.231 120 137.146 125.673 139.107 133.325C139.891 133.147 140.711 133.04 141.549 133.04C147.681 133.04 152.654 138.017 152.654 144.135C152.654 149.968 148.144 154.749 142.44 155.195L100.998 155.213Z" fill="white" stroke="#54FF0F" stroke-miterlimit="10" stroke-linejoin="round"/>
<path d="M68.3752 0V5.03041" stroke="#54FF0F" stroke-miterlimit="10" stroke-linejoin="round"/>
<path d="M84.4172 8.86548L80.0502 11.3807" stroke="#54FF0F" stroke-miterlimit="10" stroke-linejoin="round"/>
<path d="M84.7737 27.1856L80.4245 24.6704" stroke="#54FF0F" stroke-miterlimit="10" stroke-linejoin="round"/>
<path d="M69.0881 36.6754V31.6272" stroke="#54FF0F" stroke-miterlimit="10" stroke-linejoin="round"/>
<path d="M53.0461 27.8101L57.3953 25.2949" stroke="#54FF0F" stroke-miterlimit="10" stroke-linejoin="round"/>
<path d="M52.6896 9.48975L57.0388 12.0049" stroke="#54FF0F" stroke-miterlimit="10" stroke-linejoin="round"/>
<path d="M367.631 77.6323V82.6627" stroke="#54FF0F" stroke-miterlimit="10" stroke-linejoin="round"/>
<path d="M383.673 86.4802L379.306 88.9954" stroke="#54FF0F" stroke-miterlimit="10" stroke-linejoin="round"/>
<path d="M384.029 104.818L379.662 102.303" stroke="#54FF0F" stroke-miterlimit="10" stroke-linejoin="round"/>
<path d="M368.344 114.29V109.26" stroke="#54FF0F" stroke-miterlimit="10" stroke-linejoin="round"/>
<path d="M352.301 105.442L356.651 102.927" stroke="#54FF0F" stroke-miterlimit="10" stroke-linejoin="round"/>
<path d="M351.945 87.1042L356.294 89.6195" stroke="#54FF0F" stroke-miterlimit="10" stroke-linejoin="round"/>
<path d="M603.636 190.453V195.483" stroke="#54FF0F" stroke-miterlimit="10" stroke-linejoin="round"/>
<path d="M619.678 199.301L615.311 201.816" stroke="#54FF0F" stroke-miterlimit="10" stroke-linejoin="round"/>
<path d="M620.034 217.638L615.667 215.123" stroke="#54FF0F" stroke-miterlimit="10" stroke-linejoin="round"/>
<path d="M604.349 227.11V222.08" stroke="#54FF0F" stroke-miterlimit="10" stroke-linejoin="round"/>
<path d="M588.307 218.263L592.656 215.748" stroke="#54FF0F" stroke-miterlimit="10" stroke-linejoin="round"/>
<path d="M587.95 199.925L592.299 202.44" stroke="#54FF0F" stroke-miterlimit="10" stroke-linejoin="round"/>
<path d="M729.224 346.404V351.434" stroke="#54FF0F" stroke-miterlimit="10" stroke-linejoin="round"/>
<path d="M745.266 355.252L740.899 357.767" stroke="#54FF0F" stroke-miterlimit="10" stroke-linejoin="round"/>
<path d="M745.623 373.589L741.256 371.074" stroke="#54FF0F" stroke-miterlimit="10" stroke-linejoin="round"/>
<path d="M729.938 383.061V378.031" stroke="#54FF0F" stroke-miterlimit="10" stroke-linejoin="round"/>
<path d="M713.895 374.214L718.244 371.698" stroke="#54FF0F" stroke-miterlimit="10" stroke-linejoin="round"/>
<path d="M713.539 355.876L717.888 358.391" stroke="#54FF0F" stroke-miterlimit="10" stroke-linejoin="round"/>
<path d="M820.311 60.7241V65.7545" stroke="#54FF0F" stroke-miterlimit="10" stroke-linejoin="round"/>
<path d="M836.353 69.572L831.986 72.0872" stroke="#54FF0F" stroke-miterlimit="10" stroke-linejoin="round"/>
<path d="M836.709 87.91L832.342 85.3948" stroke="#54FF0F" stroke-miterlimit="10" stroke-linejoin="round"/>
<path d="M821.024 97.3817V92.3513" stroke="#54FF0F" stroke-miterlimit="10" stroke-linejoin="round"/>
<path d="M804.981 88.5343L809.331 86.019" stroke="#54FF0F" stroke-miterlimit="10" stroke-linejoin="round"/>
<path d="M804.625 70.196L808.974 72.7113" stroke="#54FF0F" stroke-miterlimit="10" stroke-linejoin="round"/>
<path d="M1248.19 265V270.03" stroke="#54FF0F" stroke-miterlimit="10" stroke-linejoin="round"/>
<path d="M1264.23 273.848L1259.86 276.363" stroke="#54FF0F" stroke-miterlimit="10" stroke-linejoin="round"/>
<path d="M1264.58 292.186L1260.22 289.671" stroke="#54FF0F" stroke-miterlimit="10" stroke-linejoin="round"/>
<path d="M1248.9 301.658V296.627" stroke="#54FF0F" stroke-miterlimit="10" stroke-linejoin="round"/>
<path d="M1232.86 292.81L1237.21 290.295" stroke="#54FF0F" stroke-miterlimit="10" stroke-linejoin="round"/>
<path d="M1232.5 274.472L1236.85 276.987" stroke="#54FF0F" stroke-miterlimit="10" stroke-linejoin="round"/>
<path d="M331.447 289.498V294.528" stroke="#54FF0F" stroke-miterlimit="10" stroke-linejoin="round"/>
<path d="M347.489 298.346L343.14 300.861" stroke="#54FF0F" stroke-miterlimit="10" stroke-linejoin="round"/>
<path d="M347.845 316.683L343.496 314.168" stroke="#54FF0F" stroke-miterlimit="10" stroke-linejoin="round"/>
<path d="M332.16 326.156V321.125" stroke="#54FF0F" stroke-miterlimit="10" stroke-linejoin="round"/>
<path d="M316.118 317.308L320.485 314.775" stroke="#54FF0F" stroke-miterlimit="10" stroke-linejoin="round"/>
<path d="M315.761 298.97L320.128 301.485" stroke="#54FF0F" stroke-miterlimit="10" stroke-linejoin="round"/>
</svg>
