<svg width="548" height="390" viewBox="0 0 548 390" fill="none" xmlns="http://www.w3.org/2000/svg">
<path d="M460.64 204.64C460.64 257.44 440.65 305.56 407.81 341.86C406.26 343.58 404.68 345.27 403.06 346.93H108.94C107.32 345.27 105.75 343.57 104.19 341.86C71.3499 305.56 51.3599 257.43 51.3599 204.64C51.3599 91.62 142.98 0 256 0C369.02 0 460.64 91.62 460.64 204.64Z" fill="#5DD62C"/>
<path d="M432.28 258.55H229.81C224.29 258.55 219.81 254.07 219.81 248.55V122.28C219.81 116.76 224.29 112.28 229.81 112.28H432.28C437.8 112.28 442.28 116.76 442.28 122.28V248.55C442.28 254.07 437.81 258.55 432.28 258.55Z" fill="black"/>
<path d="M433.06 120.27H229.03V250.56H433.06V120.27Z" fill="#F8F8F8"/>
<path d="M347.03 300.34H316.3L321.21 256.71H340.88L347.03 300.34Z" fill="black"/>
<path d="M233.02 346.43V300.34H429.07V346.43" stroke="black" stroke-width="13" stroke-miterlimit="10"/>
<path d="M290.79 190.18C290.81 181.82 293.41 173.64 298.25 166.83C302.92 160.25 309.64 155.12 317.23 152.36C325.17 149.48 333.94 149.15 342.07 151.46C349.89 153.68 356.91 158.31 362.1 164.56C367.35 170.88 370.56 178.84 371.18 187.03C371.81 195.42 369.84 203.87 365.47 211.06C361.27 217.98 354.99 223.52 347.63 226.88C340.01 230.35 331.27 231.31 323.07 229.65C315.04 228.02 307.63 223.93 301.96 218.01C296.27 212.07 292.52 204.45 291.26 196.33C290.94 194.29 290.8 192.24 290.79 190.18C290.79 188.89 288.79 188.89 288.79 190.18C288.81 198.92 291.52 207.56 296.62 214.68C301.58 221.61 308.54 226.94 316.54 229.88C324.83 232.93 334.1 233.25 342.6 230.84C350.78 228.52 358.21 223.66 363.62 217.1C369.15 210.39 372.5 202.1 373.18 193.43C373.86 184.69 371.75 175.8 367.2 168.3C362.82 161.09 356.26 155.22 348.57 151.73C340.45 148.05 331.28 147.02 322.54 148.8C314.19 150.49 306.44 154.81 300.55 160.96C294.6 167.17 290.6 175.18 289.31 183.69C288.98 185.84 288.81 188.01 288.81 190.19C288.79 191.47 290.79 191.47 290.79 190.18Z" fill="black"/>
<path d="M330.63 149.35V231.02" stroke="#4F4523" stroke-width="2" stroke-miterlimit="10"/>
<path d="M371.46 190.18H289.79" stroke="#4F4523" stroke-width="2" stroke-miterlimit="10"/>
<path d="M311.42 190.18C311.43 182.28 312.48 174.3 315.1 166.82C316.96 161.51 319.78 155.75 324.41 152.33C325.27 151.69 326.34 151.06 327.24 150.69C328.23 150.29 329.34 150.02 330.27 149.95C332.43 149.79 334.42 150.32 336.28 151.4C341.03 154.14 344.07 159.47 346.09 164.42C349.01 171.58 350.33 179.37 350.62 187.08C350.92 195.15 350.11 203.34 347.79 211.09C346.07 216.82 343.47 222.79 339 226.93C337.35 228.46 335.42 229.66 333.26 230.17C331.26 230.65 329.18 230.46 327.19 229.64C322.43 227.67 319.14 222.67 316.97 218.1C313.77 211.36 312.22 203.82 311.66 196.42C311.5 194.35 311.42 192.27 311.42 190.18C311.42 188.89 309.42 188.89 309.42 190.18C309.43 198.42 310.54 206.8 313.35 214.57C315.42 220.3 318.49 226.21 323.54 229.86C325.5 231.27 327.79 232.21 330.21 232.4C332.6 232.59 335 231.95 337.08 230.79C342.29 227.89 345.58 222.27 347.81 216.94C350.9 209.55 352.28 201.46 352.6 193.49C352.94 185.06 352.08 176.45 349.6 168.37C347.75 162.34 344.92 156.02 340.11 151.75C338.26 150.1 336.06 148.76 333.62 148.21C331.32 147.7 328.89 147.88 326.7 148.76C321.36 150.9 317.76 156.01 315.34 161.01C311.94 168.04 310.29 175.86 309.68 183.6C309.51 185.78 309.42 187.97 309.42 190.16C309.42 191.47 311.42 191.47 311.42 190.18Z" fill="black"/>
<path d="M371.3 190.18C371.28 198.55 368.68 206.72 363.83 213.55C359.17 220.11 352.47 225.23 344.91 227.99C336.96 230.89 328.18 231.22 320.03 228.92C312.15 226.69 305.09 222.01 299.89 215.69C294.68 209.37 291.5 201.43 290.9 193.27C290.29 184.96 292.24 176.58 296.54 169.43C300.72 162.5 306.98 156.92 314.33 153.54C322 150.02 330.81 149.04 339.08 150.73C347.08 152.36 354.44 156.44 360.09 162.33C365.79 168.27 369.55 175.89 370.82 184.02C371.16 186.05 371.29 188.12 371.3 190.18C371.3 191.47 373.3 191.47 373.3 190.18C373.28 181.46 370.58 172.83 365.5 165.73C360.53 158.78 353.56 153.43 345.54 150.48C337.22 147.42 327.93 147.11 319.41 149.55C311.2 151.9 303.76 156.8 298.36 163.41C292.91 170.08 289.6 178.3 288.92 186.89C288.24 195.6 290.31 204.46 294.82 211.94C299.2 219.2 305.78 225.12 313.51 228.63C321.63 232.31 330.79 233.35 339.52 231.58C347.9 229.89 355.67 225.55 361.58 219.38C367.49 213.2 371.48 205.24 372.78 196.78C373.12 194.59 373.29 192.39 373.3 190.18C373.3 188.9 371.3 188.89 371.3 190.18Z" fill="black"/>
<path d="M301.47 161.42C307.46 167.44 315.22 171.62 323.58 173.18C332.27 174.8 341.34 173.68 349.36 169.95C353.68 167.94 357.63 165.16 361.04 161.84C361.96 160.94 360.55 159.53 359.63 160.43C353.76 166.16 346.26 170 338.17 171.37C329.98 172.76 321.34 171.53 313.88 167.88C309.8 165.88 306.09 163.22 302.89 160C301.98 159.1 300.56 160.51 301.47 161.42Z" fill="black"/>
<path d="M359.63 218.52C353.89 224.29 346.51 228.23 338.5 229.75C330.31 231.3 321.62 230.24 314.07 226.7C309.93 224.76 306.15 222.13 302.88 218.94C302.88 219.41 302.88 219.88 302.88 220.35C308.62 214.58 316 210.64 324.01 209.12C332.2 207.57 340.89 208.63 348.44 212.17C352.58 214.11 356.36 216.74 359.63 219.93C360.55 220.83 361.97 219.42 361.04 218.52C354.92 212.54 347.04 208.46 338.59 207.04C329.89 205.58 320.88 206.84 312.95 210.7C308.69 212.77 304.8 215.58 301.47 218.93C301.09 219.31 301.08 219.97 301.47 220.34C307.59 226.32 315.47 230.4 323.92 231.82C332.62 233.28 341.63 232.02 349.56 228.16C353.82 226.09 357.71 223.28 361.04 219.93C361.95 219.02 360.54 217.61 359.63 218.52Z" fill="black"/>
<path d="M300.02 180.91H282.98C271.39 180.91 262 171.52 262 159.93C262 148.34 271.39 138.95 282.98 138.95H300.02C311.61 138.95 321 148.34 321 159.93C321 171.52 311.61 180.91 300.02 180.91Z" fill="#38EF08"/>
<path d="M280.69 153.99C288.37 153.99 296.06 153.99 303.74 153.99C305.67 153.99 305.67 150.99 303.74 150.99C296.06 150.99 288.37 150.99 280.69 150.99C278.76 150.99 278.76 153.99 280.69 153.99Z" fill="white"/>
<path d="M293.72 151.42C293.72 149.63 293.72 147.85 293.72 146.06C293.72 145.28 293.03 144.52 292.22 144.56C291.41 144.6 290.72 145.22 290.72 146.06C290.72 147.85 290.72 149.63 290.72 151.42C290.72 152.2 291.41 152.96 292.22 152.92C293.03 152.89 293.72 152.26 293.72 151.42Z" fill="white"/>
<path d="M282.36 172.76C288.77 170.57 294.09 165.6 296.75 159.37C297.52 157.57 298.08 155.72 298.37 153.78C298.49 152.98 298.17 152.17 297.32 151.93C296.61 151.74 295.6 152.17 295.47 152.98C294.57 158.94 291.1 164.35 286.08 167.63C284.64 168.57 283.13 169.32 281.56 169.86C280.79 170.12 280.29 170.89 280.51 171.71C280.72 172.46 281.59 173.03 282.36 172.76Z" fill="white"/>
<path d="M283.22 159.22C286.91 164.94 292.9 169.07 299.6 170.35C300.4 170.5 301.22 170.13 301.45 169.3C301.65 168.57 301.2 167.61 300.4 167.45C294.46 166.32 289.1 162.8 285.81 157.7C285.37 157.02 284.48 156.74 283.76 157.16C283.08 157.56 282.78 158.54 283.22 159.22Z" fill="white"/>
<path d="M380.02 228.91H362.98C351.39 228.91 342 219.52 342 207.93C342 196.34 351.39 186.95 362.98 186.95H380.02C391.61 186.95 401 196.34 401 207.93C401 219.52 391.61 228.91 380.02 228.91Z" fill="#38EF08"/>
<path d="M375.79 213.38H366.56L365.34 216.32C365.01 217.12 364.23 217.64 363.37 217.64C361.83 217.64 360.79 216.05 361.42 214.64L368.02 199.84C368.58 198.58 369.84 197.76 371.22 197.76C372.6 197.76 373.85 198.57 374.42 199.83L381.01 214.56C381.66 216 380.6 217.63 379.02 217.63C378.14 217.63 377.34 217.1 377 216.28L375.79 213.38ZM374.34 209.89L371.19 202.28L368.04 209.89H374.34Z" fill="white"/>
<path d="M407.8 34.33C403.77 27.64 397.69 23.23 390.82 19.7C366.06 6.97997 332.73 3.10998 307 15.39C298.32 19.53 290.63 26.13 286.28 34.71C281.93 43.29 281.25 53.91 285.54 62.51C288.63 68.71 294 73.51 299.88 77.17C311.12 84.18 324.43 87.46 337.66 88.01C350.26 88.54 363.29 87.63 375.42 83.91C375.34 90.32 375.27 96.72 375.19 103.13C381.16 97.07 383.78 88.57 386.2 80.41C386.29 80.11 386.38 79.8 386.46 79.49C397.72 73.73 409.94 63.3 410.76 50.72C411.15 44.92 410.5 38.81 407.8 34.33Z" fill="white"/>
<path d="M114.71 36.63C118.78 30.74 124.86 26.89 131.72 23.81C156.45 12.73 189.62 9.52999 215.1 20.56C223.69 24.28 231.28 30.17 235.53 37.78C239.78 45.39 240.36 54.78 236.02 62.36C232.9 67.82 227.51 72.02 221.64 75.22C210.4 81.34 197.15 84.15 183.98 84.55C171.45 84.94 158.5 84.05 146.47 80.67C146.49 86.33 146.51 92 146.53 97.66C140.65 92.26 138.12 84.73 135.78 77.51C135.69 77.24 135.61 76.97 135.53 76.7C124.38 71.53 112.33 62.24 111.63 51.11C111.29 45.97 111.99 40.57 114.71 36.63Z" fill="white"/>
<path d="M121.94 236.29C150.13 259.19 180.96 238.93 180.96 238.93C173.47 237.05 170.46 229.46 169.28 222.76C168.24 216.85 168.63 211.63 168.63 211.63L134.28 205.46C135.45 211.34 134.47 216.72 132.64 221.29C128.99 230.42 121.94 236.29 121.94 236.29Z" fill="#FFD6BB"/>
<path opacity="0.89" d="M132.64 221.28C144.32 225.47 157.31 226.02 169.28 222.75C168.24 216.84 168.63 211.62 168.63 211.62L134.28 205.45C135.45 211.33 134.47 216.71 132.64 221.28Z" fill="#FFD6BB"/>
<path d="M283.36 268.09C285.96 257.04 288.57 246 291.17 234.95C299.53 228.11 310.43 223.22 321.02 221.1C322.43 220.82 324.28 220.8 324.85 222.11C325.33 223.2 324.51 224.41 323.69 225.27C321.65 227.41 319.25 229.2 316.61 230.53C324.78 229.8 333.53 230.96 341.69 231.82C344.59 232.13 347.91 232.82 349.27 235.41C349.57 235.98 349.74 236.7 349.42 237.26C349.1 237.8 348.43 238.02 347.82 238.16C345.61 238.69 343.34 238.99 341.07 239.04C345.98 238.86 351.61 239.75 356.17 241.6C357.52 242.15 359.05 243.1 358.99 244.56C358.93 246.16 357.06 246.96 355.48 247.23C351.97 247.83 348.32 247.64 344.89 246.69C346.77 246.62 348.6 247.44 350.38 248.05C352.29 248.7 354.37 250.34 353.89 252.3C353.47 254.05 351.3 254.72 349.51 254.61C347.72 254.5 345.88 253.95 344.17 254.49C345.66 254.08 346.36 255.11 347.44 256.21C348.53 257.31 348.79 259.21 347.86 260.44C346.87 261.77 345 261.99 343.34 262.08C333.53 262.61 323.65 262.31 313.93 263.74C314.06 271.35 313.58 279.25 311.78 286.64C302.81 282.92 291.29 273.72 283.36 268.09Z" fill="#FFD6BB"/>
<path d="M158.06 118.25C129.87 118.25 121.95 137.63 121.95 173.74C121.95 209.85 146.61 218.66 158.06 218.66C169.51 218.66 191.87 201.89 193.29 175.5C195.05 142.92 188.01 118.25 158.06 118.25Z" fill="#FFD6BB"/>
<path d="M171.05 229.2C171.05 229.2 154.14 237.77 129.23 227.78C129.23 227.78 83.65 237.11 78.78 246.86C72.62 259.19 55 346.39 55 346.39H297.23L321.89 285.61L276.09 261.83L254.95 325.25C254.95 325.25 233.81 246.85 218.84 239.81C203.86 232.76 171.05 229.2 171.05 229.2Z" fill="white"/>
<path d="M186 346.39H119.59L120.01 341.13L121.05 327.9L121.6 320.88L121.62 320.57L122.65 307.63L123.2 300.65L124.24 287.38L124.73 281.4L124.8 280.39L125.84 267.12L126.39 260.14L127.23 249.51L127.78 242.51L128.97 227.48C128.97 227.48 155.38 236.3 171.24 229.26L172.94 242.79L173.78 249.52L175.15 260.39L175.99 267.14L176.41 270.48L177.69 280.67L178.53 287.4L180.23 300.95L181.07 307.66L182.22 316.77L182.77 321.19L183.61 327.94L185.31 341.47L186 346.39Z" fill="#B9FAA7"/>
<path d="M192.71 317.08C193.05 319.82 193.4 322.56 193.74 325.3C193.82 325.93 194.82 325.94 194.74 325.3C194.4 322.56 194.05 319.82 193.71 317.08C193.63 316.45 192.63 316.45 192.71 317.08Z" fill="black"/>
<path d="M217.96 278.25C217.13 281.81 216.49 285.4 216.03 289.02C215.95 289.66 216.95 289.65 217.03 289.02C217.48 285.49 218.12 281.98 218.93 278.51C219.07 277.89 218.11 277.62 217.96 278.25Z" fill="black"/>
<path d="M213.18 278.55C215.28 287.22 217.11 295.96 218.74 304.73C220.42 313.78 221.9 322.86 223.15 331.98C223.83 336.92 224.43 341.87 224.95 346.83C225.02 347.46 226.02 347.47 225.95 346.83C225.02 337.91 223.81 329.02 222.41 320.16C220.96 311 219.3 301.87 217.4 292.79C216.39 287.94 215.31 283.1 214.14 278.28C213.99 277.66 213.03 277.93 213.18 278.55Z" fill="black"/>
<path d="M255.52 323.4C253.94 328.19 253.42 333.29 254.01 338.3C254.08 338.93 255.09 338.94 255.01 338.3C254.43 333.37 254.92 328.38 256.48 323.66C256.69 323.05 255.72 322.79 255.52 323.4Z" fill="black"/>
<path d="M254.77 324.27C250.96 326.64 248.27 330.63 247.55 335.06C247.45 335.69 248.41 335.96 248.51 335.33C249.19 331.15 251.67 327.38 255.27 325.14C255.82 324.79 255.32 323.93 254.77 324.27Z" fill="black"/>
<path d="M310.79 291.14C301.55 287.14 292.49 282.72 283.66 277.87C281.16 276.5 278.67 275.09 276.21 273.65C275.65 273.32 275.15 274.19 275.71 274.51C284.41 279.59 293.34 284.26 302.47 288.5C305.06 289.7 307.67 290.87 310.29 292C310.87 292.26 311.38 291.4 310.79 291.14Z" fill="black"/>
<path d="M326.83 244.7C323.1 243.57 319.16 243.17 315.28 243.55C311.84 243.89 308.21 244.73 305.25 246.58C303.73 247.53 302.41 248.8 301.58 250.4C301.28 250.97 302.15 251.48 302.44 250.9C304.35 247.21 308.76 245.71 312.58 244.95C317.21 244.02 322.04 244.28 326.56 245.66C327.19 245.85 327.45 244.89 326.83 244.7Z" fill="black"/>
<path d="M319.22 238.88C316.8 240.36 314.5 242.02 312.32 243.83C311.82 244.24 312.54 244.95 313.03 244.54C315.14 242.78 317.38 241.18 319.72 239.75C320.27 239.41 319.77 238.55 319.22 238.88Z" fill="black"/>
<path d="M351.45 240C345.33 238.14 338.89 237.42 332.51 237.88C331.87 237.93 331.87 238.93 332.51 238.88C338.81 238.43 345.14 239.13 351.18 240.96C351.81 241.15 352.07 240.19 351.45 240Z" fill="black"/>
<path d="M350.8 248.12C345.21 247.01 339.57 246.21 333.89 245.73C333.25 245.68 333.25 246.68 333.89 246.73C339.48 247.2 345.04 247.99 350.54 249.09C351.16 249.21 351.43 248.24 350.8 248.12Z" fill="black"/>
<path d="M346.02 255.6C341.34 254.68 336.67 253.76 331.99 252.84C331.36 252.72 331.09 253.68 331.72 253.8C336.4 254.72 341.07 255.64 345.75 256.56C346.38 256.68 346.65 255.72 346.02 255.6Z" fill="black"/>
<path d="M149.58 169.14C150.845 169.14 151.87 167.295 151.87 165.02C151.87 162.745 150.845 160.9 149.58 160.9C148.315 160.9 147.29 162.745 147.29 165.02C147.29 167.295 148.315 169.14 149.58 169.14Z" fill="black"/>
<path d="M171.58 169.14C172.845 169.14 173.87 167.295 173.87 165.02C173.87 162.745 172.845 160.9 171.58 160.9C170.315 160.9 169.29 162.745 169.29 165.02C169.29 167.295 170.315 169.14 171.58 169.14Z" fill="black"/>
<path d="M155.68 152.2C153.88 148.41 149.86 145.69 145.67 145.72C141.47 145.75 137.38 148.71 136.31 152.77C138.92 151.1 142.51 149.4 145.6 149.17C148.7 148.95 153.11 150.46 155.68 152.2Z" fill="black"/>
<path d="M163.81 152.2C165.61 148.41 169.63 145.69 173.82 145.72C178.02 145.75 182.11 148.71 183.18 152.77C180.57 151.1 176.98 149.4 173.89 149.17C170.79 148.95 166.37 150.46 163.81 152.2Z" fill="black"/>
<path d="M162.22 156.2C162.57 164.12 163.95 171.98 166.32 179.55C166.44 179.34 166.55 179.14 166.67 178.93C165.09 179.55 163.44 179.86 161.74 179.85C161.1 179.85 161.1 180.85 161.74 180.85C163.52 180.86 165.28 180.54 166.94 179.89C167.18 179.79 167.38 179.55 167.29 179.27C164.94 171.78 163.57 164.02 163.23 156.18C163.2 155.56 162.2 155.56 162.22 156.2Z" fill="black"/>
<path d="M172.05 185.62C171.24 188.39 169.83 191.17 167.96 193.5C165.49 196.62 162.19 198.91 158.36 199.24C154.22 199.62 149.96 197.99 147.01 195.08C145.69 193.8 144.54 191.76 143.67 189.54C142.59 186.79 141.93 183.73 141.87 181.42C150.72 187.01 162.01 188.59 172.05 185.62Z" fill="black"/>
<path d="M167.97 193.5C165.5 196.62 162.2 198.91 158.37 199.24C154.23 199.62 149.97 197.99 147.02 195.08C145.7 193.8 144.55 191.76 143.68 189.54C151.89 187.89 160.69 189.36 167.97 193.5Z" fill="#FF7F81"/>
<path d="M187.39 146.9C186.43 145.22 185.33 143.57 184.02 141.95C182.52 140.08 180.85 138.31 179.73 136.21C178.57 139.24 177.28 142.23 175.87 145.17C174.68 143.1 173.48 141.04 172.29 138.97C171.58 137.74 170.14 133.75 168.81 133.2C166.4 132.19 166.41 143.04 167.3 143.36C162.95 141.78 159.6 137.99 158.78 133.69C157.81 137.89 157.9 142.31 159.04 146.48C156.26 145.06 154.39 142.4 153.41 139.58C152.43 136.76 152.23 133.77 152.06 130.81C147.99 134.47 143.84 139.04 143.05 144.26C143.16 143.52 140.59 140.08 140.26 139.03C139.64 137.02 139.5 134.98 139.61 132.9C139.59 133.34 137.43 135.56 137.09 136.16C136.24 137.66 135.5 139.25 134.8 140.82C133.22 144.36 131.97 148.04 131.05 151.8C129.22 159.33 128.75 167.19 129.73 174.87C127.16 173.22 126.87 172.41 125.51 169.81C124.38 167.66 122.89 165.7 121.45 163.75C119.72 161.37 117.5 159.49 115.24 157.61C115.24 157.61 115.51 157.87 115.58 157.93C115.83 158.15 109.94 112.33 153.14 112.33C163.97 112.33 175.56 114.34 184.04 121.36C190.27 126.52 193.86 133.85 195.2 141.61C195.85 145.41 196 149.28 195.77 153.12C195.63 155.52 195.75 162.54 193.63 163.96C191.97 157.83 190.42 152.2 187.39 146.9Z" fill="black"/>
<path d="M124.02 185.65C120.96 187.88 116.96 188.69 113.21 188.16C109.46 187.63 105.94 185.82 103.08 183.33C101.52 181.97 100.11 180.37 99.3199 178.46C98.4699 176.41 98.3799 174.13 98.4999 171.92C98.6899 168.27 99.3999 164.66 100.6 161.21C101.22 159.44 101.99 157.68 103.24 156.29C107.46 151.57 117.28 152.03 120.42 157.72C125.3 166.53 125.88 175.91 124.02 185.65Z" fill="#FFD6BB"/>
<path d="M107.66 164.54C108.25 162.66 109.16 159.89 111.55 159.77C113.58 159.67 115.34 161.55 116.31 163.14C117.28 164.75 117.83 166.58 118.27 168.4C118.83 170.74 119.27 173.11 119.74 175.47C120.02 175.31 120.3 175.15 120.58 174.98C119.15 173.67 117.38 171.92 115.38 171.6C113.68 171.33 112.34 172.46 111.92 174.06C111 177.53 113.63 181.21 116.65 182.65C117.23 182.93 117.74 182.06 117.15 181.79C114.64 180.59 112.37 177.73 112.78 174.8C112.98 173.38 113.97 172.26 115.5 172.65C117.16 173.07 118.64 174.56 119.86 175.69C120.24 176.04 120.79 175.69 120.7 175.2C120.27 173.05 119.86 170.9 119.38 168.76C119 167.08 118.54 165.4 117.81 163.83C116.54 161.08 113.32 157.45 109.96 159.19C108.04 160.18 107.3 162.33 106.7 164.25C106.5 164.89 107.46 165.16 107.66 164.54Z" fill="black"/>
<path d="M123.87 167.57C125.04 171.82 126.47 176.51 130.53 178.87C131.09 179.19 131.59 178.33 131.03 178.01C127.21 175.79 125.93 171.29 124.83 167.3C124.66 166.69 123.7 166.95 123.87 167.57Z" fill="black"/>
<path d="M124.44 170.96C124.01 174.66 125.44 178.46 128.17 180.99C128.64 181.43 129.35 180.72 128.88 180.28C126.32 177.91 125.04 174.42 125.44 170.96C125.52 170.32 124.52 170.32 124.44 170.96Z" fill="black"/>
<path d="M159.81 114.47C159.35 111.8 160.74 108.91 162.26 106.78C162.94 105.83 163.84 104.95 165 104.65C166.04 104.38 167.17 104.57 167.89 105.4C168.31 105.89 169.02 105.18 168.6 104.69C167.76 103.72 166.44 103.4 165.2 103.59C163.79 103.8 162.62 104.69 161.75 105.79C160.79 107 160.06 108.41 159.49 109.84C158.86 111.41 158.55 113.06 158.84 114.74C158.95 115.37 159.92 115.1 159.81 114.47Z" fill="black"/>
<path d="M160.16 112.75C163.83 111.11 168 110.8 171.88 111.83C172.5 112 172.77 111.03 172.15 110.87C167.99 109.77 163.59 110.14 159.66 111.89C159.07 112.15 159.57 113.01 160.16 112.75Z" fill="black"/>
<path d="M184.72 124.42C190.74 132.18 195.21 141.14 197.81 150.61C198.55 153.29 199.13 156.01 199.57 158.76C199.67 159.39 200.63 159.12 200.53 158.49C198.97 148.66 195.45 139.15 190.25 130.66C188.77 128.25 187.16 125.94 185.43 123.7C185.03 123.21 184.33 123.92 184.72 124.42Z" fill="black"/>
<path d="M125.27 227.23C122.41 234.37 118.74 241.18 114.34 247.5C113.22 249.11 112.06 250.68 110.85 252.22C109.92 253.4 108.32 254.78 109.43 256.35C109.99 257.14 110.74 257.82 111.39 258.53C112.11 259.31 112.84 260.1 113.56 260.88C115.01 262.45 116.46 264.02 117.91 265.59C118.63 266.37 119.36 267.16 120.08 267.94C120.36 268.24 120.68 268.57 120.81 268.97C120.98 269.5 120.73 270.01 120.5 270.48C119.69 272.18 118.78 273.83 117.8 275.44C115.82 278.68 113.52 281.72 110.93 284.49C110.32 285.15 109.69 285.78 109.05 286.41C108.48 286.97 107.88 287.57 107.52 288.29C106.66 289.99 107.42 291.92 107.85 293.64C108.87 297.67 109.79 301.73 110.62 305.81C112.29 314.04 113.58 322.35 114.47 330.7C114.58 331.74 114.69 332.79 114.79 333.83C114.85 334.47 115.85 334.47 115.79 333.83C115 325.58 113.84 317.37 112.31 309.23C111.54 305.14 110.67 301.07 109.71 297.02C109.23 295.01 108.63 293.02 108.23 290.99C108.04 290.02 108.11 289.13 108.68 288.31C109.18 287.58 109.9 286.99 110.52 286.37C113.12 283.74 115.46 280.85 117.51 277.77C118.55 276.2 119.51 274.58 120.39 272.92C121.1 271.57 122.42 269.77 121.57 268.24C121.13 267.45 120.39 266.8 119.78 266.15C119.06 265.37 118.33 264.58 117.61 263.8C116.19 262.26 114.77 260.72 113.35 259.18C112.63 258.4 111.9 257.61 111.18 256.83C110.87 256.49 110.52 256.17 110.26 255.8C109.88 255.26 110.07 254.82 110.44 254.34C111.57 252.86 112.75 251.42 113.85 249.92C118.34 243.76 122.15 237.1 125.16 230.1C125.53 229.24 125.88 228.38 126.23 227.52C126.48 226.9 125.51 226.64 125.27 227.23Z" fill="black"/>
<path d="M177.88 230.64C180.64 236.65 183.34 242.69 185.97 248.76C187.29 251.81 188.6 254.87 189.89 257.93C190.19 258.65 190.49 259.37 190.8 260.09C191.12 260.86 191.52 261.63 191.75 262.43C192.01 263.33 191.34 263.8 190.77 264.38C190.13 265.03 189.5 265.68 188.86 266.33C186.26 268.99 183.65 271.64 181.05 274.3C180.81 274.54 180.88 274.91 181.15 275.09C184.05 277.01 186.98 278.91 189.86 280.86C190.41 281.23 191.03 281.67 191.2 282.36C191.41 283.22 190.91 284.13 190.55 284.88C189.91 286.25 189.37 287.66 188.94 289.12C187.14 295.2 187.12 301.64 186.97 307.92C186.88 311.85 186.78 315.78 186.69 319.7C186.67 320.34 187.67 320.34 187.69 319.7C187.78 316.1 187.86 312.5 187.95 308.9C188.03 305.55 188.07 302.19 188.32 298.84C188.56 295.57 189.02 292.31 189.97 289.17C190.45 287.58 191.14 286.1 191.79 284.57C192.36 283.23 192.47 281.84 191.36 280.76C190.73 280.14 189.92 279.69 189.19 279.21C188.38 278.67 187.56 278.13 186.75 277.59C185.05 276.47 183.36 275.34 181.66 274.22C181.69 274.48 181.73 274.74 181.76 275.01C184.19 272.53 186.62 270.05 189.05 267.57C189.66 266.95 190.26 266.33 190.87 265.71C191.4 265.17 192.03 264.64 192.46 264.02C193.38 262.72 192.28 261.07 191.76 259.82C189.1 253.45 186.37 247.11 183.56 240.8C181.98 237.23 180.37 233.68 178.74 230.13C178.47 229.55 177.61 230.06 177.88 230.64Z" fill="black"/>
<path d="M128.24 235.15C139.22 237.82 150.61 238.76 161.87 237.9C165.05 237.66 168.21 237.27 171.35 236.75C171.98 236.65 171.71 235.68 171.08 235.79C160.07 237.61 148.77 237.7 137.74 236.02C134.63 235.55 131.55 234.94 128.5 234.19C127.88 234.03 127.61 235 128.24 235.15Z" fill="black"/>
<path d="M134.84 230.84C134.36 232.41 133.88 233.98 133.41 235.55C133.22 236.17 134.19 236.43 134.37 235.82C134.85 234.25 135.33 232.68 135.8 231.11C135.99 230.49 135.02 230.23 134.84 230.84Z" fill="black"/>
<path d="M139.57 230.03C139.08 231.37 138.66 232.74 138.32 234.12C138.09 235.07 137.47 236.71 138.57 237.36C139.13 237.69 139.63 236.82 139.07 236.5C138.81 236.35 138.96 235.81 139.01 235.58C139.14 234.98 139.28 234.37 139.44 233.78C139.75 232.6 140.12 231.45 140.54 230.31C140.76 229.69 139.79 229.43 139.57 230.03Z" fill="black"/>
<path d="M148.22 231.14C147.54 232.64 146.86 234.15 146.18 235.65C146.07 235.9 146.11 236.19 146.36 236.33C146.57 236.46 146.93 236.4 147.04 236.15C147.72 234.65 148.4 233.14 149.09 231.64C149.2 231.39 149.16 231.1 148.91 230.96C148.69 230.83 148.33 230.89 148.22 231.14Z" fill="black"/>
<path d="M152.33 232.38C151.67 233.75 151.29 235.21 151.19 236.72C151.17 236.99 151.43 237.22 151.69 237.22C151.97 237.22 152.17 236.99 152.19 236.72C152.27 235.39 152.61 234.08 153.19 232.88C153.31 232.64 153.26 232.34 153.01 232.2C152.8 232.07 152.45 232.13 152.33 232.38Z" fill="black"/>
<path d="M158.27 232.71C158 234.1 157.85 235.51 157.84 236.93C157.83 237.57 158.83 237.57 158.84 236.93C158.86 235.6 158.99 234.28 159.24 232.98C159.29 232.72 159.17 232.44 158.89 232.36C158.64 232.29 158.33 232.44 158.27 232.71Z" fill="black"/>
<path d="M164.62 231.6C164.73 233.24 164.68 234.89 164.47 236.52L164.62 231.6Z" fill="#FFD6BB"/>
<path d="M164.12 231.6C164.23 233.24 164.18 234.89 163.97 236.52C163.94 236.79 164.22 237.02 164.47 237.02C164.77 237.02 164.93 236.79 164.97 236.52C165.18 234.89 165.23 233.24 165.12 231.6C165.1 231.33 164.9 231.1 164.62 231.1C164.36 231.1 164.1 231.33 164.12 231.6Z" fill="black"/>
<path d="M168.23 230.98C168.13 232.67 168.28 234.38 168.66 236.03C168.8 236.66 169.77 236.39 169.62 235.76C169.26 234.19 169.14 232.58 169.23 230.98C169.27 230.34 168.27 230.34 168.23 230.98Z" fill="black"/>
<path d="M135.74 323.42C140.66 316.59 145.73 309.87 150.96 303.28C156.17 296.72 161.53 290.27 167.04 283.96C170.14 280.4 173.29 276.89 176.49 273.41C176.92 272.94 176.22 272.23 175.78 272.7C170.08 278.9 164.53 285.22 159.12 291.68C153.72 298.14 148.46 304.72 143.37 311.43C140.49 315.22 137.66 319.05 134.88 322.91C134.5 323.44 135.36 323.94 135.74 323.42Z" fill="black"/>
<path d="M153.78 308.38C159.58 303.73 165.21 298.88 170.67 293.84C171.14 293.4 170.44 292.7 169.96 293.13C164.5 298.17 158.87 303.02 153.07 307.67C152.57 308.08 153.28 308.78 153.78 308.38Z" fill="black"/>
<path d="M88.2201 289.73C86.9801 304.48 86.3401 319.28 86.3101 334.09C86.3001 338.23 86.3401 342.36 86.4201 346.49C86.4301 347.13 87.4301 347.13 87.4201 346.49C87.1201 331.69 87.4101 316.88 88.3201 302.1C88.5701 297.97 88.8701 293.85 89.2201 289.73C89.2801 289.09 88.2801 289.1 88.2201 289.73Z" fill="black"/>
<path d="M302.97 234.53C311.61 231.37 320.93 231.04 330.03 231.41C332.86 231.53 335.68 231.71 338.5 231.93C339.14 231.98 339.14 230.98 338.5 230.93C329.02 230.2 319.32 229.69 309.93 231.55C307.47 232.04 305.05 232.7 302.7 233.56C302.1 233.78 302.36 234.75 302.97 234.53Z" fill="black"/>
<path d="M305.52 231.66C307.03 231.63 308.51 231.84 309.95 232.28C310.57 232.47 310.83 231.5 310.22 231.32C308.7 230.86 307.11 230.64 305.52 230.67C304.87 230.68 304.87 231.68 305.52 231.66Z" fill="black"/>
<path d="M82.9 287.08C83.75 289.69 85.1401 292.09 86.9801 294.12C87.4101 294.6 88.12 293.89 87.6901 293.41C85.9601 291.51 84.66 289.25 83.86 286.81C83.66 286.2 82.7 286.46 82.9 287.08Z" fill="black"/>
<path d="M86.0101 282.49C86.2501 285.95 86.8201 289.38 87.7101 292.73C87.8701 293.35 88.8401 293.09 88.6701 292.46C87.8001 289.19 87.2501 285.86 87.0101 282.49C86.9601 281.85 85.9601 281.84 86.0101 282.49Z" fill="black"/>
<path d="M300.7 42.89C301.42 42.9833 302.227 43.05 303.12 43.09C304.027 43.13 304.98 43.15 305.98 43.15C306.62 43.15 307.26 43.1367 307.9 43.11C308.553 43.0833 309.173 43.05 309.76 43.01C310.36 42.9567 310.9 42.91 311.38 42.87V44.51C310.927 44.5367 310.4 44.57 309.8 44.61C309.2 44.65 308.567 44.6833 307.9 44.71C307.247 44.7367 306.607 44.75 305.98 44.75C304.98 44.75 304.047 44.73 303.18 44.69C302.313 44.6367 301.487 44.5833 300.7 44.53V42.89ZM301.5 50.95C301.367 51.35 301.26 51.7367 301.18 52.11C301.113 52.4833 301.08 52.8567 301.08 53.23C301.08 53.99 301.473 54.61 302.26 55.09C303.047 55.57 304.24 55.81 305.84 55.81C306.76 55.81 307.647 55.7767 308.5 55.71C309.353 55.6433 310.133 55.55 310.84 55.43C311.56 55.31 312.173 55.17 312.68 55.01L312.7 56.73C312.22 56.8633 311.627 56.9833 310.92 57.09C310.227 57.1967 309.453 57.2767 308.6 57.33C307.747 57.3967 306.84 57.43 305.88 57.43C304.533 57.43 303.38 57.2833 302.42 56.99C301.46 56.6967 300.727 56.2633 300.22 55.69C299.713 55.1167 299.46 54.41 299.46 53.57C299.46 53.05 299.507 52.5567 299.6 52.09C299.693 51.6233 299.787 51.19 299.88 50.79L301.5 50.95ZM326.94 42.09C326.86 42.1967 326.76 42.3433 326.64 42.53C326.533 42.7033 326.42 42.8833 326.3 43.07C326.073 43.4033 325.8 43.85 325.48 44.41C325.173 44.9567 324.84 45.55 324.48 46.19C324.12 46.8167 323.767 47.4367 323.42 48.05C323.087 48.6633 322.793 49.2167 322.54 49.71C323.02 49.27 323.513 48.9567 324.02 48.77C324.54 48.57 325.04 48.47 325.52 48.47C326.187 48.47 326.733 48.6767 327.16 49.09C327.6 49.5033 327.833 50.1033 327.86 50.89C327.873 51.29 327.88 51.7167 327.88 52.17C327.893 52.61 327.9 53.0433 327.9 53.47C327.9 53.8833 327.913 54.2567 327.94 54.59C327.98 55.0967 328.153 55.4633 328.46 55.69C328.767 55.9033 329.133 56.01 329.56 56.01C330.107 56.01 330.6 55.8633 331.04 55.57C331.493 55.2633 331.887 54.8633 332.22 54.37C332.567 53.8767 332.853 53.3433 333.08 52.77C333.307 52.1967 333.487 51.65 333.62 51.13L334.94 52.21C334.593 53.2767 334.167 54.2233 333.66 55.05C333.153 55.8633 332.54 56.5033 331.82 56.97C331.113 57.4367 330.273 57.67 329.3 57.67C328.593 57.67 328.027 57.5367 327.6 57.27C327.187 57.0167 326.887 56.6967 326.7 56.31C326.527 55.9233 326.427 55.53 326.4 55.13C326.387 54.7433 326.373 54.3233 326.36 53.87C326.36 53.4167 326.36 52.97 326.36 52.53C326.36 52.09 326.347 51.69 326.32 51.33C326.293 50.89 326.153 50.55 325.9 50.31C325.66 50.0567 325.313 49.93 324.86 49.93C324.327 49.93 323.807 50.09 323.3 50.41C322.807 50.7167 322.353 51.1167 321.94 51.61C321.54 52.1033 321.213 52.6167 320.96 53.15C320.813 53.4433 320.647 53.7967 320.46 54.21C320.287 54.6233 320.12 55.05 319.96 55.49C319.8 55.93 319.653 56.3433 319.52 56.73C319.4 57.1167 319.307 57.4367 319.24 57.69L317.52 57.09C317.76 56.41 318.073 55.6367 318.46 54.77C318.847 53.9033 319.267 52.9967 319.72 52.05C320.173 51.09 320.64 50.1433 321.12 49.21C321.6 48.2633 322.053 47.3767 322.48 46.55C322.92 45.71 323.313 44.9767 323.66 44.35C324.007 43.71 324.267 43.23 324.44 42.91C324.56 42.67 324.68 42.43 324.8 42.19C324.933 41.9367 325.06 41.6633 325.18 41.37L326.94 42.09ZM345.12 43.43C345.667 43.51 346.3 43.5767 347.02 43.63C347.753 43.67 348.507 43.69 349.28 43.69C350.067 43.6767 350.813 43.65 351.52 43.61C352.24 43.5567 352.847 43.49 353.34 43.41V45.03C352.807 45.0833 352.18 45.13 351.46 45.17C350.753 45.1967 350.013 45.21 349.24 45.21C348.48 45.21 347.74 45.1967 347.02 45.17C346.3 45.13 345.667 45.0833 345.12 45.03V43.43ZM345.9 51.57C345.807 51.93 345.733 52.2567 345.68 52.55C345.627 52.8433 345.6 53.13 345.6 53.41C345.6 53.6367 345.647 53.8633 345.74 54.09C345.847 54.3033 346.02 54.4967 346.26 54.67C346.513 54.83 346.86 54.9633 347.3 55.07C347.74 55.1633 348.3 55.21 348.98 55.21C349.887 55.21 350.74 55.17 351.54 55.09C352.34 54.9967 353.14 54.8633 353.94 54.69L353.98 56.37C353.353 56.5033 352.62 56.61 351.78 56.69C350.953 56.7567 350.02 56.79 348.98 56.79C347.3 56.79 346.067 56.5233 345.28 55.99C344.507 55.4567 344.12 54.7233 344.12 53.79C344.12 53.4567 344.147 53.1033 344.2 52.73C344.267 52.3433 344.353 51.91 344.46 51.43L345.9 51.57ZM341.3 41.89C341.273 41.9967 341.233 42.1367 341.18 42.31C341.14 42.47 341.093 42.6367 341.04 42.81C341 42.97 340.967 43.11 340.94 43.23C340.873 43.6033 340.793 44.0367 340.7 44.53C340.607 45.01 340.513 45.53 340.42 46.09C340.34 46.6367 340.26 47.1967 340.18 47.77C340.113 48.33 340.053 48.8767 340 49.41C339.96 49.9433 339.94 50.4367 339.94 50.89C339.94 51.3833 339.953 51.85 339.98 52.29C340.02 52.73 340.067 53.1967 340.12 53.69C340.24 53.3833 340.367 53.0567 340.5 52.71C340.633 52.3633 340.767 52.0233 340.9 51.69C341.047 51.3433 341.173 51.0367 341.28 50.77L342.12 51.41C341.947 51.89 341.76 52.4167 341.56 52.99C341.36 53.5633 341.18 54.1167 341.02 54.65C340.873 55.17 340.767 55.5833 340.7 55.89C340.673 56.0367 340.647 56.1967 340.62 56.37C340.593 56.5433 340.587 56.6833 340.6 56.79C340.613 56.8967 340.62 57.01 340.62 57.13C340.633 57.2633 340.647 57.3833 340.66 57.49L339.22 57.59C339.02 56.8833 338.847 55.9767 338.7 54.87C338.553 53.75 338.48 52.5167 338.48 51.17C338.48 50.4367 338.513 49.69 338.58 48.93C338.647 48.1567 338.733 47.41 338.84 46.69C338.947 45.9567 339.047 45.29 339.14 44.69C339.247 44.0767 339.327 43.5633 339.38 43.15C339.42 42.91 339.453 42.67 339.48 42.43C339.507 42.1767 339.52 41.9433 339.52 41.73L341.3 41.89ZM364.46 41.27C364.38 41.5367 364.313 41.8167 364.26 42.11C364.207 42.4033 364.153 42.6833 364.1 42.95C364.033 43.27 363.953 43.67 363.86 44.15C363.78 44.6167 363.673 45.13 363.54 45.69C363.42 46.2367 363.293 46.79 363.16 47.35C363.027 47.91 362.887 48.4433 362.74 48.95C362.607 49.4433 362.467 49.8767 362.32 50.25C363.2 49.6367 364.093 49.2033 365 48.95C365.92 48.6833 366.907 48.55 367.96 48.55C369.027 48.55 369.933 48.7167 370.68 49.05C371.427 49.3833 372 49.85 372.4 50.45C372.8 51.0367 373 51.7233 373 52.51C373 53.55 372.747 54.43 372.24 55.15C371.733 55.87 371.02 56.4367 370.1 56.85C369.18 57.2633 368.087 57.5233 366.82 57.63C365.567 57.75 364.173 57.73 362.64 57.57L362.24 55.99C363.4 56.15 364.52 56.2167 365.6 56.19C366.693 56.15 367.667 56.0033 368.52 55.75C369.387 55.4833 370.073 55.09 370.58 54.57C371.1 54.05 371.36 53.3767 371.36 52.55C371.36 51.8033 371.053 51.1767 370.44 50.67C369.84 50.15 368.953 49.89 367.78 49.89C366.593 49.89 365.48 50.0967 364.44 50.51C363.4 50.91 362.547 51.51 361.88 52.31C361.76 52.4567 361.647 52.6033 361.54 52.75C361.447 52.8833 361.353 53.0433 361.26 53.23L359.76 52.69C360.147 51.9433 360.5 51.11 360.82 50.19C361.14 49.2567 361.42 48.3167 361.66 47.37C361.9 46.4233 362.1 45.5567 362.26 44.77C362.42 43.97 362.533 43.3233 362.6 42.83C362.64 42.51 362.667 42.2233 362.68 41.97C362.693 41.7167 362.693 41.45 362.68 41.17L364.46 41.27ZM358.24 43.81C358.773 43.9033 359.387 43.9833 360.08 44.05C360.787 44.1167 361.44 44.15 362.04 44.15C362.68 44.15 363.393 44.13 364.18 44.09C364.967 44.05 365.787 43.99 366.64 43.91C367.493 43.83 368.347 43.73 369.2 43.61C370.067 43.4767 370.893 43.3233 371.68 43.15L371.7 44.69C370.993 44.81 370.22 44.9233 369.38 45.03C368.553 45.1367 367.707 45.23 366.84 45.31C365.973 45.39 365.127 45.4567 364.3 45.51C363.487 45.55 362.74 45.57 362.06 45.57C361.38 45.57 360.72 45.55 360.08 45.51C359.453 45.47 358.847 45.4233 358.26 45.37L358.24 43.81ZM383.98 45.11C384.553 45.1633 385.113 45.2033 385.66 45.23C386.207 45.2567 386.78 45.27 387.38 45.27C388.58 45.27 389.773 45.2233 390.96 45.13C392.147 45.0367 393.247 44.89 394.26 44.69V46.23C393.193 46.4033 392.067 46.53 390.88 46.61C389.707 46.69 388.527 46.7367 387.34 46.75C386.767 46.75 386.207 46.7367 385.66 46.71C385.127 46.6833 384.567 46.65 383.98 46.61V45.11ZM390.98 41.53C390.953 41.73 390.927 41.93 390.9 42.13C390.887 42.33 390.873 42.53 390.86 42.73C390.847 42.97 390.833 43.2767 390.82 43.65C390.807 44.0233 390.8 44.4233 390.8 44.85C390.8 45.2633 390.8 45.67 390.8 46.07C390.8 46.83 390.813 47.59 390.84 48.35C390.867 49.11 390.9 49.85 390.94 50.57C390.98 51.29 391.013 51.97 391.04 52.61C391.08 53.2367 391.1 53.81 391.1 54.33C391.1 54.73 391.04 55.1233 390.92 55.51C390.813 55.8967 390.627 56.2433 390.36 56.55C390.107 56.8567 389.753 57.0967 389.3 57.27C388.86 57.4567 388.307 57.55 387.64 57.55C386.293 57.55 385.26 57.2967 384.54 56.79C383.833 56.2833 383.48 55.5833 383.48 54.69C383.48 54.13 383.64 53.6233 383.96 53.17C384.293 52.7033 384.76 52.3367 385.36 52.07C385.973 51.8033 386.72 51.67 387.6 51.67C388.453 51.67 389.233 51.77 389.94 51.97C390.66 52.1567 391.32 52.41 391.92 52.73C392.533 53.0367 393.093 53.3833 393.6 53.77C394.107 54.1433 394.573 54.5167 395 54.89L394.12 56.23C393.427 55.5633 392.727 54.9833 392.02 54.49C391.327 53.9967 390.607 53.61 389.86 53.33C389.113 53.05 388.32 52.91 387.48 52.91C386.72 52.91 386.1 53.0633 385.62 53.37C385.153 53.6633 384.92 54.05 384.92 54.53C384.92 55.0367 385.147 55.43 385.6 55.71C386.053 55.9767 386.64 56.11 387.36 56.11C387.933 56.11 388.373 56.0167 388.68 55.83C389 55.6433 389.22 55.39 389.34 55.07C389.473 54.75 389.54 54.37 389.54 53.93C389.54 53.57 389.527 53.0833 389.5 52.47C389.473 51.8567 389.44 51.19 389.4 50.47C389.36 49.7367 389.327 48.99 389.3 48.23C389.273 47.47 389.26 46.7567 389.26 46.09C389.26 45.41 389.26 44.77 389.26 44.17C389.26 43.57 389.26 43.0967 389.26 42.75C389.26 42.5767 389.253 42.3767 389.24 42.15C389.227 41.91 389.207 41.7033 389.18 41.53H390.98ZM381.1 41.65C381.06 41.7567 381.013 41.8967 380.96 42.07C380.92 42.23 380.88 42.3967 380.84 42.57C380.813 42.7433 380.787 42.89 380.76 43.01C380.68 43.3833 380.593 43.83 380.5 44.35C380.42 44.8567 380.333 45.41 380.24 46.01C380.147 46.5967 380.06 47.1967 379.98 47.81C379.913 48.41 379.86 48.99 379.82 49.55C379.78 50.11 379.76 50.6167 379.76 51.07C379.76 51.55 379.773 52.01 379.8 52.45C379.84 52.89 379.893 53.3567 379.96 53.85C380.067 53.5433 380.187 53.2167 380.32 52.87C380.453 52.5233 380.587 52.1767 380.72 51.83C380.867 51.4833 380.993 51.1767 381.1 50.91L381.92 51.55C381.76 52.0033 381.58 52.5167 381.38 53.09C381.193 53.65 381.013 54.19 380.84 54.71C380.68 55.2167 380.567 55.6367 380.5 55.97C380.473 56.1033 380.447 56.2567 380.42 56.43C380.407 56.6033 380.407 56.75 380.42 56.87C380.42 56.9633 380.42 57.0767 380.42 57.21C380.433 57.3433 380.447 57.4633 380.46 57.57L379.06 57.67C378.86 56.95 378.68 56.0567 378.52 54.99C378.373 53.91 378.3 52.6967 378.3 51.35C378.3 50.6033 378.333 49.83 378.4 49.03C378.48 48.2167 378.567 47.4233 378.66 46.65C378.767 45.8767 378.867 45.17 378.96 44.53C379.067 43.8767 379.153 43.3433 379.22 42.93C379.247 42.7033 379.273 42.4633 379.3 42.21C379.327 41.9567 379.34 41.7233 379.34 41.51L381.1 41.65Z" fill="black"/>
<path d="M140.916 55.93H139.156V42.18H140.916V55.93ZM147.12 42.18H148.88V55.93H147.12V42.18ZM147.472 49.858H140.564V48.406H147.472V49.858ZM156.441 56.128C155.635 56.128 154.967 56.0473 154.439 55.886C153.926 55.7247 153.523 55.4387 153.229 55.028C152.951 54.6027 152.753 54.0233 152.635 53.29C152.533 52.542 152.481 51.5887 152.481 50.43C152.481 48.9487 152.606 47.7973 152.855 46.976C153.119 46.14 153.567 45.5607 154.197 45.238C154.843 44.9007 155.737 44.732 156.881 44.732C158.011 44.732 158.883 44.8273 159.499 45.018C160.115 45.194 160.541 45.5167 160.775 45.986C161.01 46.4407 161.127 47.0933 161.127 47.944C161.127 48.7213 161.054 49.3447 160.907 49.814C160.775 50.2833 160.482 50.6353 160.027 50.87C159.573 51.09 158.891 51.2367 157.981 51.31C157.072 51.3833 155.847 51.42 154.307 51.42H153.647V50.144H157.629C158.377 50.144 158.883 50.0487 159.147 49.858C159.411 49.6673 159.543 49.308 159.543 48.78V46.272H156.199C155.466 46.272 154.967 46.3673 154.703 46.558C154.439 46.734 154.307 47.0933 154.307 47.636V54.412C154.659 54.5 155.026 54.5733 155.407 54.632C155.803 54.676 156.273 54.698 156.815 54.698C157.402 54.698 157.974 54.6613 158.531 54.588C159.089 54.5 159.778 54.3607 160.599 54.17L160.841 55.49C160.343 55.6807 159.69 55.8347 158.883 55.952C158.091 56.0693 157.277 56.128 156.441 56.128ZM166.587 54.61C166.704 54.6247 166.851 54.6393 167.027 54.654C167.217 54.6687 167.401 54.6833 167.577 54.698L167.467 55.908C167.203 55.9813 166.975 56.0327 166.785 56.062C166.594 56.106 166.403 56.128 166.213 56.128C165.743 56.128 165.391 56.0033 165.157 55.754C164.937 55.5047 164.827 55.1307 164.827 54.632V41.63L166.587 41.3V54.61ZM172.388 54.61C172.505 54.6247 172.652 54.6393 172.828 54.654C173.018 54.6687 173.202 54.6833 173.378 54.698L173.268 55.908C173.004 55.9813 172.776 56.0327 172.586 56.062C172.395 56.106 172.204 56.128 172.014 56.128C171.544 56.128 171.192 56.0033 170.958 55.754C170.738 55.5047 170.628 55.1307 170.628 54.632V41.63L172.388 41.3V54.61ZM180.432 56.128C179.479 56.128 178.702 56.0547 178.1 55.908C177.514 55.7467 177.052 55.4607 176.714 55.05C176.392 54.6393 176.164 54.06 176.032 53.312C175.915 52.564 175.856 51.6033 175.856 50.43C175.856 49.2567 175.915 48.296 176.032 47.548C176.164 46.8 176.392 46.2207 176.714 45.81C177.052 45.3993 177.514 45.1207 178.1 44.974C178.702 44.8127 179.479 44.732 180.432 44.732C181.386 44.732 182.163 44.8127 182.764 44.974C183.366 45.1207 183.828 45.3993 184.15 45.81C184.473 46.2207 184.693 46.8 184.81 47.548C184.928 48.2813 184.986 49.242 184.986 50.43C184.986 51.6033 184.92 52.564 184.788 53.312C184.671 54.06 184.451 54.6393 184.128 55.05C183.806 55.4607 183.344 55.7467 182.742 55.908C182.141 56.0547 181.371 56.128 180.432 56.128ZM177.66 54.632H182.082C182.522 54.632 182.816 54.5953 182.962 54.522C183.109 54.4487 183.182 54.302 183.182 54.082V46.228H178.76C178.32 46.228 178.027 46.2647 177.88 46.338C177.734 46.4113 177.66 46.558 177.66 46.778V54.632ZM195.984 55.93L193.3 44.93H194.796L197.04 54.456H197.26L199.548 44.93H201.308L198.47 55.93H195.984ZM189.406 55.93L186.59 44.93H188.328L190.638 54.456H190.858L193.102 44.93H194.576L191.892 55.93H189.406Z" fill="black"/>
<ellipse cx="274" cy="363.5" rx="274" ry="26.5" fill="#5C5C5C"/>
<path d="M207.503 377.748L341.733 377.748L341.733 371.288L207.503 371.288L207.503 377.748Z" fill="white"/>
<path d="M213.963 371.287L335.273 371.287L335.273 364.827L213.963 364.827L213.963 371.287Z" fill="white"/>
<path d="M327.07 365.48C327.07 367.47 327.07 369.46 327.07 371.45C327.07 372.09 328.07 372.09 328.07 371.45C328.07 369.46 328.07 367.47 328.07 365.48C328.07 364.84 327.07 364.84 327.07 365.48Z" fill="black"/>
<path d="M319.89 365.48C319.89 367.47 319.89 369.46 319.89 371.45C319.89 372.09 320.89 372.09 320.89 371.45C320.89 369.46 320.89 367.47 320.89 365.48C320.89 364.84 319.89 364.84 319.89 365.48Z" fill="black"/>
<path d="M312.72 365.48C312.72 367.47 312.72 369.46 312.72 371.45C312.72 372.09 313.72 372.09 313.72 371.45C313.72 369.46 313.72 367.47 313.72 365.48C313.72 364.84 312.72 364.84 312.72 365.48Z" fill="black"/>
<path d="M305.54 365.48C305.54 367.47 305.54 369.46 305.54 371.45C305.54 372.09 306.54 372.09 306.54 371.45C306.54 369.46 306.54 367.47 306.54 365.48C306.54 364.84 305.54 364.84 305.54 365.48Z" fill="black"/>
<path d="M298.36 365.48C298.36 367.47 298.36 369.46 298.36 371.45C298.36 372.09 299.36 372.09 299.36 371.45C299.36 369.46 299.36 367.47 299.36 365.48C299.36 364.84 298.36 364.84 298.36 365.48Z" fill="black"/>
<path d="M291.18 365.48C291.18 367.47 291.18 369.46 291.18 371.45C291.18 372.09 292.18 372.09 292.18 371.45C292.18 369.46 292.18 367.47 292.18 365.48C292.18 364.84 291.18 364.84 291.18 365.48Z" fill="black"/>
<path d="M284 365.48C284 367.47 284 369.46 284 371.45C284 372.09 285 372.09 285 371.45C285 369.46 285 367.47 285 365.48C285 364.84 284 364.84 284 365.48Z" fill="black"/>
<path d="M276.83 365.48C276.83 367.47 276.83 369.46 276.83 371.45C276.83 372.09 277.83 372.09 277.83 371.45C277.83 369.46 277.83 367.47 277.83 365.48C277.83 364.84 276.83 364.84 276.83 365.48Z" fill="black"/>
<path d="M269.65 365.48C269.65 367.47 269.65 369.46 269.65 371.45C269.65 372.09 270.65 372.09 270.65 371.45C270.65 369.46 270.65 367.47 270.65 365.48C270.65 364.84 269.65 364.84 269.65 365.48Z" fill="black"/>
<path d="M262.47 365.48C262.47 367.47 262.47 369.46 262.47 371.45C262.47 372.09 263.47 372.09 263.47 371.45C263.47 369.46 263.47 367.47 263.47 365.48C263.47 364.84 262.47 364.84 262.47 365.48Z" fill="black"/>
<path d="M255.29 365.48C255.29 367.47 255.29 369.46 255.29 371.45C255.29 372.09 256.29 372.09 256.29 371.45C256.29 369.46 256.29 367.47 256.29 365.48C256.29 364.84 255.29 364.84 255.29 365.48Z" fill="black"/>
<path d="M248.11 365.48C248.11 367.47 248.11 369.46 248.11 371.45C248.11 372.09 249.11 372.09 249.11 371.45C249.11 369.46 249.11 367.47 249.11 365.48C249.11 364.84 248.11 364.84 248.11 365.48Z" fill="black"/>
<path d="M240.93 365.48C240.93 367.47 240.93 369.46 240.93 371.45C240.93 372.09 241.93 372.09 241.93 371.45C241.93 369.46 241.93 367.47 241.93 365.48C241.93 364.84 240.93 364.84 240.93 365.48Z" fill="black"/>
<path d="M233.76 365.48C233.76 367.47 233.76 369.46 233.76 371.45C233.76 372.09 234.76 372.09 234.76 371.45C234.76 369.46 234.76 367.47 234.76 365.48C234.76 364.84 233.76 364.84 233.76 365.48Z" fill="black"/>
<path d="M226.58 365.48C226.58 367.47 226.58 369.46 226.58 371.45C226.58 372.09 227.58 372.09 227.58 371.45C227.58 369.46 227.58 367.47 227.58 365.48C227.58 364.84 226.58 364.84 226.58 365.48Z" fill="black"/>
<path d="M220.12 365.48C220.12 367.47 220.12 369.46 220.12 371.45C220.12 372.09 221.12 372.09 221.12 371.45C221.12 369.46 221.12 367.47 221.12 365.48C221.12 364.84 220.12 364.84 220.12 365.48Z" fill="black"/>
<path d="M170.27 377.75H197.55C197.55 372.2 193.05 367.7 187.5 367.7H180.32C174.77 367.7 170.27 372.2 170.27 377.75Z" fill="white"/>
<path d="M184.27 370.57C184.86 370.57 185.35 370.09 185.35 369.49V366.62C185.35 366.03 184.87 365.54 184.27 365.54C183.68 365.54 183.19 366.02 183.19 366.62V369.49C183.19 370.09 183.67 370.57 184.27 370.57Z" fill="black"/>
<path d="M68.73 331.03L76.06 375.43H105.21L110.71 331.03C88.92 320.53 68.73 331.03 68.73 331.03Z" fill="#5DD62C"/>
<path d="M106.68 338.3C107.49 338.3 126.06 335.07 125.25 346.37C124.44 357.67 122.02 375.43 102.64 371.4V361.71C102.64 361.71 115.56 368.98 117.17 355.25C118.78 341.52 105.06 344.75 105.06 344.75L106.68 338.3Z" fill="#5DD62C"/>
<path d="M72.77 332.64C72.77 332.64 91.34 326.18 105.87 332.64C105.87 332.64 92.14 343.95 72.77 332.64Z" fill="white"/>
<path d="M95.0199 350.75C91.2999 355.65 87.9599 360.83 85.0499 366.25C84.7499 366.82 85.6099 367.32 85.9099 366.75C88.8199 361.33 92.1499 356.15 95.8799 351.25C96.2699 350.74 95.3999 350.24 95.0199 350.75Z" fill="black"/>
<path d="M92.22 362.32C91.49 363.55 90.77 364.79 90.04 366.02C89.71 366.58 90.58 367.08 90.9 366.52C91.63 365.29 92.35 364.05 93.08 362.82C93.41 362.27 92.55 361.76 92.22 362.32Z" fill="black"/>
<path d="M77.0601 335.84C83.4601 338.83 90.8501 339.44 97.6701 337.58C99.6001 337.05 101.46 336.32 103.24 335.42C103.81 335.13 103.31 334.27 102.74 334.56C94.9701 338.51 85.4701 338.67 77.5701 334.98C76.9801 334.71 76.4701 335.57 77.0601 335.84Z" fill="black"/>
<path d="M431.01 339.55L439.37 374.47H468.32L475.06 339.55H431.01Z" fill="white"/>
<path d="M437.39 352.44C445.47 354.61 453.97 355.18 462.27 354.1C464.63 353.79 466.97 353.35 469.28 352.79C469.9 352.64 469.64 351.67 469.01 351.83C461.01 353.79 452.64 354.18 444.5 352.93C442.19 352.58 439.91 352.09 437.66 351.49C437.03 351.3 436.77 352.27 437.39 352.44Z" fill="black"/>
<path d="M441.4 360.87C448.59 362.2 455.95 362.26 463.16 361.06C463.79 360.95 463.52 359.99 462.89 360.1C455.87 361.27 448.66 361.21 441.66 359.91C441.04 359.79 440.77 360.76 441.4 360.87Z" fill="black"/>
<path d="M463.06 345.43C467.55 338.94 472.07 332.32 474.57 324.83C476.58 318.82 477.22 312.36 476.44 306.07C476.24 304.48 475.85 302.73 474.53 301.83C473.4 301.05 471.86 301.13 470.56 301.56C466.28 302.97 463.84 307.42 462.22 311.63C460.5 316.1 459.22 320.73 458.41 325.45C458.42 319.57 459.32 313.71 459.34 307.83C459.36 301.95 458.43 295.85 455.17 290.95C454.64 290.15 453.93 289.33 452.97 289.25C452.39 289.2 451.82 289.46 451.31 289.75C446.21 292.66 444.75 299.27 444.35 305.12C443.71 314.49 444.46 323.9 445.22 333.27C444.22 329.29 443.22 325.32 442.23 321.34C440.93 316.18 439.45 310.69 435.46 307.16C434.92 306.68 434.31 306.23 433.61 306.07C431.91 305.67 430.26 307.05 429.47 308.61C428.2 311.12 428.36 314.09 428.74 316.88C430.14 327.24 434.09 337.24 440.17 345.74C447.33 347.65 455.73 346.46 463.06 345.43Z" fill="#38EF08"/>
<path d="M441.69 345.9C449.03 346.73 456.44 346.63 463.76 345.65C464.39 345.56 464.12 344.6 463.49 344.69C456.26 345.66 448.93 345.73 441.69 344.91C441.05 344.83 441.05 345.83 441.69 345.9Z" fill="black"/>
<path d="M441.83 321.68C443.22 326.54 444.8 331.34 446.55 336.08C446.77 336.68 447.74 336.42 447.51 335.81C445.76 331.07 444.18 326.27 442.79 321.41C442.62 320.79 441.65 321.05 441.83 321.68Z" fill="black"/>
<path d="M458.82 309.3C458.79 316.79 458.05 324.26 456.6 331.6C456.48 332.23 457.44 332.5 457.56 331.87C459.03 324.44 459.79 316.88 459.82 309.3C459.82 308.66 458.82 308.66 458.82 309.3Z" fill="black"/>
<path d="M448.78 292.43C447.86 290.39 446.95 288.34 446.03 286.3C445.92 286.05 445.56 285.99 445.35 286.12C445.1 286.27 445.06 286.56 445.17 286.8C446.09 288.84 447 290.89 447.92 292.93C448.03 293.18 448.39 293.24 448.6 293.11C448.86 292.96 448.89 292.68 448.78 292.43Z" fill="black"/>
<path d="M451.41 296.88C450.38 308.46 450.01 320.09 450.34 331.71C450.43 335.01 450.58 338.3 450.78 341.59C450.82 342.23 451.82 342.23 451.78 341.59C451.07 329.99 451.04 318.35 451.69 306.75C451.88 303.46 452.12 300.17 452.41 296.89C452.47 296.23 451.47 296.24 451.41 296.88Z" fill="black"/>
<path d="M435.46 321.54C437.19 326.09 439.03 330.6 440.97 335.07C441.23 335.66 442.09 335.15 441.83 334.57C439.92 330.18 438.12 325.75 436.42 321.28C436.2 320.67 435.23 320.93 435.46 321.54Z" fill="black"/>
<path d="M471.66 308.55C467.8 317.73 464.37 327.09 461.38 336.59C461.19 337.21 462.15 337.47 462.34 336.86C465.33 327.36 468.76 318 472.62 308.82C472.87 308.22 471.91 307.96 471.66 308.55Z" fill="black"/>
<path d="M458.88 296.59C459.52 295.84 460.17 295.08 460.81 294.33C460.98 294.13 461.02 293.82 460.81 293.62C460.62 293.45 460.28 293.41 460.1 293.62C459.46 294.37 458.81 295.13 458.17 295.88C458 296.08 457.96 296.39 458.17 296.59C458.36 296.76 458.7 296.8 458.88 296.59Z" fill="black"/>
<path d="M455.81 293.03C456.43 292.51 456.95 291.86 457.35 291.16C457.48 290.93 457.41 290.6 457.17 290.48C456.93 290.36 456.62 290.42 456.49 290.66C456.4 290.82 456.3 290.98 456.2 291.14C456.15 291.22 456.09 291.3 456.03 291.38C456.01 291.4 456 291.42 455.98 291.44C455.94 291.49 456.04 291.36 456 291.41C455.97 291.45 455.94 291.49 455.9 291.53C455.66 291.82 455.39 292.09 455.1 292.34C454.9 292.51 454.91 292.87 455.1 293.05C455.32 293.23 455.6 293.21 455.81 293.03Z" fill="black"/>
<path d="M445 302.98C444.25 302.28 443.5 301.57 442.75 300.87C442.56 300.69 442.23 300.67 442.04 300.87C441.86 301.06 441.84 301.39 442.04 301.58C442.79 302.28 443.54 302.99 444.29 303.69C444.48 303.87 444.81 303.89 445 303.69C445.18 303.49 445.2 303.17 445 302.98Z" fill="black"/>
<path d="M456.47 308.05C456.76 307.77 457.06 307.51 457.37 307.26C457.42 307.22 457.3 307.32 457.35 307.27C457.37 307.26 457.39 307.24 457.41 307.23C457.45 307.2 457.49 307.17 457.54 307.14C457.62 307.08 457.7 307.03 457.78 306.97C457.95 306.86 458.12 306.75 458.29 306.64C458.51 306.5 458.62 306.19 458.47 305.96C458.33 305.74 458.02 305.63 457.79 305.78C457.06 306.22 456.39 306.75 455.77 307.34C455.58 307.52 455.57 307.87 455.77 308.05C455.96 308.24 456.26 308.25 456.47 308.05Z" fill="black"/>
<path d="M447.66 313.69C446.91 313.15 446.16 312.61 445.41 312.07C445.2 311.92 444.84 312.03 444.73 312.25C444.59 312.51 444.68 312.77 444.91 312.93C445.66 313.47 446.41 314.01 447.16 314.55C447.37 314.7 447.73 314.59 447.84 314.37C447.97 314.12 447.88 313.86 447.66 313.69Z" fill="black"/>
<path d="M436.84 310.85C437.38 309.83 437.83 308.76 438.18 307.66C438.26 307.41 438.09 307.1 437.83 307.04C437.56 306.98 437.3 307.12 437.21 307.39C436.88 308.44 436.48 309.37 435.97 310.34C435.85 310.57 435.9 310.89 436.15 311.02C436.39 311.15 436.71 311.09 436.84 310.85Z" fill="black"/>
<path d="M431.01 308.56C429.83 307.65 428.72 306.55 427.76 305.38C427.59 305.17 427.23 305.2 427.05 305.38C426.84 305.59 426.88 305.88 427.05 306.09C428.07 307.34 429.23 308.45 430.5 309.43C430.71 309.6 431.06 309.46 431.18 309.25C431.34 308.98 431.22 308.72 431.01 308.56Z" fill="black"/>
<path d="M429.45 317.04C428.54 316.82 427.62 316.61 426.71 316.39C426.46 316.33 426.16 316.47 426.09 316.74C426.03 317 426.17 317.29 426.44 317.36C427.35 317.58 428.27 317.79 429.18 318.01C429.43 318.07 429.73 317.93 429.8 317.66C429.85 317.4 429.72 317.11 429.45 317.04Z" fill="black"/>
<path d="M431.94 326.31C430.69 326.65 429.45 327 428.2 327.34C427.94 327.41 427.78 327.69 427.85 327.96C427.92 328.22 428.2 328.38 428.47 328.31C429.72 327.97 430.96 327.62 432.21 327.28C432.47 327.21 432.63 326.93 432.56 326.66C432.48 326.4 432.2 326.24 431.94 326.31Z" fill="black"/>
<path d="M434.12 332.19C433.87 332.47 433.6 332.74 433.3 332.98C433.26 333.01 433.23 333.04 433.19 333.07C433.18 333.08 433.12 333.13 433.18 333.08C433.24 333.03 433.17 333.09 433.16 333.1C433.09 333.16 433.01 333.21 432.94 333.26C432.78 333.37 432.62 333.47 432.45 333.57C432.22 333.7 432.12 334.03 432.27 334.25C432.42 334.48 432.71 334.57 432.95 334.43C433.65 334.02 434.29 333.51 434.83 332.9C435 332.7 435.04 332.38 434.83 332.19C434.64 332.02 434.31 331.98 434.12 332.19Z" fill="black"/>
<path d="M439.21 338.59C438.89 339.34 438.56 340.1 438.24 340.85C438.18 340.98 438.15 341.09 438.19 341.24C438.22 341.36 438.31 341.48 438.42 341.54C438.63 341.65 438.99 341.62 439.1 341.36C439.42 340.61 439.75 339.85 440.07 339.1C440.13 338.97 440.16 338.86 440.12 338.71C440.09 338.59 440 338.47 439.89 338.41C439.68 338.29 439.32 338.33 439.21 338.59Z" fill="black"/>
<path d="M455.19 340.7C455.62 341.46 456.04 342.21 456.47 342.97C456.6 343.2 456.93 343.29 457.15 343.15C457.38 343 457.47 342.71 457.33 342.47C456.9 341.71 456.48 340.96 456.05 340.2C455.92 339.97 455.59 339.88 455.37 340.02C455.14 340.17 455.05 340.46 455.19 340.7Z" fill="black"/>
<path d="M468.73 332.83C469.54 333.04 470.35 333.25 471.15 333.47C471.4 333.54 471.7 333.39 471.77 333.12C471.83 332.86 471.69 332.58 471.42 332.5C470.61 332.29 469.8 332.08 469 331.86C468.75 331.79 468.45 331.94 468.38 332.21C468.32 332.48 468.46 332.76 468.73 332.83Z" fill="black"/>
<path d="M464.33 320.79C464.11 319.8 463.62 318.88 462.92 318.14C462.74 317.95 462.39 317.95 462.21 318.14C462.02 318.35 462.02 318.64 462.21 318.85C462.29 318.93 462.36 319.02 462.44 319.11C462.46 319.13 462.47 319.15 462.49 319.17C462.54 319.23 462.44 319.11 462.49 319.16C462.52 319.2 462.55 319.25 462.59 319.29C462.72 319.48 462.84 319.67 462.95 319.87C463 319.97 463.05 320.06 463.09 320.16C463.09 320.17 463.13 320.25 463.1 320.19C463.07 320.13 463.11 320.21 463.11 320.22C463.13 320.28 463.15 320.33 463.17 320.39C463.25 320.6 463.31 320.82 463.36 321.05C463.42 321.31 463.73 321.48 463.98 321.4C464.25 321.32 464.39 321.07 464.33 320.79Z" fill="black"/>
<path d="M465.78 310.11C465.66 308.59 465.41 307.08 465.02 305.61C464.86 304.99 463.89 305.25 464.06 305.88C464.43 307.27 464.67 308.69 464.78 310.12C464.8 310.39 465 310.62 465.28 310.62C465.54 310.61 465.8 310.38 465.78 310.11Z" fill="black"/>
<path d="M470.9 301.16C471.41 299.97 471.81 298.75 472.11 297.5C472.17 297.24 472.03 296.96 471.76 296.88C471.51 296.81 471.21 296.97 471.14 297.23C470.87 298.4 470.51 299.55 470.04 300.65C469.93 300.9 469.97 301.19 470.22 301.33C470.42 301.46 470.79 301.41 470.9 301.16Z" fill="black"/>
<path d="M474.93 306.36C475.85 305.93 476.76 305.51 477.68 305.08C477.92 304.97 478 304.61 477.86 304.4C477.7 304.15 477.43 304.1 477.18 304.22C476.26 304.65 475.35 305.07 474.43 305.5C474.19 305.61 474.11 305.97 474.25 306.18C474.4 306.43 474.67 306.48 474.93 306.36Z" fill="black"/>
<path d="M476.41 317.38C476.58 317.32 476.74 317.28 476.92 317.25C476.96 317.24 476.99 317.23 477.03 317.23C476.89 317.24 477.06 317.23 477.08 317.23C477.16 317.22 477.24 317.22 477.32 317.22C477.4 317.22 477.48 317.22 477.56 317.23C477.61 317.23 477.66 317.24 477.71 317.24C477.75 317.24 477.85 317.23 477.73 317.24C477.81 317.24 477.91 317.27 477.99 317.29C478.08 317.31 478.16 317.33 478.24 317.36C478.49 317.44 478.8 317.27 478.86 317.01C478.92 316.74 478.78 316.48 478.51 316.39C477.75 316.15 476.9 316.16 476.15 316.42C475.9 316.5 475.71 316.77 475.8 317.04C475.88 317.28 476.15 317.47 476.41 317.38Z" fill="black"/>
<path d="M472.39 323.2C472.87 323.63 473.36 324.06 473.84 324.49C473.94 324.58 474.06 324.64 474.19 324.64C474.31 324.64 474.46 324.59 474.54 324.49C474.71 324.3 474.75 323.97 474.54 323.78C474.06 323.35 473.57 322.92 473.09 322.49C472.99 322.4 472.87 322.34 472.74 322.34C472.62 322.34 472.47 322.39 472.39 322.49C472.21 322.68 472.18 323.01 472.39 323.2Z" fill="black"/>
</svg>
