<svg width="430" height="424" viewBox="0 0 430 424" fill="none" xmlns="http://www.w3.org/2000/svg">
<path d="M410.281 424H17.7219C16.2191 424 15 422.432 15 420.5C15 418.568 16.2191 417 17.7219 417H410.278C411.781 417 413 418.568 413 420.5C413.003 422.432 411.783 424 410.281 424Z" fill="#38EF08"/>
<path d="M19.7266 129.201C19.7465 128.945 19.7589 128.689 19.7589 128.428C19.7589 122.971 15.3363 118.549 9.87946 118.549C4.42263 118.549 0 122.971 0 128.428C0 128.689 0.0124237 128.948 0.0323119 129.201H19.7266Z" fill="white"/>
<path d="M52.1836 129.201C52.2035 128.945 52.2159 128.689 52.2159 128.428C52.2159 122.971 47.7933 118.549 42.3365 118.549C36.8797 118.549 32.457 122.971 32.457 128.428C32.457 128.689 32.4695 128.948 32.4894 129.201H52.1836Z" fill="white"/>
<path d="M60.5888 129.201C60.6162 128.948 60.6336 128.689 60.6336 128.428C60.6336 124.57 57.5061 121.442 53.6478 121.442C49.7895 121.442 46.6621 124.57 46.6621 128.428C46.6621 128.689 46.677 128.948 46.7069 129.201H60.5888Z" fill="white"/>
<path d="M40.8168 129.201C40.8938 128.597 40.9336 127.983 40.9336 127.359C40.9336 119.366 34.4525 112.885 26.46 112.885C18.4674 112.885 11.9863 119.366 11.9863 127.359C11.9863 127.983 12.0261 128.597 12.1032 129.201H40.8168Z" fill="white"/>
<path d="M263.158 16.3158C263.178 16.0597 263.191 15.8037 263.191 15.5426C263.191 10.0858 258.768 5.66317 253.311 5.66317C247.854 5.66317 243.432 10.0858 243.432 15.5426C243.432 15.8037 243.444 16.0622 243.464 16.3158H263.158Z" fill="white"/>
<path d="M295.615 16.3158C295.635 16.0597 295.648 15.8037 295.648 15.5426C295.648 10.0858 291.225 5.66317 285.768 5.66317C280.311 5.66317 275.889 10.0858 275.889 15.5426C275.889 15.8037 275.901 16.0622 275.921 16.3158H295.615Z" fill="white"/>
<path d="M284.252 16.3158C284.329 15.7117 284.369 15.0976 284.369 14.4736C284.369 6.48106 277.888 0 269.896 0C261.903 0 255.422 6.48106 255.422 14.4736C255.422 15.0976 255.462 15.7117 255.539 16.3158H284.252Z" fill="white"/>
<path d="M211.254 129.758H207.694C207.431 129.758 207.217 129.544 207.217 129.281C207.217 129.017 207.431 128.803 207.694 128.803H211.254C211.518 128.803 211.731 129.017 211.731 129.281C211.731 129.544 211.518 129.758 211.254 129.758ZM204.137 129.758H200.577C200.313 129.758 200.099 129.544 200.099 129.281C200.099 129.017 200.313 128.803 200.577 128.803H204.137C204.4 128.803 204.614 129.017 204.614 129.281C204.614 129.544 204.4 129.758 204.137 129.758ZM197.017 129.758H193.457C193.193 129.758 192.979 129.544 192.979 129.281C192.979 129.017 193.193 128.803 193.457 128.803H197.017C197.28 128.803 197.494 129.017 197.494 129.281C197.494 129.544 197.28 129.758 197.017 129.758ZM189.899 129.758H186.339C186.076 129.758 185.862 129.544 185.862 129.281C185.862 129.017 186.076 128.803 186.339 128.803H189.899C190.163 128.803 190.376 129.017 190.376 129.281C190.376 129.544 190.163 129.758 189.899 129.758ZM182.779 129.758H179.219C178.956 129.758 178.742 129.544 178.742 129.281C178.742 129.017 178.956 128.803 179.219 128.803H182.779C183.043 128.803 183.257 129.017 183.257 129.281C183.257 129.544 183.043 129.758 182.779 129.758ZM175.662 129.758H172.102C171.838 129.758 171.624 129.544 171.624 129.281C171.624 129.017 171.838 128.803 172.102 128.803H175.662C175.925 128.803 176.139 129.017 176.139 129.281C176.137 129.544 175.925 129.758 175.662 129.758ZM168.542 129.758H164.982C164.718 129.758 164.504 129.544 164.504 129.281C164.504 129.017 164.718 128.803 164.982 128.803H168.542C168.805 128.803 169.019 129.017 169.019 129.281C169.019 129.544 168.805 129.758 168.542 129.758ZM161.424 129.758H157.864C157.601 129.758 157.387 129.544 157.387 129.281C157.387 129.017 157.601 128.803 157.864 128.803H161.424C161.688 128.803 161.902 129.017 161.902 129.281C161.899 129.544 161.688 129.758 161.424 129.758ZM154.304 129.758H150.744C150.481 129.758 150.267 129.544 150.267 129.281C150.267 129.017 150.481 128.803 150.744 128.803H154.304C154.568 128.803 154.782 129.017 154.782 129.281C154.782 129.544 154.568 129.758 154.304 129.758ZM147.187 129.758H143.627C143.363 129.758 143.149 129.544 143.149 129.281C143.149 129.017 143.363 128.803 143.627 128.803H147.187C147.45 128.803 147.664 129.017 147.664 129.281C147.662 129.544 147.45 129.758 147.187 129.758ZM140.067 129.758H136.507C136.243 129.758 136.029 129.544 136.029 129.281C136.029 129.017 136.243 128.803 136.507 128.803H140.067C140.33 128.803 140.544 129.017 140.544 129.281C140.544 129.544 140.33 129.758 140.067 129.758ZM132.949 129.758H129.389C129.126 129.758 128.912 129.544 128.912 129.281C128.912 129.017 129.126 128.803 129.389 128.803H132.949C133.213 128.803 133.427 129.017 133.427 129.281C133.424 129.544 133.21 129.758 132.949 129.758ZM125.829 129.758H122.269C122.006 129.758 121.792 129.544 121.792 129.281C121.792 129.017 122.006 128.803 122.269 128.803H125.829C126.093 128.803 126.307 129.017 126.307 129.281C126.307 129.544 126.093 129.758 125.829 129.758ZM118.709 129.758H115.149C114.886 129.758 114.672 129.544 114.672 129.281C114.672 129.017 114.886 128.803 115.149 128.803H118.709C118.973 128.803 119.187 129.017 119.187 129.281C119.187 129.544 118.973 129.758 118.709 129.758ZM111.592 129.758H108.032C107.768 129.758 107.555 129.544 107.555 129.281C107.555 129.017 107.768 128.803 108.032 128.803H111.592C111.855 128.803 112.069 129.017 112.069 129.281C112.069 129.544 111.855 129.758 111.592 129.758ZM104.472 129.758H100.912C100.648 129.758 100.435 129.544 100.435 129.281C100.435 129.017 100.648 128.803 100.912 128.803H104.472C104.735 128.803 104.949 129.017 104.949 129.281C104.949 129.544 104.735 129.758 104.472 129.758ZM97.3544 129.758H93.7944C93.5309 129.758 93.3171 129.544 93.3171 129.281C93.3171 129.017 93.5309 128.803 93.7944 128.803H97.3544C97.6179 128.803 97.8317 129.017 97.8317 129.281C97.8317 129.544 97.6179 129.758 97.3544 129.758ZM90.2344 129.758H86.6769C86.4134 129.758 86.1996 129.544 86.1996 129.281C86.1996 129.017 86.4134 128.803 86.6769 128.803H90.2369C90.5004 128.803 90.7142 129.017 90.7142 129.281C90.7118 129.544 90.498 129.758 90.2344 129.758ZM83.1169 129.758H82.5377C81.4115 129.758 80.3276 129.36 79.4898 128.642C79.291 128.47 79.2661 128.169 79.4376 127.971C79.6092 127.772 79.91 127.747 80.1089 127.918C80.7751 128.49 81.6378 128.806 82.5377 128.806H83.1169C83.3805 128.806 83.5943 129.02 83.5943 129.283C83.5943 129.544 83.3805 129.758 83.1169 129.758ZM214.63 128.915C214.486 128.915 214.344 128.851 214.25 128.726C214.091 128.517 214.133 128.217 214.342 128.058C215.207 127.404 215.707 126.424 215.709 125.378C215.709 125.114 215.923 124.903 216.186 124.903C216.45 124.903 216.664 125.117 216.661 125.38C216.659 126.73 216.022 127.983 214.916 128.821C214.831 128.883 214.732 128.915 214.63 128.915ZM78.4382 125.601C78.1747 125.601 77.9609 125.388 77.9609 125.124V121.564C77.9609 121.301 78.1747 121.087 78.4382 121.087C78.7018 121.087 78.9156 121.301 78.9156 121.564V125.124C78.9156 125.388 78.7018 125.601 78.4382 125.601ZM216.186 122.295C215.923 122.295 215.709 122.081 215.709 121.818V118.258C215.709 117.994 215.923 117.78 216.186 117.78C216.45 117.78 216.664 117.994 216.664 118.258V121.818C216.664 122.081 216.45 122.295 216.186 122.295ZM78.4382 118.484C78.1747 118.484 77.9609 118.27 77.9609 118.007V114.447C77.9609 114.183 78.1747 113.969 78.4382 113.969C78.7018 113.969 78.9156 114.183 78.9156 114.447V118.007C78.9156 118.27 78.7018 118.484 78.4382 118.484ZM216.186 115.175C215.923 115.175 215.709 114.961 215.709 114.698V111.138C215.709 110.874 215.923 110.66 216.186 110.66C216.45 110.66 216.664 110.874 216.664 111.138V114.698C216.664 114.964 216.45 115.175 216.186 115.175ZM78.4382 111.364C78.1747 111.364 77.9609 111.15 77.9609 110.887V107.327C77.9609 107.063 78.1747 106.849 78.4382 106.849C78.7018 106.849 78.9156 107.063 78.9156 107.327V110.887C78.9156 111.15 78.7018 111.364 78.4382 111.364ZM216.186 108.057C215.923 108.057 215.709 107.844 215.709 107.58V104.02C215.709 103.757 215.923 103.543 216.186 103.543C216.45 103.543 216.664 103.757 216.664 104.02V107.58C216.664 107.844 216.45 108.057 216.186 108.057ZM78.4382 104.246C78.1747 104.246 77.9609 104.033 77.9609 103.769V100.209C77.9609 99.9456 78.1747 99.7318 78.4382 99.7318C78.7018 99.7318 78.9156 99.9456 78.9156 100.209V103.769C78.9156 104.033 78.7018 104.246 78.4382 104.246ZM216.186 100.938C215.923 100.938 215.709 100.724 215.709 100.46V96.9002C215.709 96.6367 215.923 96.4229 216.186 96.4229C216.45 96.4229 216.664 96.6367 216.664 96.9002V100.46C216.664 100.726 216.45 100.938 216.186 100.938ZM78.4382 97.1264C78.1747 97.1264 77.9609 96.9126 77.9609 96.6491V93.0891C77.9609 92.8256 78.1747 92.6118 78.4382 92.6118C78.7018 92.6118 78.9156 92.8256 78.9156 93.0891V96.6491C78.9156 96.9126 78.7018 97.1264 78.4382 97.1264ZM216.186 93.82C215.923 93.82 215.709 93.6062 215.709 93.3427V89.7827C215.709 89.5192 215.923 89.3054 216.186 89.3054C216.45 89.3054 216.664 89.5192 216.664 89.7827V93.3427C216.664 93.6062 216.45 93.82 216.186 93.82ZM78.4382 90.0065C78.1747 90.0065 77.9609 89.7927 77.9609 89.5292V85.9692C77.9609 85.7057 78.1747 85.4919 78.4382 85.4919C78.7018 85.4919 78.9156 85.7057 78.9156 85.9692V89.5292C78.9156 89.7952 78.7018 90.0065 78.4382 90.0065ZM216.186 86.7001C215.923 86.7001 215.709 86.4863 215.709 86.2227V82.6628C215.709 82.3992 215.923 82.1854 216.186 82.1854C216.45 82.1854 216.664 82.3992 216.664 82.6628V86.2227C216.664 86.4863 216.45 86.7001 216.186 86.7001ZM78.4382 82.889C78.1747 82.889 77.9609 82.6752 77.9609 82.4117V78.8517C77.9609 78.5882 78.1747 78.3744 78.4382 78.3744C78.7018 78.3744 78.9156 78.5882 78.9156 78.8517V82.4117C78.9156 82.6752 78.7018 82.889 78.4382 82.889ZM216.186 79.5826C215.923 79.5826 215.709 79.3688 215.709 79.1053V75.5453C215.709 75.2818 215.923 75.0679 216.186 75.0679C216.45 75.0679 216.664 75.2818 216.664 75.5453V79.1053C216.664 79.3688 216.45 79.5826 216.186 79.5826ZM78.4382 75.769C78.1747 75.769 77.9609 75.5552 77.9609 75.2917V71.7342C77.9609 71.4707 78.1747 71.2569 78.4382 71.2569C78.7018 71.2569 78.9156 71.4707 78.9156 71.7342V75.2942C78.9156 75.5577 78.7018 75.769 78.4382 75.769ZM216.186 72.4626C215.923 72.4626 215.709 72.2488 215.709 71.9853V68.4278C215.709 68.1643 215.923 67.9505 216.186 67.9505C216.45 67.9505 216.664 68.1643 216.664 68.4278V71.9878C216.664 72.2488 216.45 72.4626 216.186 72.4626ZM78.4382 68.6515C78.1747 68.6515 77.9609 68.4377 77.9609 68.1742V64.6142C77.9609 64.3507 78.1747 64.1369 78.4382 64.1369C78.7018 64.1369 78.9156 64.3507 78.9156 64.6142V68.1742C78.9156 68.4377 78.7018 68.6515 78.4382 68.6515ZM216.186 65.3451C215.923 65.3451 215.709 65.1313 215.709 64.8678V61.3078C215.709 61.0443 215.923 60.8305 216.186 60.8305C216.45 60.8305 216.664 61.0443 216.664 61.3078V64.8678C216.664 65.1313 216.45 65.3451 216.186 65.3451ZM78.4382 61.5316C78.1747 61.5316 77.9609 61.3177 77.9609 61.0542V57.4942C77.9609 57.2307 78.1747 57.0095 78.4382 57.0095C78.7018 57.0095 78.9156 57.2158 78.9156 57.4768V61.0518C78.9156 61.3202 78.7018 61.5316 78.4382 61.5316ZM216.186 58.2251C215.923 58.2251 215.709 58.0113 215.709 57.7478V57.4942C215.709 56.5272 215.277 55.5999 214.521 54.951C214.322 54.7795 214.299 54.4787 214.471 54.2798C214.643 54.0809 214.943 54.0586 215.142 54.2301C216.107 55.0604 216.661 56.2512 216.661 57.4967V57.7503C216.664 58.0113 216.45 58.2251 216.186 58.2251ZM80.002 54.8988C79.8578 54.8988 79.7136 54.8342 79.6216 54.7099C79.4625 54.4986 79.5048 54.2003 79.7161 54.0437C80.529 53.4321 81.5035 53.1089 82.5377 53.1089H83.3805C83.644 53.1089 83.8578 53.3227 83.8578 53.5862C83.8578 53.8497 83.644 54.0635 83.3805 54.0635H82.5377C81.7124 54.0635 80.9342 54.3196 80.2903 54.8068C80.2008 54.869 80.1014 54.8988 80.002 54.8988ZM211.515 54.061H207.955C207.692 54.061 207.478 53.8472 207.478 53.5837C207.478 53.3202 207.692 53.1064 207.955 53.1064H211.515C211.779 53.1064 211.992 53.3202 211.992 53.5837C211.992 53.8472 211.779 54.061 211.515 54.061ZM204.398 54.061H200.838C200.574 54.061 200.36 53.8472 200.36 53.5837C200.36 53.3202 200.574 53.1064 200.838 53.1064H204.398C204.661 53.1064 204.875 53.3202 204.875 53.5837C204.875 53.8472 204.661 54.061 204.398 54.061ZM197.278 54.061H193.718C193.454 54.061 193.24 53.8472 193.24 53.5837C193.24 53.3202 193.454 53.1064 193.718 53.1064H197.278C197.541 53.1064 197.755 53.3202 197.755 53.5837C197.755 53.8472 197.541 54.061 197.278 54.061ZM190.16 54.061H186.6C186.337 54.061 186.123 53.8472 186.123 53.5837C186.123 53.3202 186.337 53.1064 186.6 53.1064H190.16C190.424 53.1064 190.637 53.3202 190.637 53.5837C190.637 53.8472 190.424 54.061 190.16 54.061ZM183.04 54.061H179.48C179.217 54.061 179.003 53.8472 179.003 53.5837C179.003 53.3202 179.217 53.1064 179.48 53.1064H183.04C183.304 53.1064 183.518 53.3202 183.518 53.5837C183.518 53.8472 183.304 54.061 183.04 54.061ZM175.923 54.061H172.363C172.099 54.061 171.885 53.8472 171.885 53.5837C171.885 53.3202 172.099 53.1064 172.363 53.1064H175.923C176.186 53.1064 176.4 53.3202 176.4 53.5837C176.4 53.8472 176.186 54.061 175.923 54.061ZM168.803 54.061H165.243C164.979 54.061 164.765 53.8472 164.765 53.5837C164.765 53.3202 164.979 53.1064 165.243 53.1064H168.803C169.066 53.1064 169.28 53.3202 169.28 53.5837C169.28 53.8472 169.066 54.061 168.803 54.061ZM161.685 54.061H158.125C157.862 54.061 157.648 53.8472 157.648 53.5837C157.648 53.3202 157.862 53.1064 158.125 53.1064H161.685C161.949 53.1064 162.163 53.3202 162.163 53.5837C162.163 53.8472 161.949 54.061 161.685 54.061ZM154.565 54.061H151.005C150.742 54.061 150.528 53.8472 150.528 53.5837C150.528 53.3202 150.742 53.1064 151.005 53.1064H154.565C154.829 53.1064 155.043 53.3202 155.043 53.5837C155.043 53.8472 154.829 54.061 154.565 54.061ZM147.448 54.061H143.888C143.624 54.061 143.41 53.8472 143.41 53.5837C143.41 53.3202 143.624 53.1064 143.888 53.1064H147.448C147.711 53.1064 147.925 53.3202 147.925 53.5837C147.923 53.8472 147.711 54.061 147.448 54.061ZM140.328 54.061H136.768C136.504 54.061 136.291 53.8472 136.291 53.5837C136.291 53.3202 136.504 53.1064 136.768 53.1064H140.328C140.591 53.1064 140.805 53.3202 140.805 53.5837C140.805 53.8472 140.591 54.061 140.328 54.061ZM133.21 54.061H129.65C129.387 54.061 129.173 53.8472 129.173 53.5837C129.173 53.3202 129.387 53.1064 129.65 53.1064H133.21C133.474 53.1064 133.688 53.3202 133.688 53.5837C133.685 53.8472 133.474 54.061 133.21 54.061ZM126.09 54.061H122.53C122.267 54.061 122.053 53.8472 122.053 53.5837C122.053 53.3202 122.267 53.1064 122.53 53.1064H126.09C126.354 53.1064 126.568 53.3202 126.568 53.5837C126.568 53.8472 126.354 54.061 126.09 54.061ZM118.973 54.061H115.413C115.149 54.061 114.936 53.8472 114.936 53.5837C114.936 53.3202 115.149 53.1064 115.413 53.1064H118.973C119.236 53.1064 119.45 53.3202 119.45 53.5837C119.448 53.8472 119.236 54.061 118.973 54.061ZM111.853 54.061H108.293C108.029 54.061 107.816 53.8472 107.816 53.5837C107.816 53.3202 108.029 53.1064 108.293 53.1064H111.853C112.116 53.1064 112.33 53.3202 112.33 53.5837C112.33 53.8472 112.116 54.061 111.853 54.061ZM104.735 54.061H101.175C100.912 54.061 100.698 53.8472 100.698 53.5837C100.698 53.3202 100.912 53.1064 101.175 53.1064H104.735C104.999 53.1064 105.213 53.3202 105.213 53.5837C105.21 53.8472 104.996 54.061 104.735 54.061ZM97.6154 54.061H94.0555C93.7919 54.061 93.5781 53.8472 93.5781 53.5837C93.5781 53.3202 93.7919 53.1064 94.0555 53.1064H97.6154C97.879 53.1064 98.0928 53.3202 98.0928 53.5837C98.0928 53.8472 97.879 54.061 97.6154 54.061ZM90.4955 54.061H86.9355C86.672 54.061 86.4582 53.8472 86.4582 53.5837C86.4582 53.3202 86.672 53.1064 86.9355 53.1064H90.4955C90.759 53.1064 90.9728 53.3202 90.9728 53.5837C90.9728 53.8472 90.759 54.061 90.4955 54.061Z" fill="#C0DAFF"/>
<path d="M221.143 118.213H94.5944C91.9294 118.213 89.7715 116.053 89.7715 113.39V41.5862C89.7715 38.9212 91.9318 36.7633 94.5944 36.7633H221.143C223.808 36.7633 225.966 38.9237 225.966 41.5862V113.39C225.968 116.053 223.808 118.213 221.143 118.213Z" fill="#208804"/>
<path d="M225.968 52.1443H89.7715V66.2003H225.968V52.1443Z" fill="#38EF08"/>
<path d="M120.968 102.586H100.943C99.6704 102.586 98.6387 103.617 98.6387 104.89C98.6387 106.163 99.6704 107.195 100.943 107.195H120.968C122.241 107.195 123.273 106.163 123.273 104.89C123.273 103.617 122.241 102.586 120.968 102.586Z" fill="#E3FFDC"/>
<path d="M151.763 102.586H131.738C130.465 102.586 129.434 103.617 129.434 104.89C129.434 106.163 130.465 107.195 131.738 107.195H151.763C153.036 107.195 154.068 106.163 154.068 104.89C154.068 103.617 153.036 102.586 151.763 102.586Z" fill="#E3FFDC"/>
<path d="M182.558 102.586H162.533C161.26 102.586 160.229 103.617 160.229 104.89C160.229 106.163 161.26 107.195 162.533 107.195H182.558C183.831 107.195 184.863 106.163 184.863 104.89C184.863 103.617 183.831 102.586 182.558 102.586Z" fill="#E3FFDC"/>
<path d="M213.355 102.586H193.33C192.057 102.586 191.025 103.617 191.025 104.89C191.025 106.163 192.057 107.195 193.33 107.195H213.355C214.628 107.195 215.659 106.163 215.659 104.89C215.659 103.617 214.628 102.586 213.355 102.586Z" fill="#E3FFDC"/>
<path d="M100.022 40.8951C98.6171 40.8951 97.4785 42.0337 97.4785 43.4383V44.3308C97.4785 45.7354 98.6171 46.874 100.022 46.874C101.426 46.874 102.565 45.7354 102.565 44.3308V43.4383C102.565 42.0337 101.426 40.8951 100.022 40.8951Z" fill="#E3FFDC"/>
<path d="M105.502 43.8857C105.502 45.5365 106.842 46.8764 108.493 46.8764H119.093C120.744 46.8764 122.084 45.5365 122.084 43.8857C122.084 42.235 120.744 40.8951 119.093 40.8951H108.493C106.842 40.8951 105.502 42.235 105.502 43.8857Z" fill="#E3FFDC"/>
<path d="M104.111 73.7603H117.802C119.997 73.7603 121.775 75.5378 121.775 77.733V89.5366C121.775 91.7318 119.997 93.5093 117.802 93.5093H104.111C101.916 93.5093 100.139 91.7318 100.139 89.5366V77.733C100.139 75.5378 101.916 73.7603 104.111 73.7603Z" fill="#FF9F34"/>
<path d="M370.123 101.626C371.721 95.3216 371.982 88.9524 371.07 82.8816L372.999 82.5932L376.808 82.0239L376.855 82.0139C375.821 75.0655 373.447 68.4403 369.892 62.5011L364.875 65.4893C361.655 60.117 357.412 55.3538 352.276 51.58L355.759 46.874C350.329 42.8193 344.007 39.7515 337.034 37.984L335.594 43.6645C329.267 42.0611 322.921 41.805 316.85 42.7174L315.98 36.9324C309.031 37.9641 302.401 40.3606 296.467 43.8957L299.455 48.9125C294.08 52.1319 289.32 56.3756 285.543 61.5092L280.837 58.0263C276.783 63.4558 273.715 69.7777 271.947 76.751L277.628 78.1904C276.024 84.5174 275.766 90.8642 276.678 96.9351L272.584 97.5466L270.913 97.8102L270.891 97.8052C271.925 104.754 274.319 111.384 277.854 117.318L282.871 114.33C286.09 119.702 290.354 124.47 295.49 128.247L292.007 132.953C297.439 137.007 303.738 140.07 310.712 141.838L312.151 136.157C318.478 137.761 324.847 138.024 330.918 137.112L331.587 141.609L331.788 142.897C338.737 141.865 345.347 139.461 351.281 135.928L348.293 130.912C353.665 127.692 358.433 123.429 362.23 118.297L366.936 121.78C370.97 116.343 374.033 110.044 375.798 103.071L370.123 101.626ZM317.514 115.021C303.634 111.503 295.246 97.4223 298.764 83.5429C302.277 69.6833 316.355 61.2979 330.237 64.8156C344.097 68.3284 352.482 82.4067 348.972 96.2663C345.451 110.146 331.371 118.531 317.514 115.021Z" stroke="#B3D1FF" stroke-width="4" stroke-miterlimit="10" stroke-linejoin="round"/>
<path d="M392.446 153.572C390.313 150.892 387.727 148.754 384.891 147.202L385.383 146.303L386.358 144.525L386.368 144.503C383.126 142.723 379.593 141.606 375.969 141.204L375.623 144.259C372.346 143.896 368.998 144.157 365.778 145.107L364.916 142.148C361.485 143.133 358.186 144.803 355.223 147.165L357.144 149.579C354.457 151.72 352.327 154.298 350.773 157.134L348.07 155.655C346.288 158.897 345.182 162.439 344.771 166.054L347.827 166.4C347.464 169.679 347.725 173.025 348.675 176.244L345.716 177.107C346.701 180.538 348.371 183.836 350.733 186.8L353.147 184.878C355.287 187.566 357.865 189.696 360.702 191.25L359.653 193.162L359.23 193.945L359.22 193.952C362.462 195.732 366.005 196.841 369.619 197.251L369.965 194.196C373.241 194.559 376.6 194.29 379.819 193.341L380.682 196.299C384.113 195.314 387.404 193.649 390.365 191.29L388.443 188.876C391.131 186.735 393.271 184.15 394.823 181.313L396.921 182.467L397.525 182.792C399.307 179.551 400.406 176.015 400.814 172.401L397.759 172.055C398.122 168.779 397.853 165.42 396.913 162.193L399.872 161.331C398.88 157.907 397.214 154.616 394.855 151.655L392.446 153.572ZM381.299 179.889C375.402 184.585 366.828 183.615 362.131 177.718C357.443 171.831 358.412 163.257 364.309 158.559C370.196 153.87 378.77 154.84 383.461 160.729C388.158 166.626 387.186 175.2 381.299 179.889Z" stroke="#B3D1FF" stroke-width="4" stroke-miterlimit="10" stroke-linejoin="round"/>
<path d="M174.657 294.219C172.196 291.128 169.21 288.657 165.938 286.867L166.508 285.828L167.634 283.777L167.646 283.75C163.905 281.694 159.828 280.406 155.646 279.944L155.246 283.469C151.465 283.051 147.599 283.352 143.885 284.448L142.89 281.033C138.933 282.169 135.124 284.098 131.706 286.82L133.923 289.605C130.821 292.076 128.362 295.051 126.572 298.323L123.455 296.618C121.399 300.359 120.121 304.446 119.648 308.618L123.174 309.018C122.753 312.802 123.057 316.665 124.153 320.379L120.737 321.373C121.873 325.331 123.803 329.14 126.525 332.558L129.309 330.34C131.78 333.443 134.756 335.902 138.028 337.692L136.817 339.897L136.33 340.802L136.32 340.809C140.061 342.865 144.148 344.143 148.32 344.615L148.72 341.09C152.501 341.51 156.377 341.199 160.091 340.103L161.085 343.519C165.043 342.383 168.842 340.461 172.26 337.739L170.043 334.955C173.145 332.483 175.614 329.5 177.404 326.229L179.825 327.559L180.521 327.934C182.577 324.193 183.845 320.113 184.317 315.944L180.792 315.544C181.21 311.762 180.902 307.887 179.815 304.165L183.231 303.171C182.085 299.22 180.163 295.422 177.441 292.004L174.657 294.219ZM161.792 324.59C154.987 330.01 145.093 328.891 139.671 322.084C134.259 315.29 135.38 305.396 142.184 299.976C148.979 294.564 158.873 295.685 164.285 302.48C169.707 309.284 168.586 319.178 161.792 324.59Z" stroke="#003880" stroke-width="4" stroke-miterlimit="10"/>
<path d="M323.662 89.4024C320.9 73.0493 295.717 65.6658 296.209 76.3383L180.758 77.0145C172.76 77.0618 166.277 84.2563 166.272 93.0892L166.033 396.725C166.026 405.878 172.624 413.361 180.773 413.431L298.63 414.443C299.361 415.979 300.731 417.376 302.889 418.545C316.405 418.833 322.886 412.158 325.256 404.61C326.026 402.584 326.446 400.347 326.427 397.988C325.954 394.035 324.517 93.2358 323.662 89.4024Z" fill="#202020"/>
<path d="M301.626 418.592L166.344 417.719C157.902 417.665 151.075 409.978 151.09 400.561L151.597 88.2986C151.612 79.2172 158.332 71.8386 166.61 71.8138L299.264 71.3837C307.607 71.3564 314.432 78.7224 314.501 87.8462L316.905 401.553C316.98 411.014 310.138 418.647 301.626 418.592Z" fill="white"/>
<path d="M303.495 416.322C302.933 416.397 302.359 416.434 301.784 416.429L166.542 415.405C159.288 415.35 153.359 408.61 153.371 400.392L153.838 88.4726C153.851 80.5447 159.686 74.0736 166.801 74.0437L299.447 73.467C299.654 73.467 299.865 73.4695 300.071 73.4794C303.41 73.6336 306.528 75.155 308.86 77.7579C311.244 80.4179 312.569 83.9431 312.596 87.6895L314.968 401.714C315.027 409.152 310.11 415.435 303.495 416.322Z" fill="black"/>
<path d="M307.945 89.2657L310.227 402.196L157.871 401.284L158.261 89.2657H307.945Z" fill="#38EF08"/>
<path d="M254.937 246.733H214.152C210.701 246.733 207.877 243.909 207.877 240.458C207.877 237.008 210.701 234.183 214.152 234.183H254.937C258.388 234.183 261.212 237.008 261.212 240.458C261.212 243.909 258.39 246.733 254.937 246.733Z" fill="#FF9F34"/>
<path d="M285.965 200.15H180.503C177.053 200.15 174.229 197.326 174.229 193.875C174.229 190.424 177.053 187.6 180.503 187.6H285.965C289.416 187.6 292.24 190.424 292.24 193.875C292.24 197.328 289.416 200.15 285.965 200.15Z" fill="white"/>
<path d="M285.965 220.361H180.503C177.053 220.361 174.229 217.537 174.229 214.086C174.229 210.636 177.053 207.812 180.503 207.812H285.965C289.416 207.812 292.24 210.636 292.24 214.086C292.24 217.537 289.416 220.361 285.965 220.361Z" fill="white"/>
<path d="M200.198 214.641C200.198 215.861 199.208 216.851 197.987 216.851C196.767 216.851 195.777 215.861 195.777 214.641C195.777 213.42 196.767 212.431 197.987 212.431C199.208 212.433 200.198 213.423 200.198 214.641Z" fill="white"/>
<path d="M207.711 215.103C207.965 213.909 207.203 212.736 206.009 212.482C204.815 212.228 203.641 212.99 203.387 214.184C203.134 215.378 203.896 216.551 205.089 216.805C206.283 217.059 207.457 216.297 207.711 215.103Z" fill="white"/>
<path d="M214.694 216.205C215.557 215.341 215.557 213.942 214.694 213.079C213.831 212.216 212.432 212.216 211.569 213.079C210.706 213.942 210.706 215.341 211.569 216.205C212.432 217.068 213.831 217.068 214.694 216.205Z" fill="white"/>
<path d="M222.268 216.204C223.131 215.341 223.131 213.942 222.268 213.079C221.405 212.215 220.006 212.215 219.143 213.079C218.28 213.942 218.28 215.341 219.143 216.204C220.006 217.067 221.405 217.067 222.268 216.204Z" fill="white"/>
<path d="M229.142 216.684C230.269 216.216 230.805 214.924 230.338 213.796C229.871 212.668 228.578 212.133 227.45 212.6C226.322 213.067 225.787 214.36 226.254 215.487C226.721 216.615 228.014 217.151 229.142 216.684Z" fill="white"/>
<path d="M238.009 215.181C238.289 213.993 237.554 212.803 236.366 212.522C235.178 212.242 233.988 212.977 233.707 214.165C233.427 215.353 234.162 216.544 235.35 216.824C236.538 217.104 237.728 216.369 238.009 215.181Z" fill="white"/>
<path d="M244.991 216.204C245.854 215.341 245.854 213.942 244.991 213.079C244.128 212.216 242.729 212.216 241.865 213.079C241.002 213.942 241.002 215.341 241.865 216.204C242.729 217.067 244.128 217.067 244.991 216.204Z" fill="white"/>
<path d="M252.565 216.204C253.428 215.341 253.428 213.941 252.565 213.078C251.702 212.215 250.303 212.215 249.44 213.078C248.577 213.941 248.577 215.341 249.44 216.204C250.303 217.067 251.702 217.067 252.565 216.204Z" fill="white"/>
<path d="M259.439 216.684C260.566 216.217 261.102 214.924 260.635 213.796C260.168 212.668 258.875 212.133 257.747 212.6C256.619 213.067 256.084 214.36 256.551 215.488C257.018 216.615 258.311 217.151 259.439 216.684Z" fill="white"/>
<path d="M250.411 162.943C259.878 153.475 259.878 138.125 250.411 128.657C240.943 119.19 225.593 119.19 216.125 128.657C206.657 138.125 206.657 153.475 216.125 162.943C225.593 172.411 240.943 172.411 250.411 162.943Z" fill="white"/>
<path d="M233.308 144.823C235.674 144.823 237.86 143.67 239.254 141.91C240.286 140.634 240.893 138.996 240.893 137.176C240.893 132.99 237.494 129.529 233.305 129.529C229.057 129.529 225.658 132.99 225.658 137.176C225.658 138.999 226.265 140.637 227.297 141.91C228.694 143.672 230.879 144.823 233.308 144.823Z" fill="#38EF08"/>
<path d="M246.743 158.452C246.743 163.277 219.795 163.277 219.795 158.452L219.802 152.828C220.866 145.139 244.553 144.818 246.748 152.828L246.743 158.452Z" fill="#38EF08"/>
<path d="M185.733 212.928V212.592C185.733 211.23 184.626 210.124 183.264 210.124C181.902 210.124 180.795 211.232 180.795 212.592V212.928H180.42V217.378C180.42 218.146 186.123 218.146 186.123 217.378V212.928H185.733ZM181.675 212.592C181.675 211.737 182.202 210.962 183.264 210.962C184.325 210.962 184.87 211.687 184.87 212.592V212.928H181.675V212.592ZM183.684 215.17V216.456C183.684 216.687 183.485 216.851 183.254 216.851C183.023 216.851 182.859 216.687 182.859 216.456V215.17C182.627 215.039 182.463 214.807 182.463 214.512C182.463 214.084 182.826 213.721 183.254 213.721C183.684 213.721 184.045 214.084 184.045 214.512C184.047 214.807 183.88 215.039 183.684 215.17Z" fill="#4D4D4D"/>
<path d="M183.272 193.42C183.771 193.42 184.231 193.176 184.527 192.806C184.746 192.538 184.873 192.192 184.873 191.807C184.873 190.924 184.154 190.193 183.272 190.193C182.374 190.193 181.658 190.924 181.658 191.807C181.658 192.192 181.785 192.538 182.004 192.806C182.297 193.176 182.757 193.42 183.272 193.42Z" fill="#4D4D4D"/>
<path d="M186.106 196.296C186.106 197.316 180.391 197.316 180.391 196.296L180.42 195.111C180.644 193.487 185.644 193.42 186.106 195.111V196.296Z" fill="#4D4D4D"/>
<path d="M220.212 195.717H197.1C196.088 195.717 195.258 194.889 195.258 193.875C195.258 192.863 196.086 192.033 197.1 192.033H220.212C221.224 192.033 222.055 192.861 222.055 193.875C222.055 194.889 221.224 195.717 220.212 195.717Z" fill="white"/>
<path d="M250.693 195.717H227.58C226.569 195.717 225.738 194.889 225.738 193.875C225.738 192.863 226.566 192.033 227.58 192.033H250.693C251.705 192.033 252.535 192.861 252.535 193.875C252.535 194.889 251.707 195.717 250.693 195.717Z" fill="white"/>
<path d="M202.152 311.469V357.187C202.152 362.268 264.315 362.268 264.315 357.187V311.469H202.152Z" fill="white"/>
<path d="M240.699 330.537C241.673 326.412 239.119 322.279 234.994 321.305C230.869 320.331 226.736 322.885 225.762 327.01C224.788 331.135 227.342 335.268 231.467 336.242C235.592 337.216 239.725 334.662 240.699 330.537Z" fill="#38EF08"/>
<path d="M233.235 351.85C231.497 351.85 230.09 350.44 230.09 348.705V331.101H236.382V348.705C236.382 350.44 234.972 351.85 233.235 351.85Z" fill="#38EF08"/>
<path d="M258.867 308.21H252.575V305.132C252.575 294.467 243.899 285.788 233.234 285.788C222.568 285.788 213.89 294.465 213.89 305.132V308.21H207.598V305.132C207.598 290.997 219.098 279.499 233.231 279.499C247.364 279.499 258.864 290.999 258.864 305.132V308.21H258.867Z" fill="white"/>
<path d="M285.219 256.334C285.219 256.09 285.221 255.983 285.221 255.961C285.219 256.006 285.219 256.334 285.219 256.334Z" fill="#429A20"/>
<path d="M285.219 256.334C285.219 256.09 285.221 255.983 285.221 255.961C285.219 256.006 285.219 256.334 285.219 256.334Z" fill="#429A20"/>
<path d="M429.996 256.983C429.996 256.983 429.999 256.655 429.999 256.61C429.996 256.632 429.996 256.739 429.996 256.983Z" fill="#429A20"/>
<path d="M429.996 256.983C429.996 256.983 429.999 256.655 429.999 256.61C429.996 256.632 429.996 256.739 429.996 256.983Z" fill="#429A20"/>
<path d="M357.875 222.313C341.848 239.479 316.277 253.55 288.91 259.543C288.903 261.371 288.858 271.496 288.649 318.169C288.371 380.429 347.623 410.853 356.824 415.522C365.736 411.42 425.736 381.043 426.015 318.783C426.224 272.11 426.268 261.985 426.276 260.157C398.964 253.92 373.748 239.623 357.875 222.313Z" fill="white"/>
<path d="M357.731 229.065C341.209 244.22 318.32 256.133 293.152 262.626L292.903 318.159C292.789 343.569 302.885 366.554 322.907 386.485C336.063 399.579 349.895 407.701 356.916 411.35C357.217 411.196 357.55 411.024 357.876 410.855V229.197C357.828 229.152 357.779 229.11 357.731 229.065Z" fill="white"/>
<path d="M357.875 229.194V410.853C365.174 407.057 378.439 399.208 391.145 386.788C411.344 367.039 421.646 344.145 421.758 318.733L422.007 263.2C396.968 256.506 374.248 244.436 357.875 229.194Z" fill="#D8D8D8"/>
<path d="M408.304 284.856C389.142 287.812 363.051 305.286 346.588 326.301C344.279 316.391 333.915 307.347 328.493 305.368L312.062 321.883C322.32 326.507 333.532 339.603 335.016 353.013L351.429 355.556C358.347 341.888 376.219 309.192 411.772 291.613C411.091 288.938 408.58 285.239 408.304 284.856Z" fill="#38EF08"/>
<path d="M96.1701 185.164L93.2814 196.779L92.7568 198.939C92.1726 201.684 74.0495 200.515 75.3348 197.306L76.4137 194.942L81.9874 182.713L96.1701 185.164Z" fill="#F7A58E"/>
<path d="M106.766 167.936C106.949 180.53 101.105 190.773 91.9563 190.728C82.8077 190.683 73.9575 182.922 73.6368 167.777C73.4329 158.129 81.1371 150.337 90.2857 150.382C99.4342 150.424 106.624 158.285 106.766 167.936Z" fill="#F7A58E"/>
<path d="M90.5581 146.917C90.5581 146.917 108.788 147.816 110.305 161.624C112.328 173.741 103.237 164.833 99.5252 172.965C95.2741 182.28 99.6073 189.097 105.131 190.947C100.219 197.805 72.1292 197.559 64.9024 185.525C59.9527 170.432 66.9583 147.754 90.5581 146.917Z" fill="black"/>
<path d="M103.341 172.468C103.493 174.337 102.101 175.976 100.231 176.127C98.3618 176.279 96.7235 174.887 96.5718 173.017C96.4202 171.148 97.8124 169.51 99.6819 169.358C101.551 169.206 103.19 170.598 103.341 172.468Z" fill="#F7A58E"/>
<path d="M100.549 406.771C101.405 405.866 105.434 405.851 105.802 407.191C106.17 408.528 105.459 409.485 107.162 411.608C106.183 411.892 102.712 411.917 101.648 411.608C100.584 411.298 99.6942 407.676 100.549 406.771Z" fill="white"/>
<path d="M86.9297 256.251C89.8369 255.783 92.8148 256.173 95.3252 257.556C97.8274 258.933 99.898 261.314 100.979 264.893C103.169 272.145 103.506 278.254 103.625 290.457C103.954 324.4 104.128 369.421 103.223 410.845H94.3428C93.1558 398.775 90.0246 386.264 87.9199 374.196C85.7816 361.936 84.6921 350.089 87.6406 339.343L87.6768 339.21L87.6396 339.076C73.8883 289.766 74.3604 275.314 74.9746 267.96C75.6963 261.537 81.1014 257.189 86.9297 256.251Z" fill="#00050D" stroke="#333333"/>
<path d="M109.215 411.979C107.768 411.902 104.389 410.51 103.753 409.548C102.813 410.597 100.859 410.888 98.4999 410.535C95.713 410.119 95.3451 408.824 93.3463 408.996C92.5036 411.34 90.4501 416.598 92.4315 417.819C92.4315 417.819 104.146 417.819 113.083 417.819C114.925 416.136 114.875 412.543 109.215 411.979Z" fill="white"/>
<path d="M52.8809 407.79C53.3351 407.81 53.7513 407.885 54.0557 408.004C54.3809 408.131 54.4611 408.258 54.4746 408.307V408.308C54.5364 408.533 54.5552 408.749 54.5645 408.997C54.5733 409.234 54.573 409.534 54.6104 409.844C54.6704 410.342 54.8248 410.878 55.2197 411.516C55.1851 411.519 55.1497 411.523 55.1133 411.526C54.7248 411.556 54.2677 411.572 53.8057 411.573C53.3437 411.575 52.8827 411.56 52.4863 411.531C52.0798 411.5 51.7729 411.456 51.6025 411.406C51.5947 411.403 51.5588 411.385 51.5 411.323C51.4337 411.254 51.3577 411.149 51.2793 411.007C51.1222 410.723 50.9825 410.339 50.8857 409.928C50.7891 409.517 50.7423 409.103 50.7568 408.763C50.7725 408.397 50.8542 408.219 50.9053 408.165C50.9756 408.091 51.1931 407.973 51.5957 407.887C51.9725 407.806 52.4301 407.771 52.8809 407.79Z" fill="white" stroke="#333333"/>
<path d="M67.3076 257.092C70.8791 257.018 74.4306 257.825 77.1973 259.561C79.9516 261.289 81.9353 263.939 82.416 267.606C83.402 275.131 83.2194 280.831 81.3564 292.864C76.3778 325.07 63.2542 368.127 53.4258 407.192L52.4854 410.959C52.3709 411.423 51.8823 411.844 50.9658 412.115C50.0768 412.378 48.9266 412.452 47.7891 412.336C46.6494 412.22 45.5754 411.919 44.8252 411.478C44.073 411.035 43.7575 410.53 43.8105 409.999C45.4264 399.205 45.4766 386.422 46.4629 373.919C47.4532 361.365 49.3874 349.029 54.7402 338.92L54.8096 338.787L54.7959 338.638C49.6802 285.242 51.6723 274.404 52.3252 267.238C52.754 264.073 54.6865 261.582 57.4346 259.852C60.1877 258.118 63.7365 257.166 67.3076 257.092Z" fill="#00050D" stroke="#333333"/>
<path d="M53.5938 409.186C53.9895 409.644 54.5408 410.164 55.1367 410.615C55.9349 411.219 56.9232 411.785 57.8008 411.841V411.843C60.5122 412.113 61.9754 413.245 62.5781 414.395C63.1513 415.488 62.982 416.631 62.3574 417.318H42.6338C42.3847 417.113 42.2179 416.758 42.1602 416.203C42.0951 415.578 42.181 414.792 42.3623 413.932C42.6939 412.359 43.3147 410.666 43.7451 409.48C44.4153 409.48 44.86 409.691 45.4424 409.99C46.1398 410.348 46.9898 410.809 48.4688 411.029C50.7518 411.371 52.5285 410.213 53.5938 409.186Z" fill="white" stroke="#333333"/>
<path d="M128.887 186.429L123.803 187.558C123.918 190.233 123.597 194.507 123.803 199.225L132.355 198.099C131.053 193.346 129.797 189.181 128.887 186.429Z" fill="#F7A58E"/>
<path d="M123.803 199.223C123.614 208.572 123.363 212.58 123.286 216.262L97.9138 199.988C90.1823 197.641 81.1655 212.945 90.943 219.849C90.943 219.849 124.733 238.929 132.335 233.433C136.447 230.459 135.381 209.132 132.358 198.094L123.803 199.223Z" fill="white"/>
<path d="M131.186 181.455C128.836 178.7 123.678 179.66 123.285 179.735L123.782 187.354C123.897 191.118 128.565 191.245 130.465 188.001C130.467 188.003 133.222 184.167 131.186 181.455Z" fill="#F7A58E"/>
<path d="M125.782 180.456C124.07 172.155 122.342 173.266 122.342 173.266C122.342 173.266 122.618 176.199 123.393 181.375C123.973 184.309 125.994 182.539 125.782 180.456Z" fill="#F7A58E"/>
<path d="M103.908 221.86C105.631 213.475 106.556 205.196 97.9121 199.991C92.7884 196.903 76.3185 194.7 68.6168 197.249C60.8579 200.717 62.536 215.842 61.0817 239.727C55.7342 251.648 53.4098 255.563 51.8262 267.173C51.8262 267.173 54.6876 275.921 74.8418 275.931C83.9928 275.936 97.4721 275.123 103.603 270.455C102.991 262.537 99.6797 254.909 98.2999 243.7C98.3024 243.7 103.784 222.822 103.908 221.86Z" fill="white"/>
<path d="M64.4812 198.934C55.0219 206.156 45.7962 217.512 41.4357 223.543C37.0753 229.574 25.7812 253.811 25.7812 253.811L32.9683 259.111L52.4115 232.62L76.163 213.137C84.4067 204.724 73.6944 191.901 64.4812 198.934Z" fill="white"/>
<path d="M22.7676 259.959L27.4264 250.333C28.5227 253.226 33.8552 255.869 35.3866 255.812C35.3866 255.812 30.3773 263.021 29.1517 264.247C27.9286 265.47 22.8695 263.397 22.7676 259.959Z" fill="#F7A58E"/>
<path d="M30.3313 262.639C30.3139 262.711 30.3338 262.808 30.3139 262.88C30.0802 266.382 27.3879 268.041 26.6595 268.433C26.6023 268.481 26.5377 268.493 26.473 268.508C29.0063 268.001 29.7645 271.394 28.4768 272.177C24.7502 274.701 19.4376 271.23 18.9876 269.125C18.5302 266.987 22.7763 259.919 22.7763 259.919C24.9416 258.169 30.4855 258.44 30.3313 262.639Z" fill="#F7A58E"/>
<path d="M30.3176 262.877C30.1684 266.835 26.6009 268.466 26.5338 268.478C24.4456 268.421 23.7022 268.294 21.7109 268.299C23.0111 267.665 25.6786 265.977 24.6445 262.703C26.688 261.142 29.7582 262.507 30.3176 262.877Z" fill="#E6856A"/>
<path d="M30.3685 262.427C30.9179 265.696 30.6867 270.353 29.9086 272.401C29.9086 272.401 27.9048 272.506 28.0938 268.722C28.1435 267.737 28.0018 265.599 27.0272 264.886C24.0266 262.905 23.5443 261.085 24.6456 259.593C26.1099 257.607 30.2541 259.625 30.3685 262.427Z" fill="#F7A58E"/>
<path d="M21.0871 271.359C22.7155 272.488 27.0213 274.676 27.7024 274.136C28.3811 273.597 24.938 269.93 22.7155 269.445C20.4905 268.958 20.2543 270.783 21.0871 271.359Z" fill="#F7A58E"/>
</svg>
