<svg width="437" height="374" viewBox="0 0 437 374" fill="none" xmlns="http://www.w3.org/2000/svg">
<path d="M5.68332 91.7684C2.01332 92.3484 -0.496679 95.7884 0.0833205 99.4684L27.8533 275.928C28.4333 279.598 31.8733 282.108 35.5533 281.528L164.063 261.298C167.733 260.718 170.243 257.278 169.663 253.598L146.463 106.208L103.783 76.3184L5.68332 91.7684Z" fill="#F5F5F5"/>
<path d="M113.763 111.358L146.473 106.208L103.793 76.3184L108.733 107.688C109.103 110.098 111.353 111.738 113.763 111.358Z" fill="#D6D6D6"/>
<path d="M103.793 76.3184L108.733 107.688C109.113 110.088 111.363 111.728 113.763 111.348L146.473 106.198" stroke="#262626" stroke-width="0.274" stroke-miterlimit="10" stroke-linecap="round" stroke-linejoin="round"/>
<path d="M76.6426 195.968C75.9326 191.468 75.7126 187.798 75.9626 184.948C76.2126 182.098 77.1526 179.368 78.7726 176.778C79.7026 175.228 80.8126 173.838 82.1026 172.618C83.3926 171.398 84.5626 170.138 85.6126 168.848C86.6526 167.548 87.4926 166.148 88.1126 164.648C88.7326 163.148 88.8726 161.288 88.5226 159.078C87.9326 155.348 86.4926 152.898 84.2026 151.738C81.9126 150.578 79.3526 150.218 76.5326 150.658C72.4926 151.298 69.8926 152.858 68.7226 155.348C67.5526 157.838 67.0726 161.018 67.2926 164.888L52.5526 167.208C51.9626 163.478 52.0426 159.988 52.7826 156.748C53.5226 153.508 54.8426 150.648 56.7626 148.158C58.6726 145.668 61.1226 143.608 64.1026 141.968C67.0826 140.328 70.4826 139.208 74.2926 138.608C82.5226 137.308 89.2826 137.968 94.5726 140.568C99.8626 143.168 103.103 148.248 104.293 155.788C104.673 158.228 104.763 160.398 104.553 162.308C104.343 164.218 103.863 165.988 103.103 167.628C102.343 169.268 101.343 170.848 100.103 172.378C98.8626 173.898 97.4326 175.488 95.8126 177.148C94.3426 178.708 93.1726 180.118 92.3226 181.388C91.4726 182.658 90.8726 183.938 90.5326 185.238C90.1926 186.538 90.0526 187.868 90.1026 189.228C90.1626 190.588 90.3226 192.108 90.5826 193.778L76.6426 195.968ZM79.6526 218.098L77.2926 203.128L92.7226 200.698L95.0826 215.668L79.6526 218.098Z" fill="#D6D6D6"/>
<path d="M152.134 204.818C169.144 221.538 188.934 244.098 207.314 273.258C220.104 293.538 229.584 312.838 236.664 329.818C220.354 337.158 204.054 344.498 187.744 351.828L145.824 209.168L152.134 204.818Z" fill="white"/>
<path d="M121.235 193.278L152.595 203.078C161.185 216.708 166.155 228.778 169.065 237.168C182.635 276.268 178.285 312.048 177.055 322.158C177.055 322.158 177.035 322.328 173.085 351.818H29.6948C29.2248 341.128 29.3148 326.348 31.8348 309.018C34.8248 288.458 37.6048 269.378 50.0448 248.418C55.1048 239.898 72.6948 212.618 106.435 198.348C112.445 195.798 117.655 194.228 121.235 193.278Z" fill="white"/>
<path d="M47.4748 252.978C64.9348 258.578 87.1548 264.078 113.285 266.748C137.615 269.238 159.075 268.648 176.455 267.018C176.955 271.118 177.455 275.218 177.955 279.318C159.385 280.828 137.305 281.288 112.595 279.128C84.9148 276.708 60.9448 271.618 41.4648 266.148C43.4648 261.758 45.4648 257.368 47.4748 252.978Z" fill="#0A0A0A"/>
<path opacity="0.5" d="M182.035 242.008L189.135 243.598L163.265 351.828H148.625L182.035 242.008Z" fill="#B9B9B9"/>
<path d="M124.013 331.098L130.093 329.198L144.033 336.408L147.553 327.878L129.853 321.078L122.633 324.458L124.013 331.098Z" fill="#E8A600"/>
<path opacity="0.5" d="M29.4648 335.618C43.6748 339.168 60.6748 342.348 79.9848 343.898C96.9148 345.248 112.225 345.068 125.455 344.178C125.455 338.748 125.455 333.308 125.455 327.878C93.8948 324.348 62.3448 320.828 30.7848 317.298L29.4648 335.618Z" fill="#B9B9B9"/>
<path d="M133.904 215.818C125.034 214.298 119.084 205.878 120.604 197.008L126.524 162.458L158.634 167.958L152.714 202.508C151.194 211.378 142.774 217.338 133.904 215.818Z" fill="#F7A99C"/>
<path d="M154.365 192.838L135.345 178.438C135.235 180.288 134.945 188.968 141.365 196.128C145.465 200.698 150.325 202.428 152.585 203.078L154.365 192.838Z" fill="#FF7769"/>
<path d="M127.625 151.628C127.615 151.088 126.375 150.058 126.005 149.718C125.375 149.138 124.665 148.638 123.905 148.238C122.425 147.458 120.725 147.038 119.055 147.128C115.725 147.298 112.415 149.488 111.315 152.688C110.675 154.548 110.765 156.598 111.275 158.498C112.045 161.358 113.745 163.938 116.015 165.838C117.895 167.408 120.155 168.508 122.535 169.078C123.015 169.188 127.965 169.938 127.955 169.748C127.845 163.698 127.735 157.658 127.625 151.628Z" fill="#F7A99C"/>
<path d="M123.165 151.188C123.095 153.828 122.975 167.818 133.535 179.568C135.485 181.728 148.415 196.118 163.145 192.788C182.075 188.508 185.225 159.208 185.375 157.618C185.885 152.238 187.385 136.408 175.915 125.808C166.555 117.158 154.675 117.648 152.985 117.748C151.205 117.848 139.835 118.688 131.295 128.198C123.555 136.808 123.285 146.858 123.165 151.188Z" fill="#F7A99C"/>
<path d="M175.375 155.878C175.265 158.188 176.715 160.138 178.625 160.228C180.535 160.318 182.175 158.518 182.285 156.208C182.395 153.898 180.945 151.948 179.035 151.858C177.125 151.768 175.485 153.558 175.375 155.878Z" fill="#262626"/>
<path d="M168.625 158.178L171.005 162.948C171.445 163.828 171.035 164.888 170.125 165.248L166.955 166.488" stroke="#262626" stroke-width="1.7049" stroke-miterlimit="10" stroke-linecap="round" stroke-linejoin="round"/>
<path d="M145.844 164.308C145.714 166.898 147.714 169.108 150.314 169.228C152.904 169.358 155.114 167.358 155.234 164.758C155.364 162.168 153.364 159.958 150.764 159.838C148.174 159.718 145.964 161.718 145.844 164.308Z" fill="#FF7769"/>
<path d="M123.434 162.848C123.534 162.338 124.184 158.908 121.854 155.938C120.034 153.608 117.534 153.038 116.844 152.908" stroke="#262626" stroke-width="1.7049" stroke-miterlimit="10" stroke-linecap="round" stroke-linejoin="round"/>
<path d="M122.004 156.658C121.854 156.608 120.044 156.028 118.504 157.198C117.234 158.168 117.084 159.608 117.064 159.848" stroke="#262626" stroke-width="1.7049" stroke-miterlimit="10" stroke-linecap="round" stroke-linejoin="round"/>
<path d="M181.945 163.098C182.845 163.138 183.655 163.448 184.355 163.918C183.825 166.388 183.065 169.358 181.955 172.468C181.805 172.478 181.645 172.498 181.495 172.488C178.905 172.358 176.905 170.158 177.025 167.568C177.145 164.968 179.355 162.968 181.945 163.098Z" fill="#FF7769"/>
<path d="M156.924 150.908L160.844 155.348L155.234 157.318" stroke="#262626" stroke-width="1.7049" stroke-miterlimit="10" stroke-linecap="round" stroke-linejoin="round"/>
<path d="M155.234 175.958L169.324 177.568C169.284 177.278 168.664 173.118 165.324 171.608C162.044 170.108 157.434 171.758 155.234 175.958Z" fill="white"/>
<path d="M123.315 147.948C124.095 148.248 125.925 149.078 127.375 151.038C128.715 152.838 129.035 154.658 129.135 155.488C143.745 154.098 152.185 149.998 157.265 146.298C157.265 146.298 157.635 146.028 168.345 137.888C170.075 139.748 172.775 142.248 176.595 144.388C180.065 146.328 183.275 147.318 185.625 147.848C193.305 146.058 198.655 140.328 198.835 134.338C199.025 128.028 193.415 123.258 189.435 121.268C182.945 118.028 179.955 121.808 170.425 119.318C162.745 117.308 163.035 114.418 155.835 112.678C153.655 112.148 144.625 109.958 135.545 114.738C127.885 118.768 121.815 126.908 121.215 136.288C120.895 141.418 122.285 145.558 123.315 147.948Z" fill="#262626"/>
<path d="M121.233 193.278C108.343 196.218 84.2434 203.638 61.7934 223.718C61.7934 223.718 39.1634 243.958 23.7334 281.498C22.3634 284.828 20.8334 288.338 19.1434 295.718C17.8334 301.438 17.2434 306.718 17.0534 311.318C16.9134 314.758 19.0334 317.898 22.2734 319.068C25.1234 320.098 28.3934 321.248 32.0234 322.468C38.7534 324.708 53.6734 330.818 70.5734 333.168C105.823 338.058 125.383 339.278 125.383 339.278L127.943 278.438L81.3534 272.538L121.233 193.278Z" fill="white"/>
<path d="M158.883 224.568C164.733 245.038 168.363 262.168 170.653 274.658" stroke="#262626" stroke-miterlimit="10" stroke-linecap="round" stroke-linejoin="round"/>
<path opacity="0.5" d="M97.9447 220.898L71.8047 279.778H87.6247L97.9447 220.898Z" fill="#B9B9B9"/>
<path d="M185.737 243.054L171.613 239.052L140.799 347.808L154.922 351.81L185.737 243.054Z" fill="#38EF08"/>
<path d="M126.933 292.778C126.933 292.778 153.423 290.138 156.243 291.008C159.063 291.878 168.733 297.348 170.103 298.908C171.473 300.468 171.953 301.928 171.763 303.398C171.563 304.858 169.613 306.518 169.613 306.518C171.143 308.898 171.193 310.528 170.873 311.638C170.293 313.608 167.983 315.668 167.953 315.688C168.123 316.298 168.313 317.178 168.363 318.238C168.413 319.248 168.513 321.288 167.503 323.148C166.013 325.908 162.943 326.698 162.263 326.848C162.263 326.848 163.453 329.058 161.893 330.908C160.333 332.758 155.643 335.108 150.083 334.328C144.523 333.548 130.083 326.428 130.083 326.428L125.443 327.878L126.933 292.778Z" fill="#F7A99C"/>
<path opacity="0.5" d="M199.294 242.008C234.889 242.008 263.744 213.153 263.744 177.558C263.744 141.964 234.889 113.108 199.294 113.108C163.699 113.108 134.844 141.964 134.844 177.558C134.844 213.153 163.699 242.008 199.294 242.008Z" fill="#CDEBF5"/>
<path d="M199.295 104.728C159.075 104.728 126.465 137.338 126.465 177.558C126.465 217.778 159.075 250.388 199.295 250.388C239.515 250.388 272.125 217.778 272.125 177.558C272.125 137.338 239.515 104.728 199.295 104.728ZM199.295 238.498C165.635 238.498 138.355 211.218 138.355 177.558C138.355 143.898 165.635 116.618 199.295 116.618C232.945 116.618 260.235 143.898 260.235 177.558C260.235 211.218 232.945 238.498 199.295 238.498Z" fill="#38EF08"/>
<path d="M169.614 306.528C169.614 306.528 159.854 304.708 154.924 302.418C149.994 300.128 148.164 298.868 148.164 298.868" stroke="#262626" stroke-width="1.5" stroke-miterlimit="10" stroke-linecap="round" stroke-linejoin="round"/>
<path d="M167.954 315.698C167.954 315.698 156.644 314.568 152.064 311.928C147.474 309.288 145.834 307.568 145.834 307.568" stroke="#262626" stroke-width="1.5" stroke-miterlimit="10" stroke-linecap="round" stroke-linejoin="round"/>
<path d="M164.224 326.168C159.384 325.978 155.744 324.898 153.204 323.858C148.974 322.118 143.684 318.818 143.684 318.818" stroke="#262626" stroke-width="1.5" stroke-miterlimit="10" stroke-linecap="round" stroke-linejoin="round"/>
<path d="M126.933 292.778L125.453 327.878L130.093 326.428L128.603 292.608L126.933 292.778Z" fill="#FF7769"/>
<path d="M96.1148 224.568C96.1148 224.568 71.8148 277.998 72.4948 279.368C73.1848 280.748 127.945 278.448 127.945 278.448L125.385 339.288C125.385 339.288 82.6248 336.588 65.7048 332.388C48.7848 328.188 29.4648 321.608 29.4648 321.608" stroke="#262626" stroke-miterlimit="10" stroke-linecap="round" stroke-linejoin="round"/>
<path d="M202.615 134.408C202.235 135.248 202.175 136.228 202.525 137.158C203.225 139.028 205.315 139.978 207.185 139.278C210.585 137.998 214.265 137.468 217.835 137.718C221.825 138.008 224.875 139.208 226.345 139.898C228.085 140.718 231.695 142.418 234.395 146.128C238.145 151.298 237.835 157.338 237.525 159.698C237.265 161.678 238.665 163.498 240.645 163.758C242.625 164.018 244.445 162.618 244.705 160.638C245.225 156.638 245.345 148.878 240.255 141.868C236.465 136.648 231.535 134.338 229.425 133.348C227.075 132.248 223.255 130.858 218.365 130.508C213.765 130.178 209.015 130.868 204.645 132.508C203.705 132.858 202.995 133.558 202.615 134.408Z" fill="white"/>
<path d="M75.8523 219.138C67.0123 226.998 55.6623 238.728 45.3023 254.988C34.6623 271.678 28.7723 287.338 25.4023 298.858" fill="#EEEEEE"/>
<path d="M247.063 351.828H138.833C134.613 351.828 131.193 348.408 131.193 344.188V339.298H247.063V351.828Z" fill="#223441"/>
<path d="M327.803 351.828H209.733C205.093 351.828 201.793 347.868 202.363 342.978L211.283 265.978C211.853 261.088 216.073 257.128 220.703 257.128H338.783C343.423 257.128 346.723 261.088 346.153 265.978L337.233 342.978C336.663 347.858 332.443 351.828 327.803 351.828Z" fill="#223441"/>
<path d="M339.203 351.828H221.133C216.493 351.828 213.193 347.868 213.763 342.978L222.683 265.978C223.253 261.088 227.473 257.128 232.103 257.128H350.183C354.823 257.128 358.123 261.088 357.553 265.978L348.633 342.978C348.063 347.858 343.843 351.828 339.203 351.828Z" fill="#285F11"/>
<path d="M357.554 270.408L348.634 343.428C348.634 343.428 349.034 351.828 335.274 351.828C321.514 351.828 258.004 351.828 258.004 351.828C266.324 351.778 295.454 350.578 322.204 328.668C348.904 306.808 355.854 278.558 357.554 270.408Z" fill="#244915"/>
<path d="M355.094 279.778C352.424 288.438 345.924 305.378 330.354 321.208C314.994 336.818 298.424 343.608 289.844 346.458" stroke="#262626" stroke-miterlimit="10" stroke-linecap="round" stroke-linejoin="round"/>
<path d="M285.683 312.178H281.553L284.183 295.448H288.313L285.683 312.178Z" fill="#FEC02D"/>
<path d="M291.103 312.178H286.973L288.783 300.638H292.913L291.103 312.178Z" fill="#FEC02D"/>
<path d="M170.335 115.018C164.375 118.378 149.335 127.908 139.465 147.118C129.625 166.278 130.615 183.998 131.345 190.808" stroke="#262626" stroke-miterlimit="10" stroke-linecap="round" stroke-linejoin="round"/>
<path d="M177.613 317.888L175.293 301.518" stroke="#262626" stroke-miterlimit="10" stroke-linecap="round" stroke-linejoin="round"/>
<path d="M406.522 301.548H251.822C248.272 301.548 245.402 298.678 245.402 295.128V181.868C245.402 178.318 248.272 175.448 251.822 175.448H406.522C410.072 175.448 412.942 178.318 412.942 181.868V295.128C412.942 298.668 410.062 301.548 406.522 301.548Z" fill="#F5F5F5"/>
<path opacity="0.5" d="M412.942 190.038V181.868C412.942 178.318 410.072 175.448 406.522 175.448H251.822C248.272 175.448 245.402 178.318 245.402 181.868V190.038H412.942Z" fill="#D6D6D6"/>
<path d="M254.113 183.508C254.113 184.608 253.223 185.498 252.123 185.498C251.023 185.498 250.133 184.608 250.133 183.508C250.133 182.408 251.023 181.518 252.123 181.518C253.223 181.518 254.113 182.408 254.113 183.508Z" fill="#F5F5F5"/>
<path d="M260.392 183.508C260.392 184.608 259.502 185.498 258.402 185.498C257.302 185.498 256.412 184.608 256.412 183.508C256.412 182.408 257.302 181.518 258.402 181.518C259.502 181.518 260.392 182.408 260.392 183.508Z" fill="#F5F5F5"/>
<path d="M266.812 183.508C266.812 184.608 265.922 185.498 264.822 185.498C263.722 185.498 262.832 184.608 262.832 183.508C262.832 182.408 263.722 181.518 264.822 181.518C265.922 181.518 266.812 182.408 266.812 183.508Z" fill="#F5F5F5"/>
<path opacity="0.5" d="M347.282 219.998V211.818C347.282 209.138 345.112 206.958 342.422 206.958H294.962C292.282 206.958 290.102 209.128 290.102 211.818V219.998V274.468C290.102 277.148 292.272 279.328 294.962 279.328H370.852C373.532 279.328 375.712 277.158 375.712 274.468V224.858C375.712 222.178 373.542 219.998 370.852 219.998H347.282Z" fill="#D6D6D6"/>
<path d="M342.472 231.418L332.912 240.978L323.352 231.418L317.582 237.188L327.142 246.748L317.582 256.308L323.352 262.078L332.912 252.518L342.472 262.078L348.242 256.308L338.682 246.748L348.242 237.188L342.472 231.418Z" fill="#FF8D8D"/>
<path d="M251.822 175.448H406.522C410.072 175.448 412.942 178.318 412.942 181.868V295.128" stroke="#262626" stroke-width="0.274" stroke-miterlimit="10" stroke-linecap="round" stroke-linejoin="round"/>
<path d="M425.474 373.148H10.6639C4.77391 373.148 0.00390625 368.378 0.00390625 362.488C0.00390625 356.598 4.77391 351.828 10.6639 351.828H425.474C431.364 351.828 436.134 356.598 436.134 362.488C436.134 368.378 431.364 373.148 425.474 373.148Z" fill="#38EF08"/>
<path d="M398.363 204.618C397.623 198.768 397.483 193.988 397.923 190.308C398.363 186.628 399.693 183.128 401.903 179.828C403.163 177.858 404.663 176.108 406.383 174.578C408.103 173.048 409.673 171.468 411.083 169.828C412.483 168.188 413.623 166.408 414.493 164.488C415.363 162.568 415.613 160.168 415.253 157.288C414.643 152.428 412.873 149.198 409.953 147.598C407.033 145.998 403.733 145.428 400.063 145.888C394.803 146.548 391.363 148.468 389.753 151.648C388.133 154.828 387.393 158.928 387.513 163.948L368.313 166.358C367.703 161.498 367.943 156.978 369.033 152.808C370.123 148.638 371.953 144.978 374.533 141.838C377.113 138.698 380.363 136.118 384.303 134.108C388.233 132.098 392.683 130.788 397.643 130.168C408.363 128.818 417.093 129.948 423.843 133.528C430.593 137.118 434.583 143.818 435.823 153.648C436.223 156.828 436.243 159.638 435.903 162.108C435.553 164.568 434.863 166.848 433.813 168.948C432.763 171.048 431.403 173.058 429.733 174.978C428.063 176.908 426.143 178.908 423.983 180.988C422.013 182.948 420.443 184.738 419.283 186.338C418.123 187.948 417.293 189.588 416.803 191.258C416.303 192.938 416.073 194.658 416.093 196.408C416.113 198.168 416.263 200.148 416.533 202.328L398.363 204.618ZM401.373 233.418L398.923 213.918L419.013 211.398L421.463 230.898L401.373 233.418Z" fill="#38EF08"/>
<path d="M351.407 109.098C371.492 89.014 371.492 56.4506 351.407 36.3662C331.323 16.2817 298.759 16.2817 278.675 36.3662C258.59 56.4506 258.59 89.014 278.675 109.098C298.759 129.183 331.323 129.183 351.407 109.098Z" fill="#F5F5F5"/>
<path opacity="0.5" d="M344.549 102.24C360.846 85.9432 360.846 59.5214 344.549 43.225C328.253 26.9286 301.831 26.9286 285.535 43.225C269.238 59.5214 269.238 85.9432 285.535 102.24C301.831 118.536 328.253 118.536 344.549 102.24Z" fill="#D6D6D6"/>
<path d="M316.424 43.3584H313.674V77.3184H316.424V43.3584Z" fill="#D6D6D6"/>
<path d="M315.051 74.7957L313.676 77.1772L332.728 88.1772L334.103 85.7957L315.051 74.7957Z" fill="#D6D6D6"/>
</svg>
