<svg width="547" height="530" viewBox="0 0 547 530" fill="none" xmlns="http://www.w3.org/2000/svg">
<path d="M138.268 309.689L137.672 309.066L141.41 305.5L142.006 306.124L138.268 309.689ZM145.737 302.534L145.13 301.921C146.347 300.725 147.563 299.492 148.755 298.252L149.375 298.848C148.179 300.091 146.956 301.332 145.737 302.534ZM152.913 295.065L152.276 294.486C153.419 293.232 154.57 291.933 155.696 290.628L156.348 291.193C155.214 292.502 154.06 293.804 152.913 295.065ZM159.682 287.227L159.018 286.68C160.092 285.371 161.178 284.017 162.239 282.656L162.917 283.186C161.849 284.554 160.761 285.915 159.682 287.227ZM166.056 279.07L165.367 278.556C166.376 277.199 167.399 275.793 168.398 274.384L169.101 274.884C168.095 276.296 167.072 277.705 166.056 279.07ZM172.05 270.626L171.337 270.143C172.302 268.721 173.253 267.287 174.186 265.844L174.91 266.312C173.973 267.759 173.018 269.199 172.05 270.626ZM219.237 264.655C217.649 264.655 216.044 264.349 214.597 263.77L214.917 262.971C216.264 263.508 217.756 263.794 219.237 263.794C219.451 263.773 219.609 263.791 219.795 263.78L219.837 264.642C219.637 264.652 219.399 264.638 219.237 264.655ZM224.956 263.184L224.525 262.44C225.945 261.62 227.13 260.421 227.96 258.971L228.708 259.398C227.802 260.98 226.506 262.289 224.956 263.184ZM177.679 261.941L176.949 261.486C177.855 260.025 178.747 258.554 179.626 257.076L180.367 257.517C179.485 258.999 178.589 260.477 177.679 261.941ZM210.232 260.742C209.074 259.495 208.12 257.993 207.397 256.274L208.189 255.939C208.871 257.565 209.77 258.981 210.862 260.156L210.232 260.742ZM230.134 254.265L229.273 254.248L229.276 254.017C229.276 252.725 229.014 251.461 228.515 250.358C228.384 250.069 228.243 249.79 228.088 249.518L228.839 249.094C229.007 249.39 229.162 249.693 229.3 250.004C229.848 251.216 230.137 252.605 230.137 254.017L230.134 254.265ZM183.312 253.362L182.651 252.808C183.767 251.475 185.004 250.221 186.32 249.08L186.885 249.731C185.603 250.841 184.401 252.064 183.312 253.362ZM206.063 251.175C205.967 250.358 205.915 249.521 205.915 248.684C205.915 247.771 205.974 246.841 206.091 245.918L206.945 246.025C206.832 246.913 206.776 247.809 206.776 248.684C206.776 249.487 206.825 250.29 206.918 251.072L206.063 251.175ZM190.991 246.717L190.536 245.983C191.997 245.077 193.558 244.268 195.173 243.572L195.515 244.364C193.94 245.043 192.417 245.835 190.991 246.717ZM224.773 245.828C223.519 244.874 222.038 244.05 220.374 243.379L220.694 242.579C222.434 243.279 223.981 244.144 225.294 245.143L224.773 245.828ZM200.334 242.683L200.107 241.853C201.788 241.394 203.514 241.053 205.233 240.84L205.34 241.694C203.662 241.904 201.977 242.238 200.334 242.683ZM215.496 241.97C213.863 241.66 212.161 241.48 210.432 241.439L210.452 240.578C212.227 240.623 213.977 240.805 215.654 241.126L215.496 241.97ZM208.134 241.098L207.324 240.809C207.913 239.176 208.678 237.584 209.598 236.079L210.332 236.53C209.443 237.984 208.702 239.52 208.134 241.098ZM213.401 232.485L212.771 231.9C213.022 231.631 213.277 231.366 213.543 231.104C214.504 230.15 215.565 229.247 216.695 228.424L217.205 229.12C216.109 229.922 215.082 230.794 214.149 231.721C213.89 231.969 213.642 232.227 213.401 232.485ZM221.552 226.481L221.17 225.709C222.727 224.937 224.363 224.286 226.034 223.776L226.286 224.6C224.656 225.099 223.065 225.73 221.552 226.481ZM231.267 223.318L231.054 222.484C232.738 222.054 234.413 221.602 236.032 221.141L236.266 221.968C234.64 222.433 232.959 222.884 231.267 223.318ZM241.231 220.486L240.972 219.663C242.633 219.139 244.279 218.595 245.864 218.04L246.15 218.853C244.555 219.411 242.901 219.959 241.231 220.486ZM251.011 217.065L250.701 216.263C252.313 215.636 253.919 214.981 255.469 214.313L255.81 215.102C254.246 215.777 252.634 216.435 251.011 217.065ZM260.526 212.955L260.154 212.18L264.802 209.924L265.177 210.699L260.526 212.955ZM269.825 208.439L269.449 207.664L274.096 205.404L274.472 206.179L269.825 208.439ZM279.119 203.919L278.744 203.144L283.391 200.884L283.767 201.659L279.119 203.919ZM288.414 199.399L288.039 198.624L292.686 196.364L293.062 197.139L288.414 199.399ZM297.709 194.883L297.333 194.107L301.981 191.847L302.356 192.623L297.709 194.883Z" fill="#8DFD6F"/>
<path d="M281.83 34.7249C281.83 34.904 281.83 35.0728 281.851 35.252H395.114C394.821 25.9158 386.691 18.4297 376.724 18.4297C373.527 18.4297 370.53 19.198 367.912 20.5415C368.05 13.2759 364.556 6.31686 358.124 2.58241C348.471 -3.01237 335.845 0.784086 329.934 11.0676C328.156 14.1682 327.177 17.503 326.957 20.8137C322.248 18.6571 316.412 17.3755 310.08 17.3755C294.477 17.3755 281.83 25.1476 281.83 34.7249Z" fill="#D8FFCE"/>
<path d="M189 121.725C189 121.904 189 122.073 189.021 122.252H302.284C301.991 112.916 293.861 105.43 283.894 105.43C280.697 105.43 277.7 106.198 275.082 107.542C275.22 100.276 271.726 93.3169 265.294 89.5824C255.641 83.9876 243.015 87.7841 237.103 98.0676C235.326 101.168 234.347 104.503 234.127 107.814C229.418 105.657 223.582 104.376 217.25 104.376C201.647 104.376 189 112.148 189 121.725Z" fill="#D8FFCE"/>
<path d="M58 69.7249C58 69.904 58 70.0728 58.0207 70.252H171.284C170.991 60.9158 162.861 53.4297 152.894 53.4297C149.697 53.4297 146.7 54.198 144.082 55.5415C144.22 48.2759 140.726 41.3169 134.294 37.5824C124.641 31.9876 112.015 35.7841 106.103 46.0676C104.326 49.1682 103.347 52.503 103.127 55.8137C98.4175 53.6571 92.5816 52.3755 86.2495 52.3755C70.6468 52.3755 58 60.1476 58 69.7249Z" fill="#D8FFCE"/>
<path d="M93.3957 299.392H0L0.0103348 299.058C0.258379 291.155 7.0176 284.964 15.396 284.964C17.7869 284.964 20.1571 285.495 22.2896 286.497C22.3516 280.448 25.4521 274.939 30.4716 272.028C34.2095 269.861 38.6295 269.303 42.9152 270.453C47.5832 271.704 51.521 274.774 54.0048 279.097C55.3829 281.502 56.2028 284.075 56.4474 286.759C60.4264 285.019 65.0945 284.103 69.9865 284.103C82.9262 284.103 93.4508 290.624 93.4508 298.638C93.4508 298.796 93.4508 298.948 93.4302 299.106L93.3957 299.392ZM0.671787 298.748H92.8032C92.8032 298.713 92.8032 298.675 92.8032 298.641C92.8032 290.983 82.5679 284.754 69.9831 284.754C65.0118 284.754 60.2783 285.719 56.2924 287.541L55.8652 287.737L55.8342 287.272C55.6516 284.52 54.8454 281.881 53.4398 279.428C51.0421 275.256 47.2422 272.293 42.7429 271.087C38.6226 269.981 34.3783 270.519 30.792 272.596C25.8311 275.473 22.8201 281.002 22.9338 287.021L22.9441 287.562L22.4618 287.314C20.3018 286.204 17.8592 285.619 15.3926 285.619C7.48613 285.612 1.08519 291.355 0.671787 298.748Z" fill="#8DFD6F"/>
<path d="M450.723 181.03H445.555V180.168H450.723V181.03ZM440.388 181.03H435.22V180.168H440.388V181.03ZM430.053 181.03H424.885V180.168H430.053V181.03ZM419.717 181.03H414.55V180.168H419.717V181.03ZM409.382 181.03H404.215V180.168H409.382V181.03ZM399.047 181.03H393.879V180.168H399.047V181.03ZM388.712 181.03H383.544V180.168H388.712V181.03ZM378.377 181.03H373.209V180.168H378.377V181.03ZM368.041 181.03H362.874V180.168H368.041V181.03ZM357.706 181.03H352.539V180.168H357.706V181.03ZM347.368 181.03C345.583 181.012 343.833 180.716 342.162 180.141L342.441 179.328C344.026 179.869 345.686 180.155 347.378 180.168L347.368 181.03ZM451.343 181.019L451.312 180.158C453 180.096 454.65 179.765 456.221 179.176L456.524 179.982C454.867 180.602 453.128 180.95 451.343 181.019ZM337.504 177.647C336.092 176.568 334.869 175.28 333.87 173.816L334.583 173.33C335.53 174.718 336.691 175.941 338.028 176.964L337.504 177.647ZM461.106 177.357L460.565 176.689C461.875 175.628 463.001 174.374 463.907 172.958L464.631 173.423C463.676 174.918 462.488 176.241 461.106 177.357ZM331.627 169.034C331.21 167.57 331 166.05 331 164.51V163.804H331.861V164.51C331.861 165.968 332.061 167.411 332.454 168.796L331.627 169.034ZM466.736 168.579L465.902 168.365C466.219 167.111 466.381 165.813 466.381 164.507V163.346H467.242V164.507C467.242 165.889 467.073 167.256 466.736 168.579ZM331.861 158.637H331V153.469H331.861V158.637ZM467.242 158.182H466.381V153.014H467.242V158.182ZM331.861 148.301H331V143.134H331.861V148.301ZM467.242 147.847H466.381V142.679H467.242V147.847ZM331.861 137.966H331V132.799H331.861V137.966ZM467.242 137.512H466.381V132.344H467.242V137.512ZM331.861 127.631H331V122.463H331.861V127.631ZM467.242 127.176H466.381V122.009H467.242V127.176ZM331.861 117.296H331V112.128H331.861V117.296ZM467.242 116.841H466.381V111.674H467.242V116.841ZM331.861 106.961H331V103.519C331 102.933 331.031 102.337 331.093 101.752L331.951 101.841C331.892 102.396 331.861 102.961 331.861 103.516V106.961ZM467.242 106.506H466.381V103.519C466.381 102.813 466.333 102.1 466.24 101.4L467.094 101.287C467.194 102.02 467.242 102.771 467.242 103.519V106.506ZM333.274 97.0148L332.488 96.6565C333.226 95.0442 334.214 93.5662 335.427 92.264L336.057 92.8497C334.907 94.0865 333.97 95.4851 333.274 97.0148ZM464.779 96.6151C464.038 95.1096 463.06 93.735 461.878 92.5327L462.491 91.9298C463.738 93.1976 464.768 94.648 465.55 96.2362L464.779 96.6151ZM340.005 89.7767L339.592 89.0222C341.149 88.1678 342.827 87.5753 344.574 87.2618L344.725 88.1093C343.071 88.409 341.483 88.9671 340.005 89.7767ZM457.844 89.57C456.345 88.8052 454.743 88.2884 453.079 88.0369L453.207 87.186C454.964 87.4512 456.655 87.9956 458.237 88.8017L457.844 89.57ZM447.984 87.8612H442.817V87H447.984V87.8612ZM437.649 87.8612H432.481V87H437.649V87.8612ZM427.314 87.8612H422.146V87H427.314V87.8612ZM416.979 87.8612H411.811V87H416.979V87.8612ZM406.643 87.8612H401.476V87H406.643V87.8612ZM396.308 87.8612H391.141V87H396.308V87.8612ZM385.973 87.8612H380.805V87H385.973V87.8612ZM375.638 87.8612H370.47V87H375.638V87.8612ZM365.303 87.8612H360.135V87H365.303V87.8612ZM354.967 87.8612H349.8V87H354.967V87.8612Z" fill="#8DFD6F"/>
<path d="M160.738 274.915C158.247 266.275 152.969 258.699 145.731 253.362L142.823 251.22L145.29 302.289L164.376 287.524L160.738 274.915Z" fill="#FFFCFC"/>
<path d="M222.07 336.643L217.829 328.341C216.754 326.239 214.849 324.682 212.572 324.052L200.098 320.596L168.003 300.105L164.376 287.527L145.29 302.293L145.462 305.879C145.81 313.076 150.223 319.442 156.838 322.298L188.002 335.741L202.816 336.072C207.587 337.718 209.234 341.832 212.197 340.35C213.299 339.799 208.986 332.695 208.986 332.695L216.145 340.595L222.07 336.643Z" fill="#FFBC96"/>
<path d="M167.646 299.795L163.451 304.735L164.205 305.375L168.4 300.435L167.646 299.795Z" fill="#D28572"/>
<path d="M166.249 357.328L189.6 355.267C204.799 353.924 218.021 366.199 218.762 382.339L224.04 497.339L191.829 498.341L166.249 357.328Z" fill="#21540C"/>
<path d="M194.42 497.197L195.405 528.964H243.137L219.6 509.379L218.119 494.073L194.42 497.197Z" fill="white"/>
<path d="M219.006 508.617L208.966 516.353L210.171 517.916L220.211 510.181L219.006 508.617Z" fill="black"/>
<path d="M208.179 509.869L208.198 510.071L208.352 510.202L230.925 529.5H184.9L183.939 497.706L206.741 494.617L208.179 509.869Z" fill="white" stroke="black"/>
<path d="M208.143 508.617L198.103 516.352L199.307 517.916L209.348 510.181L208.143 508.617Z" fill="#202020"/>
<path d="M219.107 500.325H179.606L151.453 413.699L147.512 401.573L91.2226 401.325C87.7466 401.276 84.4186 399.664 81.5937 397.287C75.6096 392.24 72.8535 384.309 73.9387 376.558L78.8755 341.332L162.501 352.205C178.362 354.268 191.167 366.14 194.426 381.791L219.107 500.325Z" fill="#26600F"/>
<path d="M159.115 401.573L151.453 413.699L147.512 401.573H159.115Z" fill="#1B1B43"/>
<path d="M148.776 334.955C148.369 336.585 147.946 338.214 147.512 339.854L144.549 351.95L105.54 350.331L77.4562 349.166C70.0114 348.86 64.6199 341.949 66.1392 334.649L79.2339 271.635C80.9116 260.921 89.6139 252.673 100.407 251.557L132.453 248.26L142.823 251.223C152.945 256.656 152.955 266.499 153.437 272.948C155.559 301.17 152.941 318.264 148.776 334.955Z" fill="#FFFCFC"/>
<path opacity="0.3" d="M122.329 332.94C121.922 334.57 147.946 338.214 147.512 339.854L144.549 351.95L105.541 350.331C91.9122 340.051 86.8067 317.682 81.8389 289.656L122.329 332.94Z" fill="#1B1B43"/>
<path d="M114.577 266.488C116.286 268.321 118.232 269.916 120.406 271.108C122.573 272.3 124.929 273.172 127.372 273.461C129.787 273.778 132.34 273.571 134.459 272.421C136.625 271.342 138.007 269.065 138.265 266.598L138.651 266.623C138.637 267.911 138.314 269.22 137.669 270.381C137.022 271.542 136.033 272.503 134.882 273.168C132.56 274.512 129.808 274.753 127.245 274.429C124.668 274.071 122.187 273.172 119.986 271.828C117.771 270.509 115.835 268.752 114.277 266.733L114.577 266.488Z" fill="#1B1B43"/>
<path d="M154.299 304.987L153.562 304.935C154.271 294.999 153.551 282.79 151.426 268.641L152.16 268.531C154.292 282.732 155.012 294.996 154.299 304.987Z" fill="#1B1B43"/>
<path d="M220.588 340.016H183.885V347.258H220.588V340.016Z" fill="#1B1B43"/>
<path d="M284.12 347.258H210.385L244.291 282.411H318.026L284.12 347.258Z" fill="#8DFD6F"/>
<path d="M122.7 196.416C114.06 187.899 97.7647 191.479 98.0128 205.796C80.2362 210.489 79.2509 229.991 86.4098 239.989L92.5833 240.481L93.9407 233.199L97.5201 240.605L114.801 241.715L122.7 196.416Z" fill="#1B1B43"/>
<path d="M137.142 228.262V255.467C137.142 255.715 137.131 255.95 137.111 256.187C136.687 261.786 131.264 265.747 125.725 264.314C117.556 262.202 111.879 254.813 111.948 246.379L112.086 228.258H137.142V228.262Z" fill="#FFBC96"/>
<path d="M137.142 240.023V255.467C137.142 255.715 137.131 255.95 137.111 256.187C129.831 254.992 121.418 246.569 119.365 237.395L137.142 240.023Z" fill="#1B1B43"/>
<path d="M151.866 230.277C151.49 232.441 150.987 234.652 150.315 236.754C148.142 243.658 144.242 249.383 137.259 248.388C120.846 246.038 111.71 229.13 111.71 229.13L122.937 216.294L130.472 206.162L153.058 215.918C153.061 215.918 153.178 222.822 151.866 230.277Z" fill="#FFBC96"/>
<path d="M116.567 224.806C123.771 224.575 129.342 220.906 131.708 210.489C131.708 210.489 148.496 224.972 156.726 217.238C163.617 210.761 151.927 195.857 132.576 194.08C125.528 193.432 118.5 195.634 112.977 200.06C103.6 207.574 102.701 225.054 111.469 231.104L116.567 224.806Z" fill="#1B1B43"/>
<path d="M108.134 206.537C107.662 204.835 108.013 202.951 108.775 201.328C109.546 199.695 110.735 198.269 112.154 197.167C113.574 196.061 115.241 195.272 116.991 194.903C118.738 194.545 120.591 194.6 122.203 195.303C120.536 195.84 119.096 196.409 117.739 197.108C116.385 197.8 115.138 198.603 113.966 199.506C112.798 200.412 111.713 201.418 110.738 202.558C109.756 203.705 108.895 204.963 108.134 206.537Z" fill="#FFFCFC"/>
<path d="M116.926 232.27C119.806 231.117 121.011 227.362 119.618 223.882C118.225 220.402 114.762 218.516 111.882 219.668C109.003 220.82 107.798 224.576 109.191 228.056C110.584 231.535 114.047 233.422 116.926 232.27Z" fill="#FFBC96"/>
<path d="M114.407 229.688C114.531 228.486 114.538 227.345 114.19 226.302C113.849 225.251 113.184 224.334 112.416 223.394L112.657 223.094C113.773 223.676 114.721 224.717 115.124 226.002C115.53 227.287 115.355 228.686 114.776 229.802L114.407 229.688Z" fill="#1B1B43"/>
<path d="M141.382 226.047C141.382 227.066 140.634 227.893 139.714 227.893C138.794 227.893 138.047 227.066 138.047 226.047C138.047 225.027 138.794 224.2 139.714 224.2C140.634 224.2 141.382 225.027 141.382 226.047Z" fill="#1B1B43"/>
<path d="M150.139 227.5C150.029 228.399 149.278 229.051 148.465 228.951C147.652 228.851 147.08 228.038 147.19 227.139C147.301 226.239 148.052 225.588 148.865 225.688C149.681 225.788 150.25 226.598 150.139 227.5Z" fill="#1B1B43"/>
<path d="M141.299 221.413C141.365 222.274 139.987 222.357 137.954 222.419C135.921 222.481 134.516 223.108 134.502 222.564C134.488 222.019 135.99 220.617 137.995 220.279C140.059 219.925 141.216 220.386 141.299 221.413Z" fill="#1B1B43"/>
<path d="M147.794 222.243C147.646 223.094 148.658 223.311 150.16 223.576C151.662 223.838 152.634 224.603 152.71 224.066C152.786 223.528 151.831 221.985 150.381 221.447C148.886 220.889 147.973 221.23 147.794 222.243Z" fill="#1B1B43"/>
<path d="M145.375 229.033C145.761 229.505 146.188 229.912 146.629 230.332L147.294 230.952C147.525 231.162 147.773 231.39 147.996 231.738C148.107 231.913 148.193 232.141 148.207 232.396C148.227 232.654 148.145 232.902 148.041 233.095C147.814 233.478 147.542 233.701 147.245 233.898C146.656 234.287 146.016 234.446 145.399 234.566L145.254 234.208C145.785 233.863 146.315 233.557 146.725 233.202C146.922 233.026 147.115 232.813 147.183 232.651C147.259 232.485 147.239 232.43 147.146 232.237C146.925 231.879 146.367 231.397 146.002 230.897C145.602 230.401 145.244 229.836 145.03 229.216L145.375 229.033Z" fill="#1B1B43"/>
<path d="M137.017 235.11C138.026 236.261 139.077 237.326 140.341 238.004C141.595 238.7 143.028 238.897 144.541 238.731L144.644 239.103C143.914 239.427 143.09 239.603 142.257 239.555C141.423 239.52 140.6 239.269 139.876 238.866C138.419 238.056 137.344 236.747 136.696 235.317L137.017 235.11Z" fill="#1B1B43"/>
<path opacity="0.2" d="M131.095 234.063C133.346 234.063 135.171 232.239 135.171 229.988C135.171 227.737 133.346 225.912 131.095 225.912C128.844 225.912 127.02 227.737 127.02 229.988C127.02 232.239 128.844 234.063 131.095 234.063Z" fill="#FE5B52"/>
<path opacity="0.2" d="M151.865 230.277C151.49 232.441 150.987 234.652 150.315 236.754C149.685 236.034 149.299 235.093 149.299 234.056C149.299 232.341 150.363 230.88 151.865 230.277Z" fill="#FE5B52"/>
<path d="M105.378 278.46L81.8418 289.653L89.2211 307.15L113.902 295.771L105.378 278.46Z" fill="#FFFCFC"/>
<path d="M192.559 339.148C191.908 338.821 191.498 338.604 191.498 338.604L191.732 338.139C191.732 338.139 192.166 338.349 192.797 338.686L192.559 339.148Z" fill="#E7FFE1"/>
<path d="M202.319 341.58C201.557 343.082 195.732 340.426 193.017 339.093C195.122 340.257 198.746 342.548 197.134 343.802C195.839 344.801 192.976 342.676 183.595 338.786C185.018 339.458 193.399 343.448 191.288 344.96C188.986 346.6 179.113 342.986 179.113 342.986L170.552 347.588H160.678L125.146 347.816C122.913 347.826 120.702 347.54 118.559 346.986C114.342 345.911 110.373 343.816 107.004 341.001C104.882 339.224 103.053 337.14 101.523 334.849C100.379 333.13 99.4009 331.283 98.5913 329.357L89.2207 307.157L113.898 295.771L126.775 321.912L169.239 331.135L181.09 328.172C183.64 327.531 187.243 328.606 189.486 329.981C194.953 333.326 203.028 340.147 202.319 341.58Z" fill="#FFBC96"/>
<path opacity="0.2" d="M119.2 343.31C119.2 344.605 118.973 345.838 118.559 346.982C114.343 345.907 110.374 343.813 107.005 340.998C104.882 339.22 103.053 337.136 101.523 334.845C103.391 333.343 105.761 332.444 108.338 332.444C114.339 332.447 119.2 337.305 119.2 343.31Z" fill="#FE5B52"/>
<path d="M169.178 330.945C172.123 329.967 175.107 329.123 178.152 328.486C179.675 328.172 181.215 327.917 182.786 327.824C183.571 327.779 184.367 327.797 185.17 327.886C185.566 327.965 185.962 328.069 186.358 328.162C186.734 328.296 187.102 328.448 187.474 328.589C190.365 329.898 192.88 331.772 195.315 333.698C197.748 335.638 200.046 337.722 202.278 339.892L202.381 339.992L202.402 340.12C202.481 340.588 202.426 341.019 202.168 341.456C202.009 341.639 201.844 341.842 201.63 341.928C201.424 342.059 201.217 342.111 201.014 342.142C200.194 342.276 199.481 342.107 198.795 341.925C197.42 341.546 196.197 340.919 194.961 340.316C193.751 339.668 192.559 338.996 191.405 338.273C190.231 337.577 189.114 336.798 187.971 336.058L188.494 335.224C190.513 336.423 192.48 337.68 194.358 339.107C195.291 339.83 196.215 340.571 197.007 341.539C197.196 341.797 197.389 342.056 197.52 342.407C197.593 342.572 197.634 342.783 197.637 343.01C197.62 343.248 197.544 343.499 197.382 343.685C197.072 344.043 196.697 344.167 196.38 344.243C196.049 344.329 195.743 344.347 195.429 344.378L195.333 344.388L195.226 344.343L184.505 339.851L184.825 339.096C186.513 339.875 188.157 340.712 189.724 341.742C190.489 342.29 191.292 342.783 191.857 343.727C191.984 343.964 192.077 344.329 191.946 344.67C191.812 345.001 191.55 345.211 191.309 345.325C190.813 345.577 190.313 345.628 189.834 345.656C187.912 345.701 186.107 345.249 184.319 344.808C182.534 344.336 180.777 343.782 179.044 343.151L179.175 342.789C180.908 343.368 182.672 343.882 184.446 344.305C186.217 344.701 188.039 345.094 189.8 345.005C190.64 344.97 191.64 344.602 191.233 344.047C190.847 343.399 190.051 342.848 189.321 342.362C187.805 341.394 186.155 340.581 184.501 339.847L184.822 339.093L195.581 343.489L195.377 343.454C195.643 343.423 195.915 343.41 196.149 343.341C196.39 343.289 196.587 343.182 196.652 343.1C196.804 343.041 196.6 342.51 196.263 342.111C195.581 341.281 194.678 340.547 193.772 339.854C191.943 338.476 189.979 337.229 187.995 336.068L188.518 335.234C189.655 335.961 190.754 336.747 191.912 337.436C193.052 338.156 194.216 338.821 195.398 339.458C196.59 340.047 197.796 340.664 199.043 341.012C199.656 341.188 200.307 341.312 200.828 341.222L201.017 341.188C201.076 341.17 201.11 341.136 201.162 341.115C201.275 341.081 201.31 340.991 201.389 340.936C201.486 340.788 201.527 340.512 201.496 340.312L201.62 340.54C199.436 338.387 197.134 336.32 194.764 334.366C192.387 332.43 189.907 330.553 187.171 329.271L186.127 328.858C185.773 328.771 185.418 328.672 185.059 328.592C184.326 328.499 183.571 328.475 182.813 328.506C181.294 328.568 179.771 328.778 178.259 329.057C175.234 329.619 172.24 330.394 169.295 331.3L169.178 330.945Z" fill="#D28572"/>
<path d="M89.3726 307.491L89.0625 306.82L113.412 295.585L103.27 271.849L103.952 271.556L114.377 295.954L89.3726 307.491Z" fill="#1B1B43"/>
<path d="M92.8554 411.45H91.5635V522.712H92.8554V411.45Z" fill="white"/>
<path d="M123.317 416.386H61.1022C56.8751 416.386 53.4473 412.959 53.4473 408.732C53.4473 404.504 56.8751 401.077 61.1022 401.077H123.317C127.544 401.077 130.972 404.504 130.972 408.732C130.972 412.959 127.544 416.386 123.317 416.386Z" fill="#8DFD6F"/>
<path d="M118.38 529.953H66.0391V528.689C66.0391 522.333 71.1929 517.182 77.5456 517.182H106.87C113.226 517.182 118.376 522.336 118.376 528.689V529.953H118.38Z" fill="#8DFD6F"/>
<path d="M167.501 354.067L166.408 354.756L276.687 529.557L277.78 528.868L167.501 354.067Z" fill="white"/>
<path d="M276.677 354.085L166.356 528.844L167.449 529.534L277.769 354.774L276.677 354.085Z" fill="white"/>
<path d="M318.683 347.258H125.456V361.83H318.683V347.258Z" fill="white"/>
<path d="M331.38 203.138C309.114 203.138 291 185.024 291 162.758C291 140.493 309.114 122.378 331.38 122.378C353.645 122.378 371.759 140.493 371.759 162.758C371.759 185.024 353.645 203.138 331.38 203.138ZM331.38 123.236C309.59 123.236 291.861 140.965 291.861 162.755C291.861 184.545 309.59 202.273 331.38 202.273C353.17 202.273 370.898 184.545 370.898 162.755C370.898 140.965 353.17 123.236 331.38 123.236Z" fill="#8DFD6F"/>
<path d="M358.685 190.87C382.95 190.87 402.62 171.199 402.62 146.935C402.62 122.67 382.95 103 358.685 103C334.42 103 314.75 122.67 314.75 146.935C314.75 171.199 334.42 190.87 358.685 190.87Z" fill="#D8FFCE"/>
<path d="M358.702 147.765L334.342 128.673L335.141 127.656L358.667 146.101L371.79 134.991L372.623 135.976L358.702 147.765Z" fill="#1B1B43"/>
<path d="M54.9449 153.48H32.6346C29.0449 153.48 26.1338 156.391 26.1338 159.981V182.291C26.1338 185.881 29.0449 188.792 32.6346 188.792H48.5577L55.4168 198.266V188.768C58.7861 188.526 61.4457 185.722 61.4457 182.291V159.981C61.4457 156.391 58.5346 153.48 54.9449 153.48Z" fill="white"/>
<path d="M55.8474 199.595L48.3372 189.222H32.6346C28.814 189.222 25.7031 186.111 25.7031 182.291V159.981C25.7031 156.16 28.814 153.049 32.6346 153.049H54.9448C58.7654 153.049 61.8763 156.16 61.8763 159.981V182.291C61.8763 185.77 59.2581 188.709 55.8474 189.157V199.595ZM32.6346 153.91C29.286 153.91 26.5644 156.632 26.5644 159.981V182.291C26.5644 185.639 29.286 188.361 32.6346 188.361H48.7782L54.9862 196.936V188.364L55.3858 188.337C58.5415 188.11 61.015 185.453 61.015 182.291V159.981C61.015 156.632 58.2934 153.91 54.9448 153.91H32.6346Z" fill="#8DFD6F"/>
<path d="M43.331 182.618L34.4014 169.72L36.5235 168.245L43.0967 177.74L52.9944 160.025L55.2509 161.286L43.331 182.618Z" fill="#8DFD6F"/>
<path d="M546.691 528.661H17.377V529.953H546.691V528.661Z" fill="white"/>
</svg>
