<svg width="572" height="604" viewBox="0 0 572 604" fill="none" xmlns="http://www.w3.org/2000/svg">
<path d="M151.273 575.85C131.496 575.85 115.46 559.817 115.46 540.037V491.217H187.084V540.037C187.084 559.817 171.05 575.85 151.273 575.85Z" fill="#38EF08"/>
<path d="M115.46 528.112H111.491V603.89H115.46V528.112Z" fill="white"/>
<path d="M191.053 528.112H187.084V603.89H191.053V528.112Z" fill="white"/>
<path d="M160.677 528.112H156.708V603.89H160.677V528.112Z" fill="white"/>
<path d="M187.269 575.85H111.491V579.82H187.269V575.85Z" fill="white"/>
<path d="M207.046 410.56C211.368 416.784 202.669 422.15 201.313 430.779C199.957 439.409 209.841 444.263 199.359 455.56C192.903 462.519 187.451 453.277 182.204 463.941C176.957 474.606 181.091 476.404 175.193 480.241C164.91 486.93 149.177 472.146 154.468 461.493C159.758 450.84 170.464 451.794 165.511 443.028C160.559 434.263 158.718 430.487 167.258 425.983C177.827 420.409 187.139 425.529 187.992 417.374C188.839 409.221 201.33 402.326 207.046 410.56Z" fill="#FFCA59"/>
<path d="M161.866 490.729L160.088 490.376C168.42 448.258 196.046 418.767 196.323 418.472L197.639 419.721C197.364 420.01 170.094 449.143 161.866 490.729Z" fill="#0E0E0E"/>
<path d="M68.5368 395.001C64.0674 404.107 76.6604 409.458 80.1874 420.606C83.7143 431.753 70.7252 435.691 86.8684 448.535C96.8133 456.445 98.8919 451.502 102.549 469.197C105.767 484.776 117.605 469.952 126.457 479.096C137.879 490.894 155.728 464.999 146.584 451.967C137.44 438.934 126.769 442.305 131.56 429.709C136.35 417.116 130.638 407.625 118.432 403.384C103.324 398.131 97.8916 410.811 95.1249 400.19C92.3583 389.566 74.4459 382.954 68.5368 395.001Z" fill="#ED5A24"/>
<path d="M144.445 492.001C125.183 438.593 83.2463 405.558 82.8271 405.229L84.316 403.312C84.7439 403.645 127.229 437.116 146.729 491.177L144.445 492.001Z" fill="#0E0E0E"/>
<path d="M196.931 344.157C281.522 344.157 350.097 275.583 350.097 190.991C350.097 106.4 281.522 37.8253 196.931 37.8253C112.339 37.8253 43.7646 106.4 43.7646 190.991C43.7646 275.583 112.339 344.157 196.931 344.157Z" stroke="#65FD3D" stroke-width="3.73" stroke-miterlimit="10" stroke-dasharray="13.1 13.1"/>
<path d="M235.71 180.937C235.871 179.743 235.984 178.531 235.984 177.291C235.984 162.382 223.9 150.298 208.991 150.298C197.806 150.298 188.211 157.101 184.117 166.791C180.784 163.822 176.404 162.004 171.591 162.004C161.172 162.004 152.727 170.448 152.727 180.867H149.206C139.189 180.867 130.993 189.063 130.993 199.08C130.993 209.097 139.189 217.293 149.206 217.293H234.365C244.382 217.293 252.578 209.097 252.578 199.08C252.578 189.517 245.102 181.633 235.71 180.937Z" fill="white"/>
<path d="M252.46 379.06H138.443C134.607 379.06 131.496 375.949 131.496 372.113V276.46C131.496 272.623 134.607 269.513 138.443 269.513H252.46C256.296 269.513 259.407 272.623 259.407 276.46V372.113C259.407 375.949 256.296 379.06 252.46 379.06Z" fill="#38EF08"/>
<path d="M234.178 335.658H157.065C154.541 335.658 152.477 333.594 152.477 331.07C152.477 328.546 154.541 326.482 157.065 326.482H234.175C236.699 326.482 238.763 328.546 238.763 331.07C238.766 333.591 236.699 335.658 234.178 335.658Z" fill="white"/>
<path d="M234.178 350.433H157.065C154.541 350.433 152.477 348.369 152.477 345.846C152.477 343.322 154.541 341.258 157.065 341.258H234.175C236.699 341.258 238.763 343.322 238.763 345.846C238.766 348.369 236.699 350.433 234.178 350.433Z" fill="white"/>
<path d="M171.464 346.253C171.464 347.146 170.741 347.869 169.848 347.869C168.954 347.869 168.231 347.146 168.231 346.253C168.231 345.36 168.954 344.637 169.848 344.637C170.741 344.637 171.464 345.36 171.464 346.253Z" fill="#1B2618"/>
<path d="M177.004 346.253C177.004 347.146 176.281 347.869 175.388 347.869C174.494 347.869 173.771 347.146 173.771 346.253C173.771 345.36 174.494 344.637 175.388 344.637C176.281 344.637 177.004 345.36 177.004 346.253Z" fill="#1B2618"/>
<path d="M182.539 346.253C182.539 347.146 181.816 347.869 180.923 347.869C180.029 347.869 179.307 347.146 179.307 346.253C179.307 345.36 180.029 344.637 180.923 344.637C181.816 344.637 182.539 345.36 182.539 346.253Z" fill="#1B2618"/>
<path d="M188.078 346.253C188.078 347.146 187.355 347.869 186.462 347.869C185.568 347.869 184.846 347.146 184.846 346.253C184.846 345.36 185.568 344.637 186.462 344.637C187.355 344.637 188.078 345.36 188.078 346.253Z" fill="#1B2618"/>
<path d="M193.618 346.253C193.618 347.146 192.895 347.869 192.002 347.869C191.108 347.869 190.386 347.146 190.386 346.253C190.386 345.36 191.108 344.637 192.002 344.637C192.892 344.637 193.618 345.36 193.618 346.253Z" fill="#1B2618"/>
<path d="M199.154 346.253C199.154 347.146 198.431 347.869 197.538 347.869C196.645 347.869 195.922 347.146 195.922 346.253C195.922 345.36 196.645 344.637 197.538 344.637C198.431 344.637 199.154 345.36 199.154 346.253Z" fill="#1B2618"/>
<path d="M204.693 346.253C204.693 347.146 203.97 347.869 203.077 347.869C202.184 347.869 201.461 347.146 201.461 346.253C201.461 345.36 202.184 344.637 203.077 344.637C203.97 344.637 204.693 345.36 204.693 346.253Z" fill="#1B2618"/>
<path d="M210.229 346.253C210.229 347.146 209.506 347.869 208.613 347.869C207.72 347.869 206.997 347.146 206.997 346.253C206.997 345.36 207.72 344.637 208.613 344.637C209.506 344.637 210.229 345.36 210.229 346.253Z" fill="#1B2618"/>
<path d="M215.768 346.253C215.768 347.146 215.045 347.869 214.152 347.869C213.259 347.869 212.536 347.146 212.536 346.253C212.536 345.36 213.259 344.637 214.152 344.637C215.045 344.637 215.768 345.36 215.768 346.253Z" fill="#1B2618"/>
<path d="M195.646 313.64C205.435 313.64 213.371 305.705 213.371 295.916C213.371 286.127 205.435 278.191 195.646 278.191C185.857 278.191 177.922 286.127 177.922 295.916C177.922 305.705 185.857 313.64 195.646 313.64Z" fill="white"/>
<path d="M195.673 295.204C197.402 295.204 199.001 294.36 200.021 293.074C200.776 292.143 201.218 290.943 201.218 289.613C201.218 286.552 198.732 284.022 195.67 284.022C192.565 284.022 190.079 286.552 190.079 289.613C190.079 290.946 190.521 292.143 191.276 293.074C192.299 294.36 193.898 295.204 195.673 295.204Z" fill="#38EF08"/>
<path d="M205.496 305.167C205.496 308.697 185.791 308.697 185.791 305.167L185.797 301.056C186.574 295.436 203.894 295.199 205.499 301.056L205.496 305.167Z" fill="#38EF08"/>
<path d="M160.888 344.998V344.753C160.888 343.758 160.079 342.949 159.084 342.949C158.09 342.949 157.28 343.758 157.28 344.753V344.998H157.006V348.251C157.006 348.812 161.175 348.812 161.175 348.251V344.998H160.888ZM157.922 344.753C157.922 344.128 158.307 343.562 159.084 343.562C159.859 343.562 160.258 344.094 160.258 344.753V344.998H157.922V344.753ZM159.391 346.638V347.577C159.391 347.745 159.246 347.866 159.079 347.866C158.911 347.866 158.79 347.745 158.79 347.577V346.638C158.622 346.542 158.5 346.372 158.5 346.155C158.5 345.843 158.766 345.577 159.079 345.577C159.391 345.577 159.657 345.843 159.657 346.155C159.657 346.372 159.535 346.542 159.391 346.638Z" fill="#38EF08"/>
<path d="M159.088 330.734C159.452 330.734 159.79 330.555 160.004 330.286C160.163 330.09 160.256 329.838 160.256 329.555C160.256 328.91 159.732 328.375 159.085 328.375C158.429 328.375 157.905 328.91 157.905 329.555C157.905 329.835 157.998 330.09 158.157 330.286C158.376 330.558 158.715 330.734 159.088 330.734Z" fill="#38EF08"/>
<path d="M161.164 332.839C161.164 333.585 156.983 333.585 156.983 332.839L157.007 331.972C157.171 330.787 160.825 330.734 161.164 331.972V332.839Z" fill="#38EF08"/>
<path d="M186.097 332.414H169.2C168.46 332.414 167.853 331.807 167.853 331.067C167.853 330.327 168.46 329.72 169.2 329.72H186.097C186.837 329.72 187.445 330.327 187.445 331.067C187.445 331.81 186.84 332.414 186.097 332.414Z" fill="#1B2618"/>
<path d="M208.387 332.414H191.49C190.75 332.414 190.143 331.807 190.143 331.067C190.143 330.327 190.75 329.72 191.49 329.72H208.387C209.128 329.72 209.735 330.327 209.735 331.067C209.732 331.81 209.128 332.414 208.387 332.414Z" fill="#1B2618"/>
<path d="M201.272 364.75H185.959C183.788 364.75 182.027 362.989 182.027 360.818C182.027 358.647 183.788 356.886 185.959 356.886H201.272C203.444 356.886 205.204 358.647 205.204 360.818C205.204 362.989 203.444 364.75 201.272 364.75Z" fill="#32B210"/>
<path d="M76.2158 205.056C76.2158 205.056 76.2158 204.885 76.2158 204.862C76.2187 204.874 76.2187 204.929 76.2158 205.056Z" fill="#D8FFCE"/>
<path d="M76.2158 205.056C76.2158 205.056 76.2158 204.885 76.2158 204.862C76.2187 204.874 76.2187 204.929 76.2158 205.056Z" fill="#D8FFCE"/>
<path d="M38.6817 184.354C29.899 193.764 15.8807 201.474 0.882393 204.761C0.876611 205.761 0.853483 211.312 0.737845 236.894C0.584624 271.019 33.0617 287.694 38.1035 290.252C42.9892 288.003 75.8739 271.354 76.0271 237.229C76.1428 211.65 76.1659 206.099 76.1717 205.096C61.2023 201.676 47.3806 193.842 38.6817 184.354Z" fill="white"/>
<path d="M38.5923 190.52C29.9917 198.41 18.0722 204.614 4.97041 207.993L4.84032 236.906C4.7825 250.135 10.0354 262.103 20.4631 272.479C27.3118 279.296 34.516 283.525 38.1702 285.425C38.3263 285.344 38.4998 285.254 38.6703 285.167V190.59C38.6414 190.566 38.6154 190.543 38.5923 190.52Z" fill="#4AC928"/>
<path d="M38.668 190.589V285.167C42.4667 283.19 49.3761 279.105 55.9906 272.638C66.5079 262.357 71.8706 250.435 71.9285 237.206L72.0586 208.294C59.0203 204.807 47.1934 198.522 38.668 190.589Z" fill="#65FD3D"/>
<path d="M23.4414 232.26V254.659C23.4414 257.154 53.8948 257.154 53.8948 254.659V232.26H23.4414ZM40.209 244.156V250.505C40.209 251.349 39.5209 252.051 38.6768 252.051C37.8182 252.051 37.1301 251.349 37.1301 250.505V244.142C35.8263 243.555 34.9098 242.236 34.9098 240.716C34.9098 238.637 36.6011 236.96 38.6797 236.96C40.7583 236.96 42.435 238.637 42.435 240.716C42.4292 242.248 41.5273 243.566 40.209 244.156Z" fill="white"/>
<path d="M51.229 230.664H48.1472V229.155C48.1472 223.928 43.8946 219.678 38.6706 219.678C33.4438 219.678 29.1941 223.931 29.1941 229.155V230.664H26.1123V229.155C26.1123 222.228 31.7468 216.594 38.6735 216.594C45.5974 216.594 51.2319 222.228 51.2319 229.155V230.664H51.229Z" fill="white"/>
<path d="M264.081 0H209.072V68.6632H264.081V0Z" fill="#4AC928"/>
<path d="M271.216 7.09152H216.207V75.7547H271.216V7.09152Z" fill="white" stroke="#38EF08" stroke-width="6.3406" stroke-miterlimit="10"/>
<path d="M280.277 14.0529H225.268V82.7161H280.277V14.0529Z" fill="white" stroke="#38EF08" stroke-width="6.3406" stroke-miterlimit="10"/>
<path d="M286.869 21.1444H231.859V89.8076H286.869V21.1444Z" fill="#38EF08"/>
<path d="M278.308 32.4164H249.855V36.8829H278.308V32.4164Z" fill="#38EF08"/>
<path d="M278.308 42.9077H241.439V47.3742H278.308V42.9077Z" fill="#38EF08"/>
<path d="M278.308 53.399H241.439V57.8655H278.308V53.399Z" fill="#38EF08"/>
<path d="M278.308 63.8931H241.439V68.3596H278.308V63.8931Z" fill="#38EF08"/>
<path d="M278.308 74.3844H241.439V78.8509H278.308V74.3844Z" fill="#38EF08"/>
<path d="M107.322 79.0816C109.718 68.6236 103.182 58.2036 92.7243 55.8077C82.2663 53.4118 71.8463 59.9474 69.4504 70.4053C67.0545 80.8633 73.5901 91.2833 84.048 93.6792C94.506 96.0751 104.926 89.5395 107.322 79.0816Z" fill="white"/>
<path d="M119.048 93.2133C121.566 89.0358 123.141 84.5202 123.809 79.964L125.257 80.175L128.117 80.5942L128.154 80.5971C128.926 75.3847 128.663 70.1116 127.402 65.0756L123.15 66.1279C122.008 61.5717 119.999 57.2266 117.137 53.4019L120.661 50.7827C117.645 46.6891 113.774 43.11 109.155 40.326L106.885 44.0901C102.693 41.5605 98.1922 39.9965 93.636 39.3287L94.2721 34.9864C89.0597 34.2146 83.7779 34.4921 78.7505 35.7381L79.8028 39.9907C75.2437 41.1326 70.9015 43.1418 67.0768 46.0039L64.4576 42.4798C60.364 45.4951 56.785 49.3661 54.001 53.9858L57.765 56.2552C55.2383 60.4471 53.6714 64.9484 53.0036 69.5045L49.9305 69.0535L48.6758 68.8801L48.6614 68.8714C47.8895 74.0838 48.167 79.3656 49.413 84.393L53.6656 83.3406C54.8076 87.8968 56.8283 92.2477 59.6933 96.0753L56.1692 98.6945C59.1845 102.788 63.041 106.358 67.6608 109.142L69.9302 105.378C74.1221 107.905 78.6377 109.481 83.1939 110.149L82.6937 113.522L82.5579 114.491C87.7703 115.263 93.0376 114.976 98.065 113.73L97.0127 109.478C101.569 108.336 105.92 106.315 109.762 103.459L112.381 106.983C116.46 103.959 120.031 100.102 122.815 95.4827L119.048 93.2133ZM78.3689 91.3746C69.1727 85.8298 66.2153 73.8959 71.763 64.6997C77.2992 55.518 89.2331 52.5635 98.4292 58.1083C107.611 63.6474 110.568 75.5784 105.029 84.7601C99.4844 93.9591 87.5535 96.9137 78.3689 91.3746Z" fill="#38EF08"/>
<path d="M46.3378 90.6345C44.9212 88.4923 43.1288 86.723 41.1138 85.3758L41.5417 84.7341L42.3887 83.4707L42.3974 83.4534C40.0933 81.9096 37.5261 80.8428 34.8462 80.3022L34.3866 82.5629C31.961 82.0744 29.443 82.0512 26.9741 82.5485L26.526 80.282C23.8981 80.7908 21.3223 81.8228 18.9546 83.3897L20.2324 85.3209C18.0815 86.7433 16.3209 88.5299 14.9738 90.5449L13.0513 89.2613C11.5075 91.5654 10.4436 94.1412 9.90011 96.8125L12.1608 97.2721C11.6723 99.6977 11.6491 102.216 12.1464 104.685L9.87988 105.133C10.3887 107.761 11.4208 110.336 12.9877 112.704L14.9188 111.426C16.3412 113.577 18.1278 115.338 20.1428 116.685L19.235 118.044L18.8679 118.602L18.8592 118.607C21.1633 120.151 23.7391 121.215 26.4104 121.759L26.8701 119.498C29.2956 119.986 31.8223 120.007 34.2883 119.509L34.7364 121.776C37.3642 121.267 39.9343 120.241 42.302 118.671L41.0242 116.74C43.1751 115.318 44.9414 113.528 46.2886 111.51L47.7804 112.51L48.2111 112.794C49.7549 110.49 50.8101 107.92 51.3536 105.248L49.0929 104.789C49.5814 102.363 49.6017 99.8364 49.1102 97.3647L51.3767 96.9166C50.8592 94.2945 49.833 91.7244 48.2661 89.3567L46.3378 90.6345ZM36.2715 109.565C31.5563 112.684 25.2135 111.394 22.0942 106.679C18.9777 101.97 20.27 95.6301 24.9852 92.5078C29.6945 89.3914 36.0344 90.6836 39.1509 95.393C42.2702 100.108 40.9779 106.448 36.2715 109.565Z" fill="#32B210"/>
<path d="M364.088 130.116H316.856C315.861 130.116 315.055 129.31 315.055 128.315V101.516C315.055 100.522 315.861 99.715 316.856 99.715H364.088C365.083 99.715 365.889 100.522 365.889 101.516V128.315C365.889 129.31 365.083 130.116 364.088 130.116Z" fill="#38EF08"/>
<path d="M365.886 105.459H315.055V110.706H365.886V105.459Z" fill="#38EF08"/>
<path d="M326.7 124.285H319.227C318.753 124.285 318.365 124.67 318.365 125.147C318.365 125.621 318.75 126.008 319.227 126.008H326.7C327.174 126.008 327.561 125.624 327.561 125.147C327.561 124.67 327.174 124.285 326.7 124.285Z" fill="#D8FFCE"/>
<path d="M338.194 124.285H330.721C330.247 124.285 329.859 124.67 329.859 125.147C329.859 125.621 330.244 126.008 330.721 126.008H338.194C338.668 126.008 339.056 125.624 339.056 125.147C339.053 124.67 338.668 124.285 338.194 124.285Z" fill="#D8FFCE"/>
<path d="M349.689 124.285H342.216C341.742 124.285 341.354 124.67 341.354 125.147C341.354 125.621 341.739 126.008 342.216 126.008H349.689C350.163 126.008 350.551 125.624 350.551 125.147C350.548 124.67 350.163 124.285 349.689 124.285Z" fill="#D8FFCE"/>
<path d="M361.18 124.285H353.707C353.233 124.285 352.846 124.67 352.846 125.147C352.846 125.621 353.23 126.008 353.707 126.008H361.18C361.654 126.008 362.042 125.624 362.042 125.147C362.042 124.67 361.657 124.285 361.18 124.285Z" fill="#D8FFCE"/>
<path d="M318.883 101.259C318.36 101.259 317.935 101.684 317.935 102.207V102.54C317.935 103.063 318.36 103.488 318.883 103.488C319.406 103.488 319.831 103.063 319.831 102.54V102.207C319.831 101.684 319.406 101.259 318.883 101.259Z" fill="#D8FFCE"/>
<path d="M320.927 102.375C320.927 102.991 321.427 103.491 322.043 103.491H325.998C326.613 103.491 327.113 102.991 327.113 102.375C327.113 101.759 326.613 101.259 325.998 101.259H322.043C321.427 101.259 320.927 101.759 320.927 102.375Z" fill="#D8FFCE"/>
<path d="M320.409 113.525H325.517C326.335 113.525 327 114.19 327 115.008V119.414C327 120.232 326.335 120.897 325.517 120.897H320.409C319.591 120.897 318.926 120.232 318.926 119.414V115.008C318.926 114.19 319.588 113.525 320.409 113.525Z" fill="#38EF08"/>
<path d="M345.382 207.554V204.082C345.382 202.506 344.104 201.225 342.528 201.225H312.133C310.557 201.225 309.276 202.503 309.276 204.082V265.465H387.896V207.554H345.382Z" fill="#32B210"/>
<path d="M391.169 209.664H314.072L309.279 265.465H387.514L391.169 209.664Z" fill="white"/>
<path d="M387.899 265.465H309.279L317.623 210.358C317.865 208.745 319.253 207.554 320.884 207.554H392.834C394.852 207.554 396.395 209.349 396.095 211.344L387.899 265.465Z" fill="#187200"/>
<path d="M408.863 222.403C415.897 215.368 415.897 203.963 408.863 196.928C401.828 189.893 390.422 189.893 383.388 196.928C376.353 203.963 376.353 215.368 383.388 222.403C390.422 229.438 401.828 229.438 408.863 222.403Z" fill="#38EF08"/>
<path d="M396.129 228.337C385.831 228.337 377.453 219.959 377.453 209.664C377.453 199.369 385.831 190.991 396.129 190.991C406.426 190.991 414.804 199.369 414.804 209.664C414.804 219.959 406.426 228.337 396.129 228.337ZM396.129 192.307C386.557 192.307 378.774 200.092 378.774 209.661C378.774 219.23 386.557 227.018 396.129 227.018C405.701 227.018 413.483 219.23 413.483 209.661C413.483 200.092 405.701 192.307 396.129 192.307Z" fill="white"/>
<path d="M387.459 206.403V219.158C387.459 220.577 404.802 220.577 404.802 219.158V206.403H387.459ZM397.008 213.177V216.793C397.008 217.276 396.615 217.675 396.135 217.675C395.646 217.675 395.253 217.276 395.253 216.793V213.171C394.51 212.835 393.987 212.087 393.987 211.219C393.987 210.037 394.949 209.08 396.132 209.08C397.314 209.08 398.271 210.034 398.271 211.219C398.271 212.092 397.757 212.841 397.008 213.177Z" fill="white"/>
<path d="M403.281 205.495H401.526V204.637C401.526 201.662 399.104 199.239 396.129 199.239C393.154 199.239 390.731 201.662 390.731 204.637V205.495H388.977V204.637C388.977 200.693 392.186 197.484 396.129 197.484C400.072 197.484 403.281 200.693 403.281 204.637V205.495Z" fill="white"/>
<path d="M333.578 65.804C337.387 65.804 340.475 62.7157 340.475 58.9062C340.475 55.0966 337.387 52.0083 333.578 52.0083C329.768 52.0083 326.68 55.0966 326.68 58.9062C326.68 62.7157 329.768 65.804 333.578 65.804Z" fill="#AAE0FF"/>
<path d="M159.29 85.8046C159.935 82.0499 157.415 78.483 153.66 77.8376C149.905 77.1923 146.338 79.7129 145.693 83.4676C145.048 87.2224 147.568 90.7893 151.323 91.4346C155.078 92.08 158.645 89.5593 159.29 85.8046Z" fill="#AAE0FF"/>
<path d="M381.937 180.072C383.93 180.072 385.545 178.457 385.545 176.464C385.545 174.472 383.93 172.856 381.937 172.856C379.944 172.856 378.329 174.472 378.329 176.464C378.329 178.457 379.944 180.072 381.937 180.072Z" fill="white"/>
<path d="M7.84902 184.05C8.30433 182.11 7.10092 180.169 5.16112 179.713C3.22133 179.258 1.27972 180.461 0.824409 182.401C0.3691 184.341 1.57251 186.283 3.5123 186.738C5.4521 187.193 7.39371 185.99 7.84902 184.05Z" fill="#AAE0FF"/>
<path d="M63.7926 320.906C67.2239 319.251 68.664 315.128 67.0091 311.696C65.3542 308.265 61.2311 306.825 57.7998 308.48C54.3685 310.135 52.9285 314.258 54.5833 317.689C56.2382 321.12 60.3613 322.561 63.7926 320.906Z" fill="#AAE0FF"/>
<path d="M171.461 16.1749C170.801 16.1749 170.267 15.6401 170.267 14.9809V2.18841C170.267 1.52927 170.801 0.994446 171.461 0.994446C172.12 0.994446 172.655 1.52927 172.655 2.18841V14.9809C172.655 15.6401 172.12 16.1749 171.461 16.1749Z" fill="#AAE0FF"/>
<path d="M163.869 8.58325C163.869 7.92411 164.404 7.38928 165.063 7.38928H177.856C178.515 7.38928 179.05 7.92411 179.05 8.58325C179.05 9.24238 178.515 9.77721 177.856 9.77721H165.063C164.404 9.7801 163.869 9.24528 163.869 8.58325Z" fill="#AAE0FF"/>
<path d="M307.466 180.448C306.807 180.448 306.272 179.913 306.272 179.254V166.461C306.272 165.802 306.807 165.267 307.466 165.267C308.126 165.267 308.66 165.802 308.66 166.461V179.254C308.66 179.913 308.126 180.448 307.466 180.448Z" fill="white"/>
<path d="M299.874 172.856C299.874 172.197 300.409 171.662 301.068 171.662H313.86C314.52 171.662 315.054 172.197 315.054 172.856C315.054 173.515 314.52 174.05 313.86 174.05H301.068C300.409 174.05 299.874 173.515 299.874 172.856Z" fill="white"/>
<path d="M294.457 348.948C293.798 348.948 293.263 348.413 293.263 347.754V334.961C293.263 334.302 293.798 333.767 294.457 333.767C295.116 333.767 295.651 334.302 295.651 334.961V347.754C295.654 348.413 295.119 348.948 294.457 348.948Z" fill="white"/>
<path d="M286.865 341.356C286.865 340.697 287.4 340.162 288.059 340.162H300.852C301.511 340.162 302.046 340.697 302.046 341.356C302.046 342.015 301.511 342.55 300.852 342.55H288.059C287.4 342.553 286.865 342.018 286.865 341.356Z" fill="white"/>
<path d="M187.98 257.281C190.092 257.281 191.805 255.569 191.805 253.456C191.805 251.344 190.092 249.632 187.98 249.632C185.868 249.632 184.155 251.344 184.155 253.456C184.155 255.569 185.868 257.281 187.98 257.281Z" stroke="white" stroke-width="4.2257" stroke-miterlimit="10"/>
<path d="M281.991 603.849H267.021L265.472 571.303H283.537L281.991 603.849Z" fill="#0E0E0E"/>
<path d="M542.14 603.849H527.171L525.621 571.303H543.687L542.14 603.849Z" fill="#0E0E0E"/>
<path d="M529.09 514.816C527.439 519.933 525.641 525.186 523.675 530.575H275.183C275.183 530.575 243.113 400.045 275.183 376.175C276.004 375.565 276.987 374.963 278.134 374.377C321.325 352.183 494.494 346.973 529.651 375.524C529.92 375.735 530.168 375.955 530.408 376.175C543.36 388.065 554.623 435.535 529.09 514.816Z" fill="#777777"/>
<path d="M368.867 530.575H275.234L284.364 439.091C300.692 446.174 344.161 483.58 368.867 530.575Z" fill="#272727"/>
<path d="M529.089 514.816C527.439 519.933 525.641 525.186 523.675 530.575H433.419C448.941 501.79 486.578 458.188 523.125 438.116L529.089 514.816Z" fill="#272727"/>
<path d="M560.225 437.81H525.774C519.983 437.81 515.089 442.1 514.329 447.842L503.34 530.922H301.99L291.002 447.842C290.242 442.1 285.347 437.81 279.557 437.81H245.111C237.924 437.81 232.483 444.306 233.746 451.383L252.873 589.739H271.794H551.856H552.466L571.593 451.383C572.853 444.306 567.415 437.81 560.225 437.81Z" fill="#777777"/>
<path d="M501.333 485.543C517.546 490.969 514.386 525.296 501.333 530.575H304.656C289.967 526.785 288.726 481.377 309.908 484.794C439.554 509.168 445.833 470.281 501.333 485.543Z" fill="#515151"/>
<path d="M351.429 450.747C351.368 459.611 351.845 467.951 352.799 475.259H445.021L450.482 385.212C445.004 352.321 430.008 344.351 406.271 344.351C385.028 344.351 370.879 361.679 362.282 384.876C354.849 404.919 351.562 429.336 351.429 450.747Z" fill="#4EEB0F"/>
<path d="M351.429 452.487L384.802 450.478C366.274 444.413 364.799 415.977 383.634 398.282L362.278 384.876C354.849 404.919 351.562 431.074 351.429 452.487Z" fill="#237702"/>
<path d="M345.077 493.869H471.782V450.75H357.647L345.077 493.869Z" fill="#0E0E0E"/>
<path d="M487.969 480.186L453.936 603.85H427.397C435.799 551.225 433.917 517.017 441.82 473.32C448.753 437.452 496.22 446.946 487.969 480.186Z" fill="#0E0E0E"/>
<path d="M444.405 603.849C444.405 603.769 444.399 603.688 444.399 603.604C444.399 594.436 451.832 587.004 460.999 587.004C470.167 587.004 477.599 594.436 477.599 603.604C477.599 603.685 477.593 603.766 477.593 603.849H444.405Z" fill="white"/>
<path d="M464.197 587.316L458.163 585.472C454.179 577.637 437.195 578.608 439.56 588.143C432.896 589.134 429.389 585.816 429.389 585.816L427.397 603.849H463.384L464.197 587.316Z" fill="white"/>
<path d="M338.529 480.186L372.561 603.849H399.1C390.699 551.225 392.581 517.016 384.677 473.32C377.748 437.451 330.278 446.945 338.529 480.186Z" fill="#0E0E0E"/>
<path d="M382.096 603.849C382.096 603.769 382.102 603.688 382.102 603.604C382.102 594.436 374.669 587.004 365.502 587.004C356.335 587.004 348.902 594.436 348.902 603.604C348.902 603.685 348.908 603.766 348.908 603.849H382.096Z" fill="white"/>
<path d="M362.302 587.316L368.335 585.472C372.319 577.637 389.303 578.608 386.939 588.143C393.602 589.134 397.109 585.816 397.109 585.816L399.101 603.849H363.114L362.302 587.316Z" fill="white"/>
<path d="M392.058 347.245C404.504 354.799 406.279 377.23 399.898 386.166L364.383 412.624L400.543 431.245L394.669 450.478C394.669 450.478 356.927 447.408 338.451 428.455C320.712 410.259 363.958 356.814 392.058 347.245Z" fill="#4EEB0F"/>
<path d="M417.309 381.271C406.661 367.904 414.016 347.245 427.586 347.852C471.78 363.411 485.422 406.611 471.422 426.003C459.427 442.618 406.661 449.015 406.661 449.015V430.825L443.324 422.904C443.324 422.904 424.42 393.616 417.309 381.271Z" fill="#4EEB0F"/>
<path d="M378.58 444.401C377.895 438.31 381.46 430.692 390.627 429.027C406.64 426.119 412.436 434.905 413.948 441.187C414.341 442.823 412.855 444.555 411.479 444.401C410.103 444.248 409.138 443.473 408.901 442.227C408.617 440.727 407.822 438.871 406.105 437.903C407.759 441.146 407.068 444.401 402.561 444.401H378.58Z" fill="white"/>
<path d="M414.735 444.387L427.337 381.202H430.008C429.155 385.553 416.759 448.775 416.371 450.75C413.07 450.75 382.729 450.75 378.607 450.75L374.481 444.387H414.735Z" fill="#888888"/>
<path d="M430.008 381.202H523.776L509.905 450.75H416.371L430.008 381.202Z" fill="black"/>
<path d="M402.668 351.775C402.668 358.965 424.22 363.732 431.265 356.175C432.332 355.042 433.064 353.634 433.347 351.911L437.406 333.701L411.665 323.996L410.899 326.375L402.668 351.775Z" fill="white"/>
<path d="M433.347 351.911L437.406 333.701L413.053 327.144C406.751 345.904 429.245 360.893 433.347 351.911Z" fill="#DBDBDB"/>
<path d="M409.762 317C408.407 334.897 422.552 350.659 434.419 351.46C446.287 352.261 462.629 339.003 463.982 321.105C465.338 303.207 454.298 287.781 439.325 286.644C424.353 285.511 411.118 299.102 409.762 317Z" fill="white"/>
<path d="M429.606 288C446.018 277.607 455.049 287.382 463.222 297.749C468.958 305.022 473.019 310.249 480.154 311.345C466.425 328.662 438.97 317.24 430.32 299.885C429.467 309.763 417.825 317.945 409.765 317C407.152 306.008 414.764 283.788 429.606 288Z" fill="#363636"/>
<path d="M414.05 324.284C417.945 323.652 420.589 319.982 419.957 316.088C419.325 312.194 415.656 309.549 411.761 310.181C407.867 310.813 405.222 314.483 405.854 318.377C406.486 322.271 410.156 324.916 414.05 324.284Z" fill="white"/>
</svg>
