<svg width="531" height="512" viewBox="0 0 531 512" fill="none" xmlns="http://www.w3.org/2000/svg">
<path d="M8.00002 256C8.00002 188.105 34.7606 122.99 82.3949 74.9807C130.029 26.9714 194.635 -1.21148e-06 262 -4.1561e-06C329.365 -7.10071e-06 393.971 26.9713 441.605 74.9806C489.239 122.99 516 188.105 516 256L262 256L8.00002 256Z" fill="url(#paint0_radial_0_1)"/>
<path d="M531 256C531 323.895 503.028 389.01 453.237 437.019C403.446 485.029 335.915 512 265.5 512C195.085 512 127.554 485.029 77.7632 437.019C27.9722 389.01 -4.47613e-07 323.895 -1.11901e-05 256L265.5 256L531 256Z" fill="url(#paint1_radial_0_1)" fill-opacity="0.53"/>
<g clip-path="url(#clip0_0_1)">
<path d="M360.496 223.819C358.501 211.452 346.847 203.033 334.464 205.026C330.436 205.673 257.821 218.16 252.504 219.246C247.195 218.16 174.572 205.673 170.544 205.026C158.161 203.033 146.5 211.452 144.512 223.819C142.606 235.644 150.29 246.837 161.794 249.529C165.763 250.451 203.441 257.635 203.441 257.635C207.67 258.475 216.092 260.156 223.613 261.651C233.129 263.547 242.809 264.499 252.504 264.499C262.206 264.499 271.886 263.547 281.395 261.651C288.916 260.156 297.337 258.475 301.567 257.635C301.567 257.635 339.245 250.458 343.213 249.529C354.718 246.844 362.395 235.644 360.496 223.819Z" fill="#282828"/>
<path d="M309.066 191.253C306.586 187.289 304.338 183.221 302.178 179.109C300.026 174.996 297.964 170.846 295.983 166.659C294.002 162.472 292.066 158.263 290.242 154.009C288.41 149.755 286.631 145.479 285.059 141.113C281.872 132.271 286.467 122.528 295.32 119.345C303.407 116.438 312.253 120.022 316.147 127.407C318.314 131.512 320.287 135.699 322.194 139.916C324.107 144.133 325.917 148.394 327.681 152.678C329.446 156.961 331.122 161.275 332.715 165.64C334.301 169.998 335.798 174.401 337.056 178.9C339.357 187.111 334.554 195.633 326.334 197.931C319.587 199.828 312.61 196.905 309.066 191.253Z" fill="#FFF2EC"/>
<path d="M294.724 167.217C292.736 163.03 285.379 146.044 283.831 141.664C280.443 132.092 285.469 121.599 295.045 118.215C303.734 115.151 313.183 118.988 317.398 126.872C319.595 130.962 327.569 147.702 329.327 151.986L294.724 167.217Z" fill="#499F33"/>
<path d="M195.928 191.253C198.408 187.289 200.657 183.221 202.816 179.109C204.968 174.996 207.03 170.846 209.011 166.659C210.992 162.472 212.928 158.263 214.752 154.009C216.584 149.755 218.364 145.479 219.935 141.113C223.122 132.271 218.527 122.528 209.674 119.345C201.587 116.438 192.741 120.022 188.847 127.407C186.68 131.512 184.707 135.699 182.801 139.916C180.887 144.133 179.077 148.394 177.313 152.678C175.548 156.961 173.873 161.275 172.279 165.64C170.693 169.998 169.196 174.401 167.938 178.9C165.637 187.111 170.44 195.633 178.66 197.931C185.414 199.828 192.391 196.905 195.928 191.253Z" fill="#FFF2EC"/>
<path d="M210.277 167.217C212.265 163.03 219.622 146.044 221.171 141.664C224.559 132.092 219.533 121.599 209.957 118.215C201.267 115.151 191.818 118.988 187.604 126.872C185.407 130.962 177.432 147.702 175.675 151.986L210.277 167.217Z" fill="#499F33"/>
<path d="M198.259 221.73C199.979 201.709 207.432 190.309 205.437 174.222C204.849 169.455 204.164 160.955 204.089 159.772L200.545 117.263C206.033 115.5 231.997 105.892 252.489 105.892C272.981 105.892 298.946 115.5 304.434 117.263L300.89 159.772C300.823 160.962 300.138 169.455 299.542 174.222C297.554 190.309 305 201.709 306.72 221.73" fill="#38EF08"/>
<path d="M264.344 96.7297H252.504H240.665L239.868 113.031C242.884 116.43 248.066 119.42 252.504 119.42C256.942 119.42 262.132 116.43 265.141 113.031L264.344 96.7297Z" fill="#FFF2EC"/>
<path d="M264.552 100.976C259.615 108.621 249.101 110.986 240.099 108.22L240.657 96.7297H264.343L264.552 100.976Z" fill="#2D2D2D"/>
<path d="M285.931 72.8274C282.632 77.0962 277.174 77.9737 273.734 74.7907C270.301 71.6077 270.189 65.5689 273.488 61.3076C276.787 57.0388 282.245 56.1612 285.685 59.3442C289.118 62.5272 289.229 68.566 285.931 72.8274Z" fill="#FFF2EC"/>
<path d="M284.501 62.6165C284.501 62.6165 276.564 62.267 275.916 70.6037L284.501 62.6165Z" fill="#2D2D2D"/>
<path d="M213.315 80.4354C217.425 83.9233 222.95 83.6556 225.653 79.8256C228.356 76.003 227.21 70.0757 223.092 66.5804C218.982 63.0925 213.457 63.3602 210.754 67.1902C208.058 71.0128 209.205 76.9475 213.315 80.4354Z" fill="#FFF2EC"/>
<path d="M212.593 70.1501C212.593 70.1501 220.285 68.1644 222.653 76.1889L212.593 70.1501Z" fill="#2D2D2D"/>
<path d="M244.425 27.1647C229.056 28.9941 218.013 43.7639 219.719 59.9689L221.558 77.4606C223.27 93.7549 237.016 105.669 252.504 104.048C267.992 102.426 278.961 87.9244 277.255 71.63L275.416 54.1384C273.711 37.9333 259.846 25.7665 244.425 27.1647Z" fill="#FFF2EC"/>
<path d="M274.806 40.6552L274.843 40.6255C277.017 37.5764 273.823 33.0621 270.226 34.0141C271.544 30.3625 267.032 26.7556 263.808 29.0165C263.77 25.3426 258.67 23.0669 256.272 26.1309C255.2 22.6579 249.891 21.6985 248.245 25.1864C247.352 23.5949 245.631 22.9331 243.993 23.1041C242.355 23.2751 240.806 24.2866 240.27 26.0194C237.94 22.9479 232.943 24.9931 232.615 28.6074C229.63 26.1161 225.11 29.3957 225.839 32.9952C222.221 31.4483 218.55 35.9105 220.597 39.2125C216.889 39.0266 214.692 44.106 217.455 46.6345L217.5 46.6568C213.784 48.0327 213.769 53.9525 217.902 55.2688L221.364 75.6609C224.469 71.7639 225.259 65.6805 224.849 61.7984C224.283 56.4215 227.418 51.2157 232.243 49.1408C235.251 47.8393 238.617 48.3897 241.38 49.349C243.144 49.9663 244.999 50.1745 246.823 49.9812C248.647 49.7878 250.419 49.2077 252.013 48.2335C254.515 46.7163 257.694 45.4818 260.904 46.1363C266.049 47.17 270.196 51.6024 270.762 56.9867C271.172 60.8688 273.197 66.6547 277.047 69.8229L276.198 49.1557C279.973 47.0213 278.73 41.2279 274.806 40.6552Z" fill="#2D2D2D"/>
<path d="M247.604 71.1541C247.604 71.1541 248.505 76.1591 245.966 80.7849C245.4 81.8186 245.884 83.1127 246.927 83.6556L249.428 84.9496" stroke="#2D2D2D" stroke-width="0.75" stroke-miterlimit="10" stroke-linecap="round" stroke-linejoin="round"/>
<path d="M256.576 87.1004C256.123 89.3517 255.457 91.217 254.632 92.5712C253.724 94.0608 252.67 94.8633 251.554 94.9911C250.437 95.1188 249.231 94.575 248.011 93.329C246.902 92.1962 245.832 90.53 244.881 88.4393L256.576 87.1004Z" fill="white" stroke="black"/>
<path d="M265.177 64.7286C264.999 64.7286 264.82 64.6617 264.671 64.5352C263.532 63.5089 262.057 62.9437 260.516 62.9363C260.509 62.9363 260.494 62.9363 260.486 62.9363C258.952 62.9363 257.485 63.4866 256.346 64.498C256.033 64.7732 255.557 64.7435 255.281 64.4311C255.006 64.1188 255.036 63.6428 255.348 63.3676C256.763 62.1182 258.587 61.4266 260.486 61.4266C260.501 61.4266 260.509 61.4266 260.523 61.4266C262.437 61.434 264.269 62.1405 265.684 63.4123C265.996 63.6874 266.019 64.1708 265.736 64.4757C265.587 64.6468 265.386 64.7286 265.177 64.7286Z" fill="#2D2D2D"/>
<path d="M231.647 68.2463C231.491 68.2463 231.342 68.2016 231.208 68.105C230.873 67.8595 230.798 67.391 231.037 67.0563C232.154 65.5169 233.799 64.446 235.668 64.0444C237.537 63.6354 239.481 63.9328 241.134 64.8699C241.499 65.0781 241.625 65.5318 241.417 65.8962C241.208 66.2606 240.754 66.387 240.389 66.1788C239.056 65.4277 237.492 65.1897 235.988 65.5169C234.477 65.8441 233.151 66.7068 232.258 67.9413C232.109 68.1347 231.878 68.2463 231.647 68.2463Z" fill="#2D2D2D"/>
<path d="M274.507 76.7913C274.857 80.1379 272.43 83.1276 269.079 83.4845C265.728 83.8341 262.735 81.4096 262.377 78.063C262.027 74.7164 264.455 71.7267 267.806 71.3698C271.156 71.0202 274.157 73.4447 274.507 76.7913Z" fill="#FFFDFD"/>
<path d="M233.385 87.0547C236.564 85.9429 238.239 82.468 237.126 79.2931C236.012 76.1183 232.533 74.4458 229.354 75.5576C226.176 76.6694 224.501 80.1443 225.614 83.3192C226.727 86.494 230.207 88.1664 233.385 87.0547Z" fill="#FFFDFD"/>
<path d="M257.114 71.7714C257.352 74.0471 259.392 75.6981 261.678 75.4601C263.957 75.2221 265.61 73.1844 265.371 70.9012C265.133 68.6255 263.093 66.9745 260.807 67.2125C258.528 67.4579 256.875 69.4957 257.114 71.7714Z" fill="#2D2D2D"/>
<path d="M241.283 73.4298C241.521 75.7055 239.868 77.7432 237.589 77.9886C235.311 78.2266 233.271 76.5756 233.025 74.2999C232.787 72.0242 234.44 69.9865 236.718 69.7411C238.997 69.5031 241.044 71.1541 241.283 73.4298Z" fill="#2D2D2D"/>
<path d="M280.248 201.218C282.653 197.991 285.304 195.172 288.044 192.48C290.777 189.788 293.637 187.289 296.555 184.902C299.482 182.515 302.468 180.231 305.543 178.09C308.626 175.963 311.768 173.932 315.119 172.229C322.587 168.444 331.716 171.419 335.514 178.878C338.917 185.571 336.862 193.596 331.016 197.917C328.001 200.148 324.776 202.051 321.485 203.851C318.194 205.643 314.813 207.287 311.366 208.834C307.918 210.373 304.411 211.816 300.777 213.051C297.144 214.293 293.428 215.401 289.467 216.107C284.344 217.022 279.444 213.608 278.528 208.492C278.052 205.844 278.759 203.226 280.248 201.218Z" fill="#FFF2EC"/>
<path d="M302.714 180.12C303.645 179.436 304.59 178.759 305.536 178.097C308.619 175.97 311.761 173.94 315.112 172.237C320.778 169.366 327.398 170.378 331.918 174.289" stroke="#2D2D2D" stroke-width="0.75" stroke-miterlimit="10" stroke-linecap="round" stroke-linejoin="round"/>
<path d="M224.752 201.218C222.347 197.991 219.689 195.172 216.956 192.48C214.223 189.788 211.364 187.289 208.445 184.902C205.519 182.515 202.533 180.231 199.457 178.09C196.375 175.963 193.232 173.932 189.882 172.229C182.413 168.444 173.284 171.419 169.487 178.878C166.084 185.571 168.139 193.596 173.984 197.917C177 200.148 180.224 202.051 183.515 203.851C186.806 205.643 190.187 207.287 193.635 208.834C197.082 210.373 200.589 211.816 204.223 213.051C207.857 214.293 211.572 215.401 215.534 216.107C220.657 217.022 225.556 213.608 226.472 208.492C226.949 205.844 226.241 203.226 224.752 201.218Z" fill="#FFF2EC"/>
<path d="M202.279 180.12C201.348 179.436 200.403 178.759 199.457 178.097C196.374 175.97 193.232 173.94 189.881 172.237C184.215 169.366 177.595 170.378 173.075 174.289" stroke="#2D2D2D" stroke-width="0.75" stroke-miterlimit="10" stroke-linecap="round" stroke-linejoin="round"/>
<path d="M306.459 228.594H198.534C196.784 228.594 195.369 227.181 195.369 225.433V153.384C195.369 151.637 196.784 150.223 198.534 150.223H306.459C308.209 150.223 309.624 151.637 309.624 153.384V225.433C309.624 227.181 308.209 228.594 306.459 228.594Z" fill="black"/>
<path d="M309.624 228.594H195.377V232.587H309.624V228.594Z" fill="#2D2D2D"/>
<path d="M252.496 197.597C257.02 197.597 260.687 193.934 260.687 189.416C260.687 184.898 257.02 181.235 252.496 181.235C247.973 181.235 244.306 184.898 244.306 189.416C244.306 193.934 247.973 197.597 252.496 197.597Z" fill="#2D2D2D"/>
<path d="M226.219 253.798C222.399 251.388 216.755 250.89 211.856 252.37C210.009 252.92 207.738 253.664 205.4 254.697C199.852 257.152 193.955 257.583 187.924 256.981C182.883 256.475 179.1 256.713 175.95 257.003C166.59 257.866 157.156 266.693 161.475 280.645C163.53 287.293 170.187 289.138 180.276 287.375C185.34 286.49 190.157 285.62 193.419 285.635C199.614 285.672 208.609 285.278 218.513 283.441L226.219 253.798Z" fill="#2D2D2D"/>
<path d="M186.271 282.72C184.38 278.139 183.918 273.096 184.938 268.255" stroke="white" stroke-width="0.75" stroke-miterlimit="10" stroke-linecap="round" stroke-linejoin="round"/>
<path d="M192.846 282.117C190.955 277.536 190.493 272.494 191.513 267.653" stroke="white" stroke-width="0.75" stroke-miterlimit="10" stroke-linecap="round" stroke-linejoin="round"/>
<path d="M199.421 281.508C197.53 276.926 197.068 271.884 198.088 267.043" stroke="white" stroke-width="0.75" stroke-miterlimit="10" stroke-linecap="round" stroke-linejoin="round"/>
<path d="M245.259 244.144C236.681 248.413 214.223 258.795 211.662 259.888C206.204 262.216 203.061 268.21 204.506 274.16C206.114 280.794 212.808 284.862 219.443 283.248L257.448 273.803L245.259 244.144Z" fill="#FFF2EC"/>
<path d="M361.16 222.049C358.383 211.771 348.576 204.863 338.077 204.736C330.772 204.647 323.251 207.183 316.684 209.585C305.835 213.549 238.625 245.847 227.821 250.704L227.478 256.691C226.957 265.838 230.814 274.695 237.866 280.556C262.371 274.405 335.113 254.259 345.128 251.157C357.482 247.313 364.533 234.521 361.16 222.049Z" fill="#282828"/>
<path d="M227.471 256.691C226.949 265.838 230.807 274.695 237.858 280.556C243.42 279.157 251.462 277.045 260.696 274.569L227.471 256.691Z" fill="#2D2D2D"/>
<path d="M316.676 209.585C305.827 213.549 238.617 245.847 227.813 250.704L227.471 256.691C227.299 259.74 227.612 262.752 228.364 265.63" stroke="#2D2D2D" stroke-width="0.75" stroke-miterlimit="10" stroke-linecap="round" stroke-linejoin="round"/>
<path d="M278.774 253.798C282.594 251.388 288.239 250.89 293.138 252.37C294.985 252.92 297.256 253.664 299.594 254.697C305.141 257.152 311.039 257.583 317.07 256.981C322.111 256.475 325.894 256.713 329.044 257.003C338.404 257.866 347.838 266.693 343.519 280.645C341.464 287.293 334.807 289.138 324.717 287.375C319.654 286.49 314.836 285.62 311.575 285.635C305.38 285.672 296.385 285.278 286.481 283.441L278.774 253.798Z" fill="#2D2D2D"/>
<path d="M318.731 282.72C320.623 278.139 321.084 273.096 320.064 268.255" stroke="white" stroke-width="0.75" stroke-miterlimit="10" stroke-linecap="round" stroke-linejoin="round"/>
<path d="M312.156 282.117C314.048 277.536 314.509 272.494 313.489 267.653" stroke="white" stroke-width="0.75" stroke-miterlimit="10" stroke-linecap="round" stroke-linejoin="round"/>
<path d="M305.581 281.508C307.472 276.926 307.934 271.884 306.914 267.043" stroke="white" stroke-width="0.75" stroke-miterlimit="10" stroke-linecap="round" stroke-linejoin="round"/>
<path d="M259.741 244.144C268.319 248.413 290.777 258.795 293.338 259.888C298.796 262.216 301.939 268.21 300.494 274.16C298.886 280.794 292.192 284.862 285.557 283.248L247.552 273.803L259.741 244.144Z" fill="#FFF2EC"/>
<path d="M143.842 222.049C146.619 211.771 156.426 204.863 166.925 204.736C174.23 204.647 181.75 207.183 188.318 209.585C199.167 213.549 266.376 245.847 277.188 250.704L277.531 256.691C278.052 265.838 274.195 274.695 267.143 280.556C242.638 274.405 169.896 254.259 159.881 251.157C147.52 247.313 140.469 234.521 143.842 222.049Z" fill="#282828"/>
<path d="M188.325 209.585C199.174 213.549 266.384 245.847 277.196 250.704L277.538 256.691C277.709 259.74 277.397 262.752 276.644 265.63" stroke="#2D2D2D" stroke-width="0.75" stroke-miterlimit="10" stroke-linecap="round" stroke-linejoin="round"/>
</g>
<defs>
<radialGradient id="paint0_radial_0_1" cx="0" cy="0" r="1" gradientTransform="matrix(-223.52 -5.17171 -24.8355 225.28 262 256)" gradientUnits="userSpaceOnUse">
<stop stop-color="#5DD62C" stop-opacity="0.43"/>
<stop offset="1" stop-color="#5DD62C" stop-opacity="0"/>
</radialGradient>
<radialGradient id="paint1_radial_0_1" cx="0" cy="0" r="1" gradientTransform="matrix(233.64 5.17173 25.96 -225.28 265.5 256)" gradientUnits="userSpaceOnUse">
<stop stop-color="#5DD62C" stop-opacity="0.43"/>
<stop offset="1" stop-color="#5DD62C" stop-opacity="0"/>
</radialGradient>
<clipPath id="clip0_0_1">
<rect width="219" height="265" fill="white" transform="translate(143 23)"/>
</clipPath>
</defs>
</svg>
