<svg width="430" height="388" viewBox="0 0 430 388" fill="none" xmlns="http://www.w3.org/2000/svg">
<path d="M18.457 276.134C19.127 291.561 20.1319 365.312 20.4669 368.001C20.8019 370.681 35.5501 368.671 35.5501 368.671L33.2053 291.896L18.457 276.134Z" fill="#BA9066"/>
<path d="M68.0706 191.31C43.394 200.252 13.4229 214.107 6.37904 220.146C-0.664772 226.185 -1.6697 248.638 4.70416 260.045C11.078 271.444 53.6573 328.101 63.0459 339.509C72.4346 350.908 89.5277 374.71 93.2217 378.739C96.9065 382.758 115.014 396.176 146.864 378.739C178.715 361.301 401.67 253.346 420.782 238.598C430.841 229.879 433.186 220.834 417.767 201.387C402.34 181.94 354.401 118.574 343.003 108.515C331.604 98.4564 318.866 96.4465 297.409 105.835C275.942 115.205 114.344 174.552 68.0706 191.31Z" fill="white"/>
<path d="M116.949 387.913C101.456 387.913 93.7055 379.948 92.8773 379.036C91.1187 377.12 86.3825 370.802 80.8926 363.479C74.677 355.197 67.6424 345.809 62.6922 339.798C53.6665 328.837 10.7337 271.76 4.30396 260.269C-2.16295 248.703 -1.15802 225.999 6.0812 219.792C12.9761 213.884 42.4448 200.103 67.9123 190.873C118.615 172.505 276.212 114.572 297.204 105.389C306.583 101.285 314.455 99.2938 321.294 99.2938C329.455 99.2938 336.452 102.104 343.291 108.152C351.982 115.829 382.288 154.946 402.349 180.842C408.825 189.198 414.418 196.418 418.121 201.089C433.939 221.039 430.98 230.363 421.08 238.942C408.714 248.489 312.827 296.167 235.782 334.475C194.264 355.123 158.402 372.951 147.088 379.148C136.443 384.964 126.301 387.913 116.949 387.913ZM321.303 100.224C314.604 100.224 306.844 102.197 297.585 106.245C276.575 115.438 118.95 173.37 68.238 191.747C42.8542 200.95 13.5158 214.647 6.69532 220.5C-0.143782 226.362 -1.04636 248.777 5.12279 259.813C11.5246 271.276 54.4016 328.26 63.418 339.202C68.3868 345.232 75.4306 354.63 81.6463 362.92C87.1176 370.225 91.8538 376.524 93.5752 378.413C94.3754 379.288 101.866 386.983 116.968 386.983C126.161 386.983 136.154 384.07 146.66 378.32C157.993 372.114 193.863 354.285 235.391 333.638C312.399 295.348 408.239 247.698 420.512 238.216C430.227 229.795 432.841 221.114 417.414 201.657C413.71 196.986 408.118 189.765 401.642 181.41C381.609 155.551 351.34 116.471 342.705 108.85C336.014 102.969 329.222 100.224 321.303 100.224Z" fill="black"/>
<path d="M96.9533 259.589C88.0578 256.361 83.0145 253.374 80.5115 255.653C78.0178 257.933 62.6833 276.655 57.1004 284.387C51.5174 292.119 48.7166 296.372 51.4523 299.145C54.1786 301.917 79.6741 315.484 90.0583 321.02C100.433 326.557 116.438 332.67 120.262 333.675C124.096 334.68 125.11 335.769 130.376 325.077C135.643 314.377 141.328 300.559 141.328 300.559L96.9533 259.589Z" fill="#FFA66B"/>
<path d="M103.653 257.459C96.3762 259.534 80.7719 264.865 79.553 265.34C78.334 265.814 73.0488 274.803 73.3652 276.999C73.6909 279.195 82.5212 322.007 83.675 325.338C84.8288 328.669 88.6252 331.944 94.0593 330.111C99.5027 328.278 145.422 315.698 148.837 314.144C152.261 312.59 149.172 301.759 146.241 292.408C143.31 283.066 116.205 256.054 103.653 257.459Z" fill="#FFE7B8"/>
<path d="M73.4959 277.455C75.4872 277.092 84.1314 276.71 84.0942 273.351C84.057 270.104 80.6421 268.169 80.0001 265.219C79.8698 264.633 78.9765 264.884 79.1068 265.47C79.5627 267.582 81.5726 269.49 82.5775 271.379C82.9125 272.011 83.2568 272.784 83.1358 273.528C82.9776 274.459 80.8375 275.008 80.1676 275.212C77.9344 275.901 75.543 276.143 73.254 276.562C72.6585 276.664 72.9097 277.566 73.4959 277.455Z" fill="black"/>
<path d="M87.2113 281.074C88.7467 280.795 90.161 280.2 91.6312 279.697C93.4084 279.092 95.2694 278.702 97.0559 278.106C100.741 276.887 104.425 275.417 108.25 274.663C108.836 274.542 108.585 273.649 107.999 273.77C104.416 274.477 101.057 275.91 97.5677 276.952C94.0877 277.994 90.5239 279.539 86.9601 280.181C86.3739 280.283 86.6251 281.186 87.2113 281.074Z" fill="black"/>
<path d="M83.5446 287.588C85.6568 286.08 88.1505 286.462 90.5605 286.015C93.5753 285.466 96.4598 284.108 99.3071 283.028C102.21 281.93 105.113 280.86 108.11 280.023C111.041 279.195 114.074 278.934 117.042 278.283C117.628 278.153 117.377 277.259 116.791 277.39C113.823 278.032 110.799 278.348 107.858 279.13C104.592 279.986 101.438 281.242 98.2743 282.433C95.3897 283.522 92.1981 285.169 89.0624 285.271C86.9781 285.336 84.8194 285.541 83.0793 286.778C82.5955 287.132 83.0607 287.941 83.5446 287.588Z" fill="black"/>
<path d="M89.3039 299.312C92.2908 297.367 95.9104 297.172 99.2601 296.26C101.056 295.767 102.768 295.088 104.527 294.464C105.69 294.055 106.89 294.055 108.007 293.441C108.537 293.152 108.063 292.352 107.542 292.64C106.109 293.431 104.322 293.543 102.787 294.111C101.112 294.734 99.4369 295.274 97.6969 295.702C94.6449 296.437 91.5278 296.762 88.8387 298.512C88.3362 298.837 88.8014 299.638 89.3039 299.312Z" fill="black"/>
<path d="M89.0813 304.299C95.4366 303.946 101.438 301.527 107.496 299.74C110.92 298.726 114.353 297.721 117.74 296.595C120.476 295.683 123.333 295.19 125.892 293.822C126.422 293.543 125.947 292.733 125.426 293.022C122.933 294.353 120.141 294.799 117.498 295.702C114.4 296.753 111.246 297.674 108.11 298.596C101.876 300.429 95.632 303.006 89.0906 303.369C88.4858 303.397 88.4765 304.327 89.0813 304.299Z" fill="black"/>
<path d="M92.338 312.069C95.0178 311.446 97.6697 310.757 100.294 309.938C101.838 309.454 103.671 309.157 104.983 308.161C105.458 307.807 104.993 306.998 104.518 307.361C103.15 308.403 101.14 308.71 99.512 309.212C97.0649 309.975 94.5805 310.599 92.0867 311.176C91.5098 311.306 91.7611 312.209 92.338 312.069Z" fill="black"/>
<path d="M43.227 91.2916C38.0348 93.1433 30.1536 98.3354 31.661 107.64C33.1684 116.945 46.9954 170.755 53.2856 190.621C59.5757 210.487 59.3244 213 68.3688 223.561C77.4225 234.122 99.5495 268.569 110.111 276.617C120.672 284.666 120.923 285.169 136.769 279.883C152.606 274.608 219.248 240.905 232.321 234.876C245.395 228.837 255.704 224.063 251.936 215.763C248.167 207.463 241.626 200.42 230.563 189.105C219.499 177.79 197.874 156.919 196.116 154.658C194.106 139.324 187.565 113.167 186.057 103.109C184.55 93.0502 180.028 70.4207 178.26 63.6281C176.501 56.8355 172.481 52.5646 157.891 56.8355C143.301 61.1251 58.059 86.0157 43.227 91.2916Z" fill="#D5F0FD"/>
<path d="M41.1329 92.2221C36.6945 96.1115 37.8576 101.667 38.7974 106.952C40.1373 114.507 42.0541 121.961 43.9709 129.386C48.3722 146.414 53.0618 163.377 57.6957 180.34C59.2124 185.913 60.7663 191.477 62.2086 197.07C63.4647 201.936 65.2978 206.561 68.1358 210.366C77.1988 222.528 86.2617 234.68 95.5201 246.683C101.41 254.323 107.644 261.627 114.679 268.262C116.344 269.834 118.066 271.816 120.15 272.858C122.244 273.9 124.728 273.528 126.924 273.044C134.489 271.379 141.719 267.526 148.744 264.307C156.597 260.706 164.423 257.031 172.239 253.337C186.513 246.6 200.759 239.816 214.949 232.922C221.462 229.758 227.957 226.557 234.47 223.412C238.816 221.318 243.403 219.225 247.106 216.08C248.949 214.516 250.289 212.33 249.051 209.994C248.772 209.464 247.962 209.929 248.251 210.459C250.558 214.805 241.803 218.629 239.048 220.081C233.577 222.965 227.91 225.496 222.374 228.25C216.214 231.312 210.017 234.289 203.82 237.267C187.015 245.353 170.164 253.364 153.248 261.208C146.204 264.474 139.16 267.889 131.865 270.56C128.767 271.695 124.914 273.184 121.555 272.384C119.35 271.853 117.601 269.704 116.019 268.234C102.406 255.588 91.6586 240.198 80.5392 225.394C76.6591 220.23 72.7975 215.065 68.936 209.892C65.8933 205.816 64.2742 201.322 62.9995 196.428C59.2775 182.08 55.2206 167.806 51.3404 153.495C48.3442 142.441 45.3388 131.377 42.6217 120.258C41.1795 114.386 39.7558 108.45 39.03 102.448C38.5648 98.6239 38.7881 95.5067 41.7843 92.8827C42.2495 92.4826 41.5889 91.8313 41.1329 92.2221Z" fill="black"/>
<path d="M122.718 274.859C122.718 277.204 122.718 279.548 122.718 281.903C122.718 282.498 123.649 282.498 123.649 281.903C123.649 279.558 123.649 277.213 123.649 274.859C123.649 274.254 122.718 274.254 122.718 274.859Z" fill="black"/>
<path d="M64.4976 213.986C65.1304 212.702 66.0143 211.623 66.8332 210.45C67.7264 209.175 68.5173 209.306 69.9689 208.906C73.0488 208.059 75.8403 206.31 78.7807 205.1C85.0615 202.532 91.5563 200.596 97.7999 197.898C111.664 191.915 125.342 185.504 139.318 179.781C154.485 173.584 169.606 167.415 184.512 160.567C187.127 159.366 189.742 158.147 192.31 156.854C193.259 156.37 194.98 155.803 195.594 154.844C195.92 154.332 195.111 153.867 194.794 154.379C194.152 155.384 191.547 156.212 190.477 156.733C187.369 158.259 184.215 159.701 181.06 161.125C173.374 164.614 165.633 167.992 157.872 171.304C149.442 174.905 140.854 178.078 132.423 181.661C118.587 187.532 105.058 194.241 91.0724 199.74C85.7686 201.825 80.2508 203.295 75.0959 205.751C73.7746 206.384 72.4626 207.007 71.0948 207.538C69.727 208.077 68.3778 208.143 66.9913 208.524C66.4982 208.664 66.2656 209.603 66.0329 209.976C65.2885 211.195 64.3394 212.218 63.6974 213.512C63.4276 214.051 64.2371 214.526 64.4976 213.986Z" fill="black"/>
<path d="M84.9682 210.236C93.9475 205.742 176.501 172.272 185.042 168.746C193.594 165.228 196.608 163.721 201.884 168.997C207.17 174.282 226.775 194.892 230.302 199.173C233.819 203.444 242.872 208.226 230.553 216.024C218.233 223.821 149.079 254.751 140.286 258.771C131.483 262.79 125.203 268.327 117.656 260.027C110.11 251.727 91.0071 224.826 85.7219 218.536C80.4367 212.246 81.9534 211.744 84.9682 210.236Z" fill="#AFD1DF"/>
<path d="M140.733 247.335C139.467 247.335 138.444 246.963 137.662 246.218C137.206 245.781 136.76 245.362 136.332 244.962C133.81 242.608 132.154 241.054 132.349 239.705C132.424 239.174 132.786 238.746 133.419 238.43C136.946 236.671 145.199 233.005 153.192 229.469C160.515 226.222 167.438 223.161 170.471 221.663C181.498 216.238 185.462 214.358 187.695 215.828L187.788 215.884C191.398 218.257 193.575 219.681 193.529 221.337C193.501 222.305 192.729 223.179 191.026 224.156C187.267 226.324 173.077 232.875 163.688 237.211L159.975 238.923C157.686 239.984 155.388 241.203 153.173 242.394C148.409 244.934 143.915 247.335 140.733 247.335ZM185.936 216.284C183.601 216.284 179.162 218.415 170.871 222.491C167.829 223.989 160.897 227.059 153.564 230.307C145.59 233.843 137.337 237.5 133.829 239.249C133.308 239.509 133.27 239.751 133.261 239.826C133.131 240.691 134.992 242.431 136.964 244.274C137.392 244.674 137.839 245.092 138.304 245.539C138.909 246.116 139.7 246.395 140.733 246.395C143.682 246.395 148.084 244.05 152.736 241.566C154.96 240.375 157.268 239.147 159.585 238.076L163.297 236.364C172.667 232.038 186.829 225.496 190.561 223.347C191.919 222.565 192.58 221.895 192.598 221.3C192.636 220.165 190.384 218.694 187.276 216.647L187.183 216.591C186.857 216.387 186.448 216.284 185.936 216.284Z" fill="black"/>
<path d="M124.505 253.122C122.365 253.122 121.267 251.699 120.104 250.191C118.745 248.433 118.187 246.953 118.457 245.79C118.624 245.064 119.117 244.469 119.89 244.087C120.588 243.734 124.216 241.947 126.878 241.166C127.231 241.063 127.566 241.008 127.883 241.008C129.371 241.008 130.265 242.078 131.391 243.436C131.623 243.715 131.865 244.013 132.135 244.32L132.2 244.394C133.177 245.511 134.191 246.665 133.894 248.023C133.624 249.27 132.293 250.405 129.706 251.587C127.38 252.648 125.77 253.122 124.505 253.122ZM127.873 241.929C127.641 241.929 127.399 241.966 127.129 242.05C125.119 242.645 122.188 243.957 120.29 244.916C119.759 245.176 119.452 245.53 119.35 245.995C119.155 246.86 119.666 248.116 120.829 249.624C122.095 251.271 122.895 252.192 124.496 252.192C125.612 252.192 127.147 251.727 129.316 250.74C131.549 249.717 132.777 248.74 132.982 247.828C133.177 246.925 132.358 245.995 131.493 245.009L131.428 244.934C131.158 244.627 130.907 244.32 130.665 244.041C129.66 242.813 128.925 241.929 127.873 241.929Z" fill="black"/>
<path d="M116.959 243.231C114.819 243.231 113.721 241.808 112.548 240.3C111.19 238.542 110.632 237.062 110.902 235.899C111.069 235.173 111.562 234.578 112.334 234.196C114.363 233.182 117.266 231.879 119.322 231.275C119.676 231.172 120.011 231.116 120.327 231.116C121.816 231.116 122.7 232.186 123.835 233.545C124.068 233.824 124.319 234.122 124.58 234.429L124.654 234.503C125.631 235.62 126.636 236.774 126.348 238.132C126.078 239.379 124.747 240.514 122.16 241.696C119.834 242.757 118.234 243.231 116.959 243.231ZM120.327 232.038C120.095 232.038 119.853 232.075 119.583 232.159C117.582 232.745 114.651 234.066 112.744 235.015C112.214 235.276 111.906 235.629 111.804 236.095C111.609 236.96 112.111 238.216 113.284 239.723C114.549 241.37 115.349 242.292 116.95 242.292C118.066 242.292 119.602 241.826 121.77 240.84C124.003 239.816 125.231 238.839 125.436 237.928C125.631 237.025 124.812 236.095 123.947 235.108L123.873 235.024C123.603 234.717 123.351 234.41 123.11 234.122C122.114 232.922 121.379 232.038 120.327 232.038Z" fill="black"/>
<path d="M109.412 233.34C107.272 233.34 106.174 231.917 105.011 230.409C103.652 228.651 103.094 227.171 103.364 226.008C103.531 225.282 104.025 224.687 104.797 224.305C106.825 223.291 109.728 221.988 111.785 221.383C112.138 221.281 112.473 221.225 112.79 221.225C114.269 221.225 115.163 222.295 116.298 223.654C116.53 223.933 116.782 224.231 117.042 224.538L117.117 224.622C118.094 225.738 119.099 226.892 118.81 228.25C118.54 229.497 117.21 230.633 114.623 231.814C112.297 232.866 110.687 233.34 109.412 233.34ZM112.79 222.146C112.557 222.146 112.315 222.184 112.045 222.267C110.036 222.854 107.104 224.175 105.206 225.133C104.676 225.394 104.369 225.747 104.266 226.213C104.071 227.078 104.583 228.334 105.746 229.842C107.011 231.489 107.812 232.41 109.412 232.41C110.529 232.41 112.064 231.945 114.232 230.958C116.465 229.935 117.693 228.958 117.889 228.046C118.084 227.143 117.265 226.213 116.409 225.226L116.335 225.143C116.065 224.836 115.814 224.529 115.572 224.24C114.567 223.03 113.832 222.146 112.79 222.146Z" fill="black"/>
<path d="M101.866 223.449C99.7261 223.449 98.6281 222.026 97.465 220.518C96.1065 218.759 95.5482 217.28 95.818 216.117C95.9855 215.391 96.4787 214.796 97.251 214.414C97.9488 214.061 101.578 212.274 104.239 211.492C104.593 211.39 104.918 211.334 105.244 211.334C106.723 211.334 107.617 212.404 108.752 213.763C108.984 214.042 109.236 214.34 109.496 214.647L109.571 214.73C110.548 215.847 111.553 217.001 111.264 218.359C110.994 219.606 109.664 220.741 107.077 221.923C104.751 222.975 103.141 223.449 101.866 223.449ZM105.244 212.265C105.011 212.265 104.769 212.302 104.499 212.386C102.49 212.972 99.5586 214.293 97.6604 215.252C97.13 215.512 96.8229 215.866 96.7206 216.331C96.5252 217.196 97.037 218.452 98.2001 219.96C99.4655 221.607 100.266 222.528 101.866 222.528C102.983 222.528 104.518 222.063 106.686 221.076C108.919 220.053 110.148 219.076 110.343 218.164C110.538 217.261 109.72 216.331 108.854 215.345L108.78 215.261C108.51 214.954 108.259 214.647 108.017 214.358C107.021 213.139 106.295 212.265 105.244 212.265Z" fill="black"/>
<path d="M131.875 236.606C129.735 236.606 128.637 235.183 127.474 233.675C126.115 231.917 125.557 230.437 125.827 229.274C125.994 228.548 126.487 227.953 127.26 227.571C129.288 226.557 132.191 225.254 134.248 224.649C134.601 224.547 134.936 224.491 135.253 224.491C136.741 224.491 137.635 225.561 138.761 226.92C138.993 227.199 139.235 227.497 139.505 227.804L139.57 227.878C140.547 228.995 141.561 230.149 141.264 231.507C140.994 232.754 139.663 233.889 137.076 235.071C134.76 236.132 133.15 236.606 131.875 236.606ZM135.253 225.422C135.02 225.422 134.778 225.459 134.508 225.543C132.508 226.129 129.577 227.45 127.669 228.399C127.139 228.66 126.832 229.013 126.729 229.479C126.534 230.344 127.046 231.6 128.209 233.108C129.474 234.755 130.275 235.676 131.875 235.676C132.992 235.676 134.527 235.211 136.695 234.224C138.928 233.201 140.166 232.224 140.361 231.312C140.556 230.409 139.738 229.479 138.872 228.492L138.807 228.418C138.537 228.111 138.286 227.804 138.044 227.525C137.03 226.296 136.304 225.422 135.253 225.422Z" fill="black"/>
<path d="M124.337 226.715C122.197 226.715 121.099 225.292 119.936 223.784C118.578 222.025 118.019 220.546 118.289 219.383C118.457 218.657 118.95 218.062 119.722 217.68C121.751 216.666 124.663 215.363 126.71 214.758C127.064 214.656 127.399 214.6 127.715 214.6C129.204 214.6 130.088 215.67 131.223 217.029C131.456 217.308 131.707 217.606 131.967 217.913L132.042 217.996C133.019 219.113 134.033 220.267 133.735 221.625C133.466 222.872 132.135 224.007 129.548 225.189C127.213 226.241 125.603 226.715 124.337 226.715ZM127.706 215.531C127.473 215.531 127.231 215.568 126.961 215.652C124.961 216.238 122.03 217.559 120.122 218.518C119.592 218.778 119.285 219.132 119.182 219.597C118.987 220.462 119.499 221.718 120.662 223.226C121.927 224.873 122.728 225.794 124.328 225.794C125.445 225.794 126.98 225.329 129.148 224.342C131.381 223.319 132.609 222.342 132.814 221.43C133.01 220.527 132.191 219.597 131.325 218.611L131.251 218.527C130.981 218.22 130.73 217.913 130.488 217.624C129.483 216.405 128.757 215.531 127.706 215.531Z" fill="black"/>
<path d="M116.791 216.824C114.651 216.824 113.553 215.4 112.39 213.893C111.032 212.134 110.473 210.655 110.743 209.492C110.911 208.766 111.404 208.17 112.176 207.789C114.214 206.775 117.117 205.472 119.164 204.867C119.518 204.765 119.853 204.709 120.169 204.709C121.658 204.709 122.551 205.779 123.677 207.138C123.91 207.417 124.152 207.715 124.422 208.022L124.496 208.105C125.473 209.222 126.478 210.376 126.189 211.734C125.92 212.981 124.589 214.116 122.002 215.298C119.667 216.35 118.066 216.824 116.791 216.824ZM120.16 205.64C119.927 205.64 119.685 205.677 119.415 205.761C117.424 206.347 114.484 207.668 112.576 208.626C112.046 208.887 111.739 209.241 111.637 209.706C111.441 210.571 111.953 211.827 113.116 213.335C114.382 214.982 115.182 215.903 116.782 215.903C117.899 215.903 119.434 215.438 121.602 214.451C123.835 213.428 125.073 212.451 125.268 211.539C125.464 210.636 124.645 209.706 123.779 208.719L123.714 208.636C123.445 208.329 123.193 208.022 122.951 207.742C121.946 206.524 121.211 205.64 120.16 205.64Z" fill="black"/>
<path d="M146.8 229.981C144.66 229.981 143.562 228.558 142.399 227.05C141.04 225.292 140.482 223.812 140.752 222.649C140.919 221.923 141.412 221.328 142.185 220.946C144.222 219.932 147.125 218.629 149.173 218.024C149.526 217.922 149.861 217.866 150.177 217.866C151.666 217.866 152.56 218.936 153.685 220.304C153.918 220.583 154.16 220.881 154.43 221.179L154.504 221.262C155.481 222.379 156.486 223.533 156.198 224.891C155.928 226.138 154.597 227.273 152.011 228.455C149.675 229.516 148.065 229.981 146.8 229.981ZM150.168 218.797C149.936 218.797 149.694 218.834 149.424 218.918C147.433 219.504 144.585 220.779 142.585 221.784C142.054 222.044 141.747 222.398 141.645 222.863C141.449 223.728 141.952 224.984 143.124 226.492C144.39 228.13 145.19 229.06 146.79 229.06C147.907 229.06 149.442 228.595 151.61 227.608C153.844 226.585 155.081 225.608 155.277 224.696C155.472 223.793 154.653 222.863 153.788 221.877L153.713 221.793C153.443 221.486 153.192 221.179 152.95 220.9C151.955 219.681 151.22 218.797 150.168 218.797Z" fill="black"/>
<path d="M139.253 220.099C137.113 220.099 136.015 218.676 134.852 217.168C133.493 215.41 132.944 213.93 133.205 212.767C133.372 212.041 133.866 211.446 134.638 211.064C136.676 210.05 139.579 208.747 141.626 208.143C141.98 208.04 142.314 207.984 142.631 207.984C144.12 207.984 145.004 209.054 146.139 210.413C146.371 210.692 146.623 210.99 146.883 211.297L146.958 211.381C147.935 212.497 148.94 213.651 148.651 215.01C148.381 216.256 147.051 217.392 144.464 218.573C142.128 219.625 140.528 220.099 139.253 220.099ZM142.622 208.906C142.389 208.906 142.147 208.943 141.877 209.027C139.886 209.613 137.039 210.888 135.038 211.892C134.508 212.153 134.201 212.507 134.098 212.972C133.903 213.837 134.405 215.093 135.568 216.601C136.834 218.238 137.634 219.169 139.235 219.169C140.351 219.169 141.886 218.704 144.055 217.717C146.288 216.694 147.525 215.717 147.721 214.805C147.916 213.902 147.097 212.972 146.232 211.986L146.157 211.902C145.888 211.595 145.636 211.288 145.394 210.999C144.408 209.79 143.673 208.906 142.622 208.906Z" fill="black"/>
<path d="M131.707 210.208C129.566 210.208 128.468 208.785 127.305 207.277C125.947 205.519 125.389 204.039 125.658 202.876C125.826 202.15 126.319 201.555 127.091 201.173C129.12 200.159 132.023 198.856 134.079 198.251C134.433 198.149 134.768 198.093 135.084 198.093C136.573 198.093 137.466 199.163 138.592 200.531C138.825 200.81 139.067 201.108 139.337 201.406L139.411 201.48C140.388 202.597 141.402 203.751 141.104 205.109C140.835 206.356 139.504 207.491 136.917 208.673C134.591 209.734 132.981 210.208 131.707 210.208ZM135.084 199.024C134.852 199.024 134.61 199.061 134.34 199.145C132.339 199.731 129.399 201.052 127.501 202.011C126.97 202.271 126.673 202.625 126.561 203.09C126.366 203.955 126.877 205.212 128.04 206.719C129.306 208.357 130.106 209.287 131.707 209.287C132.823 209.287 134.358 208.822 136.526 207.836C138.76 206.812 139.997 205.835 140.193 204.923C140.388 204.021 139.569 203.09 138.704 202.104L138.639 202.011C138.369 201.704 138.118 201.397 137.876 201.117C136.861 199.898 136.136 199.024 135.084 199.024Z" fill="black"/>
<path d="M161.715 223.365C159.575 223.365 158.477 221.942 157.314 220.434C155.956 218.676 155.397 217.196 155.667 216.033C155.835 215.307 156.328 214.712 157.1 214.33C159.129 213.316 162.032 212.013 164.088 211.409C164.442 211.306 164.777 211.25 165.093 211.25C166.582 211.25 167.475 212.32 168.601 213.688C168.834 213.967 169.076 214.265 169.345 214.563L169.41 214.637C170.388 215.754 171.402 216.908 171.104 218.266C170.834 219.513 169.504 220.648 166.917 221.83C164.6 222.891 162.99 223.365 161.715 223.365ZM165.093 212.181C164.86 212.181 164.618 212.218 164.349 212.302C162.348 212.888 159.417 214.209 157.51 215.158C156.979 215.419 156.672 215.773 156.57 216.238C156.374 217.103 156.886 218.359 158.049 219.867C159.315 221.514 160.115 222.435 161.715 222.435C162.832 222.435 164.367 221.97 166.535 220.983C168.768 219.96 170.006 218.983 170.201 218.071C170.397 217.168 169.578 216.238 168.713 215.252L168.647 215.177C168.378 214.87 168.126 214.563 167.884 214.284C166.87 213.056 166.135 212.181 165.093 212.181Z" fill="black"/>
<path d="M154.169 213.474C152.029 213.474 150.931 212.051 149.758 210.543C148.4 208.785 147.842 207.305 148.111 206.142C148.279 205.416 148.772 204.821 149.544 204.439C151.582 203.425 154.485 202.122 156.532 201.518C156.886 201.415 157.221 201.359 157.537 201.359C159.026 201.359 159.919 202.429 161.045 203.797C161.278 204.076 161.52 204.374 161.79 204.672L161.855 204.746C162.832 205.863 163.846 207.017 163.558 208.375C163.288 209.622 161.957 210.757 159.37 211.939C157.053 213 155.444 213.474 154.169 213.474ZM157.547 202.29C157.314 202.29 157.072 202.327 156.802 202.411C154.811 202.997 151.964 204.272 149.963 205.267C149.433 205.528 149.126 205.881 149.023 206.347C148.828 207.212 149.34 208.468 150.503 209.976C151.768 211.623 152.569 212.544 154.169 212.544C155.286 212.544 156.821 212.079 158.989 211.092C161.222 210.069 162.45 209.092 162.646 208.18C162.841 207.277 162.022 206.347 161.157 205.36L161.092 205.286C160.822 204.979 160.571 204.672 160.329 204.393C159.324 203.164 158.598 202.29 157.547 202.29Z" fill="black"/>
<path d="M146.632 203.583C144.492 203.583 143.394 202.16 142.231 200.652C140.872 198.894 140.314 197.414 140.584 196.251C140.751 195.525 141.244 194.93 142.017 194.548C144.045 193.534 146.948 192.231 149.005 191.626C149.358 191.524 149.693 191.468 150.01 191.468C151.498 191.468 152.392 192.538 153.517 193.906C153.75 194.185 153.992 194.483 154.262 194.781L154.336 194.855C155.313 195.972 156.318 197.126 156.03 198.484C155.76 199.731 154.429 200.866 151.843 202.048C149.507 203.109 147.897 203.583 146.632 203.583ZM150 192.399C149.768 192.399 149.526 192.436 149.256 192.52C147.255 193.106 144.324 194.427 142.417 195.386C141.886 195.646 141.579 196 141.477 196.465C141.282 197.33 141.793 198.586 142.956 200.094C144.222 201.732 145.022 202.662 146.623 202.662C147.739 202.662 149.274 202.197 151.442 201.21C153.676 200.187 154.904 199.21 155.109 198.298C155.304 197.395 154.485 196.465 153.62 195.479L153.545 195.395C153.276 195.088 153.024 194.781 152.782 194.502C151.787 193.283 151.052 192.399 150 192.399Z" fill="black"/>
<path d="M176.631 216.74C174.491 216.74 173.393 215.317 172.23 213.809C170.871 212.051 170.313 210.571 170.583 209.408C170.75 208.682 171.243 208.087 172.016 207.705C174.044 206.691 176.947 205.388 179.004 204.784C179.357 204.681 179.692 204.625 180.009 204.625C181.497 204.625 182.391 205.695 183.516 207.054C183.749 207.333 184 207.631 184.261 207.938L184.326 208.012C185.303 209.129 186.317 210.283 186.02 211.641C185.75 212.888 184.419 214.023 181.832 215.205C179.515 216.266 177.906 216.74 176.631 216.74ZM180.009 205.556C179.776 205.556 179.534 205.593 179.264 205.677C177.264 206.263 174.333 207.584 172.425 208.543C171.895 208.803 171.588 209.157 171.485 209.622C171.29 210.487 171.802 211.744 172.965 213.251C174.23 214.889 175.03 215.819 176.631 215.819C177.747 215.819 179.283 215.354 181.451 214.368C183.684 213.344 184.922 212.367 185.117 211.455C185.312 210.553 184.494 209.622 183.628 208.636L183.563 208.561C183.293 208.254 183.042 207.947 182.8 207.659C181.786 206.44 181.06 205.556 180.009 205.556Z" fill="black"/>
<path d="M169.094 206.849C166.954 206.849 165.856 205.426 164.693 203.918C163.335 202.16 162.776 200.68 163.046 199.517C163.214 198.791 163.707 198.196 164.479 197.814C166.507 196.8 169.411 195.497 171.467 194.892C171.821 194.79 172.156 194.734 172.472 194.734C173.951 194.734 174.845 195.804 175.98 197.163C176.212 197.442 176.464 197.74 176.724 198.047L176.789 198.121C177.766 199.238 178.781 200.392 178.483 201.75C178.213 202.997 176.882 204.132 174.296 205.314C171.969 206.375 170.36 206.849 169.094 206.849ZM172.463 195.665C172.23 195.665 171.988 195.702 171.718 195.786C169.718 196.372 166.787 197.693 164.879 198.642C164.349 198.903 164.042 199.256 163.939 199.722C163.744 200.587 164.246 201.843 165.419 203.351C166.684 204.988 167.484 205.919 169.085 205.919C170.202 205.919 171.737 205.453 173.905 204.467C176.138 203.444 177.376 202.467 177.571 201.555C177.766 200.652 176.948 199.722 176.082 198.735L176.017 198.661C175.747 198.354 175.496 198.047 175.254 197.758C174.249 196.549 173.514 195.665 172.463 195.665Z" fill="black"/>
<path d="M161.547 196.967C159.407 196.967 158.309 195.544 157.146 194.036C155.788 192.278 155.229 190.798 155.499 189.635C155.667 188.909 156.16 188.314 156.932 187.932C158.97 186.918 161.873 185.615 163.92 185.011C164.274 184.908 164.609 184.852 164.925 184.852C166.405 184.852 167.298 185.922 168.433 187.281C168.666 187.56 168.917 187.858 169.177 188.165L169.243 188.239C170.22 189.356 171.234 190.51 170.936 191.868C170.666 193.115 169.336 194.25 166.749 195.432C164.423 196.493 162.822 196.967 161.547 196.967ZM164.925 185.774C164.692 185.774 164.45 185.811 164.181 185.895C162.18 186.481 159.249 187.802 157.342 188.76C156.811 189.021 156.504 189.375 156.402 189.84C156.206 190.705 156.718 191.961 157.881 193.469C159.147 195.116 159.947 196.037 161.547 196.037C162.664 196.037 164.199 195.572 166.367 194.585C168.6 193.562 169.838 192.585 170.033 191.673C170.229 190.77 169.41 189.84 168.545 188.854L168.48 188.779C168.21 188.472 167.958 188.165 167.717 187.877C166.702 186.658 165.967 185.774 164.925 185.774Z" fill="black"/>
<path d="M191.556 210.125C189.416 210.125 188.318 208.701 187.155 207.194C185.796 205.435 185.238 203.955 185.508 202.792C185.675 202.067 186.169 201.471 186.941 201.089C188.969 200.075 191.873 198.773 193.929 198.168C194.282 198.065 194.617 198.01 194.934 198.01C196.423 198.01 197.316 199.08 198.442 200.447C198.674 200.727 198.916 201.024 199.186 201.331L199.261 201.415C200.238 202.532 201.243 203.686 200.954 205.044C200.684 206.291 199.354 207.426 196.767 208.608C194.431 209.65 192.822 210.125 191.556 210.125ZM194.925 198.931C194.692 198.931 194.45 198.968 194.18 199.052C192.18 199.638 189.249 200.959 187.341 201.918C186.811 202.178 186.504 202.532 186.401 202.997C186.206 203.862 186.708 205.119 187.881 206.626C189.146 208.264 189.946 209.194 191.547 209.194C192.663 209.194 194.199 208.729 196.367 207.742C198.6 206.719 199.828 205.742 200.024 204.83C200.219 203.927 199.4 202.997 198.544 202.011L198.47 201.927C198.2 201.62 197.949 201.313 197.707 201.034C196.711 199.815 195.976 198.931 194.925 198.931Z" fill="black"/>
<path d="M197.921 220.183C195.781 220.183 194.683 218.759 193.519 217.252C192.161 215.493 191.612 214.014 191.872 212.851C192.04 212.125 192.533 211.53 193.305 211.148C195.343 210.134 198.246 208.831 200.293 208.226C200.647 208.124 200.982 208.068 201.298 208.068C202.787 208.068 203.671 209.138 204.806 210.497C205.039 210.776 205.29 211.074 205.551 211.381L205.616 211.455C206.593 212.572 207.607 213.726 207.309 215.084C207.039 216.331 205.709 217.466 203.122 218.648C200.805 219.709 199.195 220.183 197.921 220.183ZM201.298 208.989C201.066 208.989 200.824 209.027 200.554 209.11C198.563 209.696 195.715 210.971 193.715 211.967C193.194 212.227 192.887 212.581 192.775 213.046C192.58 213.912 193.082 215.168 194.245 216.675C195.511 218.322 196.311 219.243 197.911 219.243C199.028 219.243 200.563 218.778 202.731 217.792C204.964 216.768 206.202 215.791 206.397 214.879C206.593 213.977 205.774 213.046 204.909 212.06L204.843 211.986C204.574 211.678 204.322 211.371 204.08 211.083C203.076 209.873 202.35 208.989 201.298 208.989Z" fill="black"/>
<path d="M213.851 213.642C211.71 213.642 210.612 212.218 209.449 210.711C208.091 208.952 207.533 207.473 207.802 206.31C207.97 205.584 208.463 204.988 209.235 204.607C211.273 203.592 214.176 202.29 216.223 201.685C216.577 201.583 216.912 201.527 217.228 201.527C218.717 201.527 219.61 202.597 220.736 203.965C220.969 204.244 221.211 204.542 221.481 204.849L221.546 204.923C222.523 206.04 223.537 207.193 223.239 208.552C222.969 209.799 221.639 210.934 219.052 212.116C216.726 213.167 215.125 213.642 213.851 213.642ZM217.228 202.457C216.996 202.457 216.754 202.495 216.484 202.578C214.493 203.164 211.645 204.439 209.645 205.435C209.114 205.695 208.807 206.049 208.705 206.514C208.51 207.38 209.012 208.636 210.184 210.143C211.45 211.781 212.25 212.711 213.851 212.711C214.967 212.711 216.502 212.246 218.671 211.26C220.904 210.236 222.141 209.259 222.337 208.347C222.532 207.445 221.713 206.514 220.848 205.528L220.783 205.453C220.513 205.146 220.262 204.839 220.02 204.56C219.006 203.332 218.27 202.457 217.228 202.457Z" fill="black"/>
<path d="M184.01 200.233C181.87 200.233 180.772 198.81 179.6 197.302C178.241 195.544 177.683 194.064 177.953 192.901C178.12 192.175 178.613 191.58 179.386 191.198C181.424 190.184 184.327 188.881 186.374 188.277C186.727 188.174 187.053 188.118 187.379 188.118C188.858 188.118 189.751 189.189 190.887 190.547C191.119 190.826 191.37 191.124 191.631 191.431L191.705 191.515C192.682 192.631 193.687 193.785 193.399 195.144C193.129 196.391 191.798 197.526 189.212 198.707C186.895 199.759 185.285 200.233 184.01 200.233ZM187.388 189.049C187.155 189.049 186.913 189.086 186.644 189.17C184.652 189.756 181.805 191.031 179.804 192.036C179.274 192.296 178.967 192.65 178.865 193.115C178.669 193.981 179.181 195.237 180.344 196.744C181.619 198.382 182.41 199.312 184.01 199.312C185.127 199.312 186.662 198.847 188.83 197.861C191.063 196.837 192.292 195.86 192.487 194.948C192.682 194.046 191.864 193.115 191.008 192.129L190.933 192.045C190.663 191.738 190.412 191.431 190.17 191.143C189.165 189.924 188.43 189.049 187.388 189.049Z" fill="black"/>
<path d="M176.463 190.342C174.323 190.342 173.225 188.919 172.062 187.411C170.704 185.653 170.145 184.173 170.415 183.01C170.583 182.284 171.076 181.689 171.848 181.307C173.886 180.293 176.789 178.99 178.836 178.386C179.19 178.283 179.515 178.227 179.841 178.227C181.321 178.227 182.214 179.297 183.349 180.656C183.582 180.935 183.824 181.233 184.093 181.54L184.168 181.624C185.145 182.74 186.15 183.894 185.861 185.253C185.591 186.499 184.261 187.635 181.674 188.816C179.348 189.868 177.738 190.342 176.463 190.342ZM179.841 179.158C179.608 179.158 179.367 179.195 179.097 179.279C177.105 179.865 174.258 181.14 172.258 182.145C171.727 182.405 171.42 182.759 171.318 183.224C171.122 184.089 171.634 185.346 172.797 186.853C174.063 188.491 174.863 189.421 176.463 189.421C177.58 189.421 179.115 188.956 181.283 187.97C183.517 186.955 184.754 185.969 184.949 185.057C185.145 184.155 184.326 183.224 183.461 182.238L183.386 182.154C183.116 181.847 182.865 181.54 182.623 181.261C181.618 180.032 180.883 179.158 179.841 179.158Z" fill="black"/>
<path d="M206.472 203.499C204.332 203.499 203.234 202.076 202.07 200.568C200.712 198.81 200.154 197.33 200.423 196.167C200.591 195.441 201.084 194.846 201.856 194.464C203.894 193.45 206.797 192.147 208.844 191.543C209.198 191.44 209.533 191.384 209.849 191.384C211.338 191.384 212.231 192.455 213.357 193.822C213.59 194.102 213.832 194.399 214.102 194.706L214.176 194.79C215.153 195.907 216.167 197.06 215.87 198.419C215.6 199.666 214.269 200.801 211.682 201.983C209.356 203.025 207.746 203.499 206.472 203.499ZM209.849 192.315C209.617 192.315 209.375 192.352 209.105 192.436C207.104 193.022 204.173 194.343 202.266 195.302C201.735 195.562 201.428 195.916 201.326 196.381C201.131 197.247 201.642 198.503 202.806 200.01C204.071 201.648 204.871 202.578 206.472 202.578C207.588 202.578 209.124 202.113 211.292 201.127C213.525 200.103 214.762 199.126 214.958 198.214C215.153 197.312 214.334 196.381 213.469 195.395L213.395 195.311C213.125 195.004 212.873 194.697 212.632 194.418C211.627 193.199 210.892 192.315 209.849 192.315Z" fill="black"/>
<path d="M198.926 193.608C196.786 193.608 195.688 192.185 194.525 190.677C193.166 188.919 192.608 187.439 192.878 186.276C193.045 185.55 193.538 184.955 194.311 184.573C196.348 183.559 199.251 182.256 201.299 181.652C201.652 181.549 201.987 181.493 202.303 181.493C203.792 181.493 204.686 182.573 205.811 183.931C206.044 184.21 206.286 184.508 206.556 184.806L206.63 184.88C207.607 185.997 208.621 187.151 208.324 188.509C208.054 189.756 206.723 190.891 204.137 192.073C201.81 193.134 200.201 193.608 198.926 193.608ZM202.303 182.424C202.071 182.424 201.829 182.461 201.559 182.545C199.568 183.131 196.721 184.406 194.72 185.411C194.19 185.671 193.892 186.025 193.78 186.49C193.585 187.355 194.097 188.612 195.26 190.119C196.525 191.757 197.325 192.687 198.926 192.687C200.042 192.687 201.578 192.222 203.746 191.236C205.979 190.212 207.216 189.235 207.412 188.323C207.607 187.421 206.788 186.49 205.923 185.504L205.849 185.42C205.579 185.113 205.328 184.806 205.086 184.527C204.081 183.308 203.355 182.424 202.303 182.424Z" fill="black"/>
<path d="M191.389 183.717C189.249 183.717 188.151 182.294 186.987 180.786C185.629 179.028 185.071 177.548 185.34 176.385C185.508 175.659 186.001 175.064 186.773 174.682C188.802 173.668 191.705 172.365 193.761 171.76C194.115 171.658 194.45 171.602 194.766 171.602C196.255 171.602 197.148 172.672 198.274 174.04C198.507 174.319 198.749 174.617 199.019 174.924L199.093 175.008C200.07 176.124 201.075 177.278 200.787 178.637C200.517 179.884 199.186 181.019 196.599 182.201C194.264 183.243 192.663 183.717 191.389 183.717ZM194.757 172.533C194.524 172.533 194.282 172.57 194.013 172.654C192.012 173.24 189.081 174.561 187.174 175.52C186.643 175.78 186.336 176.134 186.234 176.599C186.038 177.464 186.55 178.72 187.713 180.228C188.979 181.875 189.779 182.796 191.379 182.796C192.496 182.796 194.031 182.331 196.199 181.344C198.432 180.321 199.67 179.344 199.865 178.432C200.061 177.529 199.242 176.599 198.386 175.613L198.312 175.529C198.042 175.222 197.79 174.915 197.549 174.636C196.544 173.417 195.808 172.533 194.757 172.533Z" fill="black"/>
<path d="M58.3098 96.6605C52.9036 98.7355 46.5763 101.183 47.7487 107.389C49.3119 115.661 55.4625 139.072 58.9797 153.653C62.497 168.234 68.0334 187.011 69.2058 191.533C70.3782 196.056 71.0482 201.424 77.422 198.745C83.7959 196.065 171.132 158.678 178.678 154.825C186.224 150.973 188.569 150.471 187.062 144.432C185.554 138.393 177.003 89.4492 174.491 77.5483C171.978 65.6473 170.629 62.465 160.412 65.4798C150.177 68.4946 69.2058 92.4733 58.3098 96.6605Z" fill="#AFD1DF"/>
<path d="M148.158 154.835C146.874 155.588 141.337 158.157 134.145 161.395C133.149 161.851 132.126 162.297 131.074 162.772C127.175 164.521 122.914 166.391 118.671 168.252C111.98 171.184 105.29 174.068 99.9492 176.301C95.6038 178.125 92.1517 179.511 90.3187 180.144C81.6093 183.159 78.5945 180.647 76.0729 172.44C73.5605 164.223 62.497 125.496 60.8128 118.788C59.1379 112.088 62.6738 109.771 69.8665 107.054C76.0728 104.7 113.451 92.9758 125.184 89.1143C136.918 85.262 136.918 90.6217 138.434 95.6556C138.593 96.1767 138.834 97.0327 139.151 98.1586C141.105 105.202 145.757 122.705 148.884 134.243C149.107 135.043 149.312 135.825 149.516 136.569C149.619 136.96 149.721 137.332 149.814 137.695C149.833 137.77 149.851 137.835 149.87 137.909C150.056 138.561 150.214 139.165 150.363 139.752C150.847 141.454 151.229 142.831 151.498 143.771C153.694 151.318 152.187 152.481 148.158 154.835Z" fill="white"/>
<path d="M134.154 161.395C133.158 161.851 132.135 162.297 131.083 162.772C129.613 159.999 126.366 151.224 124.905 147.689C124.784 147.382 124.672 147.093 124.57 146.879L127.203 145C127.203 145 127.482 145.688 127.938 146.777C129.436 150.359 132.749 158.352 134.154 161.395Z" fill="#FFE7B8"/>
<path d="M149.833 137.695C147.144 139.984 115.758 151.355 115.265 149.764C114.763 148.126 110.994 118.713 110.361 114.051C109.729 109.408 109.859 108.906 113.507 107.64C117.108 106.393 131.902 100.234 139.151 98.1586" fill="white"/>
<path d="M115.693 150.368C115.525 150.368 115.395 150.35 115.293 150.322C114.967 150.229 114.855 150.015 114.818 149.894C114.446 148.684 112.511 134.001 110.715 120.332C110.333 117.41 110.036 115.149 109.896 114.107C109.245 109.334 109.412 108.552 113.348 107.194C114.483 106.803 116.716 105.928 119.536 104.821C125.658 102.42 134.042 99.1356 139.02 97.7027C139.262 97.6282 139.523 97.7771 139.597 98.019C139.672 98.2703 139.523 98.5215 139.281 98.5959C134.349 100.01 125.984 103.295 119.88 105.686C117.042 106.794 114.809 107.678 113.655 108.078C110.305 109.231 110.203 109.455 110.817 113.986C110.957 115.028 111.254 117.299 111.636 120.211C112.883 129.749 115.172 147.233 115.665 149.447C118.438 149.726 146.808 139.649 149.526 137.332C149.721 137.165 150.019 137.193 150.186 137.388C150.354 137.583 150.326 137.881 150.13 138.039C147.646 140.17 120.178 150.368 115.693 150.368Z" fill="black"/>
<path d="M118.68 168.252C111.99 171.184 105.299 174.068 99.9585 176.301C98.2185 171.835 95.4363 162.884 95.1851 158.771C101.224 154.379 110.603 154.035 110.603 154.035C110.603 154.035 117.005 162.353 118.68 168.252Z" fill="black"/>
<path d="M83.4608 158.808C82.9583 161.702 79.0596 165.601 80.9485 167.862C82.8374 170.123 85.6009 166.857 86.1034 163.842C85.8522 169.248 88.9972 166.103 87.6108 159.943C85.8429 157.682 83.4608 158.808 83.4608 158.808Z" fill="#FFA66B"/>
<path d="M114.762 125.748C115.013 121.979 116.149 119.839 117.656 120.211C119.163 120.593 117.275 122.603 117.275 122.603C120.289 121.095 122.811 119.458 123.313 121.467C123.816 123.477 119.545 126.492 118.41 127.246C117.275 128.009 114.762 125.748 114.762 125.748Z" fill="#FFA66B"/>
<path d="M80.8558 159.859C80.6883 160.697 86.9785 161.367 88.2346 161.618C89.4908 161.869 90.8307 151.271 91.0819 149.633C92.0031 157.431 92.8033 161.032 93.678 161.032C94.5526 161.032 112.372 154.658 112.241 153.281C112.12 151.894 107.217 142.217 107.217 142.217C112.372 144.227 118.783 143.101 119.536 127.758C117.024 126.12 114.502 125.366 114.13 125.617C113.749 125.869 112.744 135.043 110.231 135.174C107.719 135.294 101.931 130.521 95.5204 132.661C89.1186 134.801 82.3725 139.826 80.8558 159.859Z" fill="#6DDA41"/>
<path d="M92.2545 134.671C91.752 132.531 91.752 130.521 90.7471 130.4C89.7421 130.27 84.3639 129.079 83.7405 122.537C83.117 115.996 92.3847 112.795 94.6458 115.81C96.9069 118.825 98.6655 123.98 96.4044 127.627C94.6458 129.888 96.0229 130.772 96.4044 132.903C96.7859 135.053 92.8872 136.057 92.2545 134.671Z" fill="#FFA66B"/>
<path d="M124.701 110.153C126.208 112.042 127.846 112.916 127.846 114.172C127.967 116.936 119.174 127.497 131.363 130.763C140.668 133.257 142.175 124.854 141.924 120.072C141.673 115.298 132.247 113.661 132.749 112.777C133.503 108.124 133.754 107.501 132.88 107.501C131.986 107.519 125.073 109.148 124.701 110.153Z" fill="#FFE7B8"/>
<path d="M122.309 135.304C125.957 133.164 134.508 123.738 136.387 122.603C138.276 121.467 140.658 130.521 135.252 135.174C129.855 139.826 123.314 138.188 122.309 135.304Z" fill="#FF8F46"/>
<path d="M142.045 87.1881C144.306 86.4344 156.039 82.5822 156.961 82.2379C157.882 81.9029 158.217 84.9177 158.468 86.8531C158.719 88.7793 158.635 89.0305 156.207 89.8679C153.778 90.7054 145.562 93.3945 144.306 93.6364C143.05 93.8877 142.799 93.134 142.464 91.7103C142.129 90.296 141.207 87.6068 142.045 87.1881Z" fill="#FFE7B8"/>
<path d="M170.043 81.996C170.639 78.609 163.753 76.8876 162.748 81.996C161.743 87.1044 169.206 86.7694 170.043 81.996Z" fill="#D5F0FD"/>
<path d="M146.325 101.313C148.121 101.35 149.693 100.783 151.312 100.057C153.62 99.0147 155.89 97.9446 158.235 96.9583C160.599 95.972 162.943 94.8926 165.409 94.1575C167.689 93.4783 169.969 93.0688 172.09 91.9429C172.621 91.6638 172.146 90.8543 171.625 91.1427C169.596 92.2221 167.373 92.6687 165.167 93.2642C163.223 93.7946 161.343 94.6414 159.491 95.4323C157.481 96.279 155.425 97.042 153.452 97.9725C151.145 99.0519 148.977 100.448 146.343 100.382C145.72 100.373 145.72 101.304 146.325 101.313Z" fill="black"/>
<path d="M148.819 107.166C153.639 104.998 158.766 103.649 163.669 101.676C164.218 101.453 163.976 100.559 163.418 100.783C158.44 102.783 153.239 104.16 148.344 106.366C147.805 106.607 148.279 107.408 148.819 107.166Z" fill="black"/>
<path d="M166.684 100.922C169.029 100.392 171.346 99.7684 173.597 98.9123C174.156 98.6983 173.914 97.805 173.346 98.019C171.094 98.8751 168.777 99.4985 166.433 100.029C165.856 100.159 166.098 101.052 166.684 100.922Z" fill="black"/>
<path d="M150.577 113.074C152.959 111.53 155.936 111.437 158.495 110.311C159.044 110.069 158.57 109.269 158.03 109.511C155.453 110.646 152.503 110.72 150.112 112.274C149.609 112.591 150.074 113.4 150.577 113.074Z" fill="black"/>
<path d="M152.726 119.783C156.662 119.113 160.329 117.587 164.041 116.164C168.117 114.61 172.341 113.549 176.491 112.237C177.059 112.06 176.817 111.158 176.24 111.344C172.341 112.572 168.377 113.549 164.544 114.991C160.58 116.48 156.672 118.173 152.475 118.89C151.889 118.983 152.14 119.886 152.726 119.783Z" fill="black"/>
<path d="M153.341 125.264C155.704 124.212 158.244 123.701 160.673 122.835C163.297 121.905 165.772 120.621 168.443 119.774C169.01 119.597 168.768 118.695 168.191 118.881C165.521 119.718 163.018 120.9 160.422 121.942C157.947 122.938 155.313 123.375 152.866 124.464C152.327 124.706 152.801 125.506 153.341 125.264Z" fill="black"/>
<path d="M155.574 131.479C157.184 130.13 159.5 129.953 161.445 129.33C163.604 128.632 165.725 127.813 167.819 126.948C168.368 126.725 168.126 125.822 167.568 126.055C165.037 127.106 162.469 128.111 159.835 128.855C158.068 129.349 156.365 129.618 154.922 130.828C154.457 131.21 155.118 131.861 155.574 131.479Z" fill="black"/>
<path d="M156.486 136.579C158.291 135.378 160.403 134.978 162.46 134.373C164.581 133.75 166.61 132.95 168.685 132.215C172.546 130.837 176.38 129.33 179.878 127.153C180.39 126.836 179.916 126.027 179.413 126.352C175.486 128.8 171.178 130.13 166.945 131.908C163.427 133.378 159.231 133.657 156.03 135.788C155.518 136.113 155.983 136.914 156.486 136.579Z" fill="black"/>
<path d="M157.742 145.26C161.808 143.176 166.228 141.892 170.313 139.854C170.852 139.584 170.378 138.784 169.848 139.054C165.753 141.091 161.343 142.376 157.277 144.46C156.737 144.73 157.212 145.53 157.742 145.26Z" fill="black"/>
<path d="M182.512 253.15C182.019 253.15 181.609 253.039 181.256 252.825C180.251 252.201 179.981 250.806 179.888 248.889L180.818 248.842C180.893 250.238 181.051 251.597 181.749 252.025C182.353 252.397 183.479 252.211 185.191 251.448C189.072 249.736 193.315 247.809 195.343 246.46C197.232 245.204 197.967 244.339 197.651 240.859L198.581 240.775C198.926 244.553 198.06 245.772 195.864 247.242C193.78 248.628 189.686 250.499 185.573 252.313C184.298 252.881 183.303 253.15 182.512 253.15Z" fill="black"/>
<path d="M95.6503 114.935C95.52 111.921 88.0761 112.274 83.7028 117.485C82.9677 118.36 82.7909 119.839 83.2655 120.937C83.2003 121.039 82.4466 121.598 82.3443 122.956C82.121 126.287 84.4565 130.847 88.318 129.591C88.3553 129.144 87.341 127.516 87.341 127.516C84.3262 128.111 84.3262 123.654 86.8107 125.124C88.3367 125.45 85.7313 121.43 87.7225 119.588C90.9979 116.564 95.7806 117.95 95.6503 114.935Z" fill="black"/>
<path d="M206.472 140.282C204.713 145.455 205.067 153.774 214.046 157.608C223.016 161.441 252.755 160.343 259.966 153.969C265.595 148.991 263.744 141.129 260.32 134.811C254.504 124.073 212.018 124.287 206.472 140.282Z" fill="#FFE7B8"/>
<path d="M297.706 268.122C301.251 263.851 311.329 249.596 302.926 234.057C293.203 232.047 288.011 227.013 286.326 226.51C284.652 226.008 279.087 231.34 271.411 232.549C246.939 236.402 244.882 248.089 244.808 248.135C238.974 245.725 230.283 245.558 216.763 253.337C194.636 266.075 190.784 268.755 188.094 270.941C188.467 271.537 189.146 272.551 190.039 273.835C188.709 274.803 186.922 275.147 187.09 275.975C187.248 276.776 203.634 302.978 208.891 307.928C209.803 309.175 210.603 310.18 211.226 310.841C214.744 314.526 249.116 302.457 261.352 296.762C273.588 291.068 301.084 277.65 299.577 273.296C299.037 271.742 298.395 269.909 297.706 268.122Z" fill="white"/>
<path d="M214.009 311.985C212.446 311.985 211.431 311.715 210.892 311.157C210.278 310.506 209.477 309.51 208.51 308.198C203.215 303.22 186.811 276.971 186.634 276.059C186.457 275.184 187.35 274.747 188.29 274.291C188.644 274.124 189.025 273.928 189.388 273.705C188.616 272.588 188.03 271.714 187.704 271.183C187.583 270.988 187.62 270.727 187.806 270.579C190.449 268.429 194.245 265.768 216.531 252.936C224.291 248.47 231.223 246.2 237.141 246.2C239.756 246.2 242.231 246.646 244.51 247.512C245.478 244.683 250.214 235.415 271.336 232.084C275.831 231.377 279.562 229.246 282.279 227.692C284.261 226.557 285.61 225.813 286.457 226.064C286.978 226.222 287.666 226.678 288.727 227.367C291.444 229.153 296.004 232.14 303.02 233.592C303.15 233.619 303.271 233.703 303.336 233.824C311.766 249.428 301.81 263.823 298.237 268.196C298.888 269.89 299.493 271.621 300.014 273.119C301.521 277.483 279.934 288.602 261.548 297.163C250.372 302.383 223.258 311.985 214.009 311.985ZM188.718 271.044C189.109 271.639 189.686 272.505 190.43 273.575C190.57 273.779 190.523 274.068 190.319 274.217C189.788 274.598 189.211 274.887 188.7 275.138C188.281 275.343 187.509 275.724 187.546 275.892C187.946 276.971 203.969 302.671 209.208 307.603C210.203 308.952 210.975 309.91 211.562 310.534C211.757 310.738 212.334 311.073 214 311.073C222.97 311.073 250.326 301.387 261.148 296.344C285.163 285.159 300.07 276.171 299.121 273.454C298.581 271.881 297.939 270.067 297.26 268.308C297.195 268.15 297.223 267.973 297.334 267.843C300.628 263.87 310.715 249.763 302.601 234.485C295.529 232.977 290.774 229.851 288.206 228.167C287.294 227.562 286.569 227.087 286.178 226.976C286.15 226.966 286.113 226.966 286.066 226.966C285.461 226.966 284.196 227.692 282.726 228.53C279.943 230.121 276.128 232.298 271.467 233.033C249.554 236.485 245.794 246.274 245.264 248.2C245.236 248.312 245.134 248.489 245.041 248.554C244.91 248.638 244.752 248.647 244.613 248.591C242.314 247.642 239.793 247.158 237.122 247.158C231.372 247.158 224.589 249.382 216.968 253.765C195.669 266.028 191.342 268.95 188.718 271.044Z" fill="black"/>
<path d="M189.649 274.068C191.994 278.311 195.446 282.024 198.302 285.932C201.847 290.789 205.309 295.739 208.491 300.847C208.808 301.359 209.617 300.894 209.291 300.382C206.258 295.525 202.983 290.798 199.614 286.173C196.599 282.033 192.933 278.097 190.449 273.612C190.16 273.072 189.351 273.547 189.649 274.068Z" fill="black"/>
<path d="M244.482 248.461C248.93 252.834 253.006 257.533 256.998 262.325C261.036 267.173 265.567 271.909 269.001 277.204C269.327 277.706 270.136 277.241 269.801 276.738C266.47 271.593 262.106 267.024 258.198 262.316C254.039 257.3 249.786 252.369 245.143 247.8C244.715 247.381 244.054 248.042 244.482 248.461Z" fill="black"/>
<path d="M2.58236 224.715C1.56813 228.502 2.48001 232.521 3.61521 236.169C5.36453 241.78 8.18392 247.065 11.1615 252.108C18.0657 263.795 26.8682 274.449 34.9448 285.345C41.8305 294.632 48.6882 303.974 56.0018 312.925C61.1847 319.262 66.7211 325.329 72.2296 331.386C78.6593 338.458 85.1634 345.464 91.8164 352.331C95.8733 356.519 99.9303 361.069 104.88 364.232C120.838 374.393 140.89 362.474 155.657 355.56C173.43 347.232 191.128 338.746 208.788 330.195C209.328 329.934 208.853 329.134 208.323 329.395C195.938 335.387 183.535 341.333 171.113 347.242C162.031 351.559 152.94 355.849 143.803 360.054C134.275 364.437 123.313 368.82 112.641 366.484C106.714 365.181 102.191 361.394 97.9762 357.263C91.8536 351.261 86.0101 344.971 80.176 338.69C73.8207 331.842 67.5306 324.928 61.3987 317.875C54.9783 310.497 49.0697 302.718 43.1983 294.902C34.4424 283.233 25.4538 271.639 17.1259 259.664C12.9759 253.709 9.21676 247.419 6.32294 240.747C4.28516 236.048 2.09851 230.139 3.48494 224.975C3.63382 224.38 2.74055 224.138 2.58236 224.715Z" fill="black"/>
<path d="M356.021 252.732C360.757 252.788 365.633 250.675 369.95 248.954C376.808 246.218 383.461 242.971 390.03 239.612C400.75 234.131 411.813 228.502 421.676 221.551C422.16 221.207 421.695 220.397 421.211 220.751C411.636 227.488 400.926 232.94 390.551 238.3C384.01 241.677 377.385 244.906 370.574 247.707C366.117 249.54 360.952 251.857 356.021 251.801C355.425 251.792 355.425 252.722 356.021 252.732Z" fill="black"/>
<path d="M286.503 255.691C282.484 255.356 273.43 258.035 269.233 256.361C265.046 254.686 270.238 251.336 275.44 251.838C280.641 252.341 285.163 249.494 279.125 247.986C273.086 246.479 262.022 248.154 267.559 242.794C268.898 239.779 272.248 238.774 273.765 239.109C275.942 233.07 291.872 241.789 297.902 241.287C302.424 249.149 302.424 254.509 286.503 255.691Z" fill="#FF8F46"/>
<path d="M287.22 142.645C279.608 146.674 273.644 157.719 272.592 163.991C271.55 170.262 271.932 172.542 270.061 172.682C267.242 172.886 264.767 172.607 264.097 174.319C262.869 177.436 267.968 177.725 267.819 181.605C267.67 185.485 264.534 199.368 267.372 208.319C270.21 217.271 275.43 221.756 282.893 223.096C290.355 224.435 293.938 220.109 294.682 228.018C295.427 235.927 297.073 251.457 297.073 251.457L327.37 244.292L321.555 219.215C321.555 219.215 335.279 136.979 287.22 142.645Z" fill="#FFA66B"/>
<path d="M295.539 240.077C295.818 245.018 296.711 250.136 296.125 255.077C296.05 255.672 296.99 255.663 297.055 255.077C297.642 250.136 296.748 245.018 296.469 240.077C296.441 239.482 295.511 239.472 295.539 240.077Z" fill="black"/>
<path d="M285.591 143.632C287.834 143.632 293.342 145.334 293.64 149.066C290.355 156.379 291.854 162.502 297.669 166.531C303.494 170.56 306.927 174.291 299.763 180.712C292.598 187.132 292.449 195.19 301.103 200.857C309.756 206.533 311.85 208.468 308.267 215.931C304.685 223.393 299.735 230.242 306.983 238.942C314.027 233.768 320.95 233.247 327.37 233.843C333.791 234.438 337.82 233.843 341.7 226.231C345.58 218.62 353.787 221.905 360.207 223.84C366.628 225.775 369.912 223.393 373.048 215.931C376.184 208.468 382.158 209.659 386.484 208.617C390.811 207.575 392.309 196.232 396.189 194.585C390.216 189.663 387.275 193.729 383.842 189.849C380.408 185.969 384.893 177.762 380.111 172.244C375.337 166.726 368.033 173.361 366.246 168.736C364.46 164.112 374.248 159.208 364.097 147.717C353.945 136.225 346.185 145.176 339.467 136.523C332.749 127.869 300.963 126.027 285.591 143.632Z" fill="black"/>
<path d="M280.055 156.342C282.782 156.314 285.08 158.659 285.927 161.116C286.104 161.618 286.904 161.404 286.727 160.892C285.769 158.091 283.173 155.486 280.055 155.514C279.525 155.523 279.525 156.351 280.055 156.342Z" fill="black"/>
<path d="M268.247 190.854C269.596 192.008 271.429 192.789 273.253 192.482C275.403 192.12 276.845 190.696 278.436 189.328C278.845 188.984 278.25 188.398 277.85 188.742C275.142 191.059 272.155 193.115 268.833 190.268C268.433 189.924 267.847 190.51 268.247 190.854Z" fill="black"/>
<path d="M281.525 172.384C281.255 174.161 280.167 175.464 279.115 175.296C278.054 175.129 277.422 173.566 277.692 171.788C277.961 170.011 279.05 168.708 280.102 168.876C281.162 169.043 281.804 170.616 281.525 172.384Z" fill="black"/>
<path d="M253.806 278.488C252.643 279.148 248.781 277.985 244.752 276.134C244.706 276.059 244.631 275.985 244.548 275.882C241.57 272.467 218.81 249.801 214.418 243.445C214.4 243.408 214.372 243.362 214.363 243.324C211.748 238.504 222.486 233.75 225.147 236.402C227.836 239.081 249.786 267.75 251.47 269.434C251.712 269.676 251.954 270.02 252.196 270.43C253.611 272.905 254.811 277.911 253.806 278.488Z" fill="black"/>
<path d="M214.363 243.324C211.748 238.504 222.486 233.75 225.147 236.402C226.915 239.947 218.038 247.186 214.363 243.324Z" fill="#FFE7B8"/>
<path d="M253.806 278.488C252.643 279.148 248.781 277.985 244.752 276.134C244.706 276.059 244.631 275.985 244.547 275.882C248.4 276.487 251.554 273.686 252.177 270.43C253.61 272.905 254.811 277.911 253.806 278.488Z" fill="#FFE7B8"/>
<path d="M218.94 279.325C219.108 272.784 221.732 260.585 227.594 258.24C230.05 260.752 231.642 262.465 231.642 262.465C230.302 266.652 234.191 269.611 237.55 267.927C240.9 266.252 242.24 261.888 246.101 261.385C249.954 260.883 248.279 264.912 245.599 269.601C242.919 274.3 239.234 279.493 234.2 280.665C228.832 281.837 219.62 282.005 218.94 279.325Z" fill="#FFA66B"/>
<path d="M237.718 302.625C238.22 294.911 236.88 283.847 235.876 279.828C234.871 275.808 227.157 270.774 217.936 279.325C208.715 287.876 198.991 335.983 208.212 348.721C217.433 361.459 235.624 360.669 246.688 350.424C262.664 335.638 279.153 319.857 280.66 319.02C282.167 318.182 277.952 363.302 280.809 369.499C301.764 375.035 391.398 361.292 393.073 359.105C394.747 356.928 397.083 339.835 382.167 304.634C395.417 303.434 402.657 294.734 392.003 273.807C383.368 256.854 370.778 247.754 351.833 242.599C325.631 235.462 303.094 241.259 281.637 258.361C260.18 275.464 240.565 298.437 237.718 302.625Z" fill="#6DDA41"/>
<path d="M268.191 243.427C270.433 242.403 272.992 242.887 275.309 243.297C277.654 243.706 279.989 244.255 282.027 245.53C282.539 245.846 283.004 245.046 282.492 244.729C279.962 243.148 277.03 242.654 274.137 242.161C272.006 241.798 269.726 241.715 267.716 242.636C267.177 242.878 267.651 243.678 268.191 243.427Z" fill="black"/>
<path d="M271.448 240.17C274.332 239.612 276.714 239.584 279.571 240.384C281.711 240.98 284.279 241.882 286.177 243.017C286.699 243.324 287.164 242.524 286.643 242.217C284.354 240.859 281.553 239.975 279.003 239.267C276.268 238.504 273.932 238.746 271.197 239.286C270.62 239.379 270.871 240.282 271.448 240.17Z" fill="black"/>
<path d="M222.448 321.42C224.96 316.684 229.25 313.12 232.618 309.008C234.144 307.137 235.624 305.239 237.28 303.481C239.132 301.508 241.253 299.833 242.993 297.758C243.375 297.302 242.723 296.642 242.332 297.097C240.592 299.172 238.508 300.894 236.619 302.82C234.73 304.746 233.121 306.914 231.427 308.998C228.17 312.99 224.086 316.349 221.648 320.946C221.359 321.486 222.169 321.951 222.448 321.42Z" fill="black"/>
<path d="M370.378 277.213C373.644 282.014 375.533 288.314 377.71 293.72C379.562 298.316 381.981 303.127 383.06 307.984C383.191 308.57 384.084 308.319 383.954 307.733C382.837 302.718 380.334 297.758 378.417 293.003C376.268 287.653 374.416 281.493 371.178 276.738C370.843 276.245 370.043 276.71 370.378 277.213Z" fill="black"/>
<path d="M217.014 240.849C218.15 243.11 223.305 240.217 221.918 238.337C220.532 236.448 215.628 239.463 217.014 240.849Z" fill="black"/>
<path d="M253.629 274.049C252.959 275.826 251.396 277.892 249.991 278.153C251.777 278.674 253.182 278.841 253.806 278.488C254.42 278.134 254.206 276.124 253.629 274.049Z" fill="black"/>
<path d="M270.322 270.951C278.083 268.736 284.028 273.984 288.448 279.79C293.296 286.164 294.561 293.915 293.445 301.722C293.361 302.308 294.254 302.559 294.338 301.973C295.538 293.571 294.096 285.383 288.718 278.637C284.028 272.756 277.971 267.806 270.071 270.057C269.503 270.216 269.745 271.109 270.322 270.951Z" fill="black"/>
<path d="M285.135 267.899C286.55 264.372 289.937 261.692 292.402 258.882C294.952 255.97 297.827 253.755 300.842 251.355C301.307 250.982 300.647 250.331 300.181 250.694C296.72 253.439 293.668 256.063 290.718 259.375C288.392 261.99 285.563 264.335 284.242 267.647C284.009 268.206 284.912 268.448 285.135 267.899Z" fill="black"/>
<path d="M279.636 320.313C281.107 318.694 282.856 317.419 284.559 316.061C286.615 314.423 288.541 312.618 290.57 310.952C291.035 310.571 290.374 309.92 289.909 310.292C288.057 311.809 286.252 313.381 284.447 314.944C282.614 316.526 280.613 317.847 278.976 319.643C278.576 320.099 279.227 320.76 279.636 320.313Z" fill="black"/>
<path d="M290.188 321.821C290.188 327.915 290.123 334.019 290.207 340.123C290.291 346.125 290.858 352.108 290.886 358.11C290.886 358.705 291.817 358.705 291.817 358.11C291.789 352.108 291.268 346.116 291.137 340.123C291.007 334.029 291.119 327.925 291.119 321.821C291.119 321.216 290.188 321.216 290.188 321.821Z" fill="black"/>
<path d="M233.437 137.36C229.296 124.073 224.449 110.962 219.796 97.8516C215.348 85.3085 210.156 72.8307 206.779 59.9527C206.676 59.5619 206.583 59.1711 206.527 58.771C206.351 57.5892 204.555 58.0917 204.731 59.2641C205.085 61.6555 206.025 64.0282 206.769 66.3172C208.072 70.3183 209.449 74.3008 210.826 78.274C212.948 84.3594 215.153 90.4262 217.33 96.493C222.141 109.864 226.84 123.3 231.288 136.802C231.399 137.155 231.52 137.509 231.632 137.863C232.004 138.998 233.8 138.505 233.437 137.36Z" fill="black"/>
<path d="M193.798 40.4403C196.981 38.4304 201.512 37.258 204.527 38.9329C207.542 40.6078 213.413 47.8191 211.236 55.1979C209.058 62.5767 201.68 60.2225 198.665 58.3801C195.641 56.5378 189.444 44.1343 193.798 40.4403Z" fill="#6DDA41"/>
<path d="M203.345 42.4408C205.774 40.0774 208.817 38.1885 211.543 36.1973C216.726 32.4009 221.946 28.6603 227.166 24.9197C235.522 18.9367 243.915 13.0187 252.271 7.04499C253.238 6.35643 252.308 4.73737 251.331 5.43524C242.835 11.502 234.303 17.5223 225.807 23.6077C220.615 27.3204 215.432 31.0516 210.277 34.8201C207.533 36.83 204.462 38.7375 202.024 41.1195C201.168 41.9663 202.48 43.2783 203.345 42.4408Z" fill="black"/>
<path d="M266.218 29.0418C260.933 29.6838 252.643 31.3866 252.81 40.6078C252.978 49.8289 253.648 50.3314 250.298 52.5088C246.948 54.6861 233.865 66.9221 236.554 79.6698C239.234 92.4082 260.356 98.2796 279.971 93.2456C299.586 88.2117 304.276 79.6698 302.936 72.1235C301.596 64.5772 295.892 52.3413 288.011 49.8289C280.632 47.4841 281.469 46.9816 280.464 39.9378C279.459 32.9033 275.942 27.8694 266.218 29.0418Z" fill="#AFD1DF"/>
<path d="M257.779 8.33837C260.105 16.6383 263.995 24.5382 265.828 32.9778C266.079 34.1502 267.875 33.657 267.624 32.4846C265.8 24.0357 261.901 16.1452 259.575 7.84521C259.249 6.6914 257.453 7.17526 257.779 8.33837Z" fill="black"/>
<path d="M194.133 41.9105C197.204 41.7337 199.623 45.9116 200.805 48.2471C201.726 50.0709 204.182 57.3287 200.712 58.0917C200.126 58.222 200.377 59.1152 200.963 58.985C204.601 58.1847 203.205 52.2947 202.489 49.9406C201.484 46.6467 198.246 40.7381 194.133 40.9707C193.538 41.0172 193.538 41.9477 194.133 41.9105Z" fill="black"/>
<path d="M207.802 141.696C209.542 153.355 225.723 153.067 234.656 152.657C241.15 152.36 248.148 151.569 254.261 149.243C258.746 147.54 260.728 143.39 260.961 138.83C260.988 138.226 260.058 138.235 260.03 138.83C259.751 144.488 256.755 147.679 251.432 149.149C245.691 150.741 239.783 151.494 233.846 151.764C228.477 152.006 223.359 151.922 218.149 150.452C215.599 149.736 213.068 148.703 211.077 146.907C209.486 145.474 209.002 143.464 208.704 141.445C208.611 140.859 207.709 141.11 207.802 141.696Z" fill="black"/>
<path d="M251.638 3.89993C252.587 8.64543 254.987 11.1112 259.016 9.25956C263.036 7.41719 260.691 3.38816 258.849 1.21082C256.997 -0.966532 250.791 -0.287274 251.638 3.89993Z" fill="#FFE7B8"/>
<path d="M252.708 1.95521C255.202 0.866533 259.296 5.7423 257.509 7.92896C257.128 8.3849 257.788 9.05485 258.17 8.5896C260.673 5.53759 255.741 -0.371019 252.243 1.15499C251.684 1.38761 252.159 2.18783 252.708 1.95521Z" fill="black"/>
<path d="M255.881 34.2804C255.043 38.784 260.422 39.761 263.79 39.9564C268.461 40.2263 275.049 39.3144 277.85 35.1365C278.185 34.634 277.375 34.1688 277.049 34.6713C274.686 38.1978 269.41 38.8585 265.502 39.0353C262.664 39.1655 255.992 38.784 256.774 34.5224C256.886 33.9455 255.983 33.6942 255.881 34.2804Z" fill="black"/>
<path d="M252.847 51.8388C252.959 57.2822 258.97 58.5662 263.288 58.7989C269.466 59.1245 275.756 58.2127 279.534 52.7507C279.878 52.2575 279.069 51.7923 278.734 52.2854C275.561 56.8821 270.201 58.0731 264.925 57.9428C260.868 57.8498 253.899 57.4217 253.787 51.8481C253.759 51.2433 252.829 51.2433 252.847 51.8388Z" fill="black"/>
</svg>
