<svg width="521" height="424" viewBox="0 0 521 424" fill="none" xmlns="http://www.w3.org/2000/svg">
<g clip-path="url(#clip0_599_3158)">
<path d="M23.9918 106.158C35.0202 95.537 48.944 88.2967 64.6471 86.1835C73.5744 84.986 114.013 84.6187 118.447 94.2892C106.75 68.7646 100.401 36.0351 123.097 14.6867C139.971 -1.18754 167.275 -4.64918 187.573 6.5156C213.028 20.5181 215.325 45.6653 216.355 71.4464C220.166 40.4376 251.798 18.0024 282.998 17.1169C309.338 16.3672 336.326 29.2628 350.033 51.7886C357.633 64.2766 358.568 73.6452 354.834 86.9835C352.476 95.4011 347.389 123.487 337.477 126.757C364.927 117.706 398.138 110.395 425.261 123.98C449.62 136.176 465.173 167.039 454.667 192.191C444.398 216.765 415.711 227.2 389.799 233.253C401.169 240.116 411.795 248.704 418.943 259.899C426.091 271.094 429.439 285.182 425.819 297.967C422.577 309.429 414.133 318.828 404.421 325.716C391.317 335.009 375.171 340.428 359.161 339.17C343.152 337.912 327.489 329.524 318.918 315.929C333.847 334.118 339.553 359.96 332.078 382.274C324.604 404.594 303.527 422.143 280.073 423.854C258.926 425.399 238.02 414.42 224.584 398.002C211.148 381.585 204.578 360.347 202.869 339.19C197.571 361.514 183.23 383.844 164.682 397.323C156.076 403.577 146.224 408.463 135.668 409.766C112.626 412.619 89.4786 396.664 81.1746 374.963C72.8707 353.263 78.3044 327.663 92.3186 309.137C82.2805 317.887 67.0146 315.175 54.1264 311.849C43.9224 309.217 33.2509 306.254 25.6758 298.923C12.5412 286.214 13.3606 263.809 23.0368 248.302C32.713 232.795 49.0797 222.848 65.4011 214.641C25.9573 216.272 -11.5865 178.294 3.35256 138.022C7.8916 125.781 14.9791 114.843 23.9918 106.158Z" fill="#1E1E1E"/>
<path d="M426.219 320.393C426.083 317.303 425.947 314.214 425.812 311.125C425.43 302.42 424.701 292.956 417.819 286.446C410.883 279.885 399.588 278.169 389.163 277.615C377.199 276.981 361.692 276.383 347.587 278.295C338.168 279.573 329.366 281.968 322.666 286.219C308.837 294.994 307.661 311.99 309.888 326.43C311.361 335.99 314.306 346.229 323.193 352.332C330.266 357.188 339.821 358.501 348.92 359.18C350.136 359.271 351.418 359.371 352.745 359.482C350.704 368.458 347.376 377.137 342.857 385.152C354.283 380.056 364.06 371.371 370.549 360.679C391.621 361.55 415.728 359.774 423.384 343.678C426.852 336.373 426.561 328.252 426.219 320.393Z" fill="#38EF08"/>
<path d="M205.452 47.1472C202.17 21.2 177.424 8.90315 156.825 8.1434C150.502 7.91196 143.685 7.90693 136.844 8.53586C121.382 9.95976 105.795 14.6239 95.5003 27.2176C89.0511 35.1069 84.4669 45.5623 85.05 56.3094C85.7889 69.995 94.8669 81.7384 105.714 87.766C116.557 93.7937 128.947 95.0264 141.016 95.2981C148.531 95.4642 156.091 95.2881 163.546 94.2415C169.542 103.122 179.244 108.496 188.397 113.281C184.079 106.458 181.285 98.4076 180.294 90.0805C184.924 88.2843 189.342 85.834 193.152 82.3824C202.256 74.1409 207.111 60.239 205.452 47.1472Z" fill="white"/>
<path d="M326.308 234.928C326.308 240.262 325.866 245.499 325.011 250.596C321.457 271.925 310.771 290.843 295.485 304.805C285.432 313.982 273.388 321.011 260.087 325.177C251.17 327.975 241.685 329.474 231.848 329.474C188.971 329.474 152.774 300.886 141.233 261.711C138.73 253.223 137.388 244.231 137.388 234.928C137.388 210.747 146.451 188.694 161.365 171.97C178.671 152.584 203.84 140.377 231.853 140.377C250.698 140.377 268.256 145.897 282.994 155.411C309.057 172.247 326.308 201.57 326.308 234.928Z" fill="#0880DB"/>
<path d="M325.016 250.596C321.462 271.925 310.775 290.843 295.489 304.805C295.464 304.533 295.454 304.262 295.469 303.99C295.871 295.718 292.901 287.331 287.371 281.167C286.255 279.93 285.009 278.712 284.496 277.127C283.466 273.932 285.733 270.219 284.265 267.19C283.179 264.941 280.42 264.035 277.921 263.925C275.423 263.819 272.88 264.262 270.437 263.713C269.371 263.477 268.321 263.019 267.597 262.204C265.908 260.317 266.436 257.117 264.691 255.28C262.907 253.409 259.891 253.952 257.312 254.194C254.744 254.44 253.482 252.8 253.321 250.219C244.153 245.197 235.909 239.155 232.642 228.85C230.983 223.608 228.892 221.806 225.263 217.877C223.041 215.477 217.044 212.141 216.893 208.599C216.813 206.672 218.085 204.337 216.637 203.059C216.109 202.596 215.37 202.475 214.742 202.158C212.143 200.86 212.369 197.162 212.716 194.274C213.068 191.386 212.359 187.482 209.469 187.2C207.725 187.029 205.377 188.191 204.553 186.636C204.312 186.179 204.342 185.63 204.377 185.117C204.563 182.521 204.744 179.919 204.93 177.323C199.838 178.174 195.812 183.24 196.128 188.397C196.168 189.082 196.279 189.786 196.068 190.435C195.771 191.361 194.922 191.97 194.278 192.699C191.775 195.557 190.212 202.571 193.514 205.072C194.655 205.932 195.962 206.561 197.048 207.487C199.486 209.575 200.496 213.187 199.486 216.236C198.958 217.836 197.928 219.552 198.652 221.077C199.612 223.094 202.703 222.853 204.276 224.438C205.347 225.509 205.483 227.175 205.558 228.689C205.734 232.262 207.619 240.242 203.281 242.158C199.325 243.904 193.851 238.345 192.167 235.396C188.955 229.635 189.875 221.922 185.557 216.936C183.079 214.078 178.967 212.201 178.319 208.473C177.776 205.338 179.731 201.253 177.148 199.401C175.786 198.43 173.82 198.772 172.423 197.862C170.488 196.604 170.558 193.67 169.04 191.93C166.818 189.384 162.078 190.259 160.193 187.452C159.449 186.335 159.374 184.906 159.414 183.562C159.519 180.03 161.45 176.337 161.414 172.996C161.409 172.634 161.389 172.282 161.349 171.95C178.671 152.584 203.839 140.377 231.852 140.377C250.697 140.377 268.255 145.897 282.993 155.411C283.295 156.941 283.4 158.491 283.219 160.005C282.792 163.562 280.686 168.106 279.696 171.582C278.987 174.068 275.272 178.662 277.283 181.127C277.6 181.514 278.032 181.806 278.268 182.244C278.695 183.034 278.339 184.05 277.735 184.714C277.132 185.379 276.318 185.811 275.619 186.375C273.458 188.101 272.462 190.964 272.372 193.731C272.206 199.004 274.569 204.221 278.7 207.562C279.248 208.005 279.862 208.463 280.083 209.127C280.379 210.053 279.831 211.019 279.268 211.804C278.047 213.535 276.64 215.175 275.86 217.152C275.081 219.125 275.066 221.575 276.474 223.165C279.173 226.199 285.321 224.538 287.175 228.151C288.145 230.048 287.261 232.377 287.683 234.465C288.357 237.811 292.127 239.582 295.525 239.874C298.917 240.166 302.416 239.517 305.708 240.392C309.855 241.489 313.213 245.147 313.957 249.379C317.109 248.911 320.436 248.458 323.382 249.655C323.955 249.882 324.513 250.209 325.016 250.596Z" fill="#38EF08"/>
<path d="M260.088 325.177C251.17 327.975 241.685 329.474 231.848 329.474C188.971 329.474 152.775 300.886 141.233 261.711C141.636 261.625 142.058 261.55 142.49 261.494C149.346 260.518 156.434 263.532 160.455 269.198C162.154 271.582 163.491 274.546 166.201 275.653C170.262 277.308 175.198 273.847 179.129 275.794C180.396 276.418 181.361 277.54 182.623 278.194C186.855 280.387 191.686 276.503 196.441 276.176C200.186 275.92 203.83 277.922 207.565 277.565C210.284 277.308 212.988 275.799 215.617 276.553C220.971 278.093 222.876 284.74 227.088 287.703C229.34 289.288 231.868 290.732 233.2 293.142C235.422 297.162 233.517 302.264 234.668 306.712C235.221 308.84 236.493 310.777 238.232 312.121C240.263 313.696 242.796 314.425 245.184 315.366C250.065 317.288 256.871 320.347 259.887 324.881C259.957 324.971 260.022 325.072 260.088 325.177Z" fill="#38EF08"/>
<path d="M186.01 170.199C187.277 168.065 189.383 165.962 192.002 165.786C194.002 165.65 196.546 166.948 196.787 169.142C196.928 170.385 198.577 170.707 199.009 169.444C199.853 166.969 201.799 164.599 204.418 163.94C206.589 163.396 209.263 164.8 208.967 167.301C208.896 167.909 209.54 168.433 210.098 168.433C210.771 168.433 211.158 167.909 211.229 167.301C211.425 165.645 210.605 163.995 209.349 162.948C207.941 161.771 206.197 161.358 204.398 161.64C200.718 162.214 197.974 165.479 196.827 168.84C197.566 168.941 198.31 169.042 199.049 169.142C198.677 165.826 195.596 163.512 192.339 163.512C188.77 163.512 185.794 166.138 184.06 169.052C183.311 170.309 185.261 171.447 186.01 170.199Z" fill="black"/>
<path d="M195.38 308.423C197.446 307.155 200.009 306.204 202.442 306.883C204.252 307.391 205.976 308.926 206.107 310.893C206.192 312.206 207.871 312.382 208.328 311.195C209.218 308.885 211.902 307.326 214.345 307.713C216.864 308.111 218.919 310.425 219.05 312.966C219.12 314.279 220.83 314.455 221.272 313.268C221.669 312.196 223.293 312.131 224.187 312.483C225.695 313.082 226.66 314.682 227.495 315.98C228.284 317.197 230.239 316.065 229.45 314.838C228.219 312.926 226.706 310.707 224.338 310.169C222.207 309.686 219.89 310.531 219.095 312.669C219.834 312.77 220.578 312.87 221.317 312.971C221.131 309.389 218.382 306.063 214.777 305.509C211.093 304.941 207.484 307.155 206.152 310.601C206.891 310.702 207.635 310.802 208.374 310.903C208.183 308.015 206.066 305.731 203.387 304.82C200.311 303.769 196.898 304.85 194.239 306.486C193.002 307.23 194.138 309.187 195.38 308.423Z" fill="black"/>
<path d="M273.524 255.784C274.745 254.999 275.997 254.269 277.288 253.605C278.545 252.961 279.917 252.236 281.355 252.141C283.788 251.98 285.849 253.68 287.186 255.562C287.864 256.513 289.161 256.121 289.292 254.989C289.649 251.884 293.514 250.546 295.791 252.584C296.38 253.112 297.5 252.971 297.681 252.086C298.013 250.455 299.667 249.555 301.25 249.595C303.291 249.645 305.035 251.094 306.357 252.508C307.353 253.575 308.951 251.97 307.956 250.908C306.156 248.981 303.673 247.205 300.908 247.331C298.491 247.441 296.003 248.986 295.5 251.482C296.128 251.316 296.762 251.15 297.39 250.984C295.651 249.424 293.112 248.85 290.911 249.736C288.709 250.626 287.296 252.654 287.03 254.989C287.734 254.797 288.437 254.606 289.136 254.415C287.422 252.01 284.889 249.892 281.792 249.862C280.043 249.841 278.404 250.541 276.861 251.291C275.318 252.045 273.825 252.896 272.382 253.826C271.161 254.616 272.292 256.579 273.524 255.784Z" fill="black"/>
<path d="M231.903 218.516C234.924 215.869 239.935 216.186 242.69 219.054C243.258 219.648 244.399 219.391 244.58 218.556C245.027 216.473 246.807 215.049 248.797 214.501C251.512 213.756 254.392 214.647 256.91 215.663C257.478 215.889 258.152 215.416 258.303 214.873C258.479 214.229 258.081 213.711 257.513 213.479C254.508 212.272 251.044 211.391 247.857 212.418C245.289 213.248 242.987 215.23 242.403 217.952C243.032 217.786 243.665 217.62 244.293 217.454C240.649 213.655 234.235 213.469 230.309 216.916C229.204 217.877 230.812 219.472 231.903 218.516Z" fill="black"/>
<path d="M236.593 172.413C239.112 170.586 243.083 171.009 244.953 173.61C245.34 174.148 246.219 174.45 246.727 173.842C248.079 172.221 249.155 170.138 251.03 169.047C251.739 168.634 252.593 168.367 253.402 168.609C254.006 168.79 254.724 169.273 254.805 169.957C254.941 171.175 256.63 171.552 257.027 170.259C257.66 168.181 259.263 166.37 261.314 165.595C263.606 164.725 266.155 165.112 268.156 166.491C268.658 166.838 269.412 166.586 269.704 166.083C270.03 165.519 269.804 164.881 269.297 164.533C266.788 162.797 263.39 162.35 260.545 163.472C257.811 164.553 255.71 166.838 254.85 169.655C255.589 169.756 256.333 169.857 257.072 169.957C256.76 167.155 253.825 165.675 251.241 166.491C248.361 167.396 246.943 170.068 245.129 172.236C245.722 172.312 246.315 172.387 246.903 172.468C244.365 168.941 239.041 167.859 235.447 170.46C234.955 170.818 234.713 171.447 235.04 172.01C235.332 172.498 236.096 172.775 236.593 172.413Z" fill="black"/>
<path d="M284.949 58.4C283.803 53.8465 281.189 49.7308 277.836 46.4403C273.674 42.3547 267.944 39.3962 262.163 40.1308C256.383 40.8654 251.085 46.244 251.874 52.0252C249.823 49.5698 246.666 47.8641 243.489 48.2365C240.318 48.6038 237.417 51.4616 237.628 54.6566C235.271 53.9019 232.788 53.1421 230.365 53.6402C227.635 54.2038 225.449 56.2969 223.936 58.6465C222.161 61.4038 221.111 64.6289 220.925 67.9044C220.829 69.5849 220.975 71.3459 221.82 72.8C222.669 74.2541 224.358 75.3107 226.012 74.9987C225.414 73.0264 222.81 72.2566 220.875 72.9811C218.944 73.7006 217.592 75.4465 216.507 77.2025C214.511 80.4226 213.023 83.9598 212.118 87.6428C211.515 90.0881 211.188 92.7447 212.148 95.0692C213.385 98.0579 216.416 99.8239 219.256 101.374C217.135 100.896 215.541 103.296 214.913 105.379C213.898 108.74 213.586 112.483 215.039 115.678C216.491 118.873 220.075 121.253 223.494 120.473C223.564 125.882 228.681 129.922 233.823 131.582C237.397 132.74 241.489 133.107 244.756 131.26C247.501 129.711 249.25 126.838 250.401 123.899C250.28 127.512 252.678 131.074 256.066 132.317C259.459 133.56 263.586 132.387 265.823 129.55C267.567 132.654 272.126 132.714 275.393 131.301C279.475 129.535 282.803 126.098 284.431 121.957C289.312 120.045 293.665 115.371 295.002 110.299C298.38 110.541 301.311 107.688 302.512 104.523C304.869 98.3044 301.612 90.5208 295.535 87.834C298.315 86.6918 300.119 83.678 300.109 80.6692C300.099 77.6604 298.405 74.7824 295.957 73.0415C294.937 72.317 293.65 71.5119 293.7 70.2641C293.725 69.7258 294.012 69.2428 294.248 68.7547C295.676 65.8365 295.269 62.1082 293.243 59.5623C291.222 57.0113 288.111 57.6604 284.949 58.4Z" fill="black"/>
<path d="M417.093 59.1044C415.153 54.7522 411.831 51.0893 407.91 48.3824C403.039 45.0214 396.796 43.0591 391.146 44.8C385.491 46.5358 381.133 52.8352 382.923 58.4805C380.449 56.3824 376.991 55.2252 373.885 56.1509C370.773 57.0717 368.376 60.4327 369.135 63.5874C366.651 63.2453 364.033 62.9182 361.7 63.834C359.066 64.8704 357.247 67.3459 356.141 69.9572C354.844 73.0264 354.356 76.4277 354.733 79.7384C354.929 81.434 355.377 83.1698 356.478 84.473C357.578 85.7761 359.453 86.5409 361.047 85.9421C360.107 84.0704 357.367 83.7585 355.563 84.8151C353.758 85.8717 352.713 87.8541 351.928 89.7912C350.491 93.3585 349.616 97.1522 349.35 100.991C349.174 103.542 349.305 106.254 350.672 108.413C352.426 111.185 355.764 112.423 358.87 113.479C356.669 113.369 355.492 116.045 355.221 118.239C354.789 121.776 355.125 125.575 357.131 128.513C359.137 131.457 363.133 133.213 366.415 131.834C367.426 137.228 373.241 140.377 378.67 141.147C382.44 141.681 386.597 141.338 389.548 138.923C392.026 136.896 393.272 133.721 393.916 130.581C394.418 134.214 397.434 137.358 401.044 138.008C404.648 138.662 408.573 136.775 410.318 133.545C412.6 136.347 417.169 135.613 420.19 133.63C423.965 131.155 426.694 127.14 427.604 122.717C432.153 119.955 435.692 114.526 436.154 109.223C439.573 108.875 442.01 105.52 442.664 102.138C443.941 95.512 439.336 88.2969 432.792 86.6667C435.375 85.0415 436.657 81.7157 436.119 78.7069C435.586 75.7031 433.395 73.117 430.645 71.8038C429.504 71.2554 428.072 70.6767 427.911 69.4189C427.84 68.8755 428.046 68.3421 428.197 67.8189C429.117 64.6491 428.062 60.9962 425.599 58.8075C423.13 56.6239 420.13 57.8164 417.093 59.1044Z" fill="black"/>
<path d="M382.018 130.626C386.311 131.673 391.056 130.657 394.544 127.935C397.017 126.008 398.907 123.039 398.691 119.909C398.475 116.78 395.575 113.826 392.478 114.309C395.56 111.733 398.958 108.282 398.073 104.362C397.535 101.992 395.454 100.211 393.172 99.3761C390.89 98.5358 388.412 98.4805 385.979 98.4302C390.287 96.5786 393.574 91.2755 391.372 87.1346C389.191 83.0289 383.541 82.6868 378.896 82.883C382.194 80.6239 384.521 75.7333 381.907 72.7094C379.424 69.8415 374.815 70.9937 371.281 72.3874C373.649 71.205 374.061 67.6277 372.432 65.5447C370.804 63.4566 367.793 62.8327 365.224 63.4516C362.65 64.0704 360.454 65.7208 358.518 67.527C355.523 70.3195 352.843 73.8969 352.718 77.9924C363.796 94.8075 377.841 110.913 382.018 130.626Z" fill="#A197FF"/>
<path d="M292.117 73.7107C290.715 69.5145 287.327 66.0377 283.17 64.5333C280.224 63.4667 276.705 63.4465 274.177 65.2981C271.649 67.1497 270.694 71.1748 272.749 73.5447C268.934 72.3069 264.199 71.2654 261.359 74.1031C259.64 75.8189 259.248 78.5308 259.751 80.9107C260.258 83.2906 261.53 85.4239 262.782 87.5069C258.921 84.8453 252.688 84.8855 250.356 88.956C248.044 92.9962 250.768 97.9572 253.407 101.786C249.738 100.196 244.364 100.83 243.203 104.659C242.097 108.292 245.535 111.582 248.587 113.831C246.325 112.458 243.082 114.013 242.188 116.503C241.293 118.994 242.364 121.877 244.259 123.723C246.154 125.57 248.717 126.556 251.276 127.235C255.232 128.282 259.685 128.649 263.214 126.576C271.543 108.226 277.676 87.7484 292.117 73.7107Z" fill="#A197FF"/>
<path d="M310.71 215.265C317.738 215.597 324.715 214.792 330.5 212.79C336.215 210.813 341.508 207.673 346.756 204.558C367.687 192.136 379.696 158.893 380.153 134.506C380.515 115.366 374.136 96.0805 362.319 81.6956C349.013 65.4943 331.088 61.6503 311.268 64.2717C291.453 66.888 272.91 80.327 264.068 99.3308C255.955 116.77 256.141 137.152 258.891 156.231C260.354 166.4 262.525 176.553 266.717 185.801C270.91 195.049 277.263 203.406 285.703 208.458C292.499 212.523 301.647 214.838 310.71 215.265Z" fill="#FEDBCB"/>
<path d="M375.161 182.873C370.049 181.499 363.052 179.401 358.704 176.387C362.982 165.464 366.34 154.586 369.647 143.336C358.448 141.318 349.727 131.879 345.414 121.338C341.101 110.797 340.071 100.171 339.452 88.8C317.159 106.677 287.196 114.611 258.986 110.108C258.986 110.108 278.47 42.5208 345.339 68.2818C345.339 68.2818 389.764 74.5006 387.989 116.367C386.215 158.234 375.161 182.873 375.161 182.873Z" fill="black"/>
<path d="M357.372 189.358C364.409 189.771 371.567 189.675 378.439 187.104C385.31 184.533 391.935 179.25 396.067 171.054C400.199 162.858 401.41 151.532 398.032 143.024C397.309 141.203 396.379 139.512 395.147 138.35C393.589 136.87 391.659 136.337 389.769 136.02C376.911 133.892 363.218 141.298 354.442 155.125C353.663 161.172 352.853 166.596 352.954 172.694C353.059 178.797 354.799 184.548 357.372 189.358Z" fill="#FEDBCB"/>
<path d="M385.024 144.931C380.188 143.995 375.383 145.721 371.668 148.825C367.782 152.075 365.475 156.81 364.304 161.67C363.595 164.604 363.263 167.618 363.118 170.626C363.062 171.824 364.636 172.065 365.224 171.2C366.561 169.228 368.717 167.935 370.783 166.848C372.663 165.862 375.222 164.825 377.212 166.088C378.997 167.22 379.298 169.645 378.765 171.522C378.137 173.726 376.569 175.673 374.774 177.052C372.889 178.506 370.582 179.457 368.215 179.693C367.606 179.753 367.084 180.171 367.084 180.825C367.084 181.389 367.601 182.018 368.215 181.957C373.658 181.419 379.017 177.862 380.816 172.538C381.701 169.932 381.329 166.742 379.223 164.805C376.891 162.657 373.684 163.089 370.999 164.247C368.069 165.504 365.083 167.381 363.268 170.058C363.972 170.249 364.676 170.44 365.375 170.631C365.802 161.836 368.466 151.386 377.579 147.854C379.756 147.009 382.113 146.672 384.42 147.12C385.019 147.235 385.642 146.948 385.813 146.33C385.964 145.771 385.627 145.047 385.024 144.931Z" fill="black"/>
<path d="M263.033 111.009C268.532 114.133 274.806 115.361 281.049 115.884C287.438 116.423 293.922 116.448 300.301 115.764C312.103 114.496 323.75 110.465 332.38 102.038C336.723 97.7962 340.106 92.5635 341.846 86.722C342.263 85.3233 340.081 84.7245 339.664 86.1182C336.698 96.0755 328.726 103.794 319.563 108.267C308.519 113.66 295.772 114.481 283.688 113.806C276.977 113.429 270.101 112.423 264.174 109.057C262.908 108.332 261.767 110.289 263.033 111.009Z" fill="black"/>
<path d="M289.887 145.44C291.699 144.76 292.176 141.562 290.952 138.297C289.729 135.031 287.269 132.936 285.457 133.616C283.645 134.296 283.168 137.494 284.392 140.759C285.615 144.025 288.075 146.12 289.887 145.44Z" fill="black"/>
<path d="M320.437 140.026C322.248 139.346 322.725 136.148 321.502 132.883C320.279 129.618 317.819 127.522 316.007 128.202C314.195 128.882 313.718 132.08 314.941 135.345C316.165 138.611 318.625 140.706 320.437 140.026Z" fill="black"/>
<path d="M296.324 125.514C299.049 135.004 302.552 144.257 306.765 153.182C307.282 152.664 307.795 152.151 308.313 151.633C304.9 149.967 300.788 148.408 297.008 149.766C295.419 150.335 294.052 151.457 293.394 153.042C292.68 154.762 293.243 156.453 294.716 157.54C296.505 158.858 298.757 159.733 300.868 160.372C302.266 160.795 302.864 158.611 301.472 158.189C300.471 157.887 299.491 157.53 298.546 157.087C297.666 156.674 296.701 156.236 295.932 155.638C294.751 154.712 295.595 153.278 296.55 152.528C297.867 151.492 299.823 151.391 301.416 151.613C303.432 151.894 305.357 152.699 307.172 153.585C308.217 154.093 309.207 153.072 308.72 152.035C304.588 143.286 301.175 134.209 298.506 124.906C298.104 123.517 295.922 124.111 296.324 125.514Z" fill="black"/>
<path d="M336.829 153.364C337.111 156.599 336.784 159.985 335.919 163.286C332.928 174.767 323.524 185.197 311.329 184.553C306.674 184.312 302.789 182.772 299.335 180.513C294.218 177.172 290.036 172.262 285.663 167.643C303.618 172.272 323.85 166.621 336.829 153.364Z" fill="black"/>
<path d="M335.919 163.286C332.928 174.767 323.523 185.197 311.328 184.553C306.674 184.312 302.788 182.772 299.335 180.513C300.697 178.802 302.386 177.303 304.11 175.955C313.234 168.835 324.423 164.438 335.919 163.286Z" fill="#FF7E7E"/>
<path d="M316.913 190.37C320.613 190.707 324.418 189.696 327.474 187.582C327.977 187.235 328.203 186.591 327.881 186.033C327.59 185.535 326.841 185.278 326.333 185.625C323.568 187.542 320.266 188.408 316.913 188.106C316.305 188.05 315.782 188.664 315.782 189.238C315.782 189.897 316.305 190.314 316.913 190.37Z" fill="black"/>
<path d="M290.629 121.967C286.693 120.03 282.169 119.084 277.866 119.925C273.564 120.76 269.542 123.532 267.753 127.542C273.584 123.753 283.722 122.792 290.629 121.967Z" fill="black"/>
<path d="M308.247 116.991C311.876 114.526 316.224 112.966 320.608 113.197C324.986 113.429 329.354 115.618 331.681 119.341C325.373 116.392 315.199 116.85 308.247 116.991Z" fill="black"/>
<path d="M101.532 386.164C102.12 389.444 101.642 392.911 100.185 395.909C99.5564 397.203 98.7019 398.465 97.4252 399.13C96.1484 399.794 94.3841 399.678 93.4893 398.556C93.0218 397.972 92.8459 397.213 92.7202 396.478C92.3734 394.46 92.3181 392.392 92.5544 390.355C91.1821 394.561 89.0357 398.511 86.256 401.947C85.3462 403.074 83.6975 404.211 82.6167 403.24C82.094 402.772 81.9985 402.003 81.9633 401.298C81.7924 397.877 82.2297 394.42 83.2451 391.15C81.2445 392.815 79.8219 395.054 78.1581 397.062C76.4943 399.069 74.4183 400.936 71.8548 401.394C70.2362 401.686 68.2406 401.137 67.7128 399.582C67.3459 398.496 67.8083 397.318 68.2658 396.267C70.3518 391.472 72.4429 386.672 74.5289 381.877C84.4263 378.581 92.7655 380.493 101.532 386.164Z" fill="#A05635"/>
<path d="M147.778 391.301C141.288 394.023 134.457 395.653 128.335 395.753C122.293 395.854 116.246 394.717 110.244 393.59C86.3273 389.087 63.6824 361.972 54.9059 339.215C48.0194 321.358 47.4213 301.052 53.604 283.482C60.5659 263.703 76.0931 253.947 95.6064 249.615C115.12 245.288 137.141 251.557 151.945 266.385C165.532 279.99 172.323 299.205 176.269 318.073C178.37 328.131 179.802 338.41 179.028 348.538C178.254 358.667 175.143 368.694 168.94 376.332C163.953 382.486 156.147 387.799 147.778 391.301Z" fill="#FFD6BB"/>
<path d="M164.003 281.872C165.476 279.914 166.541 277.439 166.044 275.039C165.546 272.639 162.998 270.606 160.67 271.361C163.264 269.776 165.853 268.191 168.447 266.606C168.788 266.395 169.15 266.169 169.321 265.801C169.532 265.348 169.392 264.815 169.195 264.362C167.889 261.363 163.41 257.55 160.515 259.069C161.57 254.244 162.631 249.268 161.776 244.397C160.922 239.527 157.685 234.737 152.879 233.605C150.446 233.031 147.913 233.429 145.43 233.701C133.537 234.994 121.528 233.248 109.57 233.59C98.1543 233.917 86.7992 236.166 76.1227 240.216C69.3569 242.782 62.7871 246.118 57.3684 250.913C51.9497 255.708 46.5461 262.541 45.209 269.66C37.4479 272.408 31.8181 279.567 29.2797 287.401C26.7412 295.235 26.9473 303.708 28.0331 311.879C29.0484 319.507 30.863 327.18 34.8542 333.751C38.8453 340.327 45.0381 343.849 52.6082 345.182C56.6948 356.201 65.8483 364.463 70.6537 375.185C76.5399 372.76 82.607 369.741 88.6239 367.658C80.8879 360.996 76.1126 351.014 75.7758 340.805C75.6653 337.394 77.2386 336.77 79.2744 334.033C85.4873 325.67 87.1662 314.606 85.9748 304.257C84.7835 293.907 80.9884 284.05 77.1079 274.38C90.529 280.387 105.941 277.831 120.588 276.563C122.513 276.397 124.645 276.126 125.886 274.641C127.128 273.157 126.308 270.184 124.388 270.36C128.163 276.03 137.201 277.152 142.253 272.584C146.078 279.804 155.96 283.296 164.003 281.872Z" fill="#A05635"/>
<path d="M89.6244 378.435C83.5171 384.045 75.761 388.05 67.5123 388.845C59.2586 389.64 50.5525 386.999 44.7367 381.087C38.9209 375.175 36.4277 365.922 39.2979 358.138C45.1841 342.153 67.7184 339.396 81.0289 347.014C83.4718 348.413 85.769 350.148 87.4277 352.423C90.4789 356.594 91.0721 362.048 93.2385 366.742C92.3538 369.65 91.8663 376.382 89.6244 378.435Z" fill="#FFD6BB"/>
<path d="M76.3538 336.936C75.1525 341.208 74.7704 345.691 75.263 350.098C75.3334 350.707 75.7355 351.23 76.394 351.23C76.952 351.23 77.5954 350.712 77.525 350.098C77.0525 345.877 77.3843 341.63 78.5303 337.54C78.9325 336.131 76.7509 335.532 76.3538 336.936Z" fill="#A05635"/>
<path d="M77.5601 343.914C77.2484 347.774 77.3439 351.648 77.8415 355.482C77.922 356.086 78.304 356.614 78.9725 356.614C79.5204 356.614 80.1839 356.091 80.1035 355.482C79.6009 351.643 79.5054 347.769 79.822 343.914C79.8723 343.306 79.2691 342.782 78.691 342.782C78.0376 342.782 77.6103 343.301 77.5601 343.914Z" fill="#A05635"/>
<path d="M80.2295 349.273C80.4507 351.965 80.6718 354.662 80.898 357.353C80.9483 357.962 81.3806 358.486 82.029 358.486C82.602 358.486 83.2103 357.967 83.16 357.353C82.9388 354.662 82.7177 351.965 82.4915 349.273C82.4412 348.664 82.0089 348.141 81.3605 348.141C80.7874 348.141 80.1792 348.659 80.2295 349.273Z" fill="#A05635"/>
<path d="M118.401 301.268C113.058 300.372 107.378 300.317 102.442 302.551C97.5056 304.785 93.5195 309.716 93.6753 315.14C99.1493 309.389 110.625 302.818 118.401 301.268Z" fill="#A05635"/>
<path d="M131.054 297.011C134.261 292.639 138.297 288.639 143.389 286.792C148.481 284.951 154.774 285.706 158.439 289.701C150.517 289.404 137.709 292.699 131.054 297.011Z" fill="#A05635"/>
<path d="M118.408 324.092C120.144 323.237 120.303 320.007 118.765 316.878C117.226 313.749 114.571 311.906 112.835 312.762C111.099 313.617 110.939 316.847 112.478 319.976C114.017 323.105 116.672 324.948 118.408 324.092Z" fill="black"/>
<path d="M145.968 312.26C147.704 311.405 147.864 308.175 146.325 305.046C144.786 301.917 142.131 300.074 140.395 300.93C138.659 301.785 138.499 305.015 140.038 308.144C141.577 311.273 144.232 313.116 145.968 312.26Z" fill="black"/>
<path d="M123.398 300.785C125.369 307.14 130.817 311.356 136.07 314.979C141.067 318.425 146.933 322.103 149.245 328.035C149.381 328.382 149.627 328.75 149.396 328.951C149.019 329.278 148.541 329.53 148.124 329.806C147.149 330.455 146.174 331.109 145.198 331.758C143.248 333.062 141.293 334.36 139.342 335.663C138.136 336.468 139.267 338.43 140.484 337.62C142.298 336.413 144.108 335.205 145.922 333.997C146.792 333.419 147.667 332.835 148.536 332.257C149.366 331.703 150.346 331.2 151.065 330.496C152.512 329.067 151.301 326.913 150.517 325.439C149.727 323.96 148.717 322.596 147.601 321.348C143.092 316.307 136.864 313.353 131.823 308.941C129.088 306.551 126.675 303.713 125.585 300.191C125.152 298.797 122.966 299.386 123.398 300.785Z" fill="black"/>
<path d="M158.907 339.18C156.413 344.347 152.98 349.836 148.808 354.47C145.114 358.581 140.846 362.013 136.146 363.945C133.572 365.006 130.813 365.826 128.043 365.545C125.037 365.238 122.313 363.658 119.87 361.872C117.392 360.055 115.029 357.796 112.898 355.326C110.696 352.78 108.731 350.023 107.112 347.306C115.622 350.023 124.866 349.756 133.608 347.889C142.344 346.038 150.678 342.647 158.907 339.18Z" fill="black"/>
<path d="M148.812 354.47C145.118 358.581 140.85 362.013 136.15 363.945C133.577 365.006 130.817 365.826 128.048 365.545C125.042 365.238 122.317 363.658 119.874 361.872C117.396 360.055 115.034 357.796 112.902 355.326C119.568 353.555 126.364 352.171 133.25 352.06C138.513 351.985 143.866 352.699 148.812 354.47Z" fill="#FF7E7E"/>
<path d="M125.017 370.953C129.109 372.136 133.592 371.577 137.272 369.434C138.528 368.699 137.392 366.742 136.131 367.477C132.959 369.323 129.144 369.786 125.62 368.765C124.218 368.362 123.62 370.546 125.017 370.953Z" fill="black"/>
<path d="M52.0806 357.218C56.1673 354.923 60.5907 358.33 63.5866 360.886C67.251 364.01 70.5836 367.517 73.5393 371.321C74.0721 370.787 74.6049 370.254 75.1377 369.721C72.1972 367.371 67.6732 367.829 65.1498 370.626C62.3902 373.691 62.531 378.662 64.9789 381.867C66.4216 383.758 68.7439 385.092 71.1667 384.478C72.5742 384.121 71.981 381.932 70.5635 382.294C68.7137 382.767 67.0449 381.157 66.2356 379.663C65.3358 378.008 65.1096 375.98 65.6726 374.179C66.1853 372.533 67.4319 371.255 69.0756 370.732C70.5384 370.269 72.2927 370.33 73.5393 371.326C74.6904 372.247 76.0325 370.878 75.1377 369.726C72.6495 366.521 69.8899 363.527 66.8941 360.795C64.1093 358.259 60.9778 355.371 57.1977 354.511C55.0815 354.033 52.8547 354.194 50.9396 355.27C49.6729 355.975 50.8089 357.932 52.0806 357.218Z" fill="black"/>
<path d="M28.2393 273.318C29.5713 271.824 31.406 271.044 33.286 270.486C35.3469 269.872 37.4782 269.474 39.6396 269.57C41.6955 269.66 43.6609 270.289 45.3097 271.537C46.9433 272.775 48.21 274.46 49.3762 276.126C49.7281 276.624 50.3664 276.86 50.9244 276.533C51.417 276.247 51.6834 275.487 51.3315 274.984C49.1952 271.935 46.7272 269.006 43.0477 267.864C39.4486 266.747 35.4223 267.366 31.9137 268.543C29.9483 269.202 28.0432 270.148 26.6408 271.713C25.6707 272.8 27.2641 274.41 28.2393 273.318Z" fill="#A05635"/>
<path d="M48.5619 272.483C46.1642 269.897 45.0985 266.455 44.5456 263.039C44.249 261.208 44.1032 259.346 44.0278 257.494C43.9424 255.421 44.0128 253.318 44.626 251.321C45.189 249.489 46.2446 247.748 47.8531 246.667C49.0545 245.857 47.9235 243.894 46.7121 244.709C43.0024 247.2 41.7709 251.673 41.7407 255.93C41.7206 258.118 41.9066 260.327 42.1982 262.496C42.4595 264.453 42.8466 266.395 43.5151 268.257C44.2892 270.41 45.4001 272.397 46.9634 274.078C47.9536 275.15 49.5521 273.55 48.5619 272.483Z" fill="#A05635"/>
<path d="M151.814 239.15C156.212 238.169 159.977 241.55 161.907 245.152C162.983 247.16 163.852 249.454 164.164 251.723C164.461 253.872 164.018 256.01 163.038 257.932C161.927 260.116 160.314 261.977 158.539 263.648C157.479 264.649 159.077 266.249 160.138 265.248C163.701 261.892 166.908 257.374 166.481 252.231C166.255 249.509 165.29 246.803 164.053 244.377C162.907 242.128 161.314 240.081 159.223 238.647C156.89 237.047 153.985 236.342 151.21 236.966C149.788 237.283 150.391 239.467 151.814 239.15Z" fill="#A05635"/>
<path d="M160.228 271.562C163.466 270.249 167.341 270.737 170.03 273.026C170.498 273.424 171.171 273.484 171.629 273.026C172.036 272.619 172.096 271.824 171.629 271.426C168.361 268.649 163.636 267.753 159.625 269.379C159.057 269.61 158.66 270.133 158.836 270.772C158.987 271.311 159.66 271.794 160.228 271.562Z" fill="#A05635"/>
<path d="M51.261 260.05C53.719 255.618 56.2675 251.135 59.8465 247.502C63.4506 243.844 68.0499 241.399 72.7347 239.416C82.1244 235.447 92.4441 233.454 102.633 234.164C108.238 234.556 113.822 235.819 119 238.028C119.563 238.269 120.211 238.194 120.548 237.62C120.824 237.142 120.709 236.312 120.141 236.07C110.289 231.859 99.4512 230.923 88.9104 232.498C83.7229 233.273 78.6309 234.657 73.7501 236.574C68.7587 238.531 63.8075 240.921 59.746 244.483C55.2371 248.438 52.1809 253.721 49.3057 258.908C48.6019 260.181 50.5573 261.328 51.261 260.05Z" fill="#A05635"/>
<path d="M321.975 313.184C322.695 313.277 323.502 313.344 324.395 313.384C325.302 313.424 326.255 313.444 327.255 313.444C327.895 313.444 328.535 313.431 329.175 313.404C329.829 313.377 330.449 313.344 331.035 313.304C331.635 313.251 332.175 313.204 332.655 313.164V314.804C332.202 314.831 331.675 314.864 331.075 314.904C330.475 314.944 329.842 314.977 329.175 315.004C328.522 315.031 327.882 315.044 327.255 315.044C326.255 315.044 325.322 315.024 324.455 314.984C323.589 314.931 322.762 314.877 321.975 314.824V313.184ZM322.775 321.244C322.642 321.644 322.535 322.031 322.455 322.404C322.389 322.777 322.355 323.151 322.355 323.524C322.355 324.284 322.749 324.904 323.535 325.384C324.322 325.864 325.515 326.104 327.115 326.104C328.035 326.104 328.922 326.071 329.775 326.004C330.629 325.937 331.409 325.844 332.115 325.724C332.835 325.604 333.449 325.464 333.955 325.304L333.975 327.024C333.495 327.157 332.902 327.277 332.195 327.384C331.502 327.491 330.729 327.571 329.875 327.624C329.022 327.691 328.115 327.724 327.155 327.724C325.809 327.724 324.655 327.577 323.695 327.284C322.735 326.991 322.002 326.557 321.495 325.984C320.989 325.411 320.735 324.704 320.735 323.864C320.735 323.344 320.782 322.851 320.875 322.384C320.969 321.917 321.062 321.484 321.155 321.084L322.775 321.244ZM348.215 312.384C348.135 312.491 348.035 312.637 347.915 312.824C347.809 312.997 347.695 313.177 347.575 313.364C347.349 313.697 347.075 314.144 346.755 314.704C346.449 315.251 346.115 315.844 345.755 316.484C345.395 317.111 345.042 317.731 344.695 318.344C344.362 318.957 344.069 319.511 343.815 320.004C344.295 319.564 344.789 319.251 345.295 319.064C345.815 318.864 346.315 318.764 346.795 318.764C347.462 318.764 348.009 318.971 348.435 319.384C348.875 319.797 349.109 320.397 349.135 321.184C349.149 321.584 349.155 322.011 349.155 322.464C349.169 322.904 349.175 323.337 349.175 323.764C349.175 324.177 349.189 324.551 349.215 324.884C349.255 325.391 349.429 325.757 349.735 325.984C350.042 326.197 350.409 326.304 350.835 326.304C351.382 326.304 351.875 326.157 352.315 325.864C352.769 325.557 353.162 325.157 353.495 324.664C353.842 324.171 354.129 323.637 354.355 323.064C354.582 322.491 354.762 321.944 354.895 321.424L356.215 322.504C355.869 323.571 355.442 324.517 354.935 325.344C354.429 326.157 353.815 326.797 353.095 327.264C352.389 327.731 351.549 327.964 350.575 327.964C349.869 327.964 349.302 327.831 348.875 327.564C348.462 327.311 348.162 326.991 347.975 326.604C347.802 326.217 347.702 325.824 347.675 325.424C347.662 325.037 347.649 324.617 347.635 324.164C347.635 323.711 347.635 323.264 347.635 322.824C347.635 322.384 347.622 321.984 347.595 321.624C347.569 321.184 347.429 320.844 347.175 320.604C346.935 320.351 346.589 320.224 346.135 320.224C345.602 320.224 345.082 320.384 344.575 320.704C344.082 321.011 343.629 321.411 343.215 321.904C342.815 322.397 342.489 322.911 342.235 323.444C342.089 323.737 341.922 324.091 341.735 324.504C341.562 324.917 341.395 325.344 341.235 325.784C341.075 326.224 340.929 326.637 340.795 327.024C340.675 327.411 340.582 327.731 340.515 327.984L338.795 327.384C339.035 326.704 339.349 325.931 339.735 325.064C340.122 324.197 340.542 323.291 340.995 322.344C341.449 321.384 341.915 320.437 342.395 319.504C342.875 318.557 343.329 317.671 343.755 316.844C344.195 316.004 344.589 315.271 344.935 314.644C345.282 314.004 345.542 313.524 345.715 313.204C345.835 312.964 345.955 312.724 346.075 312.484C346.209 312.231 346.335 311.957 346.455 311.664L348.215 312.384ZM366.395 313.724C366.942 313.804 367.575 313.871 368.295 313.924C369.029 313.964 369.782 313.984 370.555 313.984C371.342 313.971 372.089 313.944 372.795 313.904C373.515 313.851 374.122 313.784 374.615 313.704V315.324C374.082 315.377 373.455 315.424 372.735 315.464C372.029 315.491 371.289 315.504 370.515 315.504C369.755 315.504 369.015 315.491 368.295 315.464C367.575 315.424 366.942 315.377 366.395 315.324V313.724ZM367.175 321.864C367.082 322.224 367.009 322.551 366.955 322.844C366.902 323.137 366.875 323.424 366.875 323.704C366.875 323.931 366.922 324.157 367.015 324.384C367.122 324.597 367.295 324.791 367.535 324.964C367.789 325.124 368.135 325.257 368.575 325.364C369.015 325.457 369.575 325.504 370.255 325.504C371.162 325.504 372.015 325.464 372.815 325.384C373.615 325.291 374.415 325.157 375.215 324.984L375.255 326.664C374.629 326.797 373.895 326.904 373.055 326.984C372.229 327.051 371.295 327.084 370.255 327.084C368.575 327.084 367.342 326.817 366.555 326.284C365.782 325.751 365.395 325.017 365.395 324.084C365.395 323.751 365.422 323.397 365.475 323.024C365.542 322.637 365.629 322.204 365.735 321.724L367.175 321.864ZM362.575 312.184C362.549 312.291 362.509 312.431 362.455 312.604C362.415 312.764 362.369 312.931 362.315 313.104C362.275 313.264 362.242 313.404 362.215 313.524C362.149 313.897 362.069 314.331 361.975 314.824C361.882 315.304 361.789 315.824 361.695 316.384C361.615 316.931 361.535 317.491 361.455 318.064C361.389 318.624 361.329 319.171 361.275 319.704C361.235 320.237 361.215 320.731 361.215 321.184C361.215 321.677 361.229 322.144 361.255 322.584C361.295 323.024 361.342 323.491 361.395 323.984C361.515 323.677 361.642 323.351 361.775 323.004C361.909 322.657 362.042 322.317 362.175 321.984C362.322 321.637 362.449 321.331 362.555 321.064L363.395 321.704C363.222 322.184 363.035 322.711 362.835 323.284C362.635 323.857 362.455 324.411 362.295 324.944C362.149 325.464 362.042 325.877 361.975 326.184C361.949 326.331 361.922 326.491 361.895 326.664C361.869 326.837 361.862 326.977 361.875 327.084C361.889 327.191 361.895 327.304 361.895 327.424C361.909 327.557 361.922 327.677 361.935 327.784L360.495 327.884C360.295 327.177 360.122 326.271 359.975 325.164C359.829 324.044 359.755 322.811 359.755 321.464C359.755 320.731 359.789 319.984 359.855 319.224C359.922 318.451 360.009 317.704 360.115 316.984C360.222 316.251 360.322 315.584 360.415 314.984C360.522 314.371 360.602 313.857 360.655 313.444C360.695 313.204 360.729 312.964 360.755 312.724C360.782 312.471 360.795 312.237 360.795 312.024L362.575 312.184ZM385.735 311.564C385.655 311.831 385.589 312.111 385.535 312.404C385.482 312.697 385.429 312.977 385.375 313.244C385.309 313.564 385.229 313.964 385.135 314.444C385.055 314.911 384.949 315.424 384.815 315.984C384.695 316.531 384.569 317.084 384.435 317.644C384.302 318.204 384.162 318.737 384.015 319.244C383.882 319.737 383.742 320.171 383.595 320.544C384.475 319.931 385.369 319.497 386.275 319.244C387.195 318.977 388.182 318.844 389.235 318.844C390.302 318.844 391.209 319.011 391.955 319.344C392.702 319.677 393.275 320.144 393.675 320.744C394.075 321.331 394.275 322.017 394.275 322.804C394.275 323.844 394.022 324.724 393.515 325.444C393.009 326.164 392.295 326.731 391.375 327.144C390.455 327.557 389.362 327.817 388.095 327.924C386.842 328.044 385.449 328.024 383.915 327.864L383.515 326.284C384.675 326.444 385.795 326.511 386.875 326.484C387.969 326.444 388.942 326.297 389.795 326.044C390.662 325.777 391.349 325.384 391.855 324.864C392.375 324.344 392.635 323.671 392.635 322.844C392.635 322.097 392.329 321.471 391.715 320.964C391.115 320.444 390.229 320.184 389.055 320.184C387.869 320.184 386.755 320.391 385.715 320.804C384.675 321.204 383.822 321.804 383.155 322.604C383.035 322.751 382.922 322.897 382.815 323.044C382.722 323.177 382.629 323.337 382.535 323.524L381.035 322.984C381.422 322.237 381.775 321.404 382.095 320.484C382.415 319.551 382.695 318.611 382.935 317.664C383.175 316.717 383.375 315.851 383.535 315.064C383.695 314.264 383.809 313.617 383.875 313.124C383.915 312.804 383.942 312.517 383.955 312.264C383.969 312.011 383.969 311.744 383.955 311.464L385.735 311.564ZM379.515 314.104C380.049 314.197 380.662 314.277 381.355 314.344C382.062 314.411 382.715 314.444 383.315 314.444C383.955 314.444 384.669 314.424 385.455 314.384C386.242 314.344 387.062 314.284 387.915 314.204C388.769 314.124 389.622 314.024 390.475 313.904C391.342 313.771 392.169 313.617 392.955 313.444L392.975 314.984C392.269 315.104 391.495 315.217 390.655 315.324C389.829 315.431 388.982 315.524 388.115 315.604C387.249 315.684 386.402 315.751 385.575 315.804C384.762 315.844 384.015 315.864 383.335 315.864C382.655 315.864 381.995 315.844 381.355 315.804C380.729 315.764 380.122 315.717 379.535 315.664L379.515 314.104ZM405.255 315.404C405.829 315.457 406.389 315.497 406.935 315.524C407.482 315.551 408.055 315.564 408.655 315.564C409.855 315.564 411.049 315.517 412.235 315.424C413.422 315.331 414.522 315.184 415.535 314.984V316.524C414.469 316.697 413.342 316.824 412.155 316.904C410.982 316.984 409.802 317.031 408.615 317.044C408.042 317.044 407.482 317.031 406.935 317.004C406.402 316.977 405.842 316.944 405.255 316.904V315.404ZM412.255 311.824C412.229 312.024 412.202 312.224 412.175 312.424C412.162 312.624 412.149 312.824 412.135 313.024C412.122 313.264 412.109 313.571 412.095 313.944C412.082 314.317 412.075 314.717 412.075 315.144C412.075 315.557 412.075 315.964 412.075 316.364C412.075 317.124 412.089 317.884 412.115 318.644C412.142 319.404 412.175 320.144 412.215 320.864C412.255 321.584 412.289 322.264 412.315 322.904C412.355 323.531 412.375 324.104 412.375 324.624C412.375 325.024 412.315 325.417 412.195 325.804C412.089 326.191 411.902 326.537 411.635 326.844C411.382 327.151 411.029 327.391 410.575 327.564C410.135 327.751 409.582 327.844 408.915 327.844C407.569 327.844 406.535 327.591 405.815 327.084C405.109 326.577 404.755 325.877 404.755 324.984C404.755 324.424 404.915 323.917 405.235 323.464C405.569 322.997 406.035 322.631 406.635 322.364C407.249 322.097 407.995 321.964 408.875 321.964C409.729 321.964 410.509 322.064 411.215 322.264C411.935 322.451 412.595 322.704 413.195 323.024C413.809 323.331 414.369 323.677 414.875 324.064C415.382 324.437 415.849 324.811 416.275 325.184L415.395 326.524C414.702 325.857 414.002 325.277 413.295 324.784C412.602 324.291 411.882 323.904 411.135 323.624C410.389 323.344 409.595 323.204 408.755 323.204C407.995 323.204 407.375 323.357 406.895 323.664C406.429 323.957 406.195 324.344 406.195 324.824C406.195 325.331 406.422 325.724 406.875 326.004C407.329 326.271 407.915 326.404 408.635 326.404C409.209 326.404 409.649 326.311 409.955 326.124C410.275 325.937 410.495 325.684 410.615 325.364C410.749 325.044 410.815 324.664 410.815 324.224C410.815 323.864 410.802 323.377 410.775 322.764C410.749 322.151 410.715 321.484 410.675 320.764C410.635 320.031 410.602 319.284 410.575 318.524C410.549 317.764 410.535 317.051 410.535 316.384C410.535 315.704 410.535 315.064 410.535 314.464C410.535 313.864 410.535 313.391 410.535 313.044C410.535 312.871 410.529 312.671 410.515 312.444C410.502 312.204 410.482 311.997 410.455 311.824H412.255ZM402.375 311.944C402.335 312.051 402.289 312.191 402.235 312.364C402.195 312.524 402.155 312.691 402.115 312.864C402.089 313.037 402.062 313.184 402.035 313.304C401.955 313.677 401.869 314.124 401.775 314.644C401.695 315.151 401.609 315.704 401.515 316.304C401.422 316.891 401.335 317.491 401.255 318.104C401.189 318.704 401.135 319.284 401.095 319.844C401.055 320.404 401.035 320.911 401.035 321.364C401.035 321.844 401.049 322.304 401.075 322.744C401.115 323.184 401.169 323.651 401.235 324.144C401.342 323.837 401.462 323.511 401.595 323.164C401.729 322.817 401.862 322.471 401.995 322.124C402.142 321.777 402.269 321.471 402.375 321.204L403.195 321.844C403.035 322.297 402.855 322.811 402.655 323.384C402.469 323.944 402.289 324.484 402.115 325.004C401.955 325.511 401.842 325.931 401.775 326.264C401.749 326.397 401.722 326.551 401.695 326.724C401.682 326.897 401.682 327.044 401.695 327.164C401.695 327.257 401.695 327.371 401.695 327.504C401.709 327.637 401.722 327.757 401.735 327.864L400.335 327.964C400.135 327.244 399.955 326.351 399.795 325.284C399.649 324.204 399.575 322.991 399.575 321.644C399.575 320.897 399.609 320.124 399.675 319.324C399.755 318.511 399.842 317.717 399.935 316.944C400.042 316.171 400.142 315.464 400.235 314.824C400.342 314.171 400.429 313.637 400.495 313.224C400.522 312.997 400.549 312.757 400.575 312.504C400.602 312.251 400.615 312.017 400.615 311.804L402.375 311.944Z" fill="black"/>
<path d="M116.721 55.405H114.961V41.655H116.721V55.405ZM122.925 41.655H124.685V55.405H122.925V41.655ZM123.277 49.333H116.369V47.881H123.277V49.333ZM132.246 55.603C131.439 55.603 130.772 55.5224 130.244 55.361C129.731 55.1997 129.327 54.9137 129.034 54.503C128.755 54.0777 128.557 53.4984 128.44 52.765C128.337 52.017 128.286 51.0637 128.286 49.905C128.286 48.4237 128.411 47.2724 128.66 46.451C128.924 45.615 129.371 45.0357 130.002 44.713C130.647 44.3757 131.542 44.207 132.686 44.207C133.815 44.207 134.688 44.3024 135.304 44.493C135.92 44.669 136.345 44.9917 136.58 45.461C136.815 45.9157 136.932 46.5684 136.932 47.419C136.932 48.1964 136.859 48.8197 136.712 49.289C136.58 49.7584 136.287 50.1104 135.832 50.345C135.377 50.565 134.695 50.7117 133.786 50.785C132.877 50.8584 131.652 50.895 130.112 50.895H129.452V49.619H133.434C134.182 49.619 134.688 49.5237 134.952 49.333C135.216 49.1424 135.348 48.783 135.348 48.255V45.747H132.004C131.271 45.747 130.772 45.8424 130.508 46.033C130.244 46.209 130.112 46.5684 130.112 47.111V53.887C130.464 53.975 130.831 54.0484 131.212 54.107C131.608 54.151 132.077 54.173 132.62 54.173C133.207 54.173 133.779 54.1364 134.336 54.063C134.893 53.975 135.583 53.8357 136.404 53.645L136.646 54.965C136.147 55.1557 135.495 55.3097 134.688 55.427C133.896 55.5444 133.082 55.603 132.246 55.603ZM142.391 54.085C142.509 54.0997 142.655 54.1144 142.831 54.129C143.022 54.1437 143.205 54.1584 143.381 54.173L143.271 55.383C143.007 55.4564 142.78 55.5077 142.589 55.537C142.399 55.581 142.208 55.603 142.017 55.603C141.548 55.603 141.196 55.4784 140.961 55.229C140.741 54.9797 140.631 54.6057 140.631 54.107V41.105L142.391 40.775V54.085ZM148.192 54.085C148.31 54.0997 148.456 54.1144 148.632 54.129C148.823 54.1437 149.006 54.1584 149.182 54.173L149.072 55.383C148.808 55.4564 148.581 55.5077 148.39 55.537C148.2 55.581 148.009 55.603 147.818 55.603C147.349 55.603 146.997 55.4784 146.762 55.229C146.542 54.9797 146.432 54.6057 146.432 54.107V41.105L148.192 40.775V54.085ZM156.237 55.603C155.284 55.603 154.506 55.5297 153.905 55.383C153.318 55.2217 152.856 54.9357 152.519 54.525C152.196 54.1144 151.969 53.535 151.837 52.787C151.72 52.039 151.661 51.0784 151.661 49.905C151.661 48.7317 151.72 47.771 151.837 47.023C151.969 46.275 152.196 45.6957 152.519 45.285C152.856 44.8744 153.318 44.5957 153.905 44.449C154.506 44.2877 155.284 44.207 156.237 44.207C157.19 44.207 157.968 44.2877 158.569 44.449C159.17 44.5957 159.632 44.8744 159.955 45.285C160.278 45.6957 160.498 46.275 160.615 47.023C160.732 47.7564 160.791 48.717 160.791 49.905C160.791 51.0784 160.725 52.039 160.593 52.787C160.476 53.535 160.256 54.1144 159.933 54.525C159.61 54.9357 159.148 55.2217 158.547 55.383C157.946 55.5297 157.176 55.603 156.237 55.603ZM153.465 54.107H157.887C158.327 54.107 158.62 54.0704 158.767 53.997C158.914 53.9237 158.987 53.777 158.987 53.557V45.703H154.565C154.125 45.703 153.832 45.7397 153.685 45.813C153.538 45.8864 153.465 46.033 153.465 46.253V54.107ZM171.788 55.405L169.104 44.405H170.6L172.844 53.931H173.064L175.352 44.405H177.112L174.274 55.405H171.788ZM165.21 55.405L162.394 44.405H164.132L166.442 53.931H166.662L168.906 44.405H170.38L167.696 55.405H165.21Z" fill="black"/>
</g>
<defs>
<clipPath id="clip0_599_3158">
<rect width="521" height="424" fill="white"/>
</clipPath>
</defs>
</svg>
